<?xml version="1.0" encoding="UTF-8"?>
<svg width="48px" height="48px" viewBox="0 0 48 48" version="1.1" xmlns="http://www.w3.org/2000/svg" xmlns:xlink="http://www.w3.org/1999/xlink">
    <title>IC_Booking</title>
    <g id="Case-Form" stroke="none" stroke-width="1" fill="none" fill-rule="evenodd">
        <g id="IC_Booking" transform="translate(0.000000, -0.000000)">
            <rect id="Rectangle" stroke="#0A64E0" fill="#E9F2FF" x="0.5" y="0.5" width="47" height="47" rx="4"></rect>
            <path d="M24.3659091,30.7636364 C25.4113636,30.7636364 26.2909091,30.5954545 27.0045455,30.2590909 C27.7181818,29.9227273 28.2579545,29.4647727 28.6238636,28.8852273 C28.9897727,28.3056818 29.1727273,27.6454545 29.1727273,26.9045455 C29.1727273,26.2181818 29.0272727,25.6261364 28.7363636,25.1284091 C28.4454545,24.6306818 28.0670455,24.2431818 27.6011364,23.9659091 C27.1352273,23.6886364 26.6363636,23.5386364 26.1045455,23.5159091 L26.1045455,23.5159091 L26.1045455,23.3795455 C26.5909091,23.2704545 27.0238636,23.0852273 27.4034091,22.8238636 C27.7829545,22.5625 28.0818182,22.2261364 28.3,21.8147727 C28.5181818,21.4034091 28.6272727,20.925 28.6272727,20.3795455 C28.6272727,19.6795455 28.4545455,19.0602273 28.1090909,18.5215909 C27.7636364,17.9829545 27.2477273,17.5613636 26.5613636,17.2568182 C25.875,16.9522727 25.0181818,16.8 23.9909091,16.8 L23.9909091,16.8 L18.4,16.8 L18.4,30.7636364 L24.3659091,30.7636364 Z M23.5409091,22.6431818 L21.3522727,22.6431818 L21.3522727,19.1863636 L23.5954545,19.1863636 C24.25,19.1863636 24.7556818,19.3409091 25.1125,19.65 C25.4693182,19.9590909 25.6477273,20.3659091 25.6477273,20.8704545 C25.6477273,21.2386364 25.5556818,21.5545455 25.3715909,21.8181818 C25.1875,22.0818182 24.9375,22.2852273 24.6215909,22.4284091 C24.3056818,22.5715909 23.9454545,22.6431818 23.5409091,22.6431818 L23.5409091,22.6431818 Z M23.7590909,28.35 L21.3522727,28.35 L21.3522727,24.6409091 L23.8272727,24.6409091 C24.3,24.6409091 24.7079545,24.725 25.0511364,24.8931818 C25.3943182,25.0613636 25.6590909,25.2931818 25.8454545,25.5886364 C26.0318182,25.8840909 26.125,26.225 26.125,26.6113636 C26.125,27.1386364 25.9363636,27.5602273 25.5590909,27.8761364 C25.1818182,28.1920455 24.5818182,28.35 23.7590909,28.35 L23.7590909,28.35 Z" id="B" fill="#0A64E0" fill-rule="nonzero"></path>
        </g>
    </g>
</svg>