<?xml version="1.0" encoding="UTF-8"?>
<svg width="48px" height="48px" viewBox="0 0 48 48" version="1.1" xmlns="http://www.w3.org/2000/svg" xmlns:xlink="http://www.w3.org/1999/xlink">
    <title>IC_Checkin</title>
    <g id="Case-Form" stroke="none" stroke-width="1" fill="none" fill-rule="evenodd">
        <g id="IC_Checkin" transform="translate(0.000000, -0.000000)">
            <rect id="Rectangle" stroke="#E0400A" fill="#FFF6F4" x="0.5" y="0.5" width="47" height="47" rx="4"></rect>
            <path d="M24.1045455,31.1454545 C25,31.1454545 25.8034091,31.0102273 26.5147727,30.7397727 C27.2261364,30.4693182 27.8397727,30.1011364 28.3556818,29.6352273 C28.8715909,29.1693182 29.2829545,28.6397727 29.5897727,28.0465909 C29.8965909,27.4534091 30.0886364,26.8363636 30.1659091,26.1954545 L30.1659091,26.1954545 L27.1795455,26.1818182 C27.1113636,26.5545455 26.9897727,26.8863636 26.8147727,27.1772727 C26.6397727,27.4681818 26.4204545,27.7147727 26.1568182,27.9170455 C25.8931818,28.1193182 25.5920455,28.2727273 25.2534091,28.3772727 C24.9147727,28.4818182 24.5477273,28.5340909 24.1522727,28.5340909 C23.4477273,28.5340909 22.8272727,28.3613636 22.2909091,28.0159091 C21.7545455,27.6704545 21.3375,27.1590909 21.0397727,26.4818182 C20.7420455,25.8045455 20.5931818,24.9681818 20.5931818,23.9727273 C20.5931818,23.0045455 20.7409091,22.1806818 21.0363636,21.5011364 C21.3318182,20.8215909 21.7477273,20.3034091 22.2840909,19.9465909 C22.8204545,19.5897727 23.45,19.4113636 24.1727273,19.4113636 C24.5727273,19.4113636 24.9443182,19.4681818 25.2875,19.5818182 C25.6306818,19.6954545 25.9340909,19.8590909 26.1977273,20.0727273 C26.4613636,20.2863636 26.6772727,20.5443182 26.8454545,20.8465909 C27.0136364,21.1488636 27.125,21.4931818 27.1795455,21.8795455 L27.1795455,21.8795455 L30.1659091,21.8795455 C30.0704545,21.0704545 29.8534091,20.3522727 29.5147727,19.725 C29.1761364,19.0977273 28.7386364,18.5670455 28.2022727,18.1329545 C27.6659091,17.6988636 27.0511364,17.3681818 26.3579545,17.1409091 C25.6647727,16.9136364 24.9136364,16.8 24.1045455,16.8 C22.8772727,16.8 21.7727273,17.0806818 20.7909091,17.6420455 C19.8090909,18.2034091 19.0318182,19.0181818 18.4590909,20.0863636 C17.8863636,21.1545455 17.6,22.45 17.6,23.9727273 C17.6,25.4909091 17.8829545,26.7840909 18.4488636,27.8522727 C19.0147727,28.9204545 19.7875,29.7363636 20.7670455,30.3 C21.7465909,30.8636364 22.8590909,31.1454545 24.1045455,31.1454545 Z" id="C" fill="#E0400A" fill-rule="nonzero"></path>
        </g>
    </g>
</svg>