<?xml version="1.0" encoding="UTF-8"?>
<svg width="60px" height="60px" viewBox="0 0 60 60" version="1.1" xmlns="http://www.w3.org/2000/svg" xmlns:xlink="http://www.w3.org/1999/xlink">
    <title>ic_consitent</title>
    <g id="Case-Form" stroke="none" stroke-width="1" fill="none" fill-rule="evenodd">
        <g id="HD-SÃISON-1" transform="translate(-330.000000, -5581.000000)">
            <g id="ic_consitent" transform="translate(330.000000, 5581.000000)">
                <rect id="Rectangle" x="0" y="0" width="60" height="60"></rect>
                <g id="link-72" transform="translate(14.000000, 14.000000)" stroke="#FFFFFF" stroke-linecap="square" stroke-width="2">
                    <path d="M18.5581395,14 L18.5581395,14 C21.8139535,17.1578947 21.8139535,22.0526316 18.5581395,25.2105263 L14,29.6315789 C10.744186,32.7894737 5.69767442,32.7894737 2.44186047,29.6315789 L2.44186047,29.6315789 C-0.813953488,26.4736842 -0.813953488,21.5789474 2.44186047,18.4210526 L6.51162791,14.6315789" id="Path"></path>
                    <path d="M13.4418605,18 L13.4418605,18 C10.1860465,14.8421053 10.1860465,9.94736842 13.4418605,6.78947368 L18,2.36842105 C21.255814,-0.789473684 26.3023256,-0.789473684 29.5581395,2.36842105 L29.5581395,2.36842105 C32.8139535,5.52631579 32.8139535,10.4210526 29.5581395,13.5789474 L25.4883721,17.3684211" id="Path"></path>
                </g>
            </g>
        </g>
    </g>
</svg>