<?xml version="1.0" encoding="UTF-8"?>
<svg width="60px" height="60px" viewBox="0 0 60 60" version="1.1" xmlns="http://www.w3.org/2000/svg" xmlns:xlink="http://www.w3.org/1999/xlink">
    <title>ic_gifftcard</title>
    <g id="Case-Form" stroke="none" stroke-width="1" fill="none" fill-rule="evenodd">
        <g id="HD-SÃISON-1" transform="translate(-107.000000, -3584.000000)">
            <g id="Group-21" transform="translate(107.000000, 3221.000000)">
                <g id="Card" transform="translate(0.000000, 161.000000)">
                    <g id="ic_gifftcard" transform="translate(0.000000, 202.000000)">
                        <rect id="Boundingbox" fill="#FFFFFF" x="0" y="0" width="60" height="60" rx="30"></rect>
                        <g id="IC_GiftCard" transform="translate(12.000000, 17.000000)" fill-rule="nonzero">
                            <rect id="Rectangle" fill="#FFFFFF" x="1" y="1" width="34" height="11"></rect>
                            <g id="gift-card-(2)">
                                <path d="M32.3090059,25 L3.69090525,25 C2.06671319,25 0.75,24.3428268 0.75,23.5321904 L0.75,13.2325154 C0.75,12.4218791 2.06671319,11.7647059 3.69090525,11.7647059 L32.3090948,11.7647059 C33.9332868,11.7647059 35.25,12.4218791 35.25,13.2325154 L35.25,23.5321904 C35.25,24.3428268 33.933198,25 32.3090059,25 Z" id="Path" fill="#0091FF"></path>
                                <g id="Group" transform="translate(17.250000, 12.500000)" fill="#FFFFFF">
                                    <polygon id="Path" points="6.99453641 0.396462982 11.2785291 8.07373228 11.9006177 5.72960826 14.2257888 6.35860801 10.9065764 0.396462982"></polygon>
                                    <polygon id="Path" points="6.6900983 0 2.97147088 6.49213362 2.34938228 4.14793991 0.0242111651 4.77693965 2.19055704 0.906440162"></polygon>
                                </g>
                                <path d="M24.9166666,12.5 L24.5833334,12.5 C23.8469355,12.5 23.25,11.8506377 23.25,11.0495646 L23.25,9.53867074 C23.25,8.73759757 23.8469355,8.08823529 24.5833334,8.08823529 L24.9166666,8.08823529 C25.6530645,8.08823529 26.25,8.73759757 26.25,9.53867074 L26.25,11.0495646 C26.25,11.8506377 25.6530645,12.5 24.9166666,12.5 Z" id="Path" fill="#FFFFFF"></path>
                                <g id="Group" transform="translate(17.250000, 6.617647)" fill="#FA6400">
                                    <path d="M6.17816038,1.93027836 L2.12625,0.156446954 C1.16242925,-0.265493698 0.0532075471,0.386948529 0.0532075471,1.37578782 L0.0532075471,5.97557773 C0.0532075471,6.96441701 1.16242925,7.61685926 2.12625,7.1949186 L6.17816038,5.42108718" id="Path"></path>
                                    <path d="M8.8218396,5.42108718 L12.87375,7.1949186 C13.8375707,7.61685926 14.9467925,6.96441701 14.9467925,5.97557773 L14.9467925,1.37578782 C14.9467925,0.386948529 13.8375707,-0.265493698 12.87375,0.156446954 L8.8218396,1.93027836" id="Path"></path>
                                </g>
                                <path d="M32.484375,0 L3.515625,0 C1.57710938,0 0,1.54052198 0,3.43406593 L0,21.565934 C0,23.459478 1.57710938,25 3.515625,25 L14.4140625,25 C14.8023984,25 15.1171875,24.6925137 15.1171875,24.3131868 C15.1171875,23.9338599 14.8023984,23.6263736 14.4140625,23.6263736 L3.515625,23.6263736 C2.35251562,23.6263736 1.40625,22.7020604 1.40625,21.565934 L1.40625,13.1868132 L16.6878985,13.1868132 C16.8006094,13.7442307 17.140289,14.2354396 17.6440781,14.5474588 C17.8081172,14.6490385 17.9826329,14.7262363 18.1624921,14.7806318 L16.9245703,16.8601649 C16.7813438,17.1006868 16.8008906,17.4018544 16.974,17.6228022 C17.1471094,17.84375 17.4396094,17.9407967 17.7146719,17.86875 L19.398375,17.4273351 L19.8488671,19.0723214 C19.9223437,19.340728 20.154164,19.5394231 20.4361875,19.5757555 C20.4670547,19.579739 20.4977812,19.5816621 20.5283672,19.5816621 C20.7771328,19.5816621 21.0104296,19.4525412 21.1370625,19.2382555 L24.34275,13.8146291 L28.3589297,20.7894918 C28.4845078,21.0075549 28.719914,21.1396291 28.9715625,21.1396291 C29.0008125,21.1396291 29.0302031,21.1378434 29.0597344,21.1342033 C29.343375,21.0992445 29.5770937,20.9000687 29.6509922,20.6302885 L30.1015547,18.9852335 L31.7852578,19.4266484 C32.0590547,19.4983516 32.3502188,19.4026099 32.5236796,19.1835165 C32.6971406,18.9644918 32.7189375,18.6651786 32.5790859,18.4243132 L30.5114063,14.8651786 C30.5767265,14.8710851 30.6421875,14.8747253 30.7076484,14.8747253 C31.1073047,14.8747253 31.5049219,14.7646978 31.8559219,14.5473901 C32.359711,14.2354396 32.699461,13.7441621 32.8121015,13.1867445 L34.59375,13.1867445 L34.59375,21.5658654 C34.59375,22.7019918 33.6474844,23.6263049 32.484375,23.6263049 L25.453125,23.6263049 L25.453125,19.9175137 C25.453125,19.5381868 25.1383359,19.2307005 24.75,19.2307005 C24.3616641,19.2307005 24.046875,19.5381868 24.046875,19.9175137 L24.046875,23.6263049 L14.4140625,23.6263049 C14.0257265,23.6263049 13.7109375,23.9337912 13.7109375,24.3131182 C13.7109375,24.6924451 14.0257265,25 14.4140625,25 L32.484375,25 C34.4228906,25 36,23.4594093 36,21.5658654 L36,3.43406593 C36,1.54052198 34.4228906,0 32.484375,0 Z M25.676789,9.62280221 L25.676789,11.0920329 C25.676789,11.4910714 25.3444219,11.8156593 24.9359062,11.8156593 L24.5749219,11.8156593 C24.1664062,11.8156593 23.8340391,11.4910027 23.8340391,11.0920329 L23.8340391,9.62280221 C23.8340391,9.22376375 24.1664062,8.89917581 24.5749219,8.89917581 L24.9359062,8.89917581 C25.3444219,8.89917581 25.676789,9.22376375 25.676789,9.62280221 Z M1.40625,3.43406593 C1.40625,2.29793956 2.35251563,1.37362637 3.515625,1.37362637 L24.046875,1.37362637 L24.046875,7.2573489 C24.046875,7.37094779 24.0755625,7.47774728 24.1255547,7.57211537 C23.9001328,7.61923074 23.6879297,7.7010989 23.4946406,7.81146978 L19.7098594,6.06717033 C19.0409063,5.75892857 18.2687344,5.80583791 17.6441484,6.19258242 C17.0195625,6.57932693 16.646625,7.2415522 16.646625,7.96394228 L16.646625,11.8131868 L1.40625,11.8131868 L1.40625,3.43406593 Z M18.0528047,7.96401096 C18.0528047,7.71098904 18.1782422,7.48825551 18.3969844,7.35281593 C18.6157265,7.21730769 18.8755312,7.20157967 19.1097421,7.30954671 L22.5595546,8.89945051 C22.4744062,9.12506868 22.4278594,9.36875 22.4278594,9.62287088 L22.4278594,11.0920329 C22.4278594,11.3542582 22.4777812,11.6051511 22.5682031,11.8366758 L19.1098125,13.4304945 C18.8756016,13.5383242 18.6158672,13.5226649 18.3970547,13.3872253 C18.1783125,13.2517857 18.052875,13.0290522 18.052875,12.7760302 L18.052875,7.96401096 L18.0528047,7.96401096 L18.0528047,7.96401096 Z M20.7684844,17.1146291 L20.5750547,16.4083104 C20.5268204,16.2322802 20.4089766,16.0820742 20.2473985,15.9910027 C20.0858203,15.899794 19.8937969,15.875206 19.713586,15.9224588 L18.9978046,16.1100962 L19.9076485,14.5816621 L23.1484219,13.0881182 L20.7684844,17.1146291 Z M29.7864141,17.4803571 C29.6062031,17.4331044 29.4141797,17.4578297 29.2526016,17.5489011 C29.0910235,17.6400412 28.9731094,17.7901786 28.9249453,17.9662088 L28.7385469,18.6467033 L25.5461485,13.1024725 C25.7009766,13.0575549 25.8484922,12.9960165 25.9866562,12.9199176 L28.4144062,14.0388049 L30.5265234,17.6743818 L29.7864141,17.4803571 Z M31.4471954,12.7760989 C31.4471954,13.0290522 31.3217578,13.2518544 31.1030156,13.387294 C30.8842031,13.5228022 30.6244688,13.5385302 30.3902579,13.4305632 L26.9410078,11.840934 C27.0324141,11.6081731 27.0830391,11.3558379 27.0830391,11.0920329 L27.0830391,9.62280221 C27.0830391,9.36710162 27.0357891,9.12197801 26.9496563,8.89519228 L30.3902579,7.30954671 C30.6245391,7.20164835 30.8842031,7.21737637 31.1030156,7.35281593 C31.3217578,7.48825551 31.4471954,7.71105772 31.4471954,7.96401096 L31.4471954,12.7760989 L31.4471954,12.7760989 Z M32.8534454,11.8131868 L32.8534454,7.96401096 C32.8534454,7.24162088 32.4805079,6.5793956 31.8559219,6.1926511 C31.2312656,5.8059066 30.4590235,5.75906593 29.7902109,6.06723901 L26.0114063,7.8087225 C25.8166406,7.69814559 25.6028203,7.6162775 25.3756406,7.56991757 C25.4248594,7.4760989 25.4531953,7.37005493 25.4531953,7.2573489 L25.4531953,1.37362637 L32.4844454,1.37362637 C33.6475547,1.37362637 34.5938204,2.29793956 34.5938204,3.43406593 L34.5938204,11.8131868 L32.8534454,11.8131868 Z" id="Shape" fill="#2D2D2D"></path>
                                <path d="M15.0335821,19.1176471 L4.46641791,19.1176471 C4.0707403,19.1176471 3.75,19.4468382 3.75,19.8529412 C3.75,20.2590441 4.0707403,20.5882353 4.46641791,20.5882353 L15.0335821,20.5882353 C15.4292597,20.5882353 15.75,20.2590441 15.75,19.8529412 C15.75,19.4468382 15.4292597,19.1176471 15.0335821,19.1176471 Z" id="Path" fill="#FFFFFF"></path>
                                <path d="M15.0335821,3.67647059 L4.46641791,3.67647059 C4.0707403,3.67647059 3.75,4.00566176 3.75,4.41176471 C3.75,4.81786765 4.0707403,5.14705882 4.46641791,5.14705882 L15.0335821,5.14705882 C15.4292597,5.14705882 15.75,4.81786765 15.75,4.41176471 C15.75,4.00566176 15.4292597,3.67647059 15.0335821,3.67647059 Z" id="Path" fill="#FA6400"></path>
                                <path d="M9.01829265,7.35294118 L4.48170732,7.35294118 C4.07758537,7.35294118 3.75,7.68213235 3.75,8.08823529 C3.75,8.49433824 4.07758537,8.82352941 4.48170732,8.82352941 L9.01829265,8.82352941 C9.42241463,8.82352941 9.75,8.49433824 9.75,8.08823529 C9.75,7.68213235 9.42241463,7.35294118 9.01829265,7.35294118 Z" id="Path" fill="#FA6400"></path>
                                <path d="M11.25,7.35294118 C11.052,7.35294118 10.85925,7.43161765 10.71975,7.56838235 C10.58025,7.70514706 10.5,7.89485294 10.5,8.08823529 C10.5,8.28161765 10.58025,8.47132353 10.71975,8.60808824 C10.85925,8.74485294 11.052,8.82352941 11.25,8.82352941 C11.44725,8.82352941 11.64075,8.74485294 11.78025,8.60808824 C11.91975,8.47132353 12,8.28161765 12,8.08823529 C12,7.89485294 11.91975,7.70514706 11.78025,7.56838235 C11.64075,7.43161765 11.44725,7.35294118 11.25,7.35294118 Z" id="Path" fill="#FA6400"></path>
                            </g>
                        </g>
                    </g>
                </g>
            </g>
        </g>
    </g>
</svg>