<?xml version="1.0" encoding="UTF-8"?>
<svg width="48px" height="48px" viewBox="0 0 48 48" version="1.1" xmlns="http://www.w3.org/2000/svg" xmlns:xlink="http://www.w3.org/1999/xlink">
    <title>IC_Management</title>
    <g id="Case-Form" stroke="none" stroke-width="1" fill="none" fill-rule="evenodd">
        <g id="IC_Management" transform="translate(0.000000, 0.000000)">
            <rect id="Rectangle" stroke="#3400FF" fill="#F8F6FF" x="0.5" y="0.5" width="47" height="47" rx="4"></rect>
            <path d="M24.1386364,31.1454545 C25.3704545,31.1454545 26.4806818,30.8647727 27.4693182,30.3034091 C28.4579545,29.7420455 29.2397727,28.9272727 29.8147727,27.8590909 C30.3897727,26.7909091 30.6772727,25.4954545 30.6772727,23.9727273 C30.6772727,22.45 30.3897727,21.1545455 29.8147727,20.0863636 C29.2397727,19.0181818 28.4579545,18.2034091 27.4693182,17.6420455 C26.4806818,17.0806818 25.3704545,16.8 24.1386364,16.8 C22.8977273,16.8 21.7840909,17.0806818 20.7977273,17.6420455 C19.8113636,18.2034091 19.0318182,19.0181818 18.4590909,20.0863636 C17.8863636,21.1545455 17.6,22.45 17.6,23.9727273 C17.6,25.4909091 17.8863636,26.7840909 18.4590909,27.8522727 C19.0318182,28.9204545 19.8113636,29.7363636 20.7977273,30.3 C21.7840909,30.8636364 22.8977273,31.1454545 24.1386364,31.1454545 Z M24.1386364,28.5340909 C23.425,28.5340909 22.8022727,28.3590909 22.2704545,28.0090909 C21.7386364,27.6590909 21.3261364,27.1454545 21.0329545,26.4681818 C20.7397727,25.7909091 20.5931818,24.9590909 20.5931818,23.9727273 C20.5931818,22.9863636 20.7397727,22.1545455 21.0329545,21.4772727 C21.3261364,20.8 21.7386364,20.2863636 22.2704545,19.9363636 C22.8022727,19.5863636 23.425,19.4113636 24.1386364,19.4113636 C24.8522727,19.4113636 25.475,19.5863636 26.0068182,19.9363636 C26.5386364,20.2863636 26.9511364,20.8 27.2443182,21.4772727 C27.5375,22.1545455 27.6840909,22.9863636 27.6840909,23.9727273 C27.6840909,24.9590909 27.5375,25.7909091 27.2443182,26.4681818 C26.9511364,27.1454545 26.5386364,27.6590909 26.0068182,28.0090909 C25.475,28.3590909 24.8522727,28.5340909 24.1386364,28.5340909 Z" id="O" fill="#3400FF" fill-rule="nonzero"></path>
        </g>
    </g>
</svg>