<?xml version="1.0" encoding="UTF-8"?>
<svg width="48px" height="48px" viewBox="0 0 48 48" version="1.1" xmlns="http://www.w3.org/2000/svg" xmlns:xlink="http://www.w3.org/1999/xlink">
    <title>IC_POS</title>
    <g id="Case-Form" stroke="none" stroke-width="1" fill="none" fill-rule="evenodd">
        <g id="IC_POS" transform="translate(0.000000, -0.000000)">
            <rect id="Rectangle" stroke="#FAB01A" fill="#FFF8EA" x="0.5" y="0.5" width="47" height="47" rx="4"></rect>
            <path d="M21.3522727,30.7636364 L21.3517455,26.2364364 L23.8340909,26.2363636 C24.8092975,26.2363636 25.6539632,26.0729527 26.3680879,25.7461307 L26.5784091,25.6431818 C27.3352273,25.2477273 27.9136364,24.6954545 28.3136364,23.9863636 C28.7136364,23.2772727 28.9136364,22.4590909 28.9136364,21.5318182 C28.9136364,20.6045455 28.7170455,19.7852273 28.3238636,19.0738636 C27.9306818,18.3625 27.3613636,17.8056818 26.6159091,17.4034091 C25.8704545,17.0011364 24.9681818,16.8 23.9090909,16.8 L23.9090909,16.8 L18.4,16.8 L18.4,30.7636364 L21.3522727,30.7636364 Z M21.3522727,19.2136364 L23.3431818,19.2136364 C23.9159091,19.2136364 24.3886364,19.3102273 24.7613636,19.5034091 C25.1340909,19.6965909 25.4125,19.9670455 25.5965909,20.3147727 C25.7806818,20.6625 25.8727273,21.0681818 25.8727273,21.5318182 C25.8727273,21.9909091 25.7806818,22.3965909 25.5965909,22.7488636 C25.4125,23.1011364 25.1352273,23.3761364 24.7647727,23.5738636 C24.3943182,23.7715909 23.925,23.8704545 23.3568182,23.8704545 L23.3568182,23.8704545 L21.3517455,23.8708364 L21.3522727,19.2136364 Z" id="P" fill="#FAB01A" fill-rule="nonzero"></path>
        </g>
    </g>
</svg>