<?xml version="1.0" encoding="UTF-8"?>
<svg width="60px" height="60px" viewBox="0 0 60 60" version="1.1" xmlns="http://www.w3.org/2000/svg" xmlns:xlink="http://www.w3.org/1999/xlink">
    <title>ic_qrcode</title>
    <g id="Case-Form" stroke="none" stroke-width="1" fill="none" fill-rule="evenodd">
        <g id="ic_qrcode">
            <rect id="Rectangle" x="0" y="0" width="60" height="60"></rect>
            <g id="barcode-qr" transform="translate(14.000000, 14.000000)" stroke="#393939" stroke-linecap="square" stroke-width="2">
                <polygon id="Path" points="13.0909091 13.0909091 0 13.0909091 0 0 13.0909091 0 13.0909091 0"></polygon>
                <polygon id="Path" points="32 13.0909091 18.9090909 13.0909091 18.9090909 0 18.9090909 0 32 0"></polygon>
                <polygon id="Path" points="13.0909091 32 0 32 0 18.9090909 13.0909091 18.9090909 13.0909091 18.9090909"></polygon>
                <polyline id="Path" points="32 26.1818182 32 18.9090909 26.1818182 18.9090909 26.1818182 23.2727273 20.3636364 23.2727273 20.3636364 18.9090909"></polyline>
                <polyline id="Path" points="32 32 20.3636364 32 20.3636364 29.0909091"></polyline>
                <polygon id="Path" points="7.27272727 7.27272727 5.81818182 7.27272727 5.81818182 5.81818182 7.27272727 5.81818182"></polygon>
                <polygon id="Path" points="26.1818182 7.27272727 24.7272727 7.27272727 24.7272727 7.27272727 24.7272727 5.81818182 26.1818182 5.81818182"></polygon>
                <polygon id="Path" points="7.27272727 26.1818182 5.81818182 26.1818182 5.81818182 24.7272727 7.27272727 24.7272727"></polygon>
            </g>
        </g>
    </g>
</svg>