<?xml version="1.0" encoding="UTF-8"?>
<svg width="48px" height="48px" viewBox="0 0 48 48" version="1.1" xmlns="http://www.w3.org/2000/svg" xmlns:xlink="http://www.w3.org/1999/xlink">
    <title>IC_Review</title>
    <g id="Case-Form" stroke="none" stroke-width="1" fill="none" fill-rule="evenodd">
        <g id="IC_Review" transform="translate(0.000000, -0.000000)">
            <rect id="Rectangle" stroke="#FC00FF" fill="#FFF3FF" x="0.5" y="0.5" width="47" height="47" rx="4"></rect>
            <path d="M21.3522727,30.7636364 L21.3519636,25.8140364 L23.5071636,25.8140364 L26.1522727,30.7636364 L29.4113636,30.7636364 L26.4487636,25.3396364 L26.5784091,25.2818182 C27.2664256,24.9595041 27.8069966,24.5085274 28.2001221,23.9288881 L28.3136364,23.7511364 C28.7136364,23.0852273 28.9136364,22.2886364 28.9136364,21.3613636 C28.9136364,20.4386364 28.7170455,19.6352273 28.3238636,18.9511364 C27.9306818,18.2670455 27.3602273,17.7375 26.6125,17.3625 C25.8647727,16.9875 24.9636364,16.8 23.9090909,16.8 L23.9090909,16.8 L18.4,16.8 L18.4,30.7636364 L21.3522727,30.7636364 Z M21.3522727,19.2136364 L23.3431818,19.2136364 C23.9113636,19.2136364 24.3829545,19.2965909 24.7579545,19.4625 C25.1329545,19.6284091 25.4125,19.8704545 25.5965909,20.1886364 C25.7806818,20.5068182 25.8727273,20.8977273 25.8727273,21.3613636 C25.8727273,21.8204545 25.7806818,22.2045455 25.5965909,22.5136364 C25.4125,22.8227273 25.1340909,23.0545455 24.7613636,23.2090909 C24.3886364,23.3636364 23.9204545,23.4409091 23.3568182,23.4409091 L23.3568182,23.4409091 L21.3519636,23.4412364 L21.3522727,19.2136364 Z" id="R" fill="#FC00FF" fill-rule="nonzero"></path>
        </g>
    </g>
</svg>