<?xml version="1.0" encoding="UTF-8"?>
<svg width="60px" height="60px" viewBox="0 0 60 60" version="1.1" xmlns="http://www.w3.org/2000/svg" xmlns:xlink="http://www.w3.org/1999/xlink">
    <title>ic_spin</title>
    <g id="Case-Form" stroke="none" stroke-width="1" fill="none" fill-rule="evenodd">
        <g id="HD-SÃISON-1" transform="translate(-107.000000, -3382.000000)">
            <g id="Group-21" transform="translate(107.000000, 3221.000000)">
                <g id="Card" transform="translate(0.000000, 161.000000)">
                    <g id="ic_spin" transform="translate(0.000000, 0.000000)">
                        <rect id="Boundingbox" fill="#FFFFFF" x="0" y="0" width="60" height="60" rx="30"></rect>
                        <g id="IC_Spin" transform="translate(12.000000, 12.000000)" fill-rule="nonzero">
                            <circle id="Oval" stroke="#FA6400" stroke-width="2" fill="#FFFFFF" cx="18" cy="18" r="18"></circle>
                            <circle id="Oval" fill="#0074E4" cx="18" cy="18" r="16"></circle>
                            <g id="wheel" transform="translate(3.000000, 3.000000)">
                                <path d="M14.5,0 C6.50465561,0 0,6.50465561 0,14.5 C0,22.4953444 6.50465561,29 14.5,29 C22.4953444,29 29,22.4953444 29,14.5 C29,6.50465561 22.4953444,0 14.5,0 Z" id="Path" fill="#0074E4"></path>
                                <g id="Group-2" transform="translate(1.834395, 1.834395)">
                                    <path d="M24.5292414,11.3474232 L16.0224211,11.3474232 C15.9504338,11.1303847 15.8558679,10.9223136 15.7413626,10.7255023 L21.7534042,5.19590806 C23.2958536,6.89506556 24.3014037,9.01960241 24.5292414,11.3474232 Z" id="Path" fill="#FA6400"></path>
                                    <path d="M13.9837868,0.801968666 C16.3116077,1.02973305 18.4362119,2.03528314 20.135302,3.57780592 L14.6057077,9.58984742 C14.4088965,9.47526886 14.2008254,9.38077632 13.9837868,9.308789 L13.9837868,0.801968666 Z" id="Path" fill="#FFFFFF"></path>
                                    <path d="M11.3474232,0.801968666 L11.3474232,9.308789 C11.1303847,9.38077632 10.9223136,9.47526886 10.7255023,9.58984742 L5.19590806,3.57780592 C6.89506556,2.03528314 9.01960241,1.02980636 11.3474232,0.801968666 Z" id="Path" fill="#FA6400"></path>
                                    <path d="M3.57780592,5.19590806 L9.58984742,10.7255023 C9.47526886,10.9223136 9.38077632,11.1303847 9.308789,11.3474232 L0.801968666,11.3474232 C1.02973305,9.01960241 2.03528314,6.89499813 3.57780592,5.19590806 Z" id="Path" fill="#FFFFFF"></path>
                                    <path d="M0.801968666,13.9837868 L9.30878663,13.9837868 C9.38077456,14.2008254 9.47534119,14.4088965 9.58984742,14.6057077 L3.57775577,20.135302 C2.03529343,18.4362119 1.02973495,16.3116077 0.801968666,13.9837868 Z" id="Path" fill="#FA6400"></path>
                                    <path d="M11.3474232,24.5292414 C9.01960241,24.3014751 6.89499813,23.2959166 5.19590806,21.753381 L10.7255023,15.7413626 C10.9223136,15.8559422 11.1303847,15.9504355 11.3474232,16.0224235 L11.3474232,24.5292414 Z" id="Path" fill="#FFFFFF"></path>
                                    <path d="M13.9837868,24.5292414 L13.9837868,16.0224211 C14.2008254,15.9504338 14.4088965,15.8559412 14.6057077,15.7413626 L20.135302,21.7534042 C18.4361445,23.2959269 16.3116077,24.3014037 13.9837868,24.5292414 Z" id="Path" fill="#FA6400"></path>
                                    <path d="M21.753381,20.135302 L15.7413626,14.6057077 C15.8559422,14.4088965 15.9504355,14.2008254 16.0224235,13.9837868 L24.5292414,13.9837868 C24.3014751,16.3116077 23.2959166,18.4362119 21.753381,20.135302 Z" id="Path" fill="#FFFFFF"></path>
                                </g>
                                <path d="M11.7171717,14.9393939 C11.7171717,13.6471597 12.7683719,12.5959596 14.0606061,12.5959596 C15.3528403,12.5959596 16.4040404,13.6471597 16.4040404,14.9393939 C16.4040404,16.2316281 15.3527313,17.2828283 14.0606061,17.2828283 C12.7684808,17.2828283 11.7171717,16.2316281 11.7171717,14.9393939 Z" id="Path" fill="#FFFFFF"></path>
                            </g>
                        </g>
                    </g>
                </g>
            </g>
        </g>
    </g>
</svg>