<?xml version="1.0" encoding="UTF-8"?>
<svg width="60px" height="60px" viewBox="0 0 60 60" version="1.1" xmlns="http://www.w3.org/2000/svg" xmlns:xlink="http://www.w3.org/1999/xlink">
    <title>ic_staff</title>
    <g id="Case-Form" stroke="none" stroke-width="1" fill="none" fill-rule="evenodd">
        <g id="ic_staff">
            <rect id="Rectangle" x="0" y="0" width="60" height="60"></rect>
            <g id="users-wm-9" transform="translate(10.000000, 14.000000)" stroke="#393939" stroke-linecap="square" stroke-width="2">
                <path d="M31.9984028,32 L39.109159,32 L39.109159,24.3150502 C39.108699,23.5882826 38.6658931,22.9349855 37.9909926,22.6653548 L31.3388802,19.9988212 C30.6651813,19.7296733 30.2226249,19.0781515 30.2207138,18.3526812 L30.2207138,16.7918702 C32.4151172,15.5325577 33.7705647,13.1977993 33.7760919,10.6677314 L33.7760919,7.11235334 C33.7766626,4.57163956 32.4215855,2.22366396 30.2214055,0.953059964 C28.0212254,-0.317544027 25.3102803,-0.317696195 23.1099576,0.952660793" id="Path"></path>
                <path d="M23.7694802,24.4430439 L17.1173678,21.7765103 C16.4436689,21.5073624 16.0011125,20.8558406 15.9992014,20.1303702 L15.9992014,19.3286325 C21.8122446,18.5517824 23.1099576,16.0007986 23.1099576,16.0007986 C23.1099576,16.0007986 19.5545795,12.4454205 19.5545795,8.89004239 C19.5545795,4.96288019 16.3709855,1.7792862 12.4438233,1.7792862 C8.51666113,1.7792862 5.33306714,4.96288019 5.33306714,8.89004239 C5.33306714,12.4454205 1.77768905,16.0007986 1.77768905,16.0007986 C1.77768905,16.0007986 3.07540205,18.5517824 8.88844524,19.3286325 L8.88844524,20.1303702 C8.88798523,20.8571379 8.44517933,21.510435 7.77027882,21.7800657 L1.11816641,24.4465992 C0.444467463,24.7157472 0.00191107852,25.367269 0,26.0927393 L0,32 L24.8876467,32 L24.8876467,26.0927393 C24.8871867,25.3659717 24.4443807,24.7126746 23.7694802,24.4430439 Z" id="Path"></path>
            </g>
        </g>
    </g>
</svg>