<?xml version="1.0" encoding="UTF-8"?>
<svg width="48px" height="48px" viewBox="0 0 48 48" version="1.1" xmlns="http://www.w3.org/2000/svg" xmlns:xlink="http://www.w3.org/1999/xlink">
    <title>IC_stafff</title>
    <g id="Case-Form" stroke="none" stroke-width="1" fill="none" fill-rule="evenodd">
        <g id="IC_stafff" transform="translate(0.000000, 0.000000)">
            <rect id="Rectangle" stroke="#00CECA" fill="#F2FFFF" x="0.5" y="0.5" width="47" height="47" rx="4"></rect>
            <path d="M24.025,31.1522727 C25.1613636,31.1522727 26.1329545,30.9806818 26.9397727,30.6375 C27.7465909,30.2943182 28.3647727,29.8102273 28.7943182,29.1852273 C29.2238636,28.5602273 29.4409091,27.8204545 29.4454545,26.9659091 C29.4409091,26.3840909 29.3352273,25.8681818 29.1284091,25.4181818 C28.9215909,24.9681818 28.6318182,24.5772727 28.2590909,24.2454545 C27.8863636,23.9136364 27.4454545,23.6340909 26.9363636,23.4068182 C26.4272727,23.1795455 25.8681818,22.9977273 25.2590909,22.8613636 L25.2590909,22.8613636 L24.0045455,22.5613636 C23.7,22.4931818 23.4136364,22.4102273 23.1454545,22.3125 C22.8772727,22.2147727 22.6409091,22.0988636 22.4363636,21.9647727 C22.2318182,21.8306818 22.0715909,21.6704545 21.9556818,21.4840909 C21.8397727,21.2977273 21.7863636,21.0795455 21.7954545,20.8295455 C21.7954545,20.5295455 21.8829545,20.2613636 22.0579545,20.025 C22.2329545,19.7886364 22.4863636,19.6034091 22.8181818,19.4693182 C23.15,19.3352273 23.5568182,19.2681818 24.0386364,19.2681818 C24.7477273,19.2681818 25.3090909,19.4204545 25.7227273,19.725 C26.1363636,20.0295455 26.3704545,20.4568182 26.425,21.0068182 L26.425,21.0068182 L29.2545455,21.0068182 C29.2409091,20.175 29.0181818,19.4431818 28.5863636,18.8113636 C28.1545455,18.1795455 27.5511364,17.6863636 26.7761364,17.3318182 C26.0011364,16.9772727 25.0954545,16.8 24.0590909,16.8 C23.0409091,16.8 22.1318182,16.9772727 21.3318182,17.3318182 C20.5318182,17.6863636 19.9034091,18.1795455 19.4465909,18.8113636 C18.9897727,19.4431818 18.7636364,20.1818182 18.7681818,21.0272727 C18.7636364,22.0590909 19.1022727,22.8795455 19.7840909,23.4886364 C20.4659091,24.0977273 21.3954545,24.5454545 22.5727273,24.8318182 L22.5727273,24.8318182 L24.0931818,25.2136364 C24.6022727,25.3363636 25.0329545,25.4727273 25.3852273,25.6227273 C25.7375,25.7727273 26.0056818,25.9545455 26.1897727,26.1681818 C26.3738636,26.3818182 26.4659091,26.6454545 26.4659091,26.9590909 C26.4659091,27.2954545 26.3636364,27.5931818 26.1590909,27.8522727 C25.9545455,28.1113636 25.6670455,28.3136364 25.2965909,28.4590909 C24.9261364,28.6045455 24.4909091,28.6772727 23.9909091,28.6772727 C23.4818182,28.6772727 23.0261364,28.5988636 22.6238636,28.4420455 C22.2215909,28.2852273 21.9011364,28.0511364 21.6625,27.7397727 C21.4238636,27.4284091 21.2886364,27.0386364 21.2568182,26.5704545 L21.2568182,26.5704545 L18.4,26.5704545 C18.4227273,27.575 18.6670455,28.4170455 19.1329545,29.0965909 C19.5988636,29.7761364 20.2488636,30.2886364 21.0829545,30.6340909 C21.9170455,30.9795455 22.8977273,31.1522727 24.025,31.1522727 Z" id="S" fill="#00CECA" fill-rule="nonzero"></path>
        </g>
    </g>
</svg>