<?xml version="1.0" encoding="UTF-8"?>
<svg width="60px" height="60px" viewBox="0 0 60 60" version="1.1" xmlns="http://www.w3.org/2000/svg" xmlns:xlink="http://www.w3.org/1999/xlink">
    <title>ic_saloninfo</title>
    <g id="Case-Form" stroke="none" stroke-width="1" fill="none" fill-rule="evenodd">
        <g id="HD-SÃISON-1" transform="translate(-421.000000, -3382.000000)">
            <g id="Group-21" transform="translate(107.000000, 3221.000000)">
                <g id="Card" transform="translate(0.000000, 161.000000)">
                    <g id="ic_saloninfo" transform="translate(314.000000, 0.000000)">
                        <rect id="Boundingbox" fill="#FFFFFF" x="0" y="0" width="60" height="60" rx="30"></rect>
                        <g id="IC_About" transform="translate(14.000000, 12.000000)" fill-rule="nonzero">
                            <g id="Group" transform="translate(0.000000, 9.000000)">
                                <path d="M20.7142857,1 L5.28571429,1 C2.91878572,1 1,2.85844654 1,5.15094339 L1,15.8050314 C1,18.0975283 2.91878572,19.9559748 5.28571429,19.9559748 L9.92707146,19.9559748 L9.86271429,19.9613711 L13,23 L13.0022143,19.9559748 L20.7142857,19.9559748 C23.0812143,19.9559748 25,18.0975283 25,15.8050314 L25,5.15094339 C25,2.85844654 23.0812143,1 20.7142857,1 Z" id="Path" fill="#0091FF"></path>
                                <path d="M13.0001461,24 C12.8100393,24 12.6232922,23.927858 12.4835786,23.7920237 L9.48401124,20.8757397 L5.11235955,20.8757397 C2.2934045,20.8757397 0,18.6460119 0,15.9053255 L0,4.9704142 C0,2.22972781 2.2934045,0 5.11235955,0 L13.8571851,0 C14.2604773,0 14.5875222,0.317893491 14.5875222,0.710059173 C14.5875222,1.10222485 14.2604773,1.42011834 13.8571851,1.42011834 L5.11235955,1.42011834 C3.09882022,1.42011834 1.46067416,3.01278107 1.46067416,4.9704142 L1.46067416,15.9053255 C1.46067416,17.8629586 3.09882022,19.4556213 5.11235955,19.4556213 L9.85801686,19.4556213 C10.1567247,19.4556213 10.4149719,19.6303669 10.527809,19.8822249 L12.2709775,21.5769231 L12.272,20.1651834 C12.2722922,19.7732308 12.599118,19.4556213 13.0023371,19.4556213 L20.8876405,19.4556213 C22.9011798,19.4556213 24.5393258,17.8629586 24.5393258,15.9053255 L24.5393258,8.3912186 C24.5393258,7.99905293 24.8663708,7.6811594 25.2696629,7.6811594 C25.672955,7.6811594 26,7.99905293 26,8.3912186 L26,15.9053255 C26,18.6460119 23.7065955,20.8757397 20.8876405,20.8757397 L13.7320899,20.8757397 L13.7303371,23.2904379 C13.730118,23.5775148 13.5521348,23.8362603 13.2792078,23.9460355 C13.1890112,23.9823195 13.0941405,24 13.0001461,24 Z" id="Path" fill="#2D2D2D"></path>
                                <path d="M18.2640693,12 L2.73593073,12 C2.32954978,12 2,11.77615 2,11.5 C2,11.22385 2.32954978,11 2.73593073,11 L18.2640693,11 C18.6704502,11 19,11.22385 19,11.5 C19,11.77615 18.6705238,12 18.2640693,12 Z" id="Path" fill="#FFFFFF"></path>
                                <path d="M18.2695665,16 L5.73043351,16 C5.32708812,16 5,15.77615 5,15.5 C5,15.22385 5.32708812,15 5.73043351,15 L18.2695665,15 C18.6729118,15 19,15.22385 19,15.5 C19,15.77615 18.6729849,16 18.2695665,16 Z" id="Path" fill="#FFFFFF"></path>
                                <path d="M13.2771085,7 L2.72289157,7 C2.32371085,7 2,6.77615 2,6.5 C2,6.22385 2.32371085,6 2.72289157,6 L13.2771085,6 C13.6762891,6 14,6.22385 14,6.5 C14,6.77615 13.6763615,7 13.2771085,7 Z" id="Path" fill="#FFFFFF"></path>
                            </g>
                            <g id="Group-2" transform="translate(13.000000, 0.000000)">
                                <path d="M11.1937687,0.75 L9.54703704,0.75 C4.68348849,0.75 0.740740741,4.60829455 0.740740741,9.3678087 L0.740740741,9.3678087 C0.740740741,14.1272591 4.68342342,17.9856174 9.54703704,17.9856174 L11.1937687,17.9856174 C12.0951801,17.9856174 12.9648399,17.8527967 13.7836837,17.6065754 L16.4864865,20.25 L16.4864865,16.2556375 C18.6202302,14.6829921 20,12.1831489 20,9.36774503 L20,9.36774503 C20,4.60829455 16.0573173,0.75 11.1937687,0.75 Z" id="Path" fill="#FA6400"></path>
                                <path d="M15.9494937,20.25 C15.7848101,20.25 15.623038,20.1869389 15.501962,20.0683269 L13.1356962,17.7490935 C12.3762025,17.9439871 11.592595,18.0426131 10.8008861,18.0426131 L9.19905067,18.0426131 C4.12670886,18.0426131 0,13.9957165 0,9.02133758 C0,4.04695867 4.12670886,0 9.19911393,0 L10.8009493,0 C15.8732911,0 20,4.04695867 20,9.02133758 C20,10.4623086 19.6637341,11.8395358 19.0003798,13.1147852 C18.4163291,14.2375956 17.5841139,15.242663 16.5822784,16.0383128 L16.5822784,19.6293199 C16.5822784,19.8803229 16.4281013,20.1066229 16.1916456,20.2027042 C16.1133544,20.2345451 16.0310759,20.25 15.9494937,20.25 Z M13.3201899,16.431762 C13.4855063,16.431762 13.6471519,16.4953817 13.7676582,16.613435 L15.3164557,18.1314945 L15.3164557,15.7356692 C15.3164557,15.5407136 15.4098734,15.3571164 15.5685443,15.2398699 C17.5803798,13.7539616 18.7341772,11.4873619 18.7341772,9.02133758 C18.7341772,4.73144473 15.1753798,1.24136029 10.8009493,1.24136029 L9.19911393,1.24136029 C4.82468354,1.24136029 1.26582279,4.73144473 1.26582279,9.02133758 C1.26582279,13.3112305 4.82462025,16.8013149 9.19911393,16.8013149 L10.8009493,16.8013149 C11.5959493,16.8013149 12.3810127,16.6862408 13.1343671,16.459196 C13.1955063,16.4407619 13.2581646,16.431762 13.3201899,16.431762 Z" id="Shape" fill="#2D2D2D"></path>
                                <path d="M10.000024,10.5 C9.66187793,10.5 9.38766237,10.2410717 9.38766237,9.92164755 L9.38766237,8.53215585 C9.38766237,8.01412553 9.76304007,7.57295835 10.3005711,7.4593699 C10.9640036,7.31917727 11.4114563,6.7499628 11.3644269,6.10585169 C11.3178874,5.46810245 10.7735592,4.95400498 10.0982468,4.91005019 C9.71307133,4.8849497 9.34700156,5.00715557 9.06690741,5.25405422 C8.78656822,5.50118422 8.63213067,5.83668647 8.63213067,6.19867726 C8.63213067,6.51810131 8.35791511,6.77702969 8.01976904,6.77702969 C7.68162296,6.77702969 7.40740741,6.51810131 7.40740741,6.19867726 C7.40740741,5.52252542 7.7076483,4.8700282 8.23121748,4.40844512 C8.76207378,3.94038449 9.45563452,3.70887002 10.1823853,3.75600574 C11.4644256,3.839462 12.497847,4.81548956 12.5862108,6.02627039 C12.6740847,7.230458 11.846233,8.29682423 10.6123244,8.5783662 L10.6123244,9.92164755 C10.6123856,10.2410717 10.3382313,10.5 10.000024,10.5 Z" id="Path" fill="#FFFFFF"></path>
                                <path d="M10.3703704,13.5 C10.1755556,13.5 9.98444444,13.4205 9.84666667,13.281 C9.70896296,13.1415 9.62962963,12.948 9.62962963,12.75 C9.62962963,12.55275 9.70888889,12.35925 9.84666667,12.21975 C9.98444444,12.08025 10.1755556,12 10.3703704,12 C10.5651852,12 10.7562963,12.08025 10.8940741,12.21975 C11.0317778,12.35925 11.1111111,12.55275 11.1111111,12.75 C11.1111111,12.948 11.0318519,13.14075 10.8940741,13.281 C10.7562963,13.4205 10.5651852,13.5 10.3703704,13.5 Z" id="Path" fill="#FFFFFF"></path>
                                <path d="M5.92592593,27 C5.73111111,27 5.54,26.91975 5.40222222,26.78025 C5.26444444,26.64075 5.18518519,26.44725 5.18518519,26.25 C5.18518519,26.05275 5.26437037,25.85925 5.40222222,25.71975 C5.54,25.58025 5.73111111,25.5 5.92592593,25.5 C6.12074074,25.5 6.31185185,25.58025 6.44955556,25.71975 C6.58733333,25.85925 6.66666667,26.05275 6.66666667,26.25 C6.66666667,26.448 6.58740741,26.64075 6.44955556,26.78025 C6.31185185,26.91975 6.12074074,27 5.92592593,27 Z" id="Path" fill="#FFFFFF"></path>
                            </g>
                        </g>
                    </g>
                </g>
            </g>
        </g>
    </g>
</svg>