<?xml version="1.0" encoding="UTF-8"?>
<svg width="60px" height="60px" viewBox="0 0 60 60" version="1.1" xmlns="http://www.w3.org/2000/svg" xmlns:xlink="http://www.w3.org/1999/xlink">
    <title>ic_wallet</title>
    <g id="Case-Form" stroke="none" stroke-width="1" fill="none" fill-rule="evenodd">
        <g id="HD-SÃISON-1" transform="translate(-421.000000, -3584.000000)">
            <g id="Group-21" transform="translate(107.000000, 3221.000000)">
                <g id="Card" transform="translate(0.000000, 161.000000)">
                    <g id="ic_wallet" transform="translate(314.000000, 202.000000)">
                        <rect id="Boundingbox" fill="#FFFFFF" x="0" y="0" width="60" height="60" rx="30"></rect>
                        <g id="IC_Topup" transform="translate(12.000000, 16.000000)" fill-rule="nonzero">
                            <path d="M10,1 L29,1 C32.3137085,1 35,3.6862915 35,7 L35,12 L35,12 L4,12 L4,7 C4,3.6862915 6.6862915,1 10,1 Z" id="Rectangle" fill="#FFFFFF"></path>
                            <g id="card-(1)">
                                <g id="Group-3" transform="translate(3.000000, 0.000000)">
                                    <path d="M0,12.1081081 L32.25,12.1081081 L32.25,21.9459459 C32.25,23.1997816 31.2426406,24.2162162 30,24.2162162 L0,24.2162162 L0,24.2162162 L0,12.1081081 Z" id="Rectangle" fill="#0091FF"></path>
                                    <g id="Group-4" transform="translate(19.500000, 15.135135)">
                                        <path d="M5.14521443,3.40458652 C5.14617641,2.92274909 5.35484696,2.46453662 5.71815657,2.14631799 C6.06855955,1.8311323 6.09597612,1.29278652 5.77940293,0.943839483 C5.76008308,0.922529137 5.7396409,0.90217655 5.71815657,0.882861552 C4.31886945,-0.380594891 2.15576636,-0.27539997 0.886748025,1.1177543 C-0.382270318,2.51090858 -0.276612316,4.66453114 1.1226748,5.92798758 C2.42640476,7.10508522 4.41450677,7.10508522 5.71815657,5.92798758 C6.06855955,5.6128019 6.09597612,5.07445611 5.77940293,4.72550908 C5.76008308,4.70419872 5.7396409,4.68384614 5.71815657,4.66453114 C5.35436596,4.34591345 5.14569542,3.88698265 5.14521443,3.40458652 Z" id="Path" fill="#FA6400"></path>
                                        <ellipse id="Oval" fill="#FFFFFF" cx="6.375" cy="3.40540541" rx="2.625" ry="2.64864865"></ellipse>
                                        <path d="M3.43583572,6.81081081 C1.54679812,6.81920097 0.0085680342,5.30138172 -3.26685924e-13,3.42072887 C-0.00842721165,1.53999622 1.51609444,0.00852880515 3.40505188,6.07934045e-14 C4.25938365,-0.00376252186 5.08413407,0.310863524 5.71720698,0.882011162 C6.06809468,1.19671702 6.09631319,1.73498136 5.78021765,2.08432642 C5.76033643,2.10635503 5.7392527,2.12726625 5.71720698,2.14706007 C5.01871841,2.7574761 4.94953493,3.8161265 5.56272661,4.51154424 C5.61082636,4.56613688 5.66245343,4.61745717 5.71720698,4.66534546 C6.06809468,4.98005131 6.09631319,5.51831566 5.78021765,5.86766071 C5.76033643,5.88968932 5.7392527,5.91060054 5.71720698,5.93039437 C5.09231103,6.49475783 4.27950539,6.80842611 3.43583572,6.81081081 Z M3.43583573,1.70265677 C2.49131692,1.70265677 1.72564903,2.46495849 1.72564903,3.40532481 C1.74873691,4.36237223 2.54671181,5.11956586 3.50790519,5.09657948 C3.62943723,5.09370618 3.75024777,5.07814249 3.868493,5.05012784 C3.29137613,4.02883031 3.29137613,2.78181931 3.868493,1.76052178 C3.72748056,1.72213134 3.58197881,1.70265677 3.43583573,1.70265677 Z" id="Shape" fill="#2D2D2D"></path>
                                        <path d="M7.125,6.81081081 C5.26106534,6.81081081 3.75,5.2861144 3.75,3.4053655 C3.75,1.5246166 5.26106534,0 7.125,0 C8.98893465,0 10.5,1.52469641 10.5,3.40544531 C10.5,5.28619422 8.98901378,6.81081081 7.125,6.81081081 Z M7.125,1.70268275 C6.19303267,1.70268275 5.43753955,2.46499105 5.43753955,3.4053655 C5.43753955,4.34573995 6.19303267,5.10812806 7.125,5.10812806 C8.05696732,5.10812806 8.81246047,4.34581976 8.81246047,3.40544531 C8.81246047,2.46507086 8.05696732,1.70268275 7.125,1.70268275 Z" id="Shape" fill="#2D2D2D"></path>
                                    </g>
                                    <g id="Group" transform="translate(3.750000, 5.297297)">
                                        <path d="M2.8029947,1.72201514 L0.97251483,1.72201514 C0.467037077,1.72201514 0.0572319915,1.33649297 0.0572319915,0.86096721 C0.0572319915,0.385441441 0.466951271,0 0.972429023,0 L2.80290889,0 C3.30838665,0 3.71819173,0.385522162 3.71819173,0.861047925 C3.71819173,1.3365737 3.30847246,1.72201514 2.8029947,1.72201514 Z" id="Path" fill="#0091FF"></path>
                                        <path d="M8.29452015,1.72201514 L6.46404025,1.72201514 C5.9585625,1.72201514 5.54875741,1.33649297 5.54875741,0.86096721 C5.54875741,0.385441441 5.95847669,0 6.46395445,0 L8.29443435,0 C8.79991207,0 9.20971717,0.385522162 9.20971717,0.861047925 C9.20971717,1.3365737 8.79999787,1.72201514 8.29452015,1.72201514 Z" id="Path" fill="#0091FF"></path>
                                        <path d="M13.7860456,1.72201514 L11.9555657,1.72201514 C11.4500879,1.72201514 11.0402828,1.33649297 11.0402828,0.86096721 C11.0402828,0.385441441 11.4500021,0 11.9554798,0 L13.7859598,0 C14.2914375,0 14.7012426,0.385522162 14.7012426,0.861047925 C14.7012426,1.3365737 14.2915233,1.72201514 13.7860456,1.72201514 Z" id="Path" fill="#0091FF"></path>
                                        <path d="M19.277571,1.72201514 L17.4470911,1.72201514 C16.9416134,1.72201514 16.5318083,1.33649297 16.5318083,0.86096721 C16.5318083,0.385441441 16.9415275,0 17.4470053,0 L19.2774852,0 C19.7829629,0 20.192768,0.385522162 20.192768,0.861047925 C20.192768,1.3365737 19.7830487,1.72201514 19.277571,1.72201514 Z" id="Path" fill="#90A4AE"></path>
                                        <path d="M10.125,12.0542674 L8.29452015,12.0542674 C7.78904235,12.0542674 7.37923729,11.6687452 7.37923729,11.1932195 C7.37923729,10.7176937 7.78904235,10.3321716 8.29452015,10.3321716 L10.125,10.3321716 C10.6304777,10.3321716 11.0402828,10.7176937 11.0402828,11.1932195 C11.0402828,11.6688259 10.6304777,12.0542674 10.125,12.0542674 Z" id="Path" fill="#0091FF"></path>
                                    </g>
                                    <path d="M28.657929,25.7297297 L9.5310345,25.7297297 C9.05142263,25.7297297 8.66258775,25.2866336 8.66258775,24.7400927 C8.66258775,24.1935517 9.05142263,23.7504555 9.5310345,23.7504555 L28.657929,23.7504555 C30.0967646,23.7504555 31.2631879,22.4212598 31.2631879,20.781637 L31.2631879,4.94799997 C31.2631879,3.30837716 30.0967646,1.97918143 28.657929,1.97918143 L4.3421524,1.97918143 C2.90331677,1.97918143 1.73689352,3.30837716 1.73689352,4.94799997 L1.73689352,15.4242087 C1.73689352,15.9707497 1.34805864,16.4138458 0.868446765,16.4138458 C0.45591366,16.4138458 0.110540996,16.0860256 0.0220025326,15.6465276 C0.00760598722,15.5750642 0,15.5006483 0,15.4242087 L0,4.94799997 C0,2.21529528 1.94409302,0 4.3421524,0 L28.657929,0 C31.0559884,0 33,2.21529528 33,4.94799997 L33,20.7817298 C33,23.5144344 31.0559884,25.7297297 28.657929,25.7297297 Z" id="Path" fill="#2D2D2D"></path>
                                    <path d="M7.31254394,6.81081081 L5.43754394,6.81081081 C4.91977219,6.81081081 4.5,6.47196768 4.5,6.05401858 C4.5,5.63606948 4.91968429,5.2972973 5.43745606,5.2972973 L7.31245606,5.2972973 C7.83022785,5.2972973 8.25,5.63614043 8.25,6.05408953 C8.25,6.47203863 7.83031567,6.81081081 7.31254394,6.81081081 Z" id="Path" fill="#2D2D2D"></path>
                                    <path d="M12.5625439,6.81081081 L10.6875439,6.81081081 C10.1697722,6.81081081 9.75,6.47196768 9.75,6.05401858 C9.75,5.63606948 10.1696843,5.2972973 10.6874561,5.2972973 L12.5624561,5.2972973 C13.0802278,5.2972973 13.5,5.63614043 13.5,6.05408953 C13.5,6.47203863 13.0803157,6.81081081 12.5625439,6.81081081 Z" id="Path" fill="#2D2D2D"></path>
                                    <path d="M17.8125439,6.81081081 L15.9375439,6.81081081 C15.4197722,6.81081081 15,6.47196768 15,6.05401858 C15,5.63606948 15.4196843,5.2972973 15.9374561,5.2972973 L17.8124561,5.2972973 C18.3302278,5.2972973 18.75,5.63614043 18.75,6.05408953 C18.75,6.47203863 18.3303157,6.81081081 17.8125439,6.81081081 Z" id="Path" fill="#2D2D2D"></path>
                                    <path d="M12.5625439,10.5945946 L10.6875439,10.5945946 C10.1697722,10.5945946 9.75,10.2557515 9.75,9.83780235 C9.75,9.41985323 10.1696843,9.08108108 10.6874561,9.08108108 L12.5624561,9.08108108 C13.0802278,9.08108108 13.5,9.41992422 13.5,9.83787333 C13.5,10.2558224 13.0803157,10.5945946 12.5625439,10.5945946 Z" id="Path" fill="#2D2D2D"></path>
                                    <path d="M23.0625439,6.81081081 L21.1875439,6.81081081 C20.6697722,6.81081081 20.25,6.47196768 20.25,6.05401858 C20.25,5.63606948 20.6696843,5.2972973 21.1874561,5.2972973 L23.0624561,5.2972973 C23.5802278,5.2972973 24,5.63614043 24,6.05408953 C24,6.47203863 23.5803157,6.81081081 23.0625439,6.81081081 Z" id="Path" fill="#2D2D2D"></path>
                                    <path d="M17.8125439,10.5945946 L15.9375439,10.5945946 C15.4197722,10.5945946 15,10.2557515 15,9.83780235 C15,9.41985323 15.4196843,9.08108108 15.9374561,9.08108108 L17.8124561,9.08108108 C18.3302278,9.08108108 18.75,9.41992422 18.75,9.83787333 C18.75,10.2558224 18.3303157,10.5945946 17.8125439,10.5945946 Z" id="Path" fill="#2D2D2D"></path>
                                </g>
                                <g id="Group-2" transform="translate(0.000000, 15.135135)">
                                    <ellipse id="Oval" fill="#FA6400" cx="6.375" cy="6.43243243" rx="6.375" ry="6.43243243"></ellipse>
                                    <path d="M9.07498102,7.18918919 L3.67501898,7.18918919 C3.30223031,7.18918919 3,6.85034605 3,6.43239696 C3,6.01451881 3.30223031,5.67567568 3.67501898,5.67567568 L9.07498102,5.67567568 C9.44776973,5.67567568 9.75,6.01451881 9.75,6.43246791 C9.75,6.85041701 9.44776973,7.18918919 9.07498102,7.18918919 Z" id="SVGCleanerId_0_1_" fill="#FAFAFA"></path>
                                    <path d="M7.125,3.70812726 L7.125,9.15673761 C7.125,9.53288477 6.78919799,9.83783784 6.375,9.83783784 C5.96080201,9.83783784 5.625,9.53288477 5.625,9.15673761 L5.625,3.70812726 C5.625,3.33198013 5.96080201,3.02702703 6.375,3.02702703 C6.78919799,3.02702703 7.125,3.33198013 7.125,3.70812726 Z" id="Path" fill="#FAFAFA"></path>
                                    <path d="M6.375,12.8648649 C2.85419703,12.8648649 0,9.98495438 0,6.43243243 C0,2.87991052 2.85419703,0 6.375,0 C9.895803,0 12.75,2.87991052 12.75,6.43243243 C12.7461967,9.98336451 9.89428163,12.8609725 6.375,12.8648649 Z M6.375,1.16951822 C3.49434302,1.16951822 1.15907609,3.52582359 1.15907609,6.43243243 C1.15907609,9.3390413 3.49434302,11.6953466 6.375,11.6953466 C9.255657,11.6953466 11.5909239,9.3390413 11.5909239,6.43243243 C11.5909239,3.52582359 9.2557113,1.16951822 6.375,1.16951822 Z" id="Shape" fill="#FFFFFF"></path>
                                </g>
                            </g>
                        </g>
                    </g>
                </g>
            </g>
        </g>
    </g>
</svg>