<svg width="40" height="40" viewBox="0 0 40 40" fill="none" xmlns="http://www.w3.org/2000/svg">
<rect width="40" height="40" rx="20" fill="#FEFCE8"/>
<path d="M13.75 10.781C13.75 10.35 14.0998 10 14.5312 10H25.4688C25.9002 10 26.25 10.35 26.25 10.781V11.25H28.3854C29.2771 11.25 30 11.973 30 12.865V15.886C30 18.158 28.1578 20 25.8854 20H25.4612C24.5453 21.957 22.8872 23.529 20.7812 24.31V25.836L24.8137 28.572C25.0976 28.765 25.2226 29.12 25.1218 29.448C25.021 29.776 24.7181 30 24.375 30H15.625C15.2819 30 14.979 29.776 14.8782 29.448C14.7774 29.12 14.9024 28.765 15.1863 28.572L19.2188 25.836V24.31C17.1128 23.529 15.4547 21.957 14.5388 20H14.1146C11.8422 20 10 18.158 10 15.886V12.865C10 11.973 10.7229 11.25 11.6146 11.25H13.75V10.781ZM26.0122 18.435C27.3628 18.369 28.4375 17.253 28.4375 15.886V12.865C28.4375 12.836 28.4142 12.813 28.3854 12.813H26.25V16.449C26.25 17.129 26.1681 17.795 26.0122 18.435ZM13.75 12.813H11.6146C11.5858 12.813 11.5625 12.836 11.5625 12.865V15.886C11.5625 17.253 12.6372 18.369 13.9878 18.435C13.8319 17.795 13.75 17.129 13.75 16.449V12.813Z" fill="#EEAF0B"/>
</svg>
