<svg width="26" height="24" viewBox="0 0 26 24" fill="none" xmlns="http://www.w3.org/2000/svg">
<path d="M20.0231 4H6.30531C5.67674 4 5.16602 4.51786 5.16602 5.15357V18.8464C5.16602 19.4821 5.67674 20 6.30531 20H20.0231C20.6517 20 21.166 19.4821 21.166 18.8464V5.15357C21.166 4.51786 20.6517 4 20.0231 4ZM10.0017 17.7143H7.63031V10.0786H10.0053V17.7143H10.0017ZM8.81602 9.03571C8.05531 9.03571 7.44102 8.41786 7.44102 7.66071C7.44102 6.90357 8.05531 6.28571 8.81602 6.28571C9.57317 6.28571 10.191 6.90357 10.191 7.66071C10.191 8.42143 9.57674 9.03571 8.81602 9.03571ZM18.891 17.7143H16.5196V14C16.5196 13.1143 16.5017 11.975 15.2874 11.975C14.0517 11.975 13.8624 12.9393 13.8624 13.9357V17.7143H11.491V10.0786H13.766V11.1214H13.7981C14.116 10.5214 14.891 9.88929 16.0446 9.88929C18.4446 9.88929 18.891 11.4714 18.891 13.5286V17.7143Z" fill="#575757"/>
</svg>
