<svg width="40" height="40" viewBox="0 0 40 40" fill="none" xmlns="http://www.w3.org/2000/svg">
<rect width="40" height="40" rx="20" fill="#FEFCE8"/>
<path d="M14.5313 10C14.0998 10 13.75 10.35 13.75 10.781V11.25H11.6146C10.7229 11.25 10 11.973 10 12.865V15.886C10 18.158 11.8422 20 14.1146 20H14.5388C15.4547 21.957 17.1128 23.529 19.2188 24.31V25.836L15.1863 28.572C14.9024 28.765 14.7774 29.12 14.8782 29.448C14.979 29.776 15.2819 30 15.625 30H24.375C24.7181 30 25.021 29.776 25.1218 29.448C25.2226 29.12 25.0976 28.765 24.8137 28.572L20.7812 25.836V24.31C22.8872 23.529 24.5453 21.957 25.4612 20H25.8854C28.1578 20 30 18.158 30 15.886V12.865C30 11.973 29.2771 11.25 28.3854 11.25H26.25V10.781C26.25 10.35 25.9002 10 25.4688 10H14.5313ZM28.4375 15.886C28.4375 17.253 27.3628 18.368 26.0122 18.435C26.1681 17.795 26.25 17.129 26.25 16.449V12.813H28.3854C28.4142 12.813 28.4375 12.836 28.4375 12.865V15.886ZM11.6146 12.813H13.75V16.449C13.75 17.129 13.8319 17.795 13.9878 18.435C12.6372 18.368 11.5625 17.253 11.5625 15.886V12.865C11.5625 12.836 11.5858 12.813 11.6146 12.813ZM18.7499 13.75H20.6249C21.6604 13.75 22.4999 14.589 22.4999 15.625C22.4999 16.056 22.3541 16.454 22.1091 16.771C22.3548 17.107 22.4999 17.521 22.4999 17.969C22.4999 17.995 22.4994 18.022 22.4984 18.048C22.4994 18.074 22.4999 18.099 22.4999 18.125C22.4999 19.16 21.6604 20 20.6249 20H19.0624C18.1995 20 17.4999 19.3 17.4999 18.437H20.4687C20.7276 18.437 20.9374 18.228 20.9374 17.969C20.9374 17.71 20.7276 17.5 20.4686 17.5H18.7499V16.25H20.6249C20.9701 16.25 21.2499 15.97 21.2499 15.625C21.2499 15.28 20.9701 15 20.6249 15H17.4999C17.4999 14.31 18.0595 13.75 18.7499 13.75Z" fill="#EEAF0B"/>
</svg>
