<svg width="40" height="40" viewBox="0 0 40 40" fill="none" xmlns="http://www.w3.org/2000/svg">
<rect width="40" height="40" rx="20" fill="#FEFCE8"/>
<path d="M14.5313 10C14.0998 10 13.75 10.35 13.75 10.781V11.25H11.6146C10.7229 11.25 10 11.973 10 12.865V15.886C10 18.158 11.8422 20 14.1146 20H14.5388C15.4547 21.957 17.1128 23.529 19.2188 24.31V25.836L15.1863 28.572C14.9024 28.765 14.7774 29.12 14.8782 29.448C14.979 29.776 15.2819 30 15.625 30H24.375C24.7181 30 25.021 29.776 25.1218 29.448C25.2226 29.12 25.0976 28.765 24.8137 28.572L20.7812 25.836V24.31C22.8872 23.529 24.5453 21.957 25.4612 20H25.8854C28.1578 20 30 18.158 30 15.886V12.865C30 11.973 29.2771 11.25 28.3854 11.25H26.25V10.781C26.25 10.35 25.9002 10 25.4688 10H14.5313ZM28.4375 15.886C28.4375 17.253 27.3628 18.368 26.0122 18.435C26.1681 17.795 26.25 17.129 26.25 16.449V12.813H28.3854C28.4142 12.813 28.4375 12.836 28.4375 12.865V15.886ZM11.6146 12.813H13.75V16.449C13.75 17.129 13.8319 17.795 13.9878 18.435C12.6372 18.368 11.5625 17.253 11.5625 15.886V12.865C11.5625 12.836 11.5858 12.813 11.6146 12.813ZM17.5138 17.5L18.3994 13.75H22.3438V14.948H19.4009L19.1672 15.937H20.9373C21.829 15.937 22.5518 16.66 22.5519 17.552C22.5519 18.904 21.4559 20 20.104 20H19.1145C18.2515 20 17.552 19.3 17.552 18.437H20.104C20.593 18.437 20.9894 18.041 20.9894 17.552C20.9894 17.523 20.966 17.5 20.9373 17.5H17.5138Z" fill="#EEAF0B"/>
</svg>
