<svg width="33" height="32" viewBox="0 0 33 32" fill="none" xmlns="http://www.w3.org/2000/svg">
<path d="M30 28.2637C29.2168 28.0448 28.3864 28.1841 27.5812 28.0969C26.2458 28.0266 24.9105 28.0124 23.5698 27.9982C21.0708 27.9988 18.5724 27.8758 16.0734 27.9273C17.3407 25.6329 18.0391 23.0315 18.8914 20.5497C19.1241 19.543 17.7605 19.9087 17.2385 19.8615C16.3106 19.8969 15.364 19.8991 14.4349 19.9114C13.7722 18.9717 12.8814 18.1428 11.7934 17.7649C13.4078 16.5602 13.5426 13.7176 11.7319 12.6454C11.4154 12.3959 11.0295 12.2691 10.6497 12.1685C10.4938 12.1858 10.3175 12.1643 10.1695 12.2032C10.1319 12.2389 10.0738 12.2175 10.0346 12.2348C10.006 12.2674 9.96416 12.2724 9.92187 12.2851C9.9985 12.3267 10.0792 12.401 10.1307 12.4763C10.4213 12.666 10.7489 12.8114 11.0157 13.0429C11.8345 13.822 12.2659 14.625 11.9451 15.798C11.4124 17.6295 9.01999 17.9963 8.02854 16.3755C7.00613 14.7351 8.20148 12.8372 9.82196 12.344C9.80008 12.327 9.76595 12.341 9.74766 12.3166C9.75899 12.2797 9.8131 12.2607 9.75026 12.2458C9.80866 12.226 9.86981 12.2297 9.92194 12.191C9.44356 11.9218 8.28134 12.4325 7.9078 12.81C6.4037 13.9615 6.55202 16.5523 7.99104 17.7087C6.0773 18.318 4.60486 20.1121 4.17713 22.1239C3.91877 23.441 4.0291 24.8108 4.12739 26.1346C4.20542 26.8025 4.16665 27.483 4.31216 28.1393C3.86663 28.1554 3.42927 28.2462 3 28.358C3.11335 28.3938 3.2597 28.4674 3.34997 28.5382C3.64633 28.6516 3.97457 28.6698 4.28563 28.7276C5.55571 28.9184 6.83972 28.9717 8.12345 28.9621C10.6811 29.0473 13.2412 28.9661 15.7997 28.9377C20.4683 28.7508 25.2274 29.1325 29.8401 28.4116C29.8064 28.3935 29.7509 28.4057 29.7243 28.3803C29.753 28.3384 29.8275 28.3296 29.735 28.3097C29.8233 28.2931 29.9182 28.3005 30 28.2637ZM7.87691 27.961C6.79413 28.0101 5.7155 28.0806 4.63117 28.1372C5.04799 26.7759 4.98938 25.3282 5.03356 23.9167C5.01506 22.9208 5.17182 21.9101 5.63107 21.0254C6.33566 19.605 7.99554 18.2274 9.59244 18.4021C9.77602 18.4113 9.97464 18.4059 10.1577 18.3957C11.2972 18.0982 13.1002 19.1796 13.9898 19.9159C13.2601 19.9485 12.2763 19.9569 11.536 19.9557C11.3192 19.9507 11.1645 20.1399 11.1203 20.3529L10.877 21.0915C10.1808 23.3547 9.37376 25.5979 8.98565 27.9485C8.61612 27.9529 8.2463 27.9404 7.87691 27.961ZM15.0064 27.9289C13.1129 27.9234 11.2189 27.9594 9.32564 27.9459C9.65915 27.0487 10.006 26.1357 10.3575 25.2391C10.8689 23.8 11.3524 22.3158 11.8724 20.8812C13.803 20.9466 15.7788 20.8912 17.7092 20.9012C16.9347 23.2037 16.1745 25.5692 15.6636 27.937C15.4447 27.9338 15.2269 27.9207 15.0064 27.9289ZM15.3904 23.0125C15.3979 23.0637 15.3979 23.0637 15.4064 23.0879C15.3993 23.095 15.3945 23.1368 15.3831 23.1534C15.3781 23.1542 15.374 23.1602 15.3701 23.1827C15.366 23.2067 15.3605 23.213 15.3548 23.2155C15.3358 23.2147 15.3201 23.2763 15.3029 23.3021C15.2444 23.2963 15.2281 23.3404 15.1818 23.3514C15.1587 23.3569 15.1269 23.3547 15.1125 23.377C15.0996 23.4138 15.0858 23.381 15.0707 23.4121C15.0532 23.4098 15.0399 23.4304 15.023 23.4539C14.9903 23.4619 14.9673 23.4655 14.9361 23.4848C14.6975 23.5066 14.4471 23.513 14.2059 23.5145C14.0711 23.5177 13.9316 23.5566 13.7941 23.5009C13.5889 23.4593 13.3764 23.4356 13.1706 23.4189C13.1579 23.4361 13.1475 23.3977 13.1376 23.3825C13.127 23.3792 13.1165 23.3797 13.1058 23.3696C13.0353 23.3773 12.9891 23.2782 12.9259 23.3322C12.9218 23.3341 12.9178 23.3327 12.9149 23.3117C12.9092 23.2844 12.8964 23.2859 12.8781 23.2811C12.8195 23.3121 12.7793 23.1645 12.8274 23.1363C12.8159 23.1075 12.8386 23.0605 12.8173 23.0345C12.8422 22.9345 12.9346 22.8787 12.9896 22.7973C13.0711 22.6745 13.2185 22.6201 13.3442 22.6257C13.5657 22.5557 13.8182 22.5883 14.0371 22.5271C14.3505 22.4849 14.6672 22.4066 14.9809 22.4859C15.2091 22.5245 15.362 22.7881 15.3904 23.0125ZM14.4425 25.8648C14.45 25.9159 14.45 25.9159 14.4585 25.9402C14.4513 25.9472 14.4466 25.9891 14.4351 26.0055C14.4302 26.0064 14.426 26.0125 14.4221 26.0348C14.4181 26.0589 14.4126 26.0652 14.4069 26.0677C14.3878 26.0668 14.3721 26.1284 14.3549 26.1543C14.2964 26.1485 14.28 26.1926 14.2338 26.2036C14.2109 26.209 14.1788 26.2068 14.1645 26.2292C14.1516 26.2659 14.1378 26.2332 14.1227 26.2643C14.1052 26.262 14.0918 26.2825 14.075 26.3061C14.0423 26.314 14.0193 26.3177 13.988 26.337C13.7495 26.3588 13.4991 26.3652 13.2579 26.3667C13.2079 26.3571 13.153 26.3739 13.1023 26.3843C12.9942 26.3992 12.8921 26.3584 12.7859 26.3439C12.6027 26.301 12.4072 26.2896 12.2227 26.271C12.2099 26.2882 12.1995 26.2499 12.1897 26.2346C12.179 26.2313 12.1684 26.2318 12.1579 26.2217C12.0874 26.2294 12.0411 26.1303 11.9778 26.1843C11.9739 26.1862 11.9698 26.1848 11.9669 26.1638C11.9612 26.1365 11.9484 26.138 11.93 26.1332C11.8715 26.1642 11.8312 26.0166 11.8794 25.9884C11.8679 25.9596 11.8906 25.9127 11.8692 25.8866C11.8942 25.7865 11.9865 25.7308 12.0416 25.6494C12.1231 25.5265 12.2704 25.4722 12.3962 25.4777C12.6177 25.4078 12.8702 25.4403 13.0891 25.3791C13.4025 25.3369 13.7192 25.2587 14.0328 25.3379C14.2612 25.3768 14.4141 25.6403 14.4425 25.8648ZM20.2584 7.6063C20.3279 6.87944 20.1353 5.08134 20.8257 4.7257C21.0529 4.58656 21.2131 4.64005 21.3791 4.82113C21.3373 4.83304 21.3321 4.87951 21.2973 4.89486C21.2591 4.89771 21.2604 4.97283 21.2268 4.98174C21.1488 5.02719 21.1752 5.14791 21.1123 5.212C21.1034 5.47433 21.1392 5.76289 21.182 6.02566C21.2665 6.54389 21.2658 7.08346 21.2675 7.6082C21.3035 7.74331 21.4705 7.68821 21.5687 7.69866C21.8689 7.69866 22.1806 7.67835 22.4801 7.68317C22.7633 7.67886 23.1031 7.69465 23.3829 7.68354C23.4748 7.69019 23.5881 7.69633 23.6169 7.58577C23.6489 6.84298 23.6851 6.09311 23.6924 5.34806C23.6958 5.2554 23.6257 5.16253 23.5332 5.15836C23.1018 5.15668 22.6807 5.10027 22.2493 5.04934C22.1226 5.02237 21.9854 5.10589 21.8766 5.025C21.7074 5.00425 21.5137 5.0546 21.3791 4.91525C21.4147 4.87959 21.4586 4.88594 21.5009 4.86936C21.4575 4.8535 21.4985 4.82858 21.5058 4.79877C21.4935 4.77341 21.4681 4.78554 21.4526 4.76749C22.0818 4.52306 22.8184 4.38284 23.5074 4.36932C24.5504 4.38006 24.5374 5.37488 24.5363 6.19497C24.5425 6.46527 24.5378 7.02238 24.5435 7.29961C24.5684 7.64759 24.5489 8.02939 24.313 8.304C23.8105 8.89465 22.9897 8.62019 22.3267 8.72578C21.391 8.77437 20.3641 8.88639 20.2584 7.6063ZM26.4338 12.5972C26.4191 12.5637 26.4331 12.5069 26.4466 12.4704C26.4776 12.4559 26.4856 12.4709 26.511 12.4724C26.5167 12.433 26.5768 12.4381 26.5672 12.3867C26.6492 12.344 26.7264 12.4155 26.8127 12.418C27.189 12.455 27.447 12.7215 27.7119 12.9621C28.1473 12.3538 28.8032 10.7655 29.7069 11.1248C29.7021 11.1437 29.7352 11.1751 29.7314 11.1997C29.7267 11.2077 29.7267 11.2177 29.7397 11.237C29.7699 11.293 29.7164 11.3142 29.7554 11.3855C29.7687 11.4173 29.7359 11.4452 29.7206 11.4694C29.6835 11.5529 29.6637 11.645 29.6087 11.7215C29.599 11.7401 29.6159 11.7748 29.5998 11.7889C29.5776 11.8284 29.5652 11.874 29.5663 11.9292C29.4925 12.1005 29.3893 12.2559 29.277 12.4038C29.1025 12.6375 28.9349 12.9165 28.7615 13.1486C28.3291 13.7442 27.8654 14.6895 27.235 13.6773C27.0715 13.5041 26.9254 13.3083 26.764 13.1351C26.7371 13.129 26.7474 13.0922 26.746 13.0648C26.7345 13.0482 26.7203 13.0343 26.7135 13.0128C26.6254 12.9354 26.6206 12.7881 26.5054 12.7437C26.4989 12.7397 26.4946 12.7332 26.5052 12.7145C26.5234 12.6578 26.4508 12.6415 26.4338 12.5972ZM26.4338 18.4644C26.4191 18.4309 26.4331 18.3741 26.4466 18.3376C26.4776 18.3232 26.4856 18.3382 26.511 18.3397C26.5167 18.3002 26.5768 18.3053 26.5672 18.254C26.6492 18.2111 26.7264 18.2829 26.8127 18.2852C27.189 18.3222 27.447 18.5887 27.7119 18.8293C28.1472 18.2211 28.8033 16.6326 29.7069 16.992C29.7021 17.0108 29.7352 17.0423 29.7314 17.0669C29.7267 17.0749 29.7267 17.0849 29.7397 17.1042C29.7699 17.1602 29.7164 17.1814 29.7554 17.2526C29.7687 17.2845 29.7359 17.3123 29.7206 17.3366C29.6835 17.42 29.6637 17.5121 29.6087 17.5887C29.599 17.6073 29.6159 17.642 29.5998 17.6561C29.5776 17.6956 29.5652 17.7412 29.5663 17.7964C29.4925 17.9677 29.3893 18.123 29.277 18.2709C29.1025 18.5047 28.935 18.7837 28.7615 19.0157C28.329 19.6114 27.8654 20.5566 27.235 19.5446C27.0715 19.3713 26.9254 19.1756 26.764 19.0022C26.7372 18.9962 26.7474 18.9594 26.746 18.932C26.7345 18.9153 26.7203 18.9015 26.7135 18.88C26.6255 18.8025 26.6206 18.6553 26.5054 18.6108C26.4989 18.6068 26.4946 18.6003 26.5052 18.5816C26.5234 18.5251 26.4508 18.5088 26.4338 18.4644ZM29.6029 25.5435C29.581 25.6556 29.4402 25.5561 29.3644 25.5637C29.1122 25.5452 28.8806 25.4318 28.7151 25.244C28.5202 25.0927 28.3257 24.9218 28.15 24.7395C27.8513 24.9725 27.5708 25.2323 27.2952 25.4906C27.2915 25.5185 27.2566 25.5031 27.2324 25.5043C27.1607 25.5524 27.0971 25.6152 27.0107 25.6407C26.9645 25.6469 26.9769 25.7477 26.9272 25.7211C26.8355 25.7082 26.8658 25.8462 26.7085 25.765C26.6938 25.734 26.7066 25.7273 26.7068 25.7018C26.6723 25.6946 26.6693 25.6345 26.6257 25.642C26.5824 25.5624 26.6425 25.4879 26.6405 25.403C26.6583 25.1411 26.7675 24.9004 26.9482 24.7286C27.0992 24.5181 27.2643 24.3189 27.4424 24.1326C27.1348 23.8808 26.8694 23.5838 26.6451 23.2548C26.5356 23.0988 26.5349 22.881 26.5369 22.6924C26.5452 22.6048 26.6263 22.5116 26.6444 22.4392C26.6605 22.4458 26.6934 22.4155 26.716 22.421C26.7222 22.4263 26.7312 22.427 26.7508 22.4158C26.772 22.4037 26.7825 22.4059 26.7908 22.4109C26.8122 22.4342 26.8719 22.41 26.9098 22.4119C26.9817 22.4865 27.0847 22.5069 27.1586 22.5822C27.542 22.6695 27.7708 23.082 28.0815 23.3278C28.3557 23.0066 28.6488 22.6725 29.0294 22.4948C29.1838 22.489 29.3351 22.4252 29.4873 22.4912C29.5448 22.5289 29.6011 22.5615 29.649 22.5782C29.6426 22.5949 29.6717 22.6291 29.6665 22.6525C29.6614 22.6589 29.6607 22.6682 29.6715 22.6887C29.6832 22.7106 29.6811 22.7216 29.6762 22.7303C29.6538 22.7524 29.6771 22.8144 29.6753 22.8537C29.6034 22.9284 29.5837 23.0354 29.5113 23.1121C29.4255 23.5133 29.0245 23.7534 28.7858 24.0793C28.9957 24.3565 29.2217 24.6241 29.4488 24.8838C29.4757 24.8877 29.4608 24.9239 29.462 24.949C29.5083 25.0235 29.5688 25.0895 29.5934 25.1792C29.5993 25.2272 29.6963 25.2144 29.6708 25.266C29.6583 25.3611 29.7912 25.3298 29.713 25.4931C29.6832 25.5083 29.6768 25.495 29.6522 25.4949C29.651 25.519 29.6193 25.5276 29.6029 25.5435ZM26.4338 6.73001C26.4191 6.69654 26.4331 6.63969 26.4466 6.60323C26.4776 6.58876 26.4856 6.60374 26.511 6.6052C26.5167 6.56582 26.5768 6.57086 26.5672 6.51956C26.6492 6.47674 26.7264 6.54835 26.8127 6.55084C27.189 6.58781 27.447 6.85431 27.7118 7.09494C28.1473 6.48668 28.8032 4.89822 29.7069 5.25759C29.7021 5.27645 29.7352 5.30794 29.7314 5.33257C29.7267 5.34053 29.7267 5.35061 29.7397 5.36983C29.7699 5.42588 29.7164 5.44707 29.7554 5.51832C29.7687 5.55018 29.7359 5.57802 29.7206 5.60228C29.6835 5.68565 29.6637 5.7778 29.6087 5.85438C29.599 5.87294 29.6159 5.90765 29.5998 5.92175C29.5776 5.96128 29.5652 6.00688 29.5663 6.06205C29.4925 6.23333 29.3893 6.38869 29.277 6.53659C29.1025 6.77035 28.935 7.04934 28.7615 7.28142C28.3291 7.87703 27.8653 8.8223 27.235 7.81025C27.0715 7.63699 26.9254 7.44123 26.764 7.26797C26.7371 7.26191 26.7474 7.22515 26.746 7.19775C26.7345 7.18109 26.7203 7.16721 26.7135 7.14572C26.6254 7.06826 26.6206 6.92102 26.5054 6.8766C26.4989 6.87265 26.4946 6.86615 26.5052 6.84744C26.5233 6.79059 26.4508 6.77437 26.4338 6.73001ZM20.2584 13.4735C20.328 12.7465 20.1352 10.9486 20.8257 10.5929C21.0529 10.4537 21.213 10.5072 21.3791 10.6883C21.3373 10.7002 21.3321 10.7467 21.2973 10.762C21.2591 10.7649 21.2604 10.84 21.2268 10.8489C21.1488 10.8943 21.1752 11.0151 21.1123 11.0792C21.1034 11.3415 21.1391 11.6301 21.182 11.8928C21.2665 12.4111 21.2658 12.9506 21.2675 13.4754C21.3035 13.6105 21.4705 13.5554 21.5687 13.5658C21.8689 13.5658 22.1806 13.5455 22.4801 13.5503C22.7633 13.5461 23.1031 13.5618 23.3829 13.5507C23.4748 13.5574 23.5881 13.5635 23.6169 13.4529C23.6489 12.7101 23.6851 11.9603 23.6924 11.2152C23.6958 11.1226 23.6257 11.0296 23.5332 11.0255C23.1018 11.0238 22.6807 10.9674 22.2493 10.9165C22.1226 10.8895 21.9854 10.973 21.8766 10.8922C21.7074 10.8713 21.5137 10.9218 21.3791 10.7824C21.4147 10.7468 21.4586 10.7531 21.5009 10.7365C21.4575 10.7207 21.4985 10.6957 21.5058 10.666C21.4935 10.6406 21.4681 10.6528 21.4526 10.6347C22.0818 10.3904 22.8184 10.2501 23.5074 10.2366C24.5504 10.2473 24.5375 11.2423 24.5363 12.0622C24.5425 12.3325 24.5378 12.8896 24.5435 13.1669C24.5684 13.5148 24.5489 13.8966 24.313 14.1712C23.8105 14.762 22.9897 14.4874 22.3267 14.593C21.3911 14.6416 20.3641 14.7536 20.2584 13.4735ZM20.2584 19.3407C20.328 18.6138 20.1352 16.8158 20.8257 16.4601C21.0529 16.321 21.213 16.3744 21.3791 16.5555C21.3373 16.5674 21.3321 16.6139 21.2973 16.6293C21.2591 16.6321 21.2604 16.7072 21.2268 16.7161C21.1488 16.7615 21.1752 16.8823 21.1123 16.9464C21.1034 17.2087 21.1391 17.4973 21.182 17.7601C21.2665 18.2783 21.2658 18.8179 21.2675 19.3426C21.3035 19.4776 21.4705 19.4227 21.5687 19.4331C21.8689 19.4331 22.1806 19.4128 22.4801 19.4176C22.7633 19.4133 23.1031 19.4291 23.3829 19.418C23.4748 19.4247 23.5881 19.4308 23.6169 19.3202C23.6489 18.5775 23.6851 17.8276 23.6924 17.0825C23.6958 16.9899 23.6257 16.897 23.5332 16.8928C23.1018 16.8911 22.6807 16.8347 22.2493 16.7838C22.1226 16.7568 21.9854 16.8403 21.8766 16.7595C21.7074 16.7387 21.5137 16.7891 21.3791 16.6497C21.4147 16.6141 21.4586 16.6205 21.5009 16.6038C21.4575 16.588 21.4985 16.5631 21.5058 16.5333C21.4935 16.508 21.4681 16.5201 21.4526 16.502C22.0818 16.2577 22.8184 16.1174 23.5074 16.1039C24.5504 16.1147 24.5374 17.1095 24.5363 17.9296C24.5425 18.1999 24.5378 18.757 24.5435 19.0342C24.5684 19.3822 24.5489 19.764 24.313 20.0385C23.8106 20.6293 22.9897 20.3547 22.3267 20.4603C21.3911 20.5088 20.3641 20.6208 20.2584 19.3407ZM20.2584 25.2079C20.3279 24.481 20.1353 22.6829 20.8257 22.3273C21.0529 22.1881 21.2131 22.2415 21.3791 22.4227C21.3373 22.4346 21.3321 22.4811 21.2973 22.4964C21.2591 22.4993 21.2604 22.5744 21.2268 22.5833C21.1488 22.6288 21.1752 22.7495 21.1123 22.8136C21.1034 23.0759 21.1391 23.3645 21.182 23.6272C21.2665 24.1455 21.2658 24.685 21.2675 25.2098C21.3035 25.3448 21.4705 25.2898 21.5687 25.3002C21.8689 25.3002 22.1806 25.2799 22.4801 25.2847C22.7633 25.2804 23.1031 25.2962 23.3829 25.2851C23.4748 25.2918 23.5881 25.2979 23.6169 25.1873C23.6489 24.4445 23.6851 23.6946 23.6924 22.9496C23.6958 22.857 23.6257 22.7641 23.5332 22.7599C23.1018 22.7582 22.6807 22.7018 22.2493 22.6509C22.1227 22.6239 21.9854 22.7074 21.8766 22.6266C21.7074 22.6058 21.5138 22.6562 21.3791 22.5168C21.4147 22.4812 21.4586 22.4876 21.5009 22.4708C21.4575 22.455 21.4985 22.4301 21.5058 22.4003C21.4935 22.375 21.4681 22.3871 21.4526 22.3691C22.0818 22.1246 22.8184 21.9844 23.5074 21.9709C24.5504 21.9816 24.5374 22.9764 24.5363 23.7965C24.5425 24.0668 24.5378 24.6239 24.5435 24.9012C24.5684 25.2492 24.5489 25.631 24.313 25.9056C23.8105 26.4962 22.9897 26.2218 22.3267 26.3273C21.3911 26.376 20.3641 26.488 20.2584 25.2079ZM4.57629 7.56385C4.62526 6.63714 4.67198 5.70597 4.67325 4.77465C4.7294 4.16157 5.09605 3.1862 5.83912 3.32219C5.71824 3.36186 5.58801 3.38686 5.48584 3.47074C5.60785 3.42646 5.51933 3.47761 5.50815 3.53899C5.54903 3.5406 5.60623 3.50158 5.6488 3.50377C5.07613 3.91802 5.07853 4.71444 5.17506 5.37356C5.20693 5.71189 5.25393 6.28149 5.27708 6.62822C5.36792 7.27996 5.14192 8.27477 5.78009 8.6549C6.38885 8.66571 7.06101 8.63728 7.67568 8.63736C9.08648 8.51971 9.24852 8.869 9.91969 10.0485C10.151 9.68749 10.3272 9.24927 10.6312 8.94068C11.0656 8.47199 11.7543 8.58935 12.3227 8.56523C12.8425 8.555 13.485 8.56078 14.0053 8.54624C14.0103 8.54163 14.015 8.54806 14.0212 8.54273C14.3759 8.33812 14.3758 7.75727 14.3607 7.37203L14.3594 7.31481L14.3417 5.828C14.3093 5.30209 14.4676 4.42975 14.0188 4.06482C14.0154 4.06504 14.0121 4.05978 14.0102 4.06008C14.0084 4.06146 14.0073 4.05839 14.0064 4.05796C12.627 4.03655 11.1889 4.03194 9.80747 3.99256C8.95983 3.98525 8.12374 3.88105 7.28377 3.78583C6.8628 3.71802 6.43754 3.71013 6.05436 3.50728C5.96613 3.45752 5.94058 3.43735 5.83934 3.41623C6.85668 3.15405 7.91462 3.18013 8.96476 3.14287C10.1975 3.06088 11.4291 2.99277 12.6674 3.00549C13.2056 3.02778 13.7316 2.95945 14.2691 3.04246C15.0913 3.2912 15.3788 4.30114 15.3482 5.09486C15.3433 5.76465 15.3618 6.51277 15.3627 7.1824C15.4096 8.0242 15.2359 9.16071 14.3454 9.48793C14.1974 9.54032 14.0331 9.54953 13.8773 9.55026C13.1164 9.56209 12.2395 9.57086 11.4735 9.57379C11.1299 9.57057 10.7832 10.4736 10.5876 10.7064C10.5805 10.7091 10.3383 11.1272 10.331 11.1326C10.0442 11.566 9.54565 11.3482 9.38974 10.9164C9.12708 10.5741 8.79181 9.51905 8.37767 9.49553C7.62875 9.49114 6.85844 9.48413 6.10875 9.47514C5.06994 9.6123 4.53323 8.4812 4.57629 7.56385ZM8.52859 6.39863C8.53274 6.32548 8.60789 6.34821 8.64926 6.35719C9.08008 6.40213 9.25302 6.52709 9.55867 6.81631C9.94383 6.23085 10.5234 4.85218 11.3702 5.23121C11.3669 5.24839 11.3992 5.27886 11.3974 5.30253C11.3933 5.30977 11.3937 5.31912 11.4072 5.33783C11.4217 5.35792 11.421 5.36918 11.4174 5.37853C11.3976 5.40425 11.4296 5.46212 11.4327 5.50173C11.3712 5.58701 11.3655 5.69691 11.3035 5.78452C11.2951 5.80147 11.313 5.83465 11.2982 5.84707C11.2785 5.8831 11.2689 5.92504 11.2724 5.97663C11.2095 6.13242 11.1173 6.27301 11.0158 6.40593C10.8584 6.61594 10.7102 6.86826 10.5538 7.07667C10.2754 7.43151 9.88444 8.28573 9.35033 7.85942C9.22615 7.71942 9.12539 7.55946 8.99501 7.42486C8.89095 7.30699 8.79399 7.17627 8.68747 7.0633C8.67241 7.05672 8.66263 7.04547 8.67403 7.01353C8.64842 6.92672 8.56025 6.8633 8.54034 6.76523C8.53485 6.71678 8.43621 6.72957 8.46203 6.67754C8.47315 6.58101 8.34094 6.61287 8.41827 6.44883C8.44824 6.43355 8.45478 6.44715 8.47941 6.44737C8.48032 6.42296 8.51213 6.41448 8.52859 6.39863Z" fill="black"/>
</svg>
