<svg width="32" height="32" viewBox="0 0 32 32" fill="none" xmlns="http://www.w3.org/2000/svg">
<path d="M30.6342 22.5922C30.7234 22.1485 30.7271 21.8236 30.7653 21.4556C30.8754 20.0981 30.924 18.2814 30.7954 16.9245L30.6939 15.6347C30.6557 15.2691 30.6293 14.9294 30.5049 14.6624C30.4165 14.459 30.2529 14.2976 30.0483 14.2119C29.9136 14.1614 29.8403 14.1608 29.8329 14.1793C29.796 14.2291 30.1376 14.3079 30.2816 14.7485C30.3948 15.1904 30.3197 15.9947 30.3413 16.9381C30.3659 17.8944 30.3111 19.0544 30.1997 20.3719C30.1665 20.7011 30.132 21.0408 30.0957 21.3897C30.0514 21.7245 30.0176 22.1307 29.948 22.4174C29.908 22.5602 29.8545 22.6531 29.7849 22.6968C29.6126 22.8304 29.268 22.7399 28.8822 22.7196C28.6606 22.7073 28.3308 22.7184 28.0403 22.9559C27.7646 23.2304 27.7419 23.4802 27.6914 23.69C27.6562 23.8963 27.6335 24.1045 27.6237 24.3134L27.5929 24.8931C27.5849 25.0451 27.5406 25.2617 27.5123 25.2857C27.5283 25.3085 27.3277 25.3725 27.1093 25.1214C26.8649 24.863 26.6373 24.5276 26.3843 24.1768C26.1296 23.8285 25.8539 23.4568 25.4588 23.1331C25.2484 22.9613 25.0087 22.8291 24.7511 22.743C24.6131 22.6998 24.4706 22.6724 24.3265 22.6611L23.9923 22.6408L22.6551 22.5639C22.2102 22.5467 21.7536 22.4925 21.2588 22.511C20.8889 22.5214 20.5388 22.5362 20.2108 22.519C20.063 22.5133 19.9162 22.4927 19.7726 22.4574C19.7264 22.4453 19.6816 22.4282 19.6391 22.4064C19.5979 22.3694 19.5468 22.3473 19.5117 22.3017C19.1843 21.9885 19.1314 21.287 19.1511 20.6457C19.2046 19.2747 19.2213 17.9504 19.252 16.6907C19.2803 16.0704 19.2262 15.3891 19.3843 15.015C19.4107 14.945 19.4553 14.8834 19.5136 14.8365C19.5271 14.8285 19.5806 14.8027 19.6453 14.778C19.7019 14.7522 19.764 14.7344 19.8237 14.7134C20.5314 14.4882 21.396 14.5276 22.1708 14.527C22.708 14.527 23.2016 14.4962 23.6785 14.4808C25.5849 14.4045 27.1271 14.3282 28.1923 14.2556C28.7265 14.2224 29.1382 14.1719 29.4071 14.1744C29.6785 14.1744 29.8213 14.21 29.8329 14.1793C29.844 14.1547 29.7142 14.0587 29.4262 13.999C29.1351 13.9374 28.7173 13.9331 28.1862 13.9134C27.4889 13.8925 26.5862 13.8777 25.5142 13.8691C25.6809 13.1073 25.7197 11.111 25.7283 10.3325C25.7259 9.58297 25.7603 8.79466 25.6846 7.89005C25.6163 6.9959 25.2834 6.05497 24.6766 5.45559C24.1203 4.87897 23.4736 4.49682 22.8908 4.31959C22.5395 4.20827 22.1725 4.15465 21.804 4.16082C20.2336 3.57436 18.5099 3.87282 16.7751 3.83466L10.9025 3.8839C8.84217 3.91282 6.66556 3.86174 4.39233 4.01313C3.8231 4.05005 3.17448 4.11589 2.56463 4.45928C2.25381 4.63697 1.99055 4.88715 1.79725 5.18851C1.60463 5.48759 1.49263 5.81374 1.42187 6.13128C1.20648 7.36266 1.16279 8.52205 1.13202 9.73805C1.10863 12.0808 1.14863 13.3965 1.1794 18.3861C1.19171 19.0537 1.13017 19.6697 1.4551 20.2107C1.55848 20.3707 1.6834 20.5307 1.90248 20.6464C2.10556 20.7497 2.28894 20.7713 2.44217 20.7879C2.73756 20.8125 3.01694 20.8131 3.28279 20.8107C4.20525 20.8027 5.40771 20.7577 6.30679 20.9104C6.53325 20.951 6.75848 21.0021 6.9351 21.0821C7.11971 21.1725 7.20771 21.2304 7.28463 21.3799C7.43971 21.7233 7.50556 22.2008 7.54248 22.65C7.57879 23.1067 7.5874 23.567 7.58925 24.0224C7.58187 25.2267 7.57448 25.6377 7.58925 26.0494C7.59787 26.127 7.59048 26.3904 7.65387 26.5417C7.68393 26.6248 7.73279 26.6998 7.79663 26.7608C7.81017 26.9405 7.84217 27.1405 7.93325 27.3657C8.0514 27.6322 8.22433 27.9885 8.70125 28.1676C8.94125 28.2464 9.22679 28.2033 9.44587 28.1024C9.62679 28.0174 9.81079 27.9196 9.98925 27.802C11.1776 27.0267 11.8969 25.791 12.9234 24.8187C14.3302 23.4464 16.0145 22.7516 17.2754 22.5048C17.6824 22.4235 18.0931 22.3623 18.5062 22.3214C18.5911 22.5319 18.7117 22.738 18.8945 22.9202C18.9745 23.0119 19.0803 23.0777 19.1794 23.1504C19.3031 23.2236 19.4268 23.2716 19.5376 23.3011C19.7616 23.3627 19.964 23.3824 20.1609 23.3947C20.5511 23.4156 20.924 23.3984 21.2809 23.3885C21.7019 23.3707 22.1517 23.4217 22.6065 23.439L24.2711 23.5288C24.3449 23.5374 24.4188 23.546 24.4914 23.5707C24.6366 23.6162 24.7806 23.698 24.9209 23.8076C25.2016 24.031 25.4526 24.3473 25.6982 24.679C25.9456 25.0113 26.1886 25.3707 26.5166 25.7091C26.6859 25.8814 26.9456 26.079 27.276 26.1245C27.436 26.146 27.6083 26.1387 27.7831 26.071C27.9591 26.0064 28.124 25.8617 28.2114 25.7073C28.3019 25.5534 28.3345 25.41 28.3573 25.2894C28.3776 25.1768 28.3911 25.0617 28.3973 24.9467L28.4176 24.3528C28.4224 24.1769 28.4376 24.0014 28.4631 23.8273C28.4816 23.6679 28.5493 23.5245 28.5505 23.535C28.5813 23.506 28.6816 23.4667 28.8551 23.4753C29.0212 23.4784 29.2243 23.5091 29.4594 23.5085C29.6859 23.5128 29.9948 23.4624 30.2311 23.2685C30.4736 23.0827 30.5837 22.807 30.6342 22.5922ZM23.5837 13.8599C23.684 13.258 23.7209 12.271 23.7302 11.6568C24.0274 12.0051 24.62 12.2137 25.0336 12.122C25.0705 12.5731 25.1493 13.423 25.2619 13.8667C24.7634 13.8636 23.652 13.8605 23.5837 13.8599ZM24.7326 7.4322C24.7671 7.60636 24.7942 7.78666 24.8108 7.97559C24.8348 8.25559 24.8483 8.5399 24.86 8.8242C24.5486 8.70297 23.964 8.51836 23.6311 8.54051C23.6213 8.40882 23.5979 7.9879 23.5086 7.19282C23.8379 7.32205 24.3825 7.47159 24.7326 7.4322ZM24.9197 10.3553C24.9376 10.7276 24.9579 11.0808 24.9794 11.4113C24.862 11.3342 24.7371 11.2692 24.6065 11.2174C24.2588 11.0808 23.9234 11.0439 23.7339 11.135C23.7325 10.5069 23.7141 9.87897 23.6785 9.2519C24.023 9.5161 24.4549 9.6399 24.8871 9.59836C24.8951 9.85866 24.9043 10.1147 24.9197 10.3553ZM24.0809 6.00266C24.2336 6.17682 24.3529 6.38297 24.4576 6.60266C24.3591 6.55466 24.2545 6.51036 24.1363 6.47774C23.9014 6.4095 23.6543 6.39374 23.4126 6.43159C23.4003 6.34113 23.3917 6.25682 23.3788 6.16513C23.3265 5.83405 23.2533 5.4322 23.0145 5.08697C23.4157 5.3345 23.7756 5.64349 24.0809 6.00266ZM7.25694 20.3694C6.98063 20.2433 6.71294 20.1848 6.44525 20.1319C5.10925 19.8901 3.38248 20.0384 2.52525 19.9608C2.41325 19.9497 2.32587 19.9282 2.28833 19.9054C2.26556 19.8993 2.21263 19.8414 2.1714 19.7756C1.99602 19.5048 2.03417 18.943 2.02987 18.3861L2.02925 16.7104C2.02863 14.4642 1.98617 12.1202 2.01017 9.75466C2.03479 8.5879 2.09263 7.38113 2.27479 6.32205C2.38063 5.8162 2.61202 5.42851 3.00033 5.21066C3.39294 4.9842 3.90802 4.90482 4.45263 4.87159C6.67171 4.71159 8.84156 4.74359 10.9154 4.69313L16.7862 4.56266C17.7019 4.55651 18.6182 4.47836 19.4403 4.46728C20.2711 4.45682 21.0711 4.51959 21.724 4.78728C22.0502 4.91836 22.3148 5.12143 22.4982 5.37128C22.6951 5.60389 22.764 5.91897 22.8274 6.25497C23.4736 9.97928 23.4422 13.1307 23.4853 13.8599C23.0625 13.8593 22.6237 13.8648 22.1825 13.8494C21.3271 13.8224 20.436 13.754 19.6065 13.9947C19.5283 14.0187 19.4502 14.0402 19.3726 14.0722C19.3006 14.0987 19.2182 14.1276 19.1043 14.1947C18.9013 14.3239 18.7634 14.5165 18.6809 14.6968C18.5173 15.0642 18.4988 15.4088 18.4797 15.7313C18.4083 17.559 18.4951 15.3104 18.2914 20.6199C18.2896 20.6648 18.2914 20.7122 18.2914 20.7577C17.5222 20.6433 16.7283 20.6777 15.9646 20.8199C15.9166 20.8285 15.8631 20.8445 15.8139 20.8544C15.796 20.858 15.7751 20.8507 15.7585 20.8581C15.7511 20.8611 15.7462 20.8679 15.74 20.8716C14.7477 21.087 13.8036 21.4838 12.9554 22.0421C12.3859 22.4188 11.8587 22.856 11.3831 23.3461C10.6028 24.1436 9.93756 25.1393 9.06925 25.8057C8.79479 26.0211 8.3154 26.2907 8.32771 26.2211C8.31599 26.218 8.30554 26.2112 8.29782 26.2018C8.2901 26.1925 8.28549 26.1809 8.28463 26.1688L8.2791 26.0273C8.27417 25.6734 8.28279 25.455 8.31787 24.026C8.32758 23.5488 8.31875 23.0713 8.2914 22.5947C8.25079 22.1017 8.21694 21.6002 7.97817 21.0414C7.89756 20.8956 7.81263 20.7504 7.6674 20.6291C7.54504 20.5214 7.40653 20.4342 7.25694 20.3694ZM11.1616 25.4839C11.1339 25.4605 11.1092 25.4347 11.0797 25.4131C10.9111 25.295 10.7277 25.2193 10.5628 25.2057C10.9505 24.743 11.2963 24.2931 11.6477 23.8925C11.7769 24.119 11.9406 24.2537 12.1585 24.3485C11.8061 24.7088 11.4733 25.0878 11.1616 25.4839ZM8.86617 27.5694C8.6871 27.5424 8.49079 27.3417 8.37263 27.1467C8.32587 27.0728 8.29263 26.9996 8.25817 26.927C8.5351 26.9171 8.8231 26.7633 8.92033 26.6968C8.94679 26.6814 8.96894 26.6611 8.99479 26.6451C8.98494 26.8248 9.06063 27.0507 9.26679 27.2408C9.30802 27.279 9.35294 27.2968 9.3954 27.3257C9.30987 27.3848 9.22433 27.4482 9.1394 27.4993C9.02925 27.5577 8.95356 27.5793 8.86617 27.5694ZM10.0323 26.7971C9.98328 26.7238 9.92632 26.6561 9.86248 26.5953C9.72648 26.4722 9.56833 26.386 9.41694 26.3553C9.43417 26.3417 9.45387 26.3313 9.47048 26.3184C9.74494 26.0974 9.98125 25.8568 10.204 25.6144C10.2428 25.7848 10.3585 25.9768 10.5683 26.127C10.5849 26.1393 10.6016 26.1417 10.6176 26.1516C10.5517 26.2316 10.4846 26.3159 10.4182 26.391C10.2896 26.5368 10.1616 26.6704 10.0323 26.7971ZM12.7609 23.7965C12.674 23.6907 12.5732 23.5972 12.4613 23.5184C12.3681 23.456 12.2687 23.4034 12.1646 23.3614C12.4971 23.0302 12.8544 22.7249 13.2336 22.4482C13.2539 22.4334 13.2742 22.4236 13.2951 22.4094C13.2711 22.6076 13.3868 22.8925 13.6551 23.1184C13.6594 23.1221 13.6637 23.1227 13.6674 23.1264C13.3585 23.3251 13.0557 23.5491 12.7609 23.7965ZM14.4446 22.6857C14.379 22.5982 14.3041 22.5179 14.2212 22.4464C14.0385 22.295 13.8397 22.1977 13.6662 22.1731C14.2735 21.7919 14.9278 21.4911 15.6126 21.2784C15.6323 21.463 15.7111 21.6839 15.8649 21.8962C15.9185 21.9713 15.98 22.0267 16.0403 22.0851C15.6453 22.1836 15.2317 22.319 14.812 22.5048C14.6902 22.5584 14.5677 22.6242 14.4446 22.6857ZM17.1862 21.8907C17.0816 21.8999 16.9677 21.9177 16.8569 21.9325C16.8108 21.7633 16.7105 21.5707 16.5769 21.383C16.4969 21.2722 16.4108 21.1781 16.3234 21.0937C16.8746 20.9764 17.4357 20.9115 17.9991 20.8999C18.1099 20.8968 18.2065 20.8956 18.2914 20.8937C18.2902 21.1676 18.2976 21.447 18.3443 21.7411C18.3536 21.7904 18.3671 21.8427 18.3788 21.8937C18.0489 21.863 17.6526 21.8537 17.1862 21.8907Z" fill="black"/>
<path d="M8.03461 13.3319C8.12446 13.714 8.28384 14.1688 8.57184 14.6574C8.85984 15.1473 9.29615 15.6088 9.67769 16.1239C10.0592 16.6014 10.2088 17.2525 10.2506 18.0205C10.266 18.2297 10.2912 18.4636 10.3774 18.7097C10.4605 18.9534 10.6235 19.207 10.8451 19.3824C11.2869 19.7331 11.8081 19.8371 12.3171 19.8427C12.5817 19.8365 12.8143 19.8144 13.0758 19.7565C13.3312 19.6968 13.6088 19.6137 13.8728 19.4088C14.1411 19.2076 14.322 18.8611 14.3712 18.5577C14.4278 18.25 14.4081 17.9768 14.3854 17.7202C14.33 17.2064 14.242 16.7405 14.3681 16.4753C14.3953 16.4122 14.4347 16.3552 14.4838 16.3073C14.5478 16.2427 14.9903 15.9171 15.354 15.5934C15.7651 15.234 16.1478 14.7934 16.3989 14.2753C16.6451 13.7559 16.762 13.1904 16.7454 12.6445C16.7181 11.5972 16.2958 10.599 15.5632 9.85004C14.8722 9.12389 13.9528 8.76328 13.1152 8.64389C12.2672 8.53066 11.4666 8.62112 10.7878 8.85066C9.41184 9.30174 8.57492 10.2285 8.23646 10.9356C8.05923 11.2931 7.99707 11.602 8.00446 11.8137C7.99092 12.2088 8.04569 12.2457 8.17799 11.847C8.22415 11.663 8.33061 11.4014 8.53246 11.106C8.9263 10.5171 9.73369 9.77066 10.9651 9.44574C11.5731 9.27835 12.2801 9.23774 12.9983 9.36328C13.7097 9.49374 14.4488 9.82051 14.9768 10.4082C15.5472 11.0201 15.8707 11.8216 15.8851 12.658C15.8914 13.0847 15.7988 13.5071 15.6143 13.8919C15.2912 14.5417 14.7589 14.9633 14.1989 15.41C14.09 15.4999 14.0229 15.5417 13.8728 15.6808C13.7429 15.8076 13.6352 15.9651 13.5651 16.13C13.5349 16.2102 13.5099 16.2922 13.49 16.3756L13.4758 16.375C13.1503 16.3602 12.6635 16.4039 12.1792 16.4697L10.9325 16.6334C10.8463 16.6457 10.7694 16.6611 10.7011 16.6777C10.5731 16.327 10.4026 16.0014 10.1675 15.7424C9.71215 15.202 9.27461 14.8008 8.9823 14.3873C8.72773 14.0301 8.51931 13.6422 8.36199 13.2328C8.1023 12.5516 8.10846 12.1313 8.03953 12.1282C7.98907 12.1184 7.85923 12.559 8.03461 13.3319ZM12.3085 19.0334C11.9337 19.0445 11.5552 18.9553 11.3275 18.7799C11.2537 18.727 11.1989 18.6562 11.1515 18.5768C11.9232 18.831 12.882 18.7651 13.5128 18.474C13.4801 18.5928 13.4346 18.6808 13.3497 18.7534C13.1405 18.9313 12.6777 19.0137 12.3085 19.0334ZM10.8906 17.2531C11.2217 17.3682 11.7601 17.4156 12.2925 17.3405C12.6847 17.289 13.0695 17.1915 13.4389 17.05C13.4586 17.3337 13.5158 17.5854 13.5294 17.807C13.5331 17.8371 13.5331 17.8642 13.5355 17.8931C13.2223 17.8476 12.754 17.8513 12.2328 17.8562C11.7343 17.866 11.2838 17.8771 10.9725 17.927C10.9506 17.697 10.9144 17.4687 10.8641 17.2433L10.8906 17.2531ZM8.42107 16.7947C8.26723 16.6076 7.68138 16.8347 7.11338 17.3024C6.54538 17.77 6.21 18.3005 6.36384 18.4876C6.51769 18.6747 7.10353 18.4476 7.67153 17.9805C8.23953 17.5128 8.57553 16.9817 8.42107 16.7947ZM6.93799 13.175C6.94046 12.9325 6.46107 12.7319 5.86723 12.7257C5.27461 12.7202 4.79153 12.9128 4.78907 13.1553C4.78661 13.3977 5.26599 13.5984 5.85984 13.6045C6.45307 13.6094 6.93553 13.4174 6.93799 13.175ZM17.3952 13.0562C17.3952 13.2987 17.8506 13.495 18.4125 13.495C18.9743 13.495 19.4291 13.2987 19.4291 13.0562C19.4291 12.8137 18.9737 12.6168 18.4125 12.6168C17.8506 12.6168 17.3952 12.8137 17.3952 13.0562ZM6.68569 9.25374C7.14661 9.66358 7.65123 9.84943 7.81184 9.66789C7.97369 9.48697 7.73 9.00758 7.26907 8.59712C6.80753 8.18728 6.30292 8.00143 6.1423 8.18297C5.98107 8.36389 6.22415 8.84328 6.68569 9.25374ZM11.3349 7.88881C11.5731 7.84266 11.6832 7.37435 11.5811 6.84266C11.4783 6.31035 11.2026 5.91651 10.9645 5.96266C10.7263 6.00881 10.6161 6.47651 10.7183 7.00881C10.8211 7.54051 11.0968 7.93435 11.3349 7.88881ZM17.0328 8.40389C17.4888 7.87774 17.7097 7.32266 17.5269 7.16389C17.3435 7.00512 16.8254 7.30235 16.37 7.82851C15.9134 8.35404 15.6925 8.90974 15.8758 9.06851C16.0592 9.22728 16.5774 8.92943 17.0328 8.40389ZM25.01 19.3971C23.8001 19.3971 22.8192 19.594 22.8192 19.8365C22.8192 20.079 23.8001 20.2759 25.01 20.2759C26.2192 20.2759 27.2001 20.079 27.2001 19.8365C27.2001 19.594 26.2198 19.3971 25.01 19.3971ZM26.01 18.0642C24.6161 18.0642 23.4863 18.2611 23.4863 18.5036C23.4863 18.746 24.6161 18.9424 26.0094 18.9424C27.4032 18.9424 28.5325 18.7454 28.5325 18.5036C28.5325 18.2617 27.4038 18.0642 26.01 18.0642ZM16.5761 17.2316C16.1035 16.9257 15.6223 16.8488 15.5011 17.0593C15.3805 17.2691 15.6475 17.6771 16.0992 17.9688C16.5503 18.2611 17.0322 18.338 17.1743 18.1417C17.3165 17.9454 17.0488 17.538 16.5761 17.2316Z" fill="black"/>
</svg>
