<svg width="33" height="32" viewBox="0 0 33 32" fill="none" xmlns="http://www.w3.org/2000/svg">
<path d="M21.5574 13.8475C20.7234 13.9881 20.0253 13.896 20.0059 13.9929C19.9768 14.0754 20.704 14.3275 21.6107 14.1772C22.5222 14.0317 23.1234 13.5614 23.075 13.4936C23.0216 13.4111 22.3913 13.7166 21.5574 13.8475ZM21.5816 14.5748C21.5768 14.6669 22.0325 14.7348 22.5465 14.5408C23.0604 14.3517 23.3562 13.9978 23.2931 13.9299C23.2301 13.8572 22.881 14.056 22.4253 14.2257C21.9792 14.4002 21.5816 14.4778 21.5816 14.5748ZM12.8931 29.3675C12.0204 29.3578 11.3513 29.062 11.3077 29.1493C11.2543 29.2172 11.9186 29.6826 12.8883 29.702C13.8531 29.7263 14.5368 29.2899 14.4883 29.222C14.4495 29.1299 13.7659 29.3917 12.8931 29.3675ZM12.4325 30.3711C11.9525 30.3663 11.555 30.3129 11.5259 30.4051C11.4968 30.4875 11.8895 30.7008 12.4277 30.7057C12.9659 30.7154 13.3683 30.5214 13.3392 30.4342C13.315 30.3469 12.9174 30.3808 12.4325 30.3711ZM17.4556 4.12628C17.168 3.98968 16.8407 3.96211 16.5343 4.0487C16.2143 4.14082 15.9234 4.27173 15.5937 4.39779C14.9489 4.65961 14.2507 4.97961 13.5331 5.34809C13.1743 5.53719 12.835 5.70203 12.4907 5.92506C12.321 6.04143 12.161 6.21113 12.0737 6.40022C11.9816 6.58931 11.9428 6.7784 11.9137 6.95779C11.8313 7.66567 11.8168 8.28143 11.7828 8.80991C11.7247 9.86203 11.715 10.5117 11.7634 10.5117C11.8119 10.5166 11.904 9.87173 12.0204 8.82931C12.0834 8.31052 12.1271 7.68022 12.2192 7.01113C12.2774 6.67658 12.384 6.38082 12.675 6.20143C12.9659 6.01719 13.3343 5.83779 13.6834 5.65355C14.3913 5.28991 15.0798 4.96506 15.7101 4.6887C16.0253 4.55294 16.3307 4.41234 16.6071 4.32022C16.8786 4.22809 17.1307 4.25719 17.3586 4.34931C17.8143 4.54325 18.1683 4.81476 18.4592 4.90688C18.7453 5.0184 18.9247 4.99416 18.9198 4.97961C18.9247 4.95052 18.7598 4.93113 18.5125 4.79052C18.2604 4.65961 17.955 4.37355 17.4556 4.12628ZM25.4943 3.7384C25.921 4.34446 25.921 4.97961 26.018 4.98446C26.0616 4.98931 26.1247 4.82931 26.115 4.55294C26.1101 4.28143 26.0083 3.8984 25.7659 3.54931C25.5234 3.20022 25.2034 2.97234 24.9513 2.86567C24.6992 2.759 24.5247 2.76385 24.5101 2.80264C24.4907 2.89476 25.0871 3.12264 25.4943 3.7384ZM24.8592 4.42203C25.2665 4.92628 25.3974 5.45961 25.4943 5.44506C25.5816 5.44991 25.5913 4.80506 25.1259 4.21355C24.6653 3.61719 24.0398 3.47658 24.0204 3.56385C23.9768 3.65113 24.4616 3.9081 24.8592 4.42203Z" fill="black"/>
<path d="M31.5036 15.4519C31.203 14.6519 30.7423 13.9392 30.3351 13.1828C29.9133 12.4362 29.4526 11.6749 28.8902 11.001C28.6139 10.6616 28.2939 10.3465 27.9448 10.0701C27.586 9.79858 27.1545 9.57555 26.6648 9.50767C26.1557 9.4301 25.6757 9.63858 25.312 9.87131C25.1569 10.0119 25.0017 10.138 24.8611 10.2834C24.7933 10.3707 24.7254 10.4531 24.6672 10.5452C24.6187 10.6374 24.5751 10.7295 24.5266 10.8168C24.4005 11.1416 24.3472 11.4519 24.3375 11.7477C24.1193 11.8252 23.8672 11.9077 23.5714 11.9852C23.2757 12.0531 22.9411 12.1016 22.5823 12.1113C22.6502 11.8059 22.7326 11.224 22.7666 10.4386C22.7957 9.83737 22.786 9.12464 22.7811 8.33919C22.7763 7.94646 22.7763 7.53919 22.786 7.11252C22.7908 6.89919 22.8005 6.68585 22.8054 6.46767L22.8199 6.13797C22.8151 6.01191 22.8151 5.881 22.8102 5.75009C22.7666 5.22161 22.4999 4.69797 22.1411 4.31494C21.7823 3.92222 21.3508 3.63616 20.9242 3.38403C20.4975 3.13191 20.066 2.91373 19.6636 2.681C19.2563 2.45797 18.9169 2.20585 18.5048 1.91494C18.1072 1.63858 17.6126 1.35737 17.0405 1.30403C16.7642 1.27494 16.4636 1.30403 16.2114 1.38161C15.9545 1.45434 15.7314 1.561 15.5326 1.66282C14.7617 2.07009 14.083 2.46282 13.4914 2.83131C12.9533 3.16585 12.4587 3.4907 11.9981 3.80585C11.5763 4.10646 11.1157 4.3101 10.6648 4.70767C10.4417 4.90646 10.2526 5.16828 10.146 5.4301C10.0345 5.69676 9.99083 5.94888 9.95689 6.18646C9.93265 6.42888 9.9278 6.63252 9.92295 6.82161L9.9084 7.38403C9.88901 8.81919 9.90841 9.77919 9.92295 10.4289C9.93265 10.9234 9.95689 11.2386 9.98598 11.4374C9.61265 11.5149 9.37022 11.5974 9.37507 11.6749C9.37992 11.8059 10.1363 11.8931 11.0672 11.9416C12.003 11.9901 13.0939 11.9755 13.7339 12.0483C14.6987 12.1404 15.1642 12.3731 15.4502 12.5234C15.2466 12.6107 15.043 12.7028 14.8442 12.8046C14.6551 12.8968 14.4757 13.0131 14.2963 13.1198C14.1314 13.2265 13.9666 13.3283 13.8066 13.4301C13.4817 13.6386 13.1617 13.8519 12.8611 14.0701C12.2648 14.5113 11.7266 14.9574 11.3145 15.4568C11.1302 15.6895 10.9557 15.9319 10.8345 16.218C10.7714 16.3634 10.7133 16.504 10.689 16.6737C10.6454 16.8289 10.6551 17.0034 10.6696 17.1731C10.7181 17.5028 10.8636 17.8277 11.0914 18.0459C11.3145 18.2689 11.5714 18.4046 11.8187 18.4822C12.3181 18.6471 12.7933 18.6083 13.186 18.5259C13.5884 18.4434 13.9326 18.298 14.2187 18.1477C14.8005 17.8422 15.2078 17.5271 15.5569 17.2846C15.9011 17.0374 16.1678 16.8483 16.3908 16.7028C16.832 16.4216 17.0696 16.2907 17.1908 16.2034C17.312 16.1113 17.312 16.0434 17.2926 15.9804C17.2781 15.9174 17.2539 15.8592 17.089 15.8446C16.9242 15.8301 16.6042 15.8737 16.066 16.1065C15.7993 16.2228 15.4842 16.3974 15.1157 16.6204C14.7472 16.8386 14.3302 17.1198 13.826 17.3574C13.5739 17.4786 13.3023 17.5756 13.0066 17.6289C12.7108 17.6822 12.3957 17.6968 12.1145 17.5901C11.8236 17.4883 11.6345 17.3089 11.6102 17.0471C11.5763 16.8046 11.7411 16.4216 12.0466 16.058C12.7108 15.258 13.9617 14.3756 15.2563 13.5756C16.5557 12.8337 18.209 12.5331 19.7023 12.4992C20.4636 12.4749 21.1472 12.5477 21.8454 12.6059C22.5533 12.6398 23.1836 12.5089 23.6733 12.3295C23.9254 12.2325 24.1484 12.1307 24.3326 12.0337C24.3423 12.2374 24.3617 12.4313 24.3908 12.6107C24.4781 13.1392 24.6187 13.6095 24.7787 14.0313C24.9387 14.4531 25.123 14.841 25.3217 15.1804C25.5108 15.5052 25.6854 15.8059 25.8599 16.0774C26.5484 17.1731 27.1108 17.8616 27.5472 18.2883C27.9787 18.7149 28.2793 18.8749 28.449 18.9234C28.6187 18.9719 28.6623 18.9234 28.6963 18.8701C28.7302 18.8168 28.7545 18.7537 28.6672 18.6228C28.5848 18.4871 28.3908 18.2883 28.0563 17.8374C27.7217 17.3913 27.2466 16.7077 26.6211 15.6216C26.4708 15.3501 26.306 15.0495 26.1266 14.7295C25.9569 14.4192 25.8017 14.0846 25.666 13.7016C25.5302 13.3234 25.409 12.9065 25.3411 12.4652C25.2684 12.0289 25.2684 11.5489 25.4139 11.1755C25.4381 11.1271 25.4623 11.0834 25.4866 11.0301L25.5787 10.904L25.8163 10.681C25.9666 10.8846 26.1848 11.1755 26.4514 11.5392C26.9896 12.2665 27.712 13.2846 28.4684 14.4386C29.2199 15.5925 29.8551 16.6689 30.2866 17.464C30.5581 17.9586 30.752 18.3416 30.8733 18.5549C30.7084 18.7392 30.4999 18.8749 30.2914 18.9525C29.8405 19.1125 29.4139 19.0495 29.1472 18.9865C28.8708 18.9186 28.7205 18.8459 28.7011 18.8749C28.6866 18.8992 28.803 19.0301 29.0793 19.1659C29.3557 19.2968 29.8211 19.4422 30.3981 19.3065C30.6842 19.2386 30.9896 19.0883 31.2417 18.8362C31.4939 18.5743 31.6684 18.2349 31.7702 17.8616C31.9836 17.0907 31.809 16.2325 31.5036 15.4519ZM21.8939 12.0725C21.2684 11.9707 20.4926 11.8398 19.712 11.8252C18.5823 11.7865 17.3363 11.9028 16.1678 12.2665C16.1484 12.218 16.1242 12.1695 16.0805 12.1065C15.9739 11.9465 15.7654 11.7331 15.3969 11.5295C15.0284 11.3259 14.4999 11.1562 13.8211 11.0931C13.0648 11.0107 11.9496 11.1416 11.0381 11.2628C10.8393 11.2919 10.6502 11.321 10.4708 11.3501C10.5145 11.1513 10.5581 10.8652 10.6066 10.458C10.6793 9.80343 10.7278 8.83373 10.7957 7.41797C10.8054 7.24343 10.8151 7.05919 10.8248 6.86525C10.8345 6.67131 10.849 6.47252 10.8684 6.29797C10.9266 5.93434 11.0187 5.63373 11.2951 5.40585C11.5714 5.15858 12.0563 4.92585 12.5363 4.59616C13.6438 3.84056 14.7878 3.13992 15.9642 2.49676C16.323 2.30767 16.6236 2.18646 16.9581 2.2204C17.2926 2.23979 17.6417 2.40949 18.0151 2.65191C18.3787 2.89434 18.8151 3.19494 19.2563 3.41797C19.6926 3.6507 20.1242 3.84949 20.5314 4.07252C21.3411 4.50403 22.0393 5.06161 22.1363 5.83252L22.1557 6.11858V6.45797L22.1702 7.11737C22.1848 7.54888 22.2139 7.96585 22.2429 8.35858C22.3011 9.14403 22.3642 9.84706 22.3933 10.4337C22.4369 11.2192 22.432 11.801 22.4466 12.1065C22.272 12.1065 22.0878 12.0968 21.8939 12.0725ZM31.2514 17.7404C31.1981 18.0168 31.0963 18.2689 30.9508 18.4628C30.8733 18.2204 30.723 17.8422 30.4999 17.3574C30.1169 16.5283 29.5108 15.4228 28.7545 14.2592C27.9933 13.0955 27.232 12.0919 26.6454 11.3986C26.3545 11.0543 26.112 10.7877 25.9326 10.6083C26.1314 10.4968 26.3351 10.3998 26.5678 10.4386C26.8248 10.4725 27.1205 10.5986 27.4017 10.8022C27.683 11.0204 27.9642 11.2725 28.2211 11.5731C28.7448 12.1646 29.2102 12.8677 29.6514 13.5852C30.083 14.3077 30.5726 15.0107 30.8781 15.7137C31.1933 16.4071 31.3726 17.1295 31.2514 17.7404Z" fill="black"/>
<path d="M27.7246 19.1999C27.0603 19.292 26.2652 19.5441 25.7997 19.8302C25.3537 20.0968 25.0676 20.3586 24.8834 20.5914L24.8543 20.5623C24.5925 20.3247 24.3112 20.1162 24.0446 19.9174L23.2252 19.3162C22.6773 18.9186 22.1246 18.5405 21.5961 18.1817C19.4676 16.7611 17.6397 15.7768 17.5719 15.8883C17.4991 16.0047 19.1961 17.1877 21.2034 18.7344C21.7076 19.1223 22.2264 19.5296 22.75 19.9514L23.5306 20.5817C23.7925 20.7999 24.0397 20.9986 24.2579 21.212C24.4809 21.4253 24.6846 21.6483 24.8446 21.8762C25.0046 22.0944 25.1209 22.3368 25.1355 22.4823C25.1403 22.6229 25.1355 22.6374 24.99 22.7392C24.8203 22.8265 24.6846 22.875 24.51 22.875C24.19 22.8799 23.8264 22.7635 23.5112 22.6326C23.1864 22.492 22.8906 22.3271 22.624 22.1623C22.1052 21.8277 21.6397 21.435 21.2325 21.1489C20.4276 20.5526 19.87 20.1647 19.4822 19.9174C18.7064 19.4229 18.6046 19.4956 18.5222 19.6023C18.4397 19.7089 18.3961 19.8253 19.0652 20.4556C19.3997 20.7708 19.9137 21.212 20.6894 21.8471C21.087 22.1574 21.4991 22.5356 22.11 22.9477C22.4106 23.1465 22.7452 23.3356 23.1331 23.5053C23.3173 23.5829 23.5112 23.6556 23.7246 23.7186C23.7246 23.9174 23.71 24.155 23.6228 24.3829C23.5549 24.5429 23.4434 24.6689 23.2446 24.7514C23.0361 24.8289 22.7306 24.8532 22.3912 24.7223C22.0131 24.5962 21.4943 24.2277 20.9173 23.8447C20.35 23.4617 19.7537 23.0496 19.2203 22.6568C18.1488 21.8762 17.3488 21.1489 17.247 21.2362C17.1452 21.3186 17.79 22.235 18.784 23.1756C19.2737 23.6508 19.8458 24.1308 20.3985 24.5623C20.6797 24.7756 20.9415 24.9792 21.2131 25.1683C21.4846 25.3574 21.7755 25.5223 22.0616 25.6241C22.1828 25.6677 22.304 25.7017 22.4252 25.7259C22.4349 25.9005 22.4397 26.1041 22.3815 26.3029C22.3282 26.458 22.2458 26.5986 22.0712 26.6956C21.8919 26.7926 21.6106 26.8508 21.2858 26.7683C20.9222 26.6956 20.3937 26.4047 19.8312 26.0847C19.2737 25.7647 18.6919 25.3914 18.1634 25.0374C17.1064 24.3296 16.2385 23.7429 16.1512 23.8496C16.0688 23.9465 16.7767 24.7174 17.7512 25.5756C18.2361 26.0071 18.7985 26.4483 19.3658 26.8314L19.6615 27.0253C19.6373 27.132 19.6131 27.2435 19.5646 27.3599C19.4725 27.5441 19.3609 27.7138 18.9391 27.7768C18.7112 27.8059 18.3719 27.7962 18.0131 27.7041C17.63 27.612 17.2325 27.4665 16.8785 27.3065C16.4179 27.1029 16.0349 26.8605 15.7925 26.7393C15.904 26.4532 15.9476 26.1914 15.9234 25.9877C15.8894 25.6629 15.7488 25.5174 15.6712 25.4738C15.5888 25.4253 15.5306 25.4544 15.4725 25.4883C15.4143 25.5223 15.3609 25.5611 15.3319 25.6338C15.2979 25.7065 15.2979 25.8035 15.2446 25.9732C15.2009 26.138 15.0943 26.3999 14.7985 26.7683C14.6482 26.9477 14.4543 27.1562 14.207 27.3647C13.9597 27.5635 13.6349 27.8108 13.3585 27.8544C13.0385 27.9174 12.6749 27.772 12.704 27.3065C12.7185 27.0835 12.8543 26.778 13.0191 26.4968C13.0482 26.4483 13.0822 26.3999 13.1161 26.3514C13.3537 26.0944 13.5379 25.852 13.6931 25.6289L13.6979 25.6241C13.8822 25.4447 14.0712 25.2992 14.2603 25.2217C14.4785 25.1247 14.6822 25.1247 14.8567 25.1829C15.2446 25.3138 15.4143 25.5271 15.4725 25.4932C15.5355 25.4738 15.4531 25.1296 15.0264 24.8483C14.8228 24.7029 14.4979 24.635 14.1731 24.698C14.2264 24.5574 14.2652 24.4217 14.2894 24.3053C14.3185 24.1453 14.3234 23.9999 14.304 23.898C14.2797 23.8011 14.2555 23.738 14.2264 23.6944C14.1731 23.612 14.11 23.612 14.0422 23.612C13.9743 23.6168 13.9112 23.6265 13.8531 23.6992C13.7852 23.7768 13.7609 23.8883 13.6446 24.0968C13.5331 24.3102 13.3343 24.6496 12.9755 25.1102C12.7912 25.338 12.5731 25.5999 12.287 25.8568C12.0106 26.1089 11.6422 26.395 11.2785 26.4871C11.0749 26.5308 10.9343 26.5211 10.7743 26.3756C10.7355 26.3465 10.687 26.2786 10.6579 26.2447C10.6288 26.2108 10.6143 26.172 10.5997 26.1235C10.5706 26.0314 10.5706 25.8956 10.6046 25.7405C10.6385 25.5853 10.7015 25.4156 10.784 25.2459C10.8034 25.2071 10.8276 25.1635 10.847 25.1199C10.9973 24.9986 11.1331 24.8726 11.2591 24.7562C11.5452 24.475 11.7682 24.218 11.9573 23.9805C12.5343 23.5441 13.15 23.1902 13.5428 23.1902C13.7367 23.1805 13.8482 23.2968 13.9112 23.418C13.9791 23.5344 14.0034 23.6168 14.0422 23.612C14.0712 23.612 14.11 23.5296 14.0955 23.3599C14.0906 23.2774 14.0567 23.1708 13.984 23.0592C13.9015 22.9526 13.7561 22.8605 13.5961 22.8217C13.3149 22.7586 13.0143 22.812 12.7137 22.9041C12.7767 22.7877 12.8252 22.6714 12.8494 22.555C12.9464 22.172 12.8252 21.9296 12.7476 21.8568C12.6603 21.7792 12.6022 21.7986 12.5391 21.8229C12.4761 21.8471 12.4228 21.8811 12.3888 21.9586C12.3452 22.0362 12.3306 22.1283 12.2143 22.3126C12.1076 22.5065 11.8361 22.7732 11.3755 23.2871C11.1622 23.5247 10.9149 23.7914 10.6094 24.0726C10.3088 24.3441 9.92579 24.6496 9.52337 24.7805C9.30034 24.8435 9.12094 24.8386 8.9367 24.7077C8.85748 24.6537 8.80062 24.5727 8.7767 24.4799C8.74761 24.3732 8.74761 24.218 8.78155 24.0483C8.82034 23.8544 8.88822 23.6605 8.98519 23.4714C9.14519 23.3405 9.28579 23.2096 9.407 23.0786C9.69306 22.778 9.91125 22.5065 10.0858 22.2689C10.144 22.1914 10.1876 22.1186 10.2361 22.0459C10.4882 21.8665 10.75 21.7114 10.9973 21.6047C11.2882 21.4835 11.5888 21.4496 11.8264 21.4738C12.3161 21.5126 12.4712 21.852 12.5391 21.8132C12.5634 21.8035 12.5731 21.7065 12.4906 21.5514C12.4131 21.3962 12.2094 21.2023 11.9088 21.1102C11.6082 21.0132 11.2397 20.9938 10.8373 21.0908C10.7597 21.1102 10.6773 21.1344 10.5997 21.1635C10.6094 21.0859 10.624 21.0132 10.6191 20.9453C10.6143 20.6011 10.4931 20.4362 10.4155 20.378C10.3331 20.3199 10.2749 20.3441 10.2119 20.3683C10.1488 20.3926 10.0955 20.4265 10.0615 20.4992C10.0228 20.572 10.0082 20.6786 9.94518 20.858C9.87731 21.0374 9.7464 21.3186 9.39731 21.7065C9.31488 21.8035 9.22276 21.9053 9.12579 22.012C8.95609 22.1574 8.79125 22.3223 8.64094 22.5017C8.40337 22.7247 8.11731 22.9574 7.83609 23.0641C7.75367 23.0883 7.67125 23.1126 7.62276 23.098C7.59367 23.1029 7.57912 23.0835 7.55003 23.0835C7.52094 23.0641 7.47246 23.0447 7.45306 23.0205C7.3464 22.9429 7.27852 22.7392 7.31731 22.4289C7.35609 22.1332 7.48216 21.7889 7.64216 21.5126C7.8167 21.2168 8.04458 20.9308 8.27731 20.6883C8.73791 20.1938 9.28579 19.8641 9.63003 19.9708C9.97913 20.0968 10.1391 20.4168 10.207 20.3683C10.2361 20.3538 10.2312 20.2762 10.1876 20.1356C10.1488 19.995 10.0325 19.7962 9.78034 19.6265C9.50882 19.4714 9.1161 19.4811 8.78155 19.6071C8.43731 19.7283 8.11731 19.9368 7.8167 20.1889C7.54519 20.4168 7.28822 20.6786 7.05549 20.9841C6.94882 20.7417 6.78882 20.4314 6.56094 20.0144C6.32822 19.5829 5.93549 18.9138 5.59125 18.3514C5.41185 18.0605 5.24216 17.8035 5.1064 17.6241C5.28579 17.4835 5.44094 17.3235 5.5767 17.1635C5.85306 16.8338 6.0664 16.4944 6.27003 16.1841C7.92337 13.6677 9.59125 11.8496 9.48943 11.7526C9.40216 11.6605 7.54519 13.3235 5.71731 15.7914C5.2664 16.4023 4.81549 17.0471 4.20943 17.2362C3.75367 17.3865 3.21064 17.3186 2.78397 17.0908C2.85185 16.9405 2.93428 16.7417 3.04094 16.5089C3.29306 15.9465 3.69549 15.195 4.20943 14.4047C5.2567 12.8338 6.2264 11.6217 6.13913 11.5538C6.08094 11.5053 4.99488 12.6156 3.92822 14.2205C3.39973 15.0253 3.02155 15.8205 2.81791 16.4217C2.74034 16.6496 2.68216 16.8483 2.64822 17.0083C2.56094 16.9502 2.47852 16.892 2.41064 16.8241C1.96458 16.4362 2.00822 15.8156 2.2167 15.2096C2.42519 14.6132 2.75973 14.0702 3.06519 13.6289C3.63731 12.8192 4.287 12.1744 4.81064 11.5441C5.31973 10.9429 5.78519 10.4968 6.2167 10.3126C6.64822 10.1186 6.99731 10.1962 7.37064 10.3271C7.71973 10.4532 7.98155 10.6083 8.18519 10.7489C8.58761 11.035 8.77185 11.2338 8.89791 11.3114C9.01912 11.3986 9.08215 11.3744 9.13549 11.3405C9.19367 11.3065 9.24215 11.2677 9.20821 11.1029C9.16458 10.9477 9.04822 10.6471 8.6167 10.2253C8.39852 10.0217 8.09791 9.7841 7.67125 9.59016C7.45791 9.49319 7.22034 9.40592 6.89549 9.35743C6.58034 9.31379 6.22155 9.36228 5.88216 9.49319C5.19852 9.75986 4.64094 10.3174 4.10276 10.9235C3.58882 11.5247 2.91973 12.1744 2.27973 13.0762C1.92579 13.5756 1.567 14.1671 1.31488 14.9138C1.19852 15.2871 1.0967 15.7089 1.14519 16.1792C1.15973 16.412 1.23731 16.6592 1.34397 16.8871C1.46034 17.1102 1.63003 17.3186 1.80458 17.4738C2.52216 18.1041 3.55973 18.3174 4.47125 17.9829C4.57791 17.9441 4.67973 17.8908 4.7767 17.8374C4.81064 18.0556 4.87367 18.3271 4.96579 18.6277C5.15973 19.2726 5.47003 20.0144 5.70761 20.4653C6.12458 21.2217 6.39609 21.5999 6.59488 21.7792C6.53185 21.9392 6.47852 22.1041 6.43973 22.2835C6.38849 22.5211 6.38355 22.7664 6.42519 23.0059C6.46882 23.258 6.60458 23.5296 6.80337 23.7089C6.90034 23.8059 7.00216 23.8689 7.11367 23.932C7.23973 23.9902 7.37064 24.0435 7.50155 24.0483C7.63731 24.0677 7.76337 24.058 7.87488 24.0386C7.84094 24.2374 7.83609 24.4508 7.87973 24.6689C7.93791 24.9647 8.12216 25.2653 8.35488 25.435C8.57306 25.6047 8.83973 25.7211 9.10155 25.7453C9.31973 25.7744 9.51852 25.7453 9.69306 25.7065C9.65912 25.8956 9.64943 26.1041 9.69791 26.3174C9.73185 26.4629 9.79003 26.6083 9.86761 26.7296C9.95003 26.8508 10.0131 26.938 10.1149 27.035C10.2991 27.2192 10.5512 27.3647 10.8034 27.418C11.0603 27.4714 11.2931 27.4471 11.487 27.4035C11.6034 27.3744 11.7052 27.3356 11.807 27.292C11.7925 27.4956 11.8119 27.7138 11.8846 27.9174C11.9767 28.155 12.1319 28.3635 12.3258 28.5138C12.7137 28.8144 13.1791 28.8483 13.5234 28.7805C13.8385 28.7223 14.1052 28.5768 14.2991 28.4508C14.5028 28.3199 14.6628 28.1841 14.8131 28.0532C15.1088 27.7865 15.3319 27.5199 15.5015 27.2677C15.5597 27.1805 15.6082 27.0932 15.6519 27.0059C15.8119 27.2483 16.1076 27.5732 16.5197 27.8738C16.8737 28.1356 17.3003 28.3732 17.7367 28.5332C18.1876 28.7029 18.6628 28.7659 19.0555 28.7126C19.4094 28.6689 19.7488 28.5235 19.9864 28.3005C20.224 28.0823 20.35 27.8156 20.3985 27.6023C20.4131 27.5441 20.4131 27.5005 20.4228 27.4471C20.6361 27.5489 20.8494 27.6362 21.0676 27.6847C21.6009 27.8108 22.144 27.7332 22.5464 27.4859C22.9682 27.2338 23.1816 26.8071 23.2397 26.4774C23.2931 26.1574 23.2591 25.9102 23.2155 25.7162C23.3464 25.692 23.4773 25.6532 23.5985 25.6047C24.064 25.4108 24.3549 25.0035 24.4519 24.6641C24.5585 24.3199 24.5343 24.0483 24.51 23.835V23.8253H24.5246C24.83 23.8302 25.2034 23.7235 25.504 23.5392C25.5864 23.4811 25.6688 23.418 25.7464 23.3502C25.824 23.2677 25.8967 23.1659 25.9597 23.0689C26.0712 22.8411 26.11 22.5792 26.0712 22.3611C25.9985 21.9199 25.79 21.6096 25.5815 21.3235L25.4943 21.2217C25.6737 21.0762 25.9161 20.8823 26.2943 20.6544C26.6725 20.4217 27.327 20.1017 27.9185 19.8496C28.5052 19.5926 28.9997 19.3696 28.9706 19.2386C28.9367 19.1174 28.3937 19.1029 27.7246 19.1999Z" fill="black"/>
</svg>
