<svg width="33" height="32" viewBox="0 0 33 32" fill="none" xmlns="http://www.w3.org/2000/svg">
<path d="M27.0545 14.4041C27.0414 12.5615 26.9453 10.721 26.9369 8.87562C27.06 8.2218 26.491 8.18602 26.045 7.93578C24.983 7.38871 23.9086 6.86871 22.8011 6.41425C22.7638 5.96311 22.8478 5.47249 22.6718 5.04286C22.3031 4.02263 20.7063 3.5779 20.0654 4.57329C19.8137 3.91178 19.0807 3.31287 18.3664 3.59082C18.4418 3.62641 18.5203 3.69258 18.5637 3.76561C18.687 3.86666 18.8329 3.94263 18.9478 4.05418C19.275 4.3553 19.4185 4.81726 19.3769 5.2513C19.3546 6.21066 19.3183 7.22186 19.3399 8.18462C19.3325 8.3569 19.3622 8.68471 19.3244 8.85201C19.1047 9.99742 17.4148 9.87396 17.2975 8.73924C17.3052 8.30442 17.2213 7.77662 17.3666 7.36407C17.3908 7.18961 17.3831 6.89982 17.3908 6.72062C17.3929 6.37079 17.4316 5.97636 17.2337 5.66794C17.1508 4.70327 17.2864 4.00388 18.2686 3.64292C18.2467 3.62858 18.2135 3.63934 18.1947 3.62097C18.2053 3.58852 18.2544 3.56567 18.1945 3.55818C18.2523 3.5377 18.3139 3.54276 18.3664 3.50782C18.1543 3.38948 17.9134 3.47153 17.7024 3.55095C17.664 3.56292 17.6027 3.60305 17.5622 3.59396C17.3751 3.63601 17.2463 3.83582 17.0909 3.9425C16.5066 2.77169 14.8715 2.65662 13.9751 3.5329C13.5815 2.77822 12.5852 2.51806 11.7785 2.6385C10.8347 2.85527 10.0098 3.79159 10.2264 4.79255C10.2756 4.85553 10.2571 4.92497 10.2941 4.98673C10.3288 5.07678 10.3023 5.1802 10.351 5.27044C9.81751 5.50641 9.47319 6.07441 9.50116 6.65514C8.89598 6.88042 8.3066 7.25527 7.72004 7.53329C7.35857 7.66474 7.02852 7.86372 6.68932 8.05079C6.47607 8.21386 6.08087 8.24471 6.03646 8.54634C5.96074 11.3538 5.92753 14.2217 5.92983 17.0338C5.91582 19.5489 6.92817 22.0314 8.70334 23.8151C9.69399 24.8242 11.1639 25.7121 12.2908 26.5602C13.5259 27.4351 14.9571 28.4619 16.2005 29.3073C16.7116 29.6145 17.1555 28.9107 17.5863 28.7081C19.2796 27.5115 21.2284 26.1583 22.9261 24.9508C24.8706 23.5636 26.3389 21.4875 26.8272 19.1335C27.171 17.5835 27.0526 15.9798 27.0545 14.4041ZM20.2252 5.0977C20.6149 4.51018 21.676 4.58942 21.9266 5.29553C21.9939 5.47441 21.9678 5.67569 21.9649 5.86449C21.8793 6.87319 22.0233 7.89905 21.925 8.90167C21.7137 9.61386 20.5952 9.79588 20.1979 9.16196C20.2953 8.86858 20.2563 8.36324 20.2633 8.05444C20.2427 7.10583 20.3043 6.04426 20.1986 5.10852C20.2017 5.1045 20.2058 5.10137 20.2104 5.09947C20.2151 5.09756 20.2202 5.09695 20.2252 5.0977ZM13.8741 8.9786C13.8897 8.97386 13.9142 8.96663 13.9302 8.96337L13.8741 8.9786ZM14.8829 9.6387C14.5457 9.52983 14.2884 9.23313 14.228 8.88254C14.2525 8.87588 14.2722 8.8705 14.228 8.88241C14.2253 8.83207 14.2228 8.78172 14.2205 8.73137C14.993 8.7034 15.7559 8.59825 16.4869 8.30078C16.4679 8.65393 16.4718 9.01457 16.6053 9.34788C16.112 9.69342 15.4609 9.81278 14.8829 9.6387ZM14.1934 4.45892C14.4388 4.05105 15.0768 3.753 15.5401 3.86718C15.933 3.93073 16.232 4.22097 16.4346 4.53841C16.5006 4.57175 16.4997 4.62999 16.5364 4.65726C16.5828 4.7107 16.5638 4.78942 16.5982 4.8529C16.5789 4.94494 16.5271 5.03031 16.5427 5.12849C15.9177 5.0131 14.6128 5.12311 13.9709 5.09777C13.9998 5.00945 13.9834 4.90033 14.0279 4.82545C14.0752 4.8067 14.0435 4.77034 14.0683 4.7386C14.0871 4.6394 14.1375 4.54334 14.1934 4.45892ZM11.0564 4.88554C11.0486 4.06385 11.5465 3.42046 12.4035 3.42929C12.9014 3.41898 13.2534 3.67946 13.6812 3.88702C13.4571 4.23492 13.2693 4.70225 13.4781 5.10103C12.9479 5.10622 11.5051 5.12337 10.9911 5.13713C11.0295 5.0579 11.0486 4.96906 11.0564 4.88554ZM9.50116 6.74359V6.84305C9.45111 6.8666 9.40068 6.89118 9.36426 6.89534C9.41348 6.82014 9.54359 6.7553 9.35588 6.82954L9.50116 6.74359ZM10.3199 24.1421C8.34602 22.7131 6.99313 20.4653 6.72017 18.0386C6.53489 14.922 6.69834 11.7777 6.4883 8.65911C7.4897 8.06609 8.51005 7.48714 9.50122 6.88266C9.49508 8.82532 9.43108 10.8589 10.3937 12.6173C10.9079 13.6256 11.6587 14.5344 11.9006 15.6566C12.2795 17.2652 12.2183 18.9474 12.2153 20.5906C12.1884 22.2208 12.2592 23.8501 12.2179 25.4798C11.7778 25.1673 10.735 24.4525 10.3199 24.1421ZM12.3421 25.567L12.3405 25.5659L12.3421 25.5607C12.3422 25.5628 12.3421 25.5648 12.3421 25.567ZM19.2222 26.467C18.3223 27.1019 17.3716 27.7807 16.469 28.4192C15.1289 27.4827 13.7768 26.5641 12.4343 25.6317C12.6992 23.8521 12.7935 22.0421 12.9036 20.2429C12.975 17.7629 13.032 15.1011 11.5302 12.9862C10.5815 11.5392 10.3362 9.80503 10.3934 8.10852C10.3901 7.61335 10.3866 7.11863 10.3835 6.62372C10.3846 6.54167 10.4033 6.46071 10.432 6.3841C10.5363 6.09546 10.856 6.01694 11.1332 6.04446C12.1453 6.04241 13.5265 6.0186 14.5407 6.01854C14.7442 6.01873 15.816 6.01156 15.9995 6.0115C16.1886 5.9969 16.4697 6.00254 16.4763 6.25732C16.4646 6.58039 16.4823 6.91153 16.4658 7.23063C15.7842 7.83268 14.6578 7.84343 13.778 7.95729L13.4213 8.37988C13.4632 8.95914 13.5552 9.4746 14.0206 9.87498C14.0663 10.0156 14.1633 10.1418 14.1918 10.2753C14.2766 10.4119 14.3699 10.5685 14.4419 10.7132C14.8145 11.4224 15.0479 12.2065 15.1792 12.9941C15.2503 13.4978 15.1634 14.0183 15.2567 14.5035C15.2537 14.6402 15.2463 14.784 15.25 14.9142C15.3054 14.9669 15.267 15.019 15.3103 15.0646C15.3402 15.0825 15.3203 15.0999 15.334 15.1176C15.3613 15.1338 15.3643 15.1499 15.3738 15.1678C15.9574 15.0443 16.0867 14.3184 16.1182 13.8052C16.2246 12.5447 15.7001 11.2804 15.0064 10.2537C15.6628 10.3241 16.2701 10.0966 16.7351 9.62455C17.3661 10.8081 19.1897 10.8316 19.921 9.73834C20.2739 10.4046 21.1816 10.5537 21.8327 10.2619C21.7473 11.0037 21.5268 11.7157 21.3962 12.4493C21.2208 13.2399 20.9801 14.0624 20.3801 14.6388C19.8104 15.1478 19.0244 15.5587 18.8135 16.3595C18.3462 17.8263 18.3546 19.3934 18.6369 20.8948C18.9246 22.6004 19.4215 24.2695 20.0651 25.8617C19.7842 26.0635 19.5033 26.2652 19.2222 26.467ZM26.1972 11.4851C26.1568 13.4722 26.1934 15.4672 26.1348 17.4535C26.088 18.1569 25.9643 18.8943 25.761 19.5689C24.785 22.6923 22.9019 23.8583 20.3911 25.6277C20.3297 23.8309 19.7308 22.1043 19.4831 20.3291C19.3368 19.3949 19.2738 18.4477 19.444 17.5146C19.5465 17.0039 19.6142 16.4232 19.9802 16.0285C20.6011 15.5302 21.28 14.9885 21.6106 14.2286C22.1602 12.9099 22.3176 11.4464 22.2352 10.0263C22.8101 9.59991 22.9412 8.85822 22.8681 8.18545C22.8267 7.64842 22.8408 7.10321 22.8102 6.56708C23.8728 7.42788 25.1006 8.04004 26.2717 8.7475C26.219 9.65642 26.2086 10.5673 26.1972 11.4851ZM13.4213 8.37988L13.4206 8.38071C13.4202 8.37713 13.4205 8.37252 13.4213 8.37988Z" fill="black"/>
</svg>
