<svg width="33" height="32" viewBox="0 0 33 32" fill="none" xmlns="http://www.w3.org/2000/svg">
<rect x="0.5" width="32" height="32" rx="16" fill="#0090DA"/>
<path fill-rule="evenodd" clip-rule="evenodd" d="M10.7461 11C10.7461 14.17 13.3261 16.75 16.4961 16.75C19.6661 16.75 22.2461 14.17 22.2461 11C22.2461 7.83 19.6661 5.25 16.4961 5.25C13.3261 5.25 10.7461 7.83 10.7461 11ZM12.2461 11C12.2461 8.66 14.1561 6.75 16.4961 6.75C18.8361 6.75 20.7461 8.66 20.7461 11C20.7461 13.34 18.8361 15.25 16.4961 15.25C14.1561 15.25 12.2461 13.34 12.2461 11ZM24.3362 26C24.3362 26.41 24.6762 26.75 25.0862 26.75C25.4962 26.75 25.8362 26.41 25.8362 26C25.8362 21.73 21.6462 18.25 16.4962 18.25C11.3462 18.25 7.15625 21.73 7.15625 26C7.15625 26.41 7.49625 26.75 7.90625 26.75C8.31625 26.75 8.65625 26.41 8.65625 26C8.65625 22.55 12.1762 19.75 16.4962 19.75C20.8162 19.75 24.3362 22.55 24.3362 26Z" fill="white"/>
</svg>
