<svg width="16" height="16" viewBox="0 0 16 16" fill="none" xmlns="http://www.w3.org/2000/svg">
<g clip-path="url(#clip0_1888_4019)">
<path d="M15.8943 7.7434L12.258 4.10709C12.1273 3.95456 11.8978 3.93678 11.7453 4.06744C11.5927 4.19806 11.575 4.42762 11.7056 4.58015C11.7178 4.59436 11.731 4.60765 11.7453 4.6198L14.7597 7.63794H0.363619C0.16281 7.63794 0 7.80075 0 8.00159C0 8.20243 0.16281 8.3652 0.363619 8.3652H14.7597L11.7453 11.3797C11.5927 11.5103 11.575 11.7399 11.7056 11.8924C11.8363 12.0449 12.0658 12.0627 12.2183 11.932C12.2325 11.9199 12.2458 11.9066 12.258 11.8924L15.8943 8.25608C16.0352 8.1143 16.0352 7.88524 15.8943 7.7434Z" fill="#6B7280"/>
</g>
<defs>
<clipPath id="clip0_1888_4019">
<rect width="16" height="16" fill="white"/>
</clipPath>
</defs>
</svg>
