<svg width="40" height="40" viewBox="0 0 40 40" fill="none" xmlns="http://www.w3.org/2000/svg">
<rect width="40" height="40" rx="20" fill="#F0F9FF"/>
<g clip-path="url(#clip0_1590_3667)">
<path d="M19.9996 18.8008C18.6762 18.8008 17.5996 19.8773 17.5996 21.2008C17.5996 22.5242 18.6762 23.6008 19.9996 23.6008C21.3231 23.6008 22.3996 22.5242 22.3996 21.2008C22.3996 19.8773 21.3231 18.8008 19.9996 18.8008ZM19.9996 22.8008C19.1174 22.8008 18.3996 22.0832 18.3996 21.2008C18.3996 20.3184 19.1174 19.6008 19.9996 19.6008C20.8819 19.6008 21.5996 20.3184 21.5996 21.2008C21.5996 22.0832 20.8819 22.8008 19.9996 22.8008Z" fill="#0090DA"/>
<path d="M20 8C13.3832 8 8 13.3832 8 20C8 26.6168 13.3832 32 20 32C26.6168 32 32 26.6168 32 20C32 13.3832 26.6168 8 20 8ZM20 31.2C13.8242 31.2 8.8 26.1758 8.8 20C8.8 13.8242 13.8242 8.8 20 8.8C26.1758 8.8 31.2 13.8242 31.2 20C31.2 26.1758 26.1758 31.2 20 31.2Z" fill="#0090DA"/>
<path d="M20.0004 10.4004C14.707 10.4004 10.4004 14.707 10.4004 20.0004C10.4004 25.2937 14.707 29.6004 20.0004 29.6004C25.2937 29.6004 29.6004 25.2937 29.6004 20.0004C29.6004 14.707 25.2937 10.4004 20.0004 10.4004ZM20.0004 11.2004C23.7396 11.2004 26.9394 13.5456 28.2118 16.8416L25.2149 17.8406C24.1869 18.1832 23.0756 18.1296 22.0848 17.689C20.7602 17.1 19.2404 17.1 17.9162 17.689L17.7647 17.7562C16.8639 18.157 15.8426 18.2379 14.8891 17.9836L11.684 17.1289C12.8774 13.6827 16.1534 11.2004 20.0004 11.2004ZM11.2004 20.0004C11.2004 19.9189 11.2043 19.8383 11.2066 19.7574L11.4844 19.85C15.4282 21.1645 18.2172 24.6101 18.7133 28.7053C14.469 28.0805 11.2004 24.4155 11.2004 20.0004ZM20.0004 28.8004C19.8415 28.8004 19.6838 28.7956 19.527 28.7873C19.0543 24.3072 16.0333 20.5231 11.7375 19.0914L11.2672 18.9346C11.3094 18.5849 11.3726 18.238 11.4566 17.8959L14.6828 18.7563C15.1134 18.871 15.5571 18.929 16.0027 18.9289C16.7175 18.9289 17.4306 18.7805 18.0894 18.4875L18.2409 18.4203C19.3589 17.9227 20.6413 17.9231 21.7608 18.4207C22.9337 18.9414 24.2501 19.0055 25.4679 18.5992L28.4648 17.6002C28.589 18.0374 28.6788 18.4835 28.7335 18.9346L28.2632 19.0914C23.9673 20.5231 20.9464 24.3072 20.4737 28.7873C20.317 28.7956 20.1592 28.8004 20.0004 28.8004ZM21.2875 28.7053C21.7836 24.6101 24.5726 21.1645 28.5164 19.85L28.7942 19.7574C28.7964 19.8383 28.8004 19.9189 28.8004 20.0004C28.8004 24.4155 25.5317 28.0805 21.2875 28.7053Z" fill="#0090DA"/>
</g>
<defs>
<clipPath id="clip0_1590_3667">
<rect width="24" height="24" fill="white" transform="translate(8 8)"/>
</clipPath>
</defs>
</svg>
