<svg width="24" height="24" viewBox="0 0 24 24" fill="none" xmlns="http://www.w3.org/2000/svg">
<path d="M12 16.5C11.9015 16.5001 11.804 16.4808 11.713 16.4431C11.622 16.4054 11.5394 16.35 11.4698 16.2803L3.9698 8.7803C3.67673 8.48723 3.67673 8.01267 3.9698 7.7198C4.26286 7.42692 4.73742 7.42673 5.0303 7.7198L12 14.6895L18.9698 7.7198C19.2629 7.42673 19.7374 7.42673 20.0303 7.7198C20.3232 8.01286 20.3234 8.48742 20.0303 8.7803L12.5303 16.2803C12.4607 16.35 12.3781 16.4054 12.2871 16.4431C12.1961 16.4808 12.0985 16.5001 12 16.5Z" fill="#374151"/>
</svg>
