<svg width="24" height="24" viewBox="0 0 24 24" fill="none" xmlns="http://www.w3.org/2000/svg">
<path d="M6.14751 0H14.1777L20.9753 7.09195V20.8779C20.9753 22.6023 19.5776 24 17.8531 24H6.14751C4.42305 24 3.02539 22.6023 3.02539 20.8779V3.12212C3.02539 1.39769 4.42305 0 6.14751 0Z" fill="#0263D1"/>
<path fill-rule="evenodd" clip-rule="evenodd" d="M14.168 0V7.0337H20.9752L14.168 0Z" fill="#4B9FFF"/>
<path d="M5.92383 17.1258V13.1527H7.33122C7.61269 13.1527 7.87478 13.1948 8.11743 13.2724C8.36008 13.3533 8.58008 13.4698 8.77746 13.6251C8.97481 13.7804 9.13013 13.9875 9.24336 14.2463C9.35659 14.5051 9.41484 14.8028 9.41484 15.1392C9.41484 15.4757 9.35659 15.7734 9.24336 16.0322C9.13013 16.291 8.97481 16.4981 8.77746 16.6534C8.58011 16.8087 8.36008 16.9251 8.11743 17.006C7.87478 17.0837 7.61272 17.1258 7.33122 17.1258H5.92383ZM6.91709 16.2619H7.2115C7.37004 16.2619 7.51887 16.2425 7.6515 16.2069C7.78739 16.1681 7.91032 16.1066 8.02679 16.0257C8.14327 15.9448 8.23384 15.8284 8.29856 15.6763C8.36651 15.5275 8.39884 15.3463 8.39884 15.1392C8.39884 14.9322 8.36648 14.751 8.29856 14.5989C8.23384 14.4501 8.14327 14.3336 8.02679 14.2528C7.91032 14.1686 7.78739 14.1104 7.6515 14.0716C7.51887 14.036 7.37004 14.0166 7.2115 14.0166H6.91709V16.2619ZM11.8252 17.1711C11.2266 17.1711 10.7316 16.9769 10.3401 16.5919C9.94866 16.2069 9.75453 15.7216 9.75453 15.1393C9.75453 14.5569 9.94866 14.0716 10.3401 13.6866C10.7316 13.3016 11.2266 13.1075 11.8252 13.1075C12.414 13.1075 12.9025 13.3016 13.294 13.6866C13.6823 14.0716 13.8764 14.5569 13.8764 15.1393C13.8764 15.7216 13.6823 16.207 13.294 16.5919C12.9025 16.9769 12.414 17.1711 11.8252 17.1711ZM11.0616 15.9772C11.259 16.1972 11.5113 16.3072 11.8187 16.3072C12.126 16.3072 12.3752 16.1972 12.5725 15.9772C12.7699 15.754 12.8669 15.4757 12.8669 15.1392C12.8669 14.8028 12.7699 14.5245 12.5725 14.3013C12.3752 14.0813 12.126 13.9713 11.8187 13.9713C11.5113 13.9713 11.259 14.0813 11.0616 14.3013C10.8643 14.5245 10.764 14.8028 10.764 15.1392C10.764 15.4757 10.8643 15.754 11.0616 15.9772ZM16.2382 17.1711C15.6591 17.1711 15.177 16.9899 14.7952 16.634C14.4102 16.2749 14.2194 15.7766 14.2194 15.1392C14.2194 14.5051 14.4135 14.0069 14.8017 13.6477C15.1932 13.2886 15.6688 13.1074 16.2382 13.1074C16.7527 13.1074 17.1732 13.2336 17.5065 13.4892C17.8365 13.7416 18.0274 14.078 18.0759 14.4986L17.073 14.7025C17.0309 14.4825 16.9306 14.3045 16.7753 14.1719C16.62 14.0392 16.4388 13.9713 16.2318 13.9713C15.947 13.9713 15.7108 14.0716 15.52 14.2754C15.3291 14.4824 15.232 14.7671 15.232 15.1392C15.232 15.5113 15.3291 15.796 15.5167 15.9998C15.7076 16.2069 15.9438 16.3072 16.2317 16.3072C16.4388 16.3072 16.6167 16.249 16.7623 16.1325C16.9079 16.016 16.9985 15.8607 17.0373 15.6666L18.063 15.8996C17.9691 16.3007 17.762 16.6114 17.4385 16.8346C17.1182 17.0578 16.7171 17.1711 16.2382 17.1711Z" fill="white"/>
</svg>
