<svg width="41" height="40" viewBox="0 0 41 40" fill="none" xmlns="http://www.w3.org/2000/svg">
<rect x="0.333984" width="40" height="40" rx="20" fill="#F0FDF4"/>
<path d="M19.1777 31.6567C16.5338 31.642 13.9993 30.5993 12.1106 28.749C10.2219 26.8988 9.12721 24.3863 9.05816 21.7433C8.98911 19.1002 9.95114 16.534 11.7407 14.5877C13.5302 12.6413 16.0067 11.4676 18.6463 11.315C18.6959 11.3122 18.7455 11.3203 18.7917 11.3387C18.8379 11.357 18.8795 11.3852 18.9137 11.4213C18.9478 11.4571 18.9736 11.4998 18.9896 11.5466C19.0056 11.5933 19.0113 11.643 19.0063 11.6921C19.0011 11.7835 19.0011 11.875 19.0063 11.9664C19.0492 12.4455 19.1505 12.9176 19.308 13.3721C19.3937 13.667 19.4863 13.9721 19.548 14.2841C19.7743 15.3847 19.548 16.3413 18.8932 16.8761C18.348 17.3253 17.6623 17.3801 16.9972 17.435C16.3869 17.483 15.8074 17.531 15.4474 17.891C15.0874 18.251 15.0497 18.7447 14.9777 19.2967C14.9478 19.783 14.8317 20.2601 14.6349 20.7058C14.1206 21.6933 12.7972 22.187 11.6177 21.8235C10.864 21.5672 10.2142 21.0726 9.76629 20.4144C9.72663 20.7685 9.70603 21.1244 9.70458 21.4807C9.69942 22.9369 10.0293 24.3747 10.6687 25.683C11.3081 26.9913 12.2399 28.135 13.392 29.0256C14.5441 29.9161 15.8857 30.5298 17.3129 30.819C18.74 31.1081 20.2146 31.0651 21.6225 30.6933C23.0304 30.3214 24.3339 29.6307 25.4322 28.6745C26.5305 27.7183 27.3941 26.5223 27.9562 25.179C28.5182 23.8356 28.7638 22.381 28.6738 20.9276C28.5838 19.4742 28.1607 18.061 27.4372 16.7973C27.3917 16.7181 27.3795 16.6242 27.4033 16.5361C27.4271 16.448 27.4849 16.373 27.564 16.3275C27.6431 16.2821 27.7371 16.2699 27.8251 16.2937C27.9132 16.3175 27.9883 16.3753 28.0337 16.4544C28.9123 18.0031 29.3693 19.7551 29.3591 21.5356C29.3489 23.316 28.8719 25.0627 27.9756 26.6012C27.0794 28.1397 25.7953 29.4162 24.2515 30.3033C22.7077 31.1904 20.9582 31.657 19.1777 31.6567ZM9.92058 19.379C10.1001 19.7865 10.3586 20.1545 10.6811 20.4617C11.0035 20.7689 11.3836 21.0091 11.7994 21.1687C12.6566 21.4327 13.6474 21.083 14.0074 20.387C14.1681 20.0127 14.2644 19.6139 14.292 19.2075C14.3743 18.5664 14.46 17.9047 14.9537 17.4075C15.4474 16.9104 16.2257 16.8075 16.9354 16.7493C17.5217 16.7047 18.0737 16.6567 18.4509 16.3481C19.0989 15.8133 18.9343 14.7401 18.8726 14.4247C18.8109 14.1093 18.7286 13.859 18.6429 13.5675C18.4728 13.0694 18.3634 12.5525 18.3172 12.0281C16.32 12.2079 14.4313 13.0163 12.9226 14.3371C11.4139 15.658 10.3629 17.4232 9.92058 19.379Z" fill="#15803D"/>
<path d="M22.9359 30.8718C22.8796 30.8715 22.8243 30.8574 22.7748 30.8306C21.1171 29.9541 19.7033 28.6793 18.6605 27.1209C18.311 26.6325 18.0702 26.0748 17.9542 25.4855C17.893 25.1554 17.9135 24.8154 18.0139 24.4951C18.1143 24.1747 18.2915 23.8839 18.5302 23.6478C19.0205 23.2089 19.7268 23.0684 20.6936 23.2158L21.0913 23.2809C21.5594 23.4002 22.0465 23.4258 22.5245 23.3564C23.0559 23.2364 23.5531 22.8455 24.1153 22.1358L24.4239 21.7244C24.769 21.2116 25.1845 20.7499 25.6582 20.3529C26.1403 19.9996 26.7034 19.773 27.2959 19.6939C27.8883 19.6148 28.4912 19.6858 29.0491 19.9004C29.0947 19.9131 29.1373 19.9351 29.174 19.9651C29.2107 19.995 29.2408 20.0323 29.2624 20.0745C29.284 20.1167 29.2966 20.1629 29.2994 20.2102C29.3023 20.2575 29.2953 20.3049 29.2789 20.3494C29.2625 20.3938 29.237 20.4344 29.2041 20.4685C29.1712 20.5027 29.1316 20.5296 29.0878 20.5477C29.044 20.5657 28.9969 20.5745 28.9495 20.5734C28.9021 20.5724 28.8555 20.5615 28.8125 20.5415C28.3625 20.3681 27.8766 20.3086 27.398 20.3684C26.9194 20.4282 26.4631 20.6055 26.0696 20.8844C25.6467 21.2434 25.2762 21.66 24.9691 22.1221L24.6502 22.5472C24.2422 23.0855 23.5873 23.8021 22.6753 24.0112C22.1052 24.1053 21.5219 24.0819 20.9611 23.9426L20.5771 23.8809C19.8399 23.7678 19.3016 23.8569 18.9793 24.1449C18.8282 24.3058 18.7181 24.5007 18.6584 24.7132C18.5987 24.9257 18.5912 25.1495 18.6365 25.3655C18.7413 25.8616 18.9518 26.3294 19.2536 26.7369C20.2275 28.2006 21.5493 29.3998 23.1005 30.2272C23.1678 30.2635 23.221 30.3213 23.2517 30.3913C23.2824 30.4614 23.2888 30.5397 23.2698 30.6137C23.2509 30.6878 23.2078 30.7535 23.1473 30.8002C23.0868 30.847 23.0124 30.8722 22.9359 30.8718ZM14.5633 27.4638C14.2181 27.4819 13.8727 27.4305 13.5476 27.3127C13.2225 27.1949 12.9243 27.0131 12.6708 26.7781C11.6422 25.7289 11.6045 24.9781 11.7588 24.5358C11.8713 24.2708 12.0567 24.0432 12.2934 23.8794C12.53 23.7155 12.8083 23.6222 13.0959 23.6101C13.3964 23.5562 13.706 23.5858 13.9907 23.6959C14.2755 23.8059 14.5246 23.9921 14.7108 24.2341C14.8683 24.4341 15.0858 24.5783 15.3313 24.6455C15.6106 24.7201 15.864 24.8698 16.0641 25.0783C16.2642 25.2869 16.4033 25.5463 16.4662 25.8284C16.5586 26.1296 16.5416 26.4538 16.4182 26.7438C16.3018 26.9427 16.1378 27.1095 15.9409 27.2293C15.744 27.349 15.5204 27.4178 15.2902 27.4295C15.049 27.4574 14.8061 27.4689 14.5633 27.4638ZM13.3462 24.2924H13.1713C13.0133 24.296 12.8592 24.3418 12.7247 24.425C12.5903 24.5082 12.4806 24.6257 12.4068 24.7655C12.2799 25.1289 12.5542 25.6878 13.1611 26.3015C13.6959 26.8569 14.6628 26.8055 15.1908 26.7301C15.3793 26.7026 15.7051 26.6272 15.8045 26.4318C15.8524 26.2847 15.8524 26.1263 15.8045 25.9792C15.7085 25.5678 15.4891 25.4615 15.0811 25.2935C14.699 25.1766 14.3671 24.9352 14.1382 24.6078C14.0409 24.4958 13.9183 24.4087 13.7805 24.3539C13.6427 24.299 13.4938 24.2779 13.3462 24.2924ZM26.2788 17.1369C25.5453 17.168 24.8144 17.0323 24.141 16.7402C23.4675 16.448 22.8691 16.0069 22.3908 15.4501C20.8239 13.5232 21.4068 11.0238 21.4342 10.9175C21.4502 10.8537 21.4843 10.7958 21.5323 10.7508C21.5804 10.7058 21.6403 10.6756 21.7051 10.6638C21.7671 10.6489 21.832 10.6516 21.8926 10.6716C21.9532 10.6916 22.0069 10.728 22.0479 10.7769C22.6239 11.4626 23.6559 11.6272 24.6571 11.8055C25.7233 11.9872 26.7142 12.1484 27.2696 12.9164C28.2125 14.2398 28.1028 16.5541 28.0959 16.6501C28.0926 16.7228 28.0662 16.7925 28.0206 16.8492C27.975 16.9059 27.9125 16.9467 27.8422 16.9655C27.3296 17.0839 26.8048 17.1414 26.2788 17.1369ZM22.0205 11.6752C21.8885 12.8639 22.212 14.0584 22.9256 15.0181C24.3211 16.7324 26.6388 16.4855 27.3828 16.3484C27.3828 15.7381 27.3142 14.2021 26.6765 13.3106C26.3028 12.7861 25.4285 12.6249 24.5062 12.4775C23.6731 12.3301 22.7336 12.1689 22.0205 11.6752Z" fill="#15803D"/>
<path d="M27.7352 16.9729C27.7046 16.9779 27.6733 16.9779 27.6427 16.9729C25.9128 16.4937 24.4193 15.3956 23.4461 13.8872C23.4213 13.8482 23.4046 13.8046 23.3971 13.7589C23.3896 13.7133 23.3914 13.6666 23.4024 13.6217C23.4134 13.5768 23.4334 13.5346 23.4611 13.4976C23.4889 13.4606 23.5238 13.4296 23.5639 13.4065C23.6039 13.3833 23.6482 13.3685 23.6941 13.3629C23.74 13.3574 23.7866 13.3611 23.831 13.374C23.8754 13.3869 23.9167 13.4086 23.9525 13.4379C23.9883 13.4672 24.0178 13.5034 24.0392 13.5444C24.9108 14.8615 26.216 15.8319 27.7284 16.2872C28.2358 16.0987 30.6598 15.0872 30.9512 12.7215C31.1295 11.2507 30.413 10.0267 29.933 9.39237C29.5901 10.1912 28.9044 10.8289 28.2461 11.4015C27.6804 11.9124 27.1455 12.3924 26.9398 12.8964C26.9249 12.9407 26.9011 12.9816 26.8698 13.0164C26.8386 13.0512 26.8005 13.0792 26.758 13.0988C26.7155 13.1183 26.6694 13.129 26.6226 13.13C26.5758 13.1311 26.5293 13.1226 26.486 13.105C26.4426 13.0874 26.4033 13.0611 26.3705 13.0278C26.3376 12.9945 26.312 12.9547 26.2951 12.9111C26.2782 12.8675 26.2704 12.8209 26.2722 12.7741C26.274 12.7273 26.2853 12.6814 26.3055 12.6392C26.5695 11.9878 27.1627 11.4564 27.7901 10.8941C28.5444 10.2084 29.3227 9.52266 29.4495 8.63809C29.4583 8.57504 29.4844 8.51566 29.5249 8.46661C29.5655 8.41756 29.6189 8.38078 29.6792 8.36037C29.7382 8.34132 29.8012 8.33859 29.8615 8.35247C29.9219 8.36636 29.9774 8.39634 30.0221 8.43923C30.1078 8.51466 31.9318 10.3215 31.6472 12.8004C31.2701 15.8861 27.9958 16.9147 27.8552 16.9661C27.816 16.9754 27.7753 16.9777 27.7352 16.9729Z" fill="#15803D"/>
</svg>
