<svg width="40" height="40" viewBox="0 0 40 40" fill="none" xmlns="http://www.w3.org/2000/svg">
<rect width="40" height="40" rx="20" fill="#FFF0C9"/>
<path d="M28.7861 20.0007C28.7861 19.3096 28.4168 18.6649 27.7976 18.2764L27.315 17.9734L27.7976 17.6704C28.4164 17.2816 28.7861 16.6373 28.7861 15.9462C28.7861 15.2551 28.4168 14.6108 27.7976 14.2223L21.2813 10.1322C20.5148 9.65144 19.4846 9.65106 18.7178 10.1322L12.2014 14.2223C11.5826 14.6108 11.2129 15.2551 11.2129 15.9462C11.2129 16.6373 11.5823 17.2819 12.2014 17.6704L12.684 17.9734L12.2014 18.2764C11.5823 18.6649 11.2129 19.3096 11.2129 20.0007C11.2129 20.6914 11.5826 21.3361 12.2014 21.7246L12.684 22.0276L12.2014 22.3306C11.5823 22.7191 11.2129 23.3637 11.2129 24.0544C11.2129 24.7456 11.5823 25.3902 12.2014 25.7791L18.7174 29.8688C19.1023 30.1072 19.5464 30.2324 19.9991 30.2303C20.4518 30.2324 20.8959 30.1073 21.2809 29.8692L27.7973 25.7787C28.416 25.3902 28.7858 24.7456 28.7858 24.0544C28.7858 23.3637 28.4164 22.7191 27.7973 22.3302L27.3146 22.0272L27.7973 21.7242C28.4164 21.3364 28.7861 20.6918 28.7861 20.0007ZM12.999 15.4928L19.5154 11.4023C19.7963 11.2261 20.2031 11.2261 20.4836 11.4023L27 15.4928C27.3653 15.7219 27.3611 16.1738 27 16.4003L20.4836 20.4908C20.1983 20.6697 19.8004 20.6701 19.5154 20.4904L12.999 16.4003C12.6398 16.1746 12.6274 15.7261 12.999 15.4928ZM18.7178 21.7606C19.1026 21.9989 19.5468 22.1242 19.9995 22.1221C20.4522 22.1242 20.8963 21.9991 21.2813 21.7609L25.9043 18.8592L27 19.5469C27.1845 19.6628 27.2861 19.8237 27.2861 20.0007C27.2861 20.1773 27.1845 20.3386 27 20.4541L20.484 24.5446C20.1983 24.7234 19.8004 24.7242 19.5154 24.5446L12.999 20.4541C12.8145 20.3386 12.7129 20.1773 12.7129 20.0007C12.7129 19.8241 12.8145 19.6628 12.999 19.5469L14.0948 18.8592L18.7178 21.7606ZM27 23.6011C27.1845 23.7173 27.2861 23.8782 27.2861 24.0548C27.2861 24.2318 27.1845 24.3927 27 24.5086L20.4836 28.5991C20.1983 28.7779 19.8004 28.7783 19.5154 28.5987L12.999 24.5086C12.8145 24.3923 12.7129 24.2314 12.7129 24.0544C12.7129 23.8778 12.8145 23.7169 12.999 23.6011L14.0951 22.9133L18.7181 25.8154C19.1014 26.0558 19.5506 26.1762 19.9995 26.1762C20.4484 26.1762 20.898 26.0558 21.2813 25.8154L25.9043 22.9133L27 23.6011Z" fill="#B07F00"/>
<path d="M15.5657 16.5942L19.6199 19.1172C19.8411 19.2548 20.1557 19.2548 20.377 19.1172L24.4311 16.5942C25.249 16.0853 24.4967 14.7871 23.674 15.299L19.9982 17.5865L16.3225 15.299C15.5012 14.7875 14.7471 16.0846 15.5657 16.5942Z" fill="#B07F00"/>
</svg>
