<svg width="24" height="24" viewBox="0 0 24 24" fill="none" xmlns="http://www.w3.org/2000/svg">
<path d="M9.97031 5.57649L10.5726 7.24899C10.903 8.16587 11.4317 8.99856 12.1208 9.68772C12.81 10.3769 13.6427 10.9055 14.5596 11.236L16.2321 11.8382C16.2651 11.8503 16.2936 11.8723 16.3137 11.9011C16.3339 11.93 16.3447 11.9643 16.3447 11.9995C16.3447 12.0347 16.3339 12.069 16.3137 12.0978C16.2936 12.1267 16.2651 12.1486 16.2321 12.1607L14.5596 12.763C13.6427 13.0934 12.81 13.6221 12.1208 14.3112C11.4317 15.0004 10.903 15.8331 10.5726 16.75L9.97031 18.4225C9.9582 18.4555 9.93624 18.484 9.9074 18.5042C9.87856 18.5243 9.84423 18.5351 9.80906 18.5351C9.77388 18.5351 9.73955 18.5243 9.71071 18.5042C9.68188 18.484 9.65992 18.4555 9.64781 18.4225L9.04556 16.75C8.7151 15.8331 8.18645 15.0004 7.49729 14.3112C6.80814 13.6221 5.97544 13.0934 5.05856 12.763L3.38606 12.1607C3.35303 12.1486 3.32452 12.1267 3.30438 12.0978C3.28424 12.069 3.27344 12.0347 3.27344 11.9995C3.27344 11.9643 3.28424 11.93 3.30438 11.9011C3.32452 11.8723 3.35303 11.8503 3.38606 11.8382L5.05856 11.236C5.97544 10.9055 6.80814 10.3769 7.49729 9.68772C8.18645 8.99856 8.7151 8.16587 9.04556 7.24899L9.64781 5.57649C9.65958 5.54313 9.68141 5.51424 9.71029 5.49381C9.73917 5.47337 9.77368 5.4624 9.80906 5.4624C9.84443 5.4624 9.87894 5.47337 9.90782 5.49381C9.9367 5.51424 9.95853 5.54313 9.97031 5.57649ZM17.4988 1.55724L17.8041 2.40399C17.9715 2.86821 18.2393 3.28982 18.5883 3.63878C18.9372 3.98775 19.3588 4.25551 19.8231 4.42299L20.6698 4.72824C20.6866 4.73434 20.7011 4.74546 20.7113 4.76009C20.7216 4.77471 20.727 4.79213 20.727 4.80999C20.727 4.82784 20.7216 4.84526 20.7113 4.85988C20.7011 4.87451 20.6866 4.88563 20.6698 4.89174L19.8231 5.19699C19.3588 5.36447 18.9372 5.63222 18.5883 5.98119C18.2393 6.33015 17.9715 6.75176 17.8041 7.21599L17.4988 8.06274C17.4927 8.07951 17.4816 8.094 17.467 8.10424C17.4523 8.11448 17.4349 8.11997 17.4171 8.11997C17.3992 8.11997 17.3818 8.11448 17.3672 8.10424C17.3525 8.094 17.3414 8.07951 17.3353 8.06274L17.0301 7.21599C16.8626 6.75176 16.5948 6.33015 16.2459 5.98119C15.8969 5.63222 15.4753 5.36447 15.0111 5.19699L14.1643 4.89174C14.1475 4.88563 14.133 4.87451 14.1228 4.85988C14.1126 4.84526 14.1071 4.82784 14.1071 4.80999C14.1071 4.79213 14.1126 4.77471 14.1228 4.76009C14.133 4.74546 14.1475 4.73434 14.1643 4.72824L15.0111 4.42299C15.4753 4.25551 15.8969 3.98775 16.2459 3.63878C16.5948 3.28982 16.8626 2.86821 17.0301 2.40399L17.3353 1.55724C17.3414 1.54046 17.3525 1.52597 17.3672 1.51573C17.3818 1.50549 17.3992 1.5 17.4171 1.5C17.4349 1.5 17.4523 1.50549 17.467 1.51573C17.4816 1.52597 17.4927 1.54046 17.4988 1.55724ZM17.4988 15.937L17.8041 16.7837C17.9715 17.248 18.2393 17.6696 18.5883 18.0185C18.9372 18.3675 19.3588 18.6353 19.8231 18.8027L20.6698 19.108C20.6866 19.1141 20.7011 19.1252 20.7113 19.1398C20.7216 19.1545 20.727 19.1719 20.727 19.1897C20.727 19.2076 20.7216 19.225 20.7113 19.2396C20.7011 19.2543 20.6866 19.2654 20.6698 19.2715L19.8231 19.5767C19.3588 19.7442 18.9372 20.012 18.5883 20.3609C18.2393 20.7099 17.9715 21.1315 17.8041 21.5957L17.4988 22.4425C17.4927 22.4593 17.4816 22.4738 17.467 22.484C17.4523 22.4942 17.4349 22.4997 17.4171 22.4997C17.3992 22.4997 17.3818 22.4942 17.3672 22.484C17.3525 22.4738 17.3414 22.4593 17.3353 22.4425L17.0301 21.5957C16.8626 21.1315 16.5948 20.7099 16.2459 20.3609C15.8969 20.012 15.4753 19.7442 15.0111 19.5767L14.1643 19.2715C14.1475 19.2654 14.133 19.2543 14.1228 19.2396C14.1126 19.225 14.1071 19.2076 14.1071 19.1897C14.1071 19.1719 14.1126 19.1545 14.1228 19.1398C14.133 19.1252 14.1475 19.1141 14.1643 19.108L15.0111 18.8027C15.4753 18.6353 15.8969 18.3675 16.2459 18.0185C16.5948 17.6696 16.8626 17.248 17.0301 16.7837L17.3353 15.937C17.3631 15.8605 17.4718 15.8605 17.4988 15.937Z" fill="white"/>
</svg>
