<svg width="40" height="40" viewBox="0 0 40 40" fill="none" xmlns="http://www.w3.org/2000/svg">
<rect width="40" height="40" rx="20" fill="#FFEEFC"/>
<g clip-path="url(#clip0_2096_4952)">
<path d="M30.1836 9.48477C29.5386 8.97852 28.7248 8.69727 27.8998 8.69727C27.2592 8.69858 26.6296 8.86445 26.0714 9.17898C25.5133 9.49352 25.0453 9.94616 24.7123 10.4935C24.4048 10.9998 24.2323 11.5698 24.1873 12.1623C23.1986 11.7145 22.1435 11.4308 21.0636 11.3223L22.8336 9.98727C22.9107 9.92908 22.9615 9.84267 22.9748 9.74702C22.9882 9.65138 22.963 9.55434 22.9048 9.47727C22.8467 9.40019 22.7602 9.34938 22.6646 9.33602C22.569 9.32265 22.4719 9.34783 22.3948 9.40602L19.8261 11.341C19.8261 11.341 19.8186 11.3523 19.8148 11.356C19.7923 11.3748 19.7736 11.3973 19.7548 11.4235C19.7436 11.4385 19.7323 11.4535 19.7248 11.4685C19.7136 11.491 19.7098 11.5135 19.7023 11.536C19.6948 11.5585 19.6911 11.5848 19.6873 11.6073C19.6873 11.6148 19.6836 11.6223 19.6836 11.6298C19.6836 11.6448 19.6911 11.656 19.6911 11.6673C19.6936 11.715 19.7078 11.7613 19.7323 11.8023C19.7398 11.8173 19.7436 11.836 19.7548 11.851L21.6898 14.4198C21.7611 14.5135 21.8698 14.566 21.9786 14.566C22.0536 14.566 22.1323 14.5435 22.1961 14.4948C22.3573 14.3748 22.3873 14.146 22.2673 13.9848L20.7973 12.031C21.9898 12.1285 23.1523 12.4548 24.2098 12.9873C24.4761 14.7423 25.9648 16.0998 27.7798 16.1523C28.4906 17.2119 28.9709 18.409 29.1898 19.666C29.2198 19.8423 29.3736 19.966 29.5461 19.966C29.5648 19.966 29.5873 19.966 29.6098 19.9623C29.8086 19.9285 29.9398 19.741 29.9061 19.5423C29.6923 18.3085 29.2536 17.1498 28.6048 16.0885C30.3186 15.7548 31.6161 14.2435 31.6161 12.4323C31.6161 11.7423 31.4286 11.071 31.0723 10.4898C30.8323 10.1035 30.5323 9.76602 30.1761 9.48852L30.1836 9.48477ZM27.8998 15.4285C26.2461 15.4285 24.8998 14.0823 24.8998 12.4285C24.8992 11.9707 25.0033 11.5188 25.2041 11.1074C25.405 10.6959 25.6972 10.3359 26.0586 10.0548C26.5873 9.64227 27.2248 9.42102 27.8998 9.42102C28.5748 9.42102 29.2161 9.64602 29.7373 10.0548C30.0259 10.2769 30.2712 10.5502 30.4611 10.861C30.7477 11.3321 30.8983 11.8734 30.8961 12.4248C30.8961 14.0785 29.5498 15.4248 27.8998 15.4248V15.4285Z" fill="#7E006A"/>
<path d="M29.5389 10.7859C29.5052 10.7521 29.4652 10.7252 29.4211 10.7069C29.377 10.6885 29.3298 10.6791 29.282 10.6791C29.2343 10.6791 29.187 10.6885 29.1429 10.7069C29.0988 10.7252 29.0588 10.7521 29.0252 10.7859L26.2614 13.5534C26.2107 13.604 26.1761 13.6685 26.162 13.7387C26.1479 13.8089 26.155 13.8817 26.1823 13.948C26.2096 14.0142 26.2559 14.0708 26.3153 14.1107C26.3748 14.1506 26.4448 14.172 26.5164 14.1722C26.6064 14.1722 26.7039 14.1384 26.7752 14.0672L29.5389 11.2997C29.6814 11.1572 29.6814 10.9284 29.5389 10.7859ZM29.0589 12.6797C28.6052 12.6797 28.2339 13.0509 28.2339 13.5047C28.2339 13.9584 28.6052 14.3297 29.0589 14.3297C29.5127 14.3297 29.8839 13.9584 29.8839 13.5047C29.8839 13.0509 29.5127 12.6797 29.0589 12.6797ZM29.0589 13.6059C29.0027 13.6059 28.9614 13.5609 28.9614 13.5047C28.9614 13.4484 29.0064 13.4034 29.0589 13.4034C29.1114 13.4034 29.1602 13.4484 29.1602 13.5047C29.1602 13.5609 29.1152 13.6059 29.0589 13.6059ZM26.7377 12.1734C27.1914 12.1734 27.5627 11.8022 27.5627 11.3484C27.5627 10.8947 27.1914 10.5234 26.7377 10.5234C26.2839 10.5234 25.9127 10.8947 25.9127 11.3484C25.9127 11.8022 26.2839 12.1734 26.7377 12.1734ZM26.7377 11.2472C26.7939 11.2472 26.8352 11.2922 26.8352 11.3484C26.8352 11.4609 26.6364 11.4572 26.6364 11.3484C26.6364 11.2922 26.6814 11.2472 26.7377 11.2472ZM20.2914 17.8134V17.1572C20.2914 17.0607 20.2531 16.9682 20.1849 16.9C20.1167 16.8318 20.0241 16.7934 19.9277 16.7934C19.8312 16.7934 19.7387 16.8318 19.6704 16.9C19.6022 16.9682 19.5639 17.0607 19.5639 17.1572V17.8134C19.096 17.8261 18.6516 18.021 18.3252 18.3565C17.9988 18.692 17.8162 19.1416 17.8164 19.6097C17.8164 20.5022 18.4802 21.2672 19.3614 21.3909L20.3927 21.5372C20.9177 21.6122 21.3114 22.0697 21.3114 22.5984C21.3114 23.1909 20.8314 23.6709 20.2427 23.6709H19.6202C19.0314 23.6709 18.5514 23.1909 18.5514 22.5984V22.3922C18.5514 22.1897 18.3902 22.0284 18.1877 22.0284C17.9852 22.0284 17.8239 22.1897 17.8239 22.3922V22.5984C17.8239 23.5734 18.6039 24.3684 19.5714 24.3947V25.0509C19.5714 25.2534 19.7327 25.4147 19.9352 25.4147C20.1377 25.4147 20.2989 25.2534 20.2989 25.0509V24.3947C20.7668 24.382 21.2113 24.1871 21.5376 23.8516C21.864 23.5162 22.0466 23.0665 22.0464 22.5984C22.0464 21.7059 21.3827 20.9409 20.5014 20.8172L19.4702 20.6709C19.2154 20.6332 18.9825 20.5054 18.814 20.3107C18.6454 20.116 18.5522 19.8672 18.5514 19.6097C18.5514 19.0172 19.0314 18.5372 19.6202 18.5372H20.2502C20.8389 18.5372 21.3189 19.0172 21.3189 19.6097V19.8159C21.3189 19.9124 21.3572 20.0049 21.4254 20.0731C21.4937 20.1414 21.5862 20.1797 21.6827 20.1797C21.7791 20.1797 21.8716 20.1414 21.9399 20.0731C22.0081 20.0049 22.0464 19.9124 22.0464 19.8159V19.6097C22.0464 18.6347 21.2664 17.8397 20.2989 17.8134H20.2914Z" fill="#7E006A"/>
<path d="M19.9279 15.4246C16.8079 15.4246 14.2692 17.9708 14.2692 21.1021C14.2692 24.2333 16.8079 26.7796 19.9279 26.7796C23.0479 26.7796 25.5867 24.2333 25.5867 21.1021C25.5867 17.9708 23.0479 15.4246 19.9279 15.4246ZM19.9279 26.0558C17.2092 26.0558 14.9929 23.8358 14.9929 21.1058C14.9929 18.3758 17.2054 16.1558 19.9279 16.1558C22.6504 16.1558 24.8629 18.3758 24.8629 21.1058C24.8629 23.8358 22.6504 26.0558 19.9279 26.0558ZM11.5767 26.4458C11.6104 26.4571 11.6442 26.4646 11.6817 26.4683H11.7004C11.7304 26.4683 11.7604 26.4646 11.7904 26.4533C11.8179 26.4453 11.8444 26.4339 11.8692 26.4196C11.8692 26.4196 11.8767 26.4196 11.8804 26.4158C11.9217 26.3933 11.9554 26.3596 11.9854 26.3221C11.9854 26.3221 11.9854 26.3183 11.9892 26.3146C12.0042 26.2921 12.0229 26.2696 12.0342 26.2433L13.2904 23.2846C13.3692 23.1008 13.2829 22.8871 13.0992 22.8083C12.9154 22.7296 12.7017 22.8158 12.6229 22.9996L11.6667 25.2496C9.86293 21.4546 10.8192 16.8983 14.0817 14.1646C14.2354 14.0371 14.2542 13.8046 14.1267 13.6508C13.9992 13.4971 13.7704 13.4783 13.6129 13.6058C10.1479 16.5121 9.09793 21.3233 10.9242 25.3771L8.88043 24.5108C8.69668 24.4321 8.48293 24.5183 8.40418 24.7021C8.32543 24.8858 8.41168 25.0996 8.59543 25.1783L11.5542 26.4346C11.5542 26.4346 11.5692 26.4346 11.5729 26.4383L11.5767 26.4458ZM28.7629 26.0333C28.7592 26.0146 28.7517 25.9958 28.7442 25.9771C28.7329 25.9471 28.7217 25.9208 28.7067 25.8983L28.6842 25.8758C28.6601 25.8459 28.6309 25.8206 28.5979 25.8008L28.5904 25.7971C28.5867 25.7971 28.5829 25.7971 28.5792 25.7933C28.544 25.7747 28.506 25.762 28.4667 25.7558H28.4217C28.4029 25.7558 28.3842 25.7483 28.3617 25.7558L25.1704 26.1496C24.9717 26.1758 24.8292 26.3558 24.8554 26.5546C24.8779 26.7533 25.0542 26.8996 25.2604 26.8696L27.6867 26.5733C25.3017 30.0308 20.8804 31.4858 16.8792 30.0271C16.6917 29.9596 16.4817 30.0571 16.4142 30.2446C16.3467 30.4321 16.4442 30.6421 16.6317 30.7096C17.7604 31.1221 18.9192 31.3171 20.0592 31.3171C23.2242 31.3171 26.2617 29.8021 28.1667 27.1508L28.4367 29.3558C28.4592 29.5396 28.6167 29.6746 28.7967 29.6746H28.8417C29.0404 29.6483 29.1829 29.4683 29.1567 29.2696L28.7629 26.0783C28.7629 26.0783 28.7554 26.0596 28.7554 26.0521L28.7629 26.0333Z" fill="#7E006A"/>
</g>
<defs>
<clipPath id="clip0_2096_4952">
<rect width="24" height="24" fill="white" transform="translate(8 8)"/>
</clipPath>
</defs>
</svg>
