<svg width="25" height="24" viewBox="0 0 25 24" fill="none" xmlns="http://www.w3.org/2000/svg">
<g clip-path="url(#clip0_1287_4186)">
<path d="M22.1334 4.32422H2.86642C1.56008 4.32568 0.501457 5.3843 0.5 6.69064V17.3091C0.501457 18.6154 1.56008 19.6741 2.86642 19.6755H22.1334C23.4398 19.6741 24.4985 18.6155 24.5 17.3091V6.69064C24.4985 5.3843 23.4398 4.32568 22.1334 4.32422ZM16.6696 11.9999L23.4934 6.25238C23.5392 6.39394 23.5625 6.54181 23.5624 6.69059V17.3091C23.5625 17.4578 23.5392 17.6057 23.4935 17.7473L16.6696 11.9999ZM22.1334 5.26172C22.4162 5.26143 22.6927 5.34554 22.9275 5.50328L12.5 14.2861L2.07243 5.50328C2.30717 5.34553 2.58365 5.26144 2.86647 5.26177L22.1334 5.26172ZM1.50659 17.7475C1.46079 17.6059 1.43749 17.458 1.43755 17.3092V6.69064C1.43752 6.54184 1.46081 6.39396 1.50659 6.25238L8.33035 11.9999L1.50659 17.7475ZM2.86642 18.7381C2.58364 18.7385 2.30719 18.6544 2.07243 18.4968L9.05797 12.613L12.198 15.2577C12.2825 15.3288 12.3894 15.3679 12.5 15.3679C12.6105 15.3679 12.7174 15.3288 12.8019 15.2577L15.9419 12.6129L22.9274 18.4965C22.6927 18.6542 22.4162 18.7384 22.1333 18.738H2.86642V18.7381Z" fill="#575757"/>
</g>
<defs>
<clipPath id="clip0_1287_4186">
<rect width="24" height="24" fill="white" transform="translate(0.5)"/>
</clipPath>
</defs>
</svg>
