<svg width="137" height="37" viewBox="0 0 137 37" fill="none" xmlns="http://www.w3.org/2000/svg">
<path d="M15.3239 16.2102C15.2784 15.7519 15.0833 15.3958 14.7386 15.142C14.3939 14.8883 13.9261 14.7614 13.3352 14.7614C12.9337 14.7614 12.5947 14.8182 12.3182 14.9318C12.0417 15.0417 11.8295 15.1951 11.6818 15.392C11.5379 15.589 11.4659 15.8125 11.4659 16.0625C11.4583 16.2708 11.5019 16.4527 11.5966 16.608C11.6951 16.7633 11.8295 16.8977 12 17.0114C12.1705 17.1212 12.3674 17.2178 12.5909 17.3011C12.8144 17.3807 13.053 17.4489 13.3068 17.5057L14.3523 17.7557C14.8598 17.8693 15.3258 18.0208 15.75 18.2102C16.1742 18.3996 16.5417 18.6326 16.8523 18.9091C17.1629 19.1856 17.4034 19.5114 17.5739 19.8864C17.7481 20.2614 17.8371 20.6913 17.8409 21.1761C17.8371 21.8883 17.6553 22.5057 17.2955 23.0284C16.9394 23.5473 16.4242 23.9508 15.75 24.2386C15.0795 24.5227 14.2708 24.6648 13.3239 24.6648C12.3845 24.6648 11.5663 24.5208 10.8693 24.233C10.1761 23.9451 9.63447 23.5189 9.24432 22.9545C8.85795 22.3864 8.6553 21.6837 8.63636 20.8466H11.017C11.0436 21.2367 11.1553 21.5625 11.3523 21.8239C11.553 22.0814 11.8201 22.2765 12.1534 22.4091C12.4905 22.5379 12.8712 22.6023 13.2955 22.6023C13.7121 22.6023 14.0739 22.5417 14.3807 22.4205C14.6913 22.2992 14.9318 22.1307 15.1023 21.9148C15.2727 21.6989 15.358 21.4508 15.358 21.1705C15.358 20.9091 15.2803 20.6894 15.125 20.5114C14.9735 20.3333 14.75 20.1818 14.4545 20.0568C14.1629 19.9318 13.8049 19.8182 13.3807 19.7159L12.1136 19.3977C11.1326 19.1591 10.358 18.786 9.78977 18.2784C9.22159 17.7708 8.93939 17.0871 8.94318 16.2273C8.93939 15.5227 9.12689 14.9072 9.50568 14.3807C9.88826 13.8542 10.4129 13.4432 11.0795 13.1477C11.7462 12.8523 12.5038 12.7045 13.3523 12.7045C14.2159 12.7045 14.9697 12.8523 15.6136 13.1477C16.2614 13.4432 16.7652 13.8542 17.125 14.3807C17.4848 14.9072 17.6705 15.517 17.6818 16.2102H15.3239ZM19.0526 14.892V12.8636H28.6094V14.892H25.0469V24.5H22.6151V14.892H19.0526ZM30.1832 24.5V12.8636H38.0241V14.892H32.6435V17.6648H37.6207V19.6932H32.6435V22.4716H38.0469V24.5H30.1832ZM39.9801 24.5V12.8636H44.571C45.4536 12.8636 46.2055 13.0322 46.8267 13.3693C47.4479 13.7027 47.9214 14.1667 48.2472 14.7614C48.5767 15.3523 48.7415 16.0341 48.7415 16.8068C48.7415 17.5795 48.5748 18.2614 48.2415 18.8523C47.9081 19.4432 47.4252 19.9034 46.7926 20.233C46.1638 20.5625 45.4025 20.7273 44.5085 20.7273H41.5824V18.7557H44.1108C44.5843 18.7557 44.9744 18.6742 45.2812 18.5114C45.5919 18.3447 45.8229 18.1155 45.9744 17.8239C46.1297 17.5284 46.2074 17.1894 46.2074 16.8068C46.2074 16.4205 46.1297 16.0833 45.9744 15.7955C45.8229 15.5038 45.5919 15.2784 45.2812 15.1193C44.9706 14.9564 44.5767 14.875 44.0994 14.875H42.4403V24.5H39.9801ZM50.3395 24.5V12.8636H52.7997V17.6648H57.794V12.8636H60.2486V24.5H57.794V19.6932H52.7997V24.5H50.3395ZM64.2827 24.5H61.6463L65.6634 12.8636H68.8338L72.8452 24.5H70.2088L67.294 15.5227H67.2031L64.2827 24.5ZM64.1179 19.9261H70.3452V21.8466H64.1179V19.9261ZM83.9787 12.8636V24.5H81.8537L76.7912 17.1761H76.706V24.5H74.2457V12.8636H76.4048L81.4276 20.1818H81.5298V12.8636H83.9787ZM96.7045 18.6818C96.7045 19.9508 96.464 21.0303 95.983 21.9205C95.5057 22.8106 94.8542 23.4905 94.0284 23.9602C93.2064 24.4261 92.2822 24.6591 91.2557 24.6591C90.2216 24.6591 89.2936 24.4242 88.4716 23.9545C87.6496 23.4848 87 22.8049 86.5227 21.9148C86.0455 21.0246 85.8068 19.947 85.8068 18.6818C85.8068 17.4129 86.0455 16.3333 86.5227 15.4432C87 14.553 87.6496 13.875 88.4716 13.4091C89.2936 12.9394 90.2216 12.7045 91.2557 12.7045C92.2822 12.7045 93.2064 12.9394 94.0284 13.4091C94.8542 13.875 95.5057 14.553 95.983 15.4432C96.464 16.3333 96.7045 17.4129 96.7045 18.6818ZM94.2102 18.6818C94.2102 17.8598 94.0871 17.1667 93.8409 16.6023C93.5985 16.0379 93.2557 15.6098 92.8125 15.3182C92.3693 15.0265 91.8504 14.8807 91.2557 14.8807C90.661 14.8807 90.142 15.0265 89.6989 15.3182C89.2557 15.6098 88.911 16.0379 88.6648 16.6023C88.4223 17.1667 88.3011 17.8598 88.3011 18.6818C88.3011 19.5038 88.4223 20.197 88.6648 20.7614C88.911 21.3258 89.2557 21.7538 89.6989 22.0455C90.142 22.3371 90.661 22.483 91.2557 22.483C91.8504 22.483 92.3693 22.3371 92.8125 22.0455C93.2557 21.7538 93.5985 21.3258 93.8409 20.7614C94.0871 20.197 94.2102 19.5038 94.2102 18.6818ZM99.1619 24.6477C98.7869 24.6477 98.465 24.5152 98.196 24.25C97.9309 23.9811 97.7983 23.6591 97.7983 23.2841C97.7983 22.9129 97.9309 22.5947 98.196 22.3295C98.465 22.0644 98.7869 21.9318 99.1619 21.9318C99.5256 21.9318 99.8438 22.0644 100.116 22.3295C100.389 22.5947 100.526 22.9129 100.526 23.2841C100.526 23.5341 100.461 23.7633 100.332 23.9716C100.207 24.1761 100.043 24.3409 99.8381 24.4659C99.6335 24.5871 99.4081 24.6477 99.1619 24.6477ZM115.447 12.8636V24.5H113.322L108.26 17.1761H108.175V24.5H105.714V12.8636H107.874L112.896 20.1818H112.999V12.8636H115.447ZM125.196 16.625C125.116 16.3485 125.005 16.1042 124.861 15.892C124.717 15.6761 124.541 15.4943 124.332 15.3466C124.128 15.1951 123.893 15.0795 123.628 15C123.366 14.9205 123.077 14.8807 122.759 14.8807C122.164 14.8807 121.641 15.0284 121.19 15.3239C120.743 15.6193 120.395 16.0492 120.145 16.6136C119.895 17.1742 119.77 17.8598 119.77 18.6705C119.77 19.4811 119.893 20.1705 120.139 20.7386C120.385 21.3068 120.734 21.7405 121.185 22.0398C121.635 22.3352 122.168 22.483 122.781 22.483C123.338 22.483 123.813 22.3845 124.207 22.1875C124.605 21.9867 124.908 21.7045 125.116 21.3409C125.329 20.9773 125.435 20.5473 125.435 20.0511L125.935 20.125H122.935V18.2727H127.804V19.7386C127.804 20.7614 127.588 21.6402 127.156 22.375C126.724 23.1061 126.13 23.6705 125.372 24.0682C124.615 24.4621 123.747 24.6591 122.77 24.6591C121.679 24.6591 120.721 24.4186 119.895 23.9375C119.069 23.4527 118.425 22.7652 117.963 21.875C117.505 20.9811 117.276 19.9205 117.276 18.6932C117.276 17.75 117.412 16.9091 117.685 16.1705C117.961 15.428 118.348 14.7992 118.844 14.2841C119.34 13.7689 119.918 13.3769 120.577 13.108C121.236 12.839 121.95 12.7045 122.719 12.7045C123.378 12.7045 123.991 12.8011 124.56 12.9943C125.128 13.1837 125.632 13.4527 126.071 13.8011C126.514 14.1496 126.876 14.5644 127.156 15.0455C127.437 15.5227 127.616 16.0492 127.696 16.625H125.196Z" fill="#374151"/>
</svg>
