<svg width="121" height="21" viewBox="0 0 121 21" fill="none" xmlns="http://www.w3.org/2000/svg">
<path d="M7.32386 8.21023C7.27841 7.75189 7.08333 7.39583 6.73864 7.14205C6.39394 6.88826 5.92614 6.76136 5.33523 6.76136C4.93371 6.76136 4.5947 6.81818 4.31818 6.93182C4.04167 7.04167 3.82955 7.19508 3.68182 7.39205C3.53788 7.58902 3.46591 7.8125 3.46591 8.0625C3.45833 8.27083 3.50189 8.45265 3.59659 8.60795C3.69508 8.76326 3.82955 8.89773 4 9.01136C4.17045 9.12121 4.36742 9.2178 4.59091 9.30114C4.81439 9.38068 5.05303 9.44886 5.30682 9.50568L6.35227 9.75568C6.85985 9.86932 7.32576 10.0208 7.75 10.2102C8.17424 10.3996 8.54167 10.6326 8.85227 10.9091C9.16288 11.1856 9.40341 11.5114 9.57386 11.8864C9.74811 12.2614 9.83712 12.6913 9.84091 13.1761C9.83712 13.8883 9.6553 14.5057 9.29545 15.0284C8.93939 15.5473 8.42424 15.9508 7.75 16.2386C7.07955 16.5227 6.27083 16.6648 5.32386 16.6648C4.38447 16.6648 3.56629 16.5208 2.86932 16.233C2.17614 15.9451 1.63447 15.5189 1.24432 14.9545C0.857955 14.3864 0.655303 13.6837 0.636364 12.8466H3.01705C3.04356 13.2367 3.1553 13.5625 3.35227 13.8239C3.55303 14.0814 3.82008 14.2765 4.15341 14.4091C4.49053 14.5379 4.87121 14.6023 5.29545 14.6023C5.71212 14.6023 6.07386 14.5417 6.38068 14.4205C6.69129 14.2992 6.93182 14.1307 7.10227 13.9148C7.27273 13.6989 7.35795 13.4508 7.35795 13.1705C7.35795 12.9091 7.2803 12.6894 7.125 12.5114C6.97348 12.3333 6.75 12.1818 6.45455 12.0568C6.16288 11.9318 5.80492 11.8182 5.38068 11.7159L4.11364 11.3977C3.13258 11.1591 2.35795 10.786 1.78977 10.2784C1.22159 9.77083 0.939394 9.08712 0.943182 8.22727C0.939394 7.52273 1.12689 6.9072 1.50568 6.38068C1.88826 5.85417 2.41288 5.44318 3.07955 5.14773C3.74621 4.85227 4.50379 4.70455 5.35227 4.70455C6.21591 4.70455 6.9697 4.85227 7.61364 5.14773C8.26136 5.44318 8.76515 5.85417 9.125 6.38068C9.48485 6.9072 9.67045 7.51705 9.68182 8.21023H7.32386ZM11.0526 6.89205V4.86364H20.6094V6.89205H17.0469V16.5H14.6151V6.89205H11.0526ZM22.1832 16.5V4.86364H30.0241V6.89205H24.6435V9.66477H29.6207V11.6932H24.6435V14.4716H30.0469V16.5H22.1832ZM31.9801 16.5V4.86364H36.571C37.4536 4.86364 38.2055 5.0322 38.8267 5.36932C39.4479 5.70265 39.9214 6.16667 40.2472 6.76136C40.5767 7.35227 40.7415 8.03409 40.7415 8.80682C40.7415 9.57955 40.5748 10.2614 40.2415 10.8523C39.9081 11.4432 39.4252 11.9034 38.7926 12.233C38.1638 12.5625 37.4025 12.7273 36.5085 12.7273H33.5824V10.7557H36.1108C36.5843 10.7557 36.9744 10.6742 37.2812 10.5114C37.5919 10.3447 37.8229 10.1155 37.9744 9.82386C38.1297 9.52841 38.2074 9.18939 38.2074 8.80682C38.2074 8.42045 38.1297 8.08333 37.9744 7.79545C37.8229 7.50379 37.5919 7.27841 37.2812 7.11932C36.9706 6.95644 36.5767 6.875 36.0994 6.875H34.4403V16.5H31.9801ZM42.3395 16.5V4.86364H44.7997V9.66477H49.794V4.86364H52.2486V16.5H49.794V11.6932H44.7997V16.5H42.3395ZM56.2827 16.5H53.6463L57.6634 4.86364H60.8338L64.8452 16.5H62.2088L59.294 7.52273H59.2031L56.2827 16.5ZM56.1179 11.9261H62.3452V13.8466H56.1179V11.9261ZM75.9787 4.86364V16.5H73.8537L68.7912 9.17614H68.706V16.5H66.2457V4.86364H68.4048L73.4276 12.1818H73.5298V4.86364H75.9787ZM88.7045 10.6818C88.7045 11.9508 88.464 13.0303 87.983 13.9205C87.5057 14.8106 86.8542 15.4905 86.0284 15.9602C85.2064 16.4261 84.2822 16.6591 83.2557 16.6591C82.2216 16.6591 81.2936 16.4242 80.4716 15.9545C79.6496 15.4848 79 14.8049 78.5227 13.9148C78.0455 13.0246 77.8068 11.947 77.8068 10.6818C77.8068 9.41288 78.0455 8.33333 78.5227 7.44318C79 6.55303 79.6496 5.875 80.4716 5.40909C81.2936 4.93939 82.2216 4.70455 83.2557 4.70455C84.2822 4.70455 85.2064 4.93939 86.0284 5.40909C86.8542 5.875 87.5057 6.55303 87.983 7.44318C88.464 8.33333 88.7045 9.41288 88.7045 10.6818ZM86.2102 10.6818C86.2102 9.85985 86.0871 9.16667 85.8409 8.60227C85.5985 8.03788 85.2557 7.60985 84.8125 7.31818C84.3693 7.02652 83.8504 6.88068 83.2557 6.88068C82.661 6.88068 82.142 7.02652 81.6989 7.31818C81.2557 7.60985 80.911 8.03788 80.6648 8.60227C80.4223 9.16667 80.3011 9.85985 80.3011 10.6818C80.3011 11.5038 80.4223 12.197 80.6648 12.7614C80.911 13.3258 81.2557 13.7538 81.6989 14.0455C82.142 14.3371 82.661 14.483 83.2557 14.483C83.8504 14.483 84.3693 14.3371 84.8125 14.0455C85.2557 13.7538 85.5985 13.3258 85.8409 12.7614C86.0871 12.197 86.2102 11.5038 86.2102 10.6818ZM91.1619 16.6477C90.7869 16.6477 90.465 16.5152 90.196 16.25C89.9309 15.9811 89.7983 15.6591 89.7983 15.2841C89.7983 14.9129 89.9309 14.5947 90.196 14.3295C90.465 14.0644 90.7869 13.9318 91.1619 13.9318C91.5256 13.9318 91.8438 14.0644 92.1165 14.3295C92.3892 14.5947 92.5256 14.9129 92.5256 15.2841C92.5256 15.5341 92.4612 15.7633 92.3324 15.9716C92.2074 16.1761 92.0426 16.3409 91.8381 16.4659C91.6335 16.5871 91.4081 16.6477 91.1619 16.6477ZM107.447 4.86364V16.5H105.322L100.26 9.17614H100.175V16.5H97.7145V4.86364H99.8736L104.896 12.1818H104.999V4.86364H107.447ZM117.196 8.625C117.116 8.34848 117.005 8.10417 116.861 7.89205C116.717 7.67614 116.541 7.49432 116.332 7.34659C116.128 7.19508 115.893 7.07955 115.628 7C115.366 6.92045 115.077 6.88068 114.759 6.88068C114.164 6.88068 113.641 7.02841 113.19 7.32386C112.743 7.61932 112.395 8.04924 112.145 8.61364C111.895 9.17424 111.77 9.85985 111.77 10.6705C111.77 11.4811 111.893 12.1705 112.139 12.7386C112.385 13.3068 112.734 13.7405 113.185 14.0398C113.635 14.3352 114.168 14.483 114.781 14.483C115.338 14.483 115.813 14.3845 116.207 14.1875C116.605 13.9867 116.908 13.7045 117.116 13.3409C117.329 12.9773 117.435 12.5473 117.435 12.0511L117.935 12.125H114.935V10.2727H119.804V11.7386C119.804 12.7614 119.588 13.6402 119.156 14.375C118.724 15.1061 118.13 15.6705 117.372 16.0682C116.615 16.4621 115.747 16.6591 114.77 16.6591C113.679 16.6591 112.721 16.4186 111.895 15.9375C111.069 15.4527 110.425 14.7652 109.963 13.875C109.505 12.9811 109.276 11.9205 109.276 10.6932C109.276 9.75 109.412 8.90909 109.685 8.17045C109.961 7.42803 110.348 6.79924 110.844 6.28409C111.34 5.76894 111.918 5.37689 112.577 5.10795C113.236 4.83901 113.95 4.70455 114.719 4.70455C115.378 4.70455 115.991 4.80114 116.56 4.99432C117.128 5.18371 117.632 5.45265 118.071 5.80114C118.514 6.14962 118.876 6.56439 119.156 7.04545C119.437 7.52273 119.616 8.04924 119.696 8.625H117.196Z" fill="#374151"/>
</svg>
