<svg width="833" height="128" viewBox="0 0 833 128" fill="none" xmlns="http://www.w3.org/2000/svg">
<rect x="41" y="5" width="118" height="118" rx="59" fill="white"/>
<rect x="41" y="5" width="118" height="118" rx="59" stroke="#0090DA" stroke-width="2"/>
<path d="M75.6372 67.5V60.5H77.7972C78.6106 60.5 79.2806 60.6467 79.8072 60.94C80.3339 61.2267 80.7239 61.6333 80.9772 62.16C81.2372 62.68 81.3672 63.2933 81.3672 64C81.3672 64.7 81.2372 65.3133 80.9772 65.84C80.7239 66.3667 80.3339 66.7767 79.8072 67.07C79.2806 67.3567 78.6106 67.5 77.7972 67.5H75.6372ZM77.0372 66.3H77.7272C78.2806 66.3 78.7172 66.21 79.0372 66.03C79.3639 65.8433 79.5939 65.58 79.7272 65.24C79.8672 64.8933 79.9372 64.48 79.9372 64C79.9372 63.52 79.8672 63.11 79.7272 62.77C79.5939 62.4233 79.3639 62.1567 79.0372 61.97C78.7172 61.7833 78.2806 61.69 77.7272 61.69H77.0372V66.3ZM82.5806 67.5V60.5H83.9806V67.5H82.5806ZM87.8521 67.62C87.3521 67.62 86.9021 67.5333 86.5021 67.36C86.1021 67.1867 85.7855 66.9333 85.5521 66.6C85.3255 66.2667 85.2055 65.8633 85.1921 65.39H86.6721C86.6855 65.59 86.7388 65.77 86.8321 65.93C86.9321 66.09 87.0655 66.2167 87.2321 66.31C87.4055 66.4033 87.6121 66.45 87.8521 66.45C88.0521 66.45 88.2255 66.4167 88.3721 66.35C88.5255 66.2833 88.6421 66.19 88.7221 66.07C88.8088 65.95 88.8521 65.8033 88.8521 65.63C88.8521 65.4633 88.8088 65.3167 88.7221 65.19C88.6355 65.0567 88.5121 64.9433 88.3521 64.85C88.1921 64.75 88.0055 64.66 87.7921 64.58C87.5855 64.5 87.3588 64.42 87.1121 64.34C86.5255 64.16 86.0821 63.9167 85.7821 63.61C85.4888 63.3033 85.3421 62.9 85.3421 62.4C85.3421 61.9733 85.4421 61.61 85.6421 61.31C85.8488 61.01 86.1321 60.78 86.4921 60.62C86.8588 60.46 87.2721 60.38 87.7321 60.38C88.2121 60.38 88.6321 60.4633 88.9921 60.63C89.3521 60.79 89.6355 61.0233 89.8421 61.33C90.0555 61.6367 90.1688 62 90.1821 62.42H88.6721C88.6721 62.2667 88.6288 62.1267 88.5421 62C88.4621 61.8667 88.3521 61.76 88.2121 61.68C88.0721 61.6 87.9055 61.56 87.7121 61.56C87.5455 61.5533 87.3921 61.58 87.2521 61.64C87.1188 61.6933 87.0121 61.7767 86.9321 61.89C86.8521 61.9967 86.8121 62.1333 86.8121 62.3C86.8121 62.4667 86.8521 62.6067 86.9321 62.72C87.0121 62.8267 87.1255 62.92 87.2721 63C87.4188 63.08 87.5888 63.1567 87.7821 63.23C87.9755 63.2967 88.1855 63.3667 88.4121 63.44C88.7655 63.56 89.0888 63.7033 89.3821 63.87C89.6755 64.03 89.9088 64.24 90.0821 64.5C90.2555 64.76 90.3421 65.1033 90.3421 65.53C90.3421 65.9033 90.2455 66.25 90.0521 66.57C89.8655 66.8833 89.5855 67.1367 89.2121 67.33C88.8455 67.5233 88.3921 67.62 87.8521 67.62ZM94.6445 67.62C93.9645 67.62 93.3745 67.47 92.8745 67.17C92.3812 66.8633 92.0012 66.44 91.7345 65.9C91.4678 65.3533 91.3345 64.7233 91.3345 64.01C91.3345 63.2967 91.4678 62.6667 91.7345 62.12C92.0012 61.5733 92.3812 61.1467 92.8745 60.84C93.3745 60.5333 93.9645 60.38 94.6445 60.38C95.4912 60.38 96.1845 60.5933 96.7245 61.02C97.2645 61.4467 97.6012 62.0467 97.7345 62.82H96.2145C96.1278 62.4467 95.9478 62.16 95.6745 61.96C95.4078 61.7533 95.0612 61.65 94.6345 61.65C94.2412 61.65 93.9045 61.7467 93.6245 61.94C93.3445 62.1267 93.1278 62.3967 92.9745 62.75C92.8278 63.1033 92.7545 63.5233 92.7545 64.01C92.7545 64.4967 92.8278 64.9167 92.9745 65.27C93.1278 65.6167 93.3445 65.8867 93.6245 66.08C93.9045 66.2667 94.2412 66.36 94.6345 66.36C95.0612 66.36 95.4078 66.2667 95.6745 66.08C95.9478 65.8867 96.1278 65.62 96.2145 65.28H97.7345C97.6012 66.0067 97.2645 66.58 96.7245 67C96.1845 67.4133 95.4912 67.62 94.6445 67.62ZM102.038 67.62C101.378 67.62 100.795 67.4667 100.288 67.16C99.788 66.8533 99.3947 66.43 99.108 65.89C98.828 65.3433 98.688 64.7133 98.688 64C98.688 63.2867 98.828 62.66 99.108 62.12C99.3947 61.5733 99.788 61.1467 100.288 60.84C100.795 60.5333 101.378 60.38 102.038 60.38C102.698 60.38 103.278 60.5333 103.778 60.84C104.285 61.1467 104.678 61.5733 104.958 62.12C105.238 62.66 105.378 63.2867 105.378 64C105.378 64.7133 105.238 65.3433 104.958 65.89C104.678 66.43 104.285 66.8533 103.778 67.16C103.278 67.4667 102.698 67.62 102.038 67.62ZM102.038 66.36C102.425 66.36 102.761 66.2633 103.048 66.07C103.335 65.8767 103.555 65.6067 103.708 65.26C103.868 64.9067 103.948 64.4867 103.948 64C103.948 63.5133 103.868 63.0967 103.708 62.75C103.555 62.3967 103.335 62.1233 103.048 61.93C102.761 61.7367 102.425 61.64 102.038 61.64C101.645 61.64 101.305 61.7367 101.018 61.93C100.731 62.1233 100.508 62.3967 100.348 62.75C100.188 63.0967 100.108 63.5133 100.108 64C100.108 64.4867 100.188 64.9067 100.348 65.26C100.508 65.6067 100.731 65.8767 101.018 66.07C101.305 66.2633 101.645 66.36 102.038 66.36ZM108.33 67.5L105.79 60.5H107.29L109.19 66.08L111.12 60.5H112.6L110.06 67.5H108.33ZM113.489 67.5V60.5H118.119V61.63H114.889V63.4H117.819V64.49H114.889V66.37H118.119V67.5H113.489ZM119.407 67.5V60.5H122.057C122.617 60.5 123.083 60.5967 123.457 60.79C123.83 60.9833 124.107 61.2433 124.287 61.57C124.467 61.89 124.557 62.25 124.557 62.65C124.557 63.0233 124.467 63.3733 124.287 63.7C124.113 64.0267 123.84 64.29 123.467 64.49C123.1 64.6833 122.623 64.78 122.037 64.78H120.807V67.5H119.407ZM123.027 67.5L121.597 64.43H123.107L124.617 67.5H123.027ZM120.807 63.76H121.967C122.367 63.76 122.66 63.6633 122.847 63.47C123.033 63.2767 123.127 63.02 123.127 62.7C123.127 62.3867 123.033 62.1367 122.847 61.95C122.66 61.7633 122.367 61.67 121.967 61.67H120.807V63.76Z" fill="#4B5563"/>
<path d="M102 5.75C102.414 5.75 102.75 5.41421 102.75 5C102.75 4.58579 102.414 4.25 102 4.25V5.75ZM93 5L100.5 9.33013V0.669873L93 5ZM102 4.25H99.75V5.75H102V4.25Z" fill="#0090DA"/>
<path d="M98 122.25C97.5858 122.25 97.25 122.586 97.25 123C97.25 123.414 97.5858 123.75 98 123.75V122.25ZM102 123L94.5 118.67V127.33L102 123Z" fill="#0090DA"/>
<rect x="251" y="5" width="118" height="118" rx="59" fill="white"/>
<rect x="251" y="5" width="118" height="118" rx="59" stroke="#EAB308" stroke-width="2"/>
<path d="M289.258 67.5L286.718 60.5H288.218L290.118 66.08L292.048 60.5H293.528L290.988 67.5H289.258ZM293.057 67.5L295.617 60.5H297.207L299.757 67.5H298.277L296.407 62.09L294.527 67.5H293.057ZM294.187 65.93L294.557 64.84H298.157L298.517 65.93H294.187ZM300.715 67.5V60.5H302.115V66.41H305.165V67.5H300.715ZM306.409 67.5V60.5H307.809V67.5H306.409ZM309.26 67.5V60.5H311.42C312.234 60.5 312.904 60.6467 313.43 60.94C313.957 61.2267 314.347 61.6333 314.6 62.16C314.86 62.68 314.99 63.2933 314.99 64C314.99 64.7 314.86 65.3133 314.6 65.84C314.347 66.3667 313.957 66.7767 313.43 67.07C312.904 67.3567 312.234 67.5 311.42 67.5H309.26ZM310.66 66.3H311.35C311.904 66.3 312.34 66.21 312.66 66.03C312.987 65.8433 313.217 65.58 313.35 65.24C313.49 64.8933 313.56 64.48 313.56 64C313.56 63.52 313.49 63.11 313.35 62.77C313.217 62.4233 312.987 62.1567 312.66 61.97C312.34 61.7833 311.904 61.69 311.35 61.69H310.66V66.3ZM315.274 67.5L317.834 60.5H319.424L321.974 67.5H320.494L318.624 62.09L316.744 67.5H315.274ZM316.404 65.93L316.774 64.84H320.374L320.734 65.93H316.404ZM323.8 67.5V61.63H321.76V60.5H327.23V61.63H325.19V67.5H323.8ZM328.254 67.5V60.5H332.884V61.63H329.654V63.4H332.584V64.49H329.654V66.37H332.884V67.5H328.254Z" fill="#4B5563"/>
<rect x="461" y="5" width="118" height="118" rx="59" fill="white"/>
<rect x="461" y="5" width="118" height="118" rx="59" stroke="#22C55E" stroke-width="2"/>
<path d="M506.311 67.5V60.5H509.221C509.701 60.5 510.108 60.5767 510.441 60.73C510.781 60.8833 511.038 61.0967 511.211 61.37C511.384 61.6367 511.471 61.95 511.471 62.31C511.471 62.6567 511.394 62.95 511.241 63.19C511.088 63.43 510.884 63.6167 510.631 63.75C510.378 63.8767 510.104 63.95 509.811 63.97L509.971 63.86C510.291 63.8733 510.574 63.96 510.821 64.12C511.068 64.28 511.264 64.49 511.411 64.75C511.558 65.0033 511.631 65.2833 511.631 65.59C511.631 65.9633 511.541 66.2967 511.361 66.59C511.181 66.8767 510.918 67.1 510.571 67.26C510.231 67.42 509.814 67.5 509.321 67.5H506.311ZM507.711 66.36H509.091C509.444 66.36 509.718 66.28 509.911 66.12C510.111 65.9533 510.211 65.72 510.211 65.42C510.211 65.12 510.108 64.8833 509.901 64.71C509.701 64.5367 509.424 64.45 509.071 64.45H507.711V66.36ZM507.711 63.41H508.981C509.328 63.41 509.591 63.3333 509.771 63.18C509.951 63.02 510.041 62.7967 510.041 62.51C510.041 62.23 509.951 62.0133 509.771 61.86C509.591 61.7 509.324 61.62 508.971 61.62H507.711V63.41ZM515.475 67.62C514.955 67.62 514.482 67.5167 514.055 67.31C513.635 67.1033 513.302 66.7933 513.055 66.38C512.809 65.96 512.685 65.43 512.685 64.79V60.5H514.085V64.8C514.085 65.14 514.139 65.4233 514.245 65.65C514.359 65.8767 514.522 66.05 514.735 66.17C514.949 66.2833 515.205 66.34 515.505 66.34C515.805 66.34 516.059 66.2833 516.265 66.17C516.479 66.05 516.642 65.8767 516.755 65.65C516.869 65.4233 516.925 65.14 516.925 64.8V60.5H518.325V64.79C518.325 65.43 518.195 65.96 517.935 66.38C517.682 66.7933 517.339 67.1033 516.905 67.31C516.472 67.5167 515.995 67.62 515.475 67.62ZM519.661 67.5V60.5H521.061V67.5H519.661ZM522.512 67.5V60.5H523.912V66.41H526.962V67.5H522.512ZM528.206 67.5V60.5H530.366C531.179 60.5 531.849 60.6467 532.376 60.94C532.902 61.2267 533.292 61.6333 533.546 62.16C533.806 62.68 533.936 63.2933 533.936 64C533.936 64.7 533.806 65.3133 533.546 65.84C533.292 66.3667 532.902 66.7767 532.376 67.07C531.849 67.3567 531.179 67.5 530.366 67.5H528.206ZM529.606 66.3H530.296C530.849 66.3 531.286 66.21 531.606 66.03C531.932 65.8433 532.162 65.58 532.296 65.24C532.436 64.8933 532.506 64.48 532.506 64C532.506 63.52 532.436 63.11 532.296 62.77C532.162 62.4233 531.932 62.1567 531.606 61.97C531.286 61.7833 530.849 61.69 530.296 61.69H529.606V66.3Z" fill="#4B5563"/>
<path d="M521 5.75C521.414 5.75 521.75 5.41421 521.75 5C521.75 4.58579 521.414 4.25 521 4.25V5.75ZM512 5L519.5 9.33013V0.669873L512 5ZM521 4.25H518.75V5.75H521V4.25Z" fill="#22C55E"/>
<path d="M512 122.25C511.586 122.25 511.25 122.586 511.25 123C511.25 123.414 511.586 123.75 512 123.75V122.25ZM520 123L512.5 118.67V127.33L520 123ZM512 123.75H513.25V122.25H512V123.75Z" fill="#22C55E"/>
<path d="M461.75 62C461.75 61.5858 461.414 61.25 461 61.25C460.586 61.25 460.25 61.5858 460.25 62H461.75ZM461 66L465.33 58.5H456.67L461 66Z" fill="#22C55E"/>
<path d="M578.25 66C578.25 66.4142 578.586 66.75 579 66.75C579.414 66.75 579.75 66.4142 579.75 66H578.25ZM579 61L574.67 68.5H583.33L579 61Z" fill="#22C55E"/>
<rect x="671" y="5" width="118" height="118" rx="59" fill="white"/>
<rect x="671" y="5" width="118" height="118" rx="59" stroke="#17879E" stroke-width="2"/>
<path d="M710.007 67.5V60.5H711.407V66.41H714.457V67.5H710.007ZM715.201 67.5L717.761 60.5H719.351L721.901 67.5H720.421L718.551 62.09L716.671 67.5H715.201ZM716.331 65.93L716.701 64.84H720.301L720.661 65.93H716.331ZM725.236 67.62C724.716 67.62 724.243 67.5167 723.816 67.31C723.396 67.1033 723.063 66.7933 722.816 66.38C722.57 65.96 722.446 65.43 722.446 64.79V60.5H723.846V64.8C723.846 65.14 723.9 65.4233 724.006 65.65C724.12 65.8767 724.283 66.05 724.496 66.17C724.71 66.2833 724.966 66.34 725.266 66.34C725.566 66.34 725.82 66.2833 726.026 66.17C726.24 66.05 726.403 65.8767 726.516 65.65C726.63 65.4233 726.686 65.14 726.686 64.8V60.5H728.086V64.79C728.086 65.43 727.956 65.96 727.696 66.38C727.443 66.7933 727.1 67.1033 726.666 67.31C726.233 67.5167 725.756 67.62 725.236 67.62ZM729.421 67.5V60.5H730.821L733.991 65.26V60.5H735.391V67.5H733.991L730.821 62.75V67.5H729.421ZM739.903 67.62C739.223 67.62 738.633 67.47 738.133 67.17C737.64 66.8633 737.26 66.44 736.993 65.9C736.727 65.3533 736.593 64.7233 736.593 64.01C736.593 63.2967 736.727 62.6667 736.993 62.12C737.26 61.5733 737.64 61.1467 738.133 60.84C738.633 60.5333 739.223 60.38 739.903 60.38C740.75 60.38 741.443 60.5933 741.983 61.02C742.523 61.4467 742.86 62.0467 742.993 62.82H741.473C741.387 62.4467 741.207 62.16 740.933 61.96C740.667 61.7533 740.32 61.65 739.893 61.65C739.5 61.65 739.163 61.7467 738.883 61.94C738.603 62.1267 738.387 62.3967 738.233 62.75C738.087 63.1033 738.013 63.5233 738.013 64.01C738.013 64.4967 738.087 64.9167 738.233 65.27C738.387 65.6167 738.603 65.8867 738.883 66.08C739.163 66.2667 739.5 66.36 739.893 66.36C740.32 66.36 740.667 66.2667 740.933 66.08C741.207 65.8867 741.387 65.62 741.473 65.28H742.993C742.86 66.0067 742.523 66.58 741.983 67C741.443 67.4133 740.75 67.62 739.903 67.62ZM748.597 67.5V60.5H749.997V67.5H748.597ZM744.197 67.5V60.5H745.597V67.5H744.197ZM745.407 64.49V63.36H748.827V64.49H745.407Z" fill="#4B5563"/>
<path d="M731 5.75C731.414 5.75 731.75 5.41421 731.75 5C731.75 4.58579 731.414 4.25 731 4.25V5.75ZM722 5L729.5 9.33013V0.669873L722 5ZM731 4.25H728.75V5.75H731V4.25Z" fill="#17879E"/>
<path d="M724 122.25C723.586 122.25 723.25 122.586 723.25 123C723.25 123.414 723.586 123.75 724 123.75V122.25ZM728 123L720.5 118.67V127.33L728 123Z" fill="#17879E"/>
<path d="M671.75 62C671.75 61.5858 671.414 61.25 671 61.25C670.586 61.25 670.25 61.5858 670.25 62H671.75ZM671 66L675.33 58.5H666.67L671 66Z" fill="#17879E"/>
<path d="M788.25 66C788.25 66.4142 788.586 66.75 789 66.75C789.414 66.75 789.75 66.4142 789.75 66H788.25ZM789 61L784.67 68.5H793.33L789 61Z" fill="#17879E"/>
<path d="M96 122.25C95.5858 122.25 95.25 122.586 95.25 123C95.25 123.414 95.5858 123.75 96 123.75L96 122.25ZM202 123L194.5 118.67L194.5 127.33L202 123ZM96 123.75L195.25 123.75L195.25 122.25L96 122.25L96 123.75Z" fill="#0090DA"/>
<path d="M202 122.25C201.586 122.25 201.25 122.586 201.25 123C201.25 123.414 201.586 123.75 202 123.75V122.25ZM413 123L405.5 118.67V127.33L413 123ZM202 123.75H406.25V122.25H202V123.75Z" fill="#EAB308"/>
<path d="M413 122.25C412.586 122.25 412.25 122.586 412.25 123C412.25 123.414 412.586 123.75 413 123.75V122.25ZM623 123L615.5 118.67V127.33L623 123ZM413 123.75H616.25V122.25H413V123.75Z" fill="#22C55E"/>
<path d="M623 122.25C622.586 122.25 622.25 122.586 622.25 123C622.25 123.414 622.586 123.75 623 123.75V122.25ZM833 123L825.5 118.67V127.33L833 123ZM623 123.75H826.25V122.25H623V123.75Z" fill="#17879E"/>
<path d="M96 5L202 5.00001" stroke="#0090DA" stroke-width="1.5" stroke-linecap="round"/>
<path d="M202 5L209.5 9.33013L209.5 0.669874L202 5ZM308 5.75001C308.414 5.75001 308.75 5.41422 308.75 5.00001C308.75 4.5858 308.414 4.25001 308 4.25001L308 5.75001ZM208.75 5.75L308 5.75001L308 4.25001L208.75 4.25L208.75 5.75Z" fill="#EAB308"/>
<path d="M314 5.75C314.414 5.75 314.75 5.41421 314.75 5C314.75 4.58579 314.414 4.25 314 4.25V5.75ZM305 5L312.5 9.33013V0.669873L305 5ZM314 4.25H311.75V5.75H314V4.25Z" fill="#EAB308"/>
<path d="M307 122.25C306.586 122.25 306.25 122.586 306.25 123C306.25 123.414 306.586 123.75 307 123.75V122.25ZM311 123L303.5 118.67V127.33L311 123Z" fill="#EAB308"/>
<path d="M251.75 62C251.75 61.5858 251.414 61.25 251 61.25C250.586 61.25 250.25 61.5858 250.25 62H251.75ZM251 66L255.33 58.5H246.67L251 66Z" fill="#EAB308"/>
<path d="M368.25 66C368.25 66.4142 368.586 66.75 369 66.75C369.414 66.75 369.75 66.4142 369.75 66H368.25ZM369 61L364.67 68.5H373.33L369 61Z" fill="#EAB308"/>
<path d="M1.06479 17.0009C0.652138 16.9649 0.28845 17.2703 0.252467 17.6829C0.216483 18.0956 0.52183 18.4593 0.934477 18.4953L1.06479 17.0009ZM41.5829 64.4518L44.9929 56.4911L36.3938 57.5183L41.5829 64.4518ZM40.5839 56.0891L39.8392 56.1781L40.5839 56.0891ZM39.8392 56.1781L40.0376 57.8384L41.527 57.6605L41.3286 56.0002L39.8392 56.1781ZM0.934477 18.4953C21.1886 20.2615 37.4278 35.9906 39.8392 56.1781L41.3286 56.0002C38.833 35.1074 22.0265 18.8288 1.06479 17.0009L0.934477 18.4953Z" fill="#0090DA"/>
</svg>
