<svg width="626" height="128" viewBox="0 0 626 128" fill="none" xmlns="http://www.w3.org/2000/svg">
<rect x="41" y="5" width="118" height="118" rx="59" fill="white"/>
<rect x="41" y="5" width="118" height="118" rx="59" stroke="#0090DA" stroke-width="2"/>
<path d="M75.6372 67.5V60.5H77.7972C78.6106 60.5 79.2806 60.6467 79.8072 60.94C80.3339 61.2267 80.7239 61.6333 80.9772 62.16C81.2372 62.68 81.3672 63.2933 81.3672 64C81.3672 64.7 81.2372 65.3133 80.9772 65.84C80.7239 66.3667 80.3339 66.7767 79.8072 67.07C79.2806 67.3567 78.6106 67.5 77.7972 67.5H75.6372ZM77.0372 66.3H77.7272C78.2806 66.3 78.7172 66.21 79.0372 66.03C79.3639 65.8433 79.5939 65.58 79.7272 65.24C79.8672 64.8933 79.9372 64.48 79.9372 64C79.9372 63.52 79.8672 63.11 79.7272 62.77C79.5939 62.4233 79.3639 62.1567 79.0372 61.97C78.7172 61.7833 78.2806 61.69 77.7272 61.69H77.0372V66.3ZM82.5806 67.5V60.5H83.9806V67.5H82.5806ZM87.8521 67.62C87.3521 67.62 86.9021 67.5333 86.5021 67.36C86.1021 67.1867 85.7855 66.9333 85.5521 66.6C85.3255 66.2667 85.2055 65.8633 85.1921 65.39H86.6721C86.6855 65.59 86.7388 65.77 86.8321 65.93C86.9321 66.09 87.0655 66.2167 87.2321 66.31C87.4055 66.4033 87.6121 66.45 87.8521 66.45C88.0521 66.45 88.2255 66.4167 88.3721 66.35C88.5255 66.2833 88.6421 66.19 88.7221 66.07C88.8088 65.95 88.8521 65.8033 88.8521 65.63C88.8521 65.4633 88.8088 65.3167 88.7221 65.19C88.6355 65.0567 88.5121 64.9433 88.3521 64.85C88.1921 64.75 88.0055 64.66 87.7921 64.58C87.5855 64.5 87.3588 64.42 87.1121 64.34C86.5255 64.16 86.0821 63.9167 85.7821 63.61C85.4888 63.3033 85.3421 62.9 85.3421 62.4C85.3421 61.9733 85.4421 61.61 85.6421 61.31C85.8488 61.01 86.1321 60.78 86.4921 60.62C86.8588 60.46 87.2721 60.38 87.7321 60.38C88.2121 60.38 88.6321 60.4633 88.9921 60.63C89.3521 60.79 89.6355 61.0233 89.8421 61.33C90.0555 61.6367 90.1688 62 90.1821 62.42H88.6721C88.6721 62.2667 88.6288 62.1267 88.5421 62C88.4621 61.8667 88.3521 61.76 88.2121 61.68C88.0721 61.6 87.9055 61.56 87.7121 61.56C87.5455 61.5533 87.3921 61.58 87.2521 61.64C87.1188 61.6933 87.0121 61.7767 86.9321 61.89C86.8521 61.9967 86.8121 62.1333 86.8121 62.3C86.8121 62.4667 86.8521 62.6067 86.9321 62.72C87.0121 62.8267 87.1255 62.92 87.2721 63C87.4188 63.08 87.5888 63.1567 87.7821 63.23C87.9755 63.2967 88.1855 63.3667 88.4121 63.44C88.7655 63.56 89.0888 63.7033 89.3821 63.87C89.6755 64.03 89.9088 64.24 90.0821 64.5C90.2555 64.76 90.3421 65.1033 90.3421 65.53C90.3421 65.9033 90.2455 66.25 90.0521 66.57C89.8655 66.8833 89.5855 67.1367 89.2121 67.33C88.8455 67.5233 88.3921 67.62 87.8521 67.62ZM94.6445 67.62C93.9645 67.62 93.3745 67.47 92.8745 67.17C92.3812 66.8633 92.0012 66.44 91.7345 65.9C91.4678 65.3533 91.3345 64.7233 91.3345 64.01C91.3345 63.2967 91.4678 62.6667 91.7345 62.12C92.0012 61.5733 92.3812 61.1467 92.8745 60.84C93.3745 60.5333 93.9645 60.38 94.6445 60.38C95.4912 60.38 96.1845 60.5933 96.7245 61.02C97.2645 61.4467 97.6012 62.0467 97.7345 62.82H96.2145C96.1278 62.4467 95.9478 62.16 95.6745 61.96C95.4078 61.7533 95.0612 61.65 94.6345 61.65C94.2412 61.65 93.9045 61.7467 93.6245 61.94C93.3445 62.1267 93.1278 62.3967 92.9745 62.75C92.8278 63.1033 92.7545 63.5233 92.7545 64.01C92.7545 64.4967 92.8278 64.9167 92.9745 65.27C93.1278 65.6167 93.3445 65.8867 93.6245 66.08C93.9045 66.2667 94.2412 66.36 94.6345 66.36C95.0612 66.36 95.4078 66.2667 95.6745 66.08C95.9478 65.8867 96.1278 65.62 96.2145 65.28H97.7345C97.6012 66.0067 97.2645 66.58 96.7245 67C96.1845 67.4133 95.4912 67.62 94.6445 67.62ZM102.038 67.62C101.378 67.62 100.795 67.4667 100.288 67.16C99.788 66.8533 99.3947 66.43 99.108 65.89C98.828 65.3433 98.688 64.7133 98.688 64C98.688 63.2867 98.828 62.66 99.108 62.12C99.3947 61.5733 99.788 61.1467 100.288 60.84C100.795 60.5333 101.378 60.38 102.038 60.38C102.698 60.38 103.278 60.5333 103.778 60.84C104.285 61.1467 104.678 61.5733 104.958 62.12C105.238 62.66 105.378 63.2867 105.378 64C105.378 64.7133 105.238 65.3433 104.958 65.89C104.678 66.43 104.285 66.8533 103.778 67.16C103.278 67.4667 102.698 67.62 102.038 67.62ZM102.038 66.36C102.425 66.36 102.761 66.2633 103.048 66.07C103.335 65.8767 103.555 65.6067 103.708 65.26C103.868 64.9067 103.948 64.4867 103.948 64C103.948 63.5133 103.868 63.0967 103.708 62.75C103.555 62.3967 103.335 62.1233 103.048 61.93C102.761 61.7367 102.425 61.64 102.038 61.64C101.645 61.64 101.305 61.7367 101.018 61.93C100.731 62.1233 100.508 62.3967 100.348 62.75C100.188 63.0967 100.108 63.5133 100.108 64C100.108 64.4867 100.188 64.9067 100.348 65.26C100.508 65.6067 100.731 65.8767 101.018 66.07C101.305 66.2633 101.645 66.36 102.038 66.36ZM108.33 67.5L105.79 60.5H107.29L109.19 66.08L111.12 60.5H112.6L110.06 67.5H108.33ZM113.489 67.5V60.5H118.119V61.63H114.889V63.4H117.819V64.49H114.889V66.37H118.119V67.5H113.489ZM119.407 67.5V60.5H122.057C122.617 60.5 123.083 60.5967 123.457 60.79C123.83 60.9833 124.107 61.2433 124.287 61.57C124.467 61.89 124.557 62.25 124.557 62.65C124.557 63.0233 124.467 63.3733 124.287 63.7C124.113 64.0267 123.84 64.29 123.467 64.49C123.1 64.6833 122.623 64.78 122.037 64.78H120.807V67.5H119.407ZM123.027 67.5L121.597 64.43H123.107L124.617 67.5H123.027ZM120.807 63.76H121.967C122.367 63.76 122.66 63.6633 122.847 63.47C123.033 63.2767 123.127 63.02 123.127 62.7C123.127 62.3867 123.033 62.1367 122.847 61.95C122.66 61.7633 122.367 61.67 121.967 61.67H120.807V63.76Z" fill="#4B5563"/>
<path d="M102 5.75C102.414 5.75 102.75 5.41421 102.75 5C102.75 4.58579 102.414 4.25 102 4.25V5.75ZM93 5L100.5 9.33013V0.669873L93 5ZM102 4.25H99.75V5.75H102V4.25Z" fill="#0090DA"/>
<path d="M98 122.25C97.5858 122.25 97.25 122.586 97.25 123C97.25 123.414 97.5858 123.75 98 123.75V122.25ZM102 123L94.5 118.67V127.33L102 123Z" fill="#0090DA"/>
<rect x="185" y="5" width="118" height="118" rx="59" fill="white"/>
<rect x="185" y="5" width="118" height="118" rx="59" stroke="#EAB308" stroke-width="2"/>
<path d="M223.258 67.5L220.718 60.5H222.218L224.118 66.08L226.048 60.5H227.528L224.988 67.5H223.258ZM227.057 67.5L229.617 60.5H231.207L233.757 67.5H232.277L230.407 62.09L228.527 67.5H227.057ZM228.187 65.93L228.557 64.84H232.157L232.517 65.93H228.187ZM234.715 67.5V60.5H236.115V66.41H239.165V67.5H234.715ZM240.409 67.5V60.5H241.809V67.5H240.409ZM243.26 67.5V60.5H245.42C246.234 60.5 246.904 60.6467 247.43 60.94C247.957 61.2267 248.347 61.6333 248.6 62.16C248.86 62.68 248.99 63.2933 248.99 64C248.99 64.7 248.86 65.3133 248.6 65.84C248.347 66.3667 247.957 66.7767 247.43 67.07C246.904 67.3567 246.234 67.5 245.42 67.5H243.26ZM244.66 66.3H245.35C245.904 66.3 246.34 66.21 246.66 66.03C246.987 65.8433 247.217 65.58 247.35 65.24C247.49 64.8933 247.56 64.48 247.56 64C247.56 63.52 247.49 63.11 247.35 62.77C247.217 62.4233 246.987 62.1567 246.66 61.97C246.34 61.7833 245.904 61.69 245.35 61.69H244.66V66.3ZM249.274 67.5L251.834 60.5H253.424L255.974 67.5H254.494L252.624 62.09L250.744 67.5H249.274ZM250.404 65.93L250.774 64.84H254.374L254.734 65.93H250.404ZM257.8 67.5V61.63H255.76V60.5H261.23V61.63H259.19V67.5H257.8ZM262.254 67.5V60.5H266.884V61.63H263.654V63.4H266.584V64.49H263.654V66.37H266.884V67.5H262.254Z" fill="#4B5563"/>
<rect x="329" y="5" width="118" height="118" rx="59" fill="white"/>
<rect x="329" y="5" width="118" height="118" rx="59" stroke="#22C55E" stroke-width="2"/>
<path d="M374.311 67.5V60.5H377.221C377.701 60.5 378.108 60.5767 378.441 60.73C378.781 60.8833 379.038 61.0967 379.211 61.37C379.384 61.6367 379.471 61.95 379.471 62.31C379.471 62.6567 379.394 62.95 379.241 63.19C379.088 63.43 378.884 63.6167 378.631 63.75C378.378 63.8767 378.104 63.95 377.811 63.97L377.971 63.86C378.291 63.8733 378.574 63.96 378.821 64.12C379.068 64.28 379.264 64.49 379.411 64.75C379.558 65.0033 379.631 65.2833 379.631 65.59C379.631 65.9633 379.541 66.2967 379.361 66.59C379.181 66.8767 378.918 67.1 378.571 67.26C378.231 67.42 377.814 67.5 377.321 67.5H374.311ZM375.711 66.36H377.091C377.444 66.36 377.718 66.28 377.911 66.12C378.111 65.9533 378.211 65.72 378.211 65.42C378.211 65.12 378.108 64.8833 377.901 64.71C377.701 64.5367 377.424 64.45 377.071 64.45H375.711V66.36ZM375.711 63.41H376.981C377.328 63.41 377.591 63.3333 377.771 63.18C377.951 63.02 378.041 62.7967 378.041 62.51C378.041 62.23 377.951 62.0133 377.771 61.86C377.591 61.7 377.324 61.62 376.971 61.62H375.711V63.41ZM383.475 67.62C382.955 67.62 382.482 67.5167 382.055 67.31C381.635 67.1033 381.302 66.7933 381.055 66.38C380.809 65.96 380.685 65.43 380.685 64.79V60.5H382.085V64.8C382.085 65.14 382.139 65.4233 382.245 65.65C382.359 65.8767 382.522 66.05 382.735 66.17C382.949 66.2833 383.205 66.34 383.505 66.34C383.805 66.34 384.059 66.2833 384.265 66.17C384.479 66.05 384.642 65.8767 384.755 65.65C384.869 65.4233 384.925 65.14 384.925 64.8V60.5H386.325V64.79C386.325 65.43 386.195 65.96 385.935 66.38C385.682 66.7933 385.339 67.1033 384.905 67.31C384.472 67.5167 383.995 67.62 383.475 67.62ZM387.661 67.5V60.5H389.061V67.5H387.661ZM390.512 67.5V60.5H391.912V66.41H394.962V67.5H390.512ZM396.206 67.5V60.5H398.366C399.179 60.5 399.849 60.6467 400.376 60.94C400.902 61.2267 401.292 61.6333 401.546 62.16C401.806 62.68 401.936 63.2933 401.936 64C401.936 64.7 401.806 65.3133 401.546 65.84C401.292 66.3667 400.902 66.7767 400.376 67.07C399.849 67.3567 399.179 67.5 398.366 67.5H396.206ZM397.606 66.3H398.296C398.849 66.3 399.286 66.21 399.606 66.03C399.932 65.8433 400.162 65.58 400.296 65.24C400.436 64.8933 400.506 64.48 400.506 64C400.506 63.52 400.436 63.11 400.296 62.77C400.162 62.4233 399.932 62.1567 399.606 61.97C399.286 61.7833 398.849 61.69 398.296 61.69H397.606V66.3Z" fill="#4B5563"/>
<path d="M390 5.75C390.414 5.75 390.75 5.41421 390.75 5C390.75 4.58579 390.414 4.25 390 4.25V5.75ZM381 5L388.5 9.33013V0.669873L381 5ZM390 4.25H387.75V5.75H390V4.25Z" fill="#22C55E"/>
<path d="M391 122.25C390.586 122.25 390.25 122.586 390.25 123C390.25 123.414 390.586 123.75 391 123.75V122.25ZM395 123L387.5 118.67V127.33L395 123Z" fill="#22C55E"/>
<path d="M329.75 61C329.75 60.5858 329.414 60.25 329 60.25C328.586 60.25 328.25 60.5858 328.25 61H329.75ZM329 65L333.33 57.5H324.67L329 65Z" fill="#22C55E"/>
<path d="M446.25 61C446.25 61.4142 446.586 61.75 447 61.75C447.414 61.75 447.75 61.4142 447.75 61H446.25ZM447 56L442.67 63.5H451.33L447 56Z" fill="#22C55E"/>
<rect x="473" y="5" width="118" height="118" rx="59" fill="white"/>
<rect x="473" y="5" width="118" height="118" rx="59" stroke="#17879E" stroke-width="2"/>
<path d="M512.007 67.5V60.5H513.407V66.41H516.457V67.5H512.007ZM517.201 67.5L519.761 60.5H521.351L523.901 67.5H522.421L520.551 62.09L518.671 67.5H517.201ZM518.331 65.93L518.701 64.84H522.301L522.661 65.93H518.331ZM527.236 67.62C526.716 67.62 526.243 67.5167 525.816 67.31C525.396 67.1033 525.063 66.7933 524.816 66.38C524.57 65.96 524.446 65.43 524.446 64.79V60.5H525.846V64.8C525.846 65.14 525.9 65.4233 526.006 65.65C526.12 65.8767 526.283 66.05 526.496 66.17C526.71 66.2833 526.966 66.34 527.266 66.34C527.566 66.34 527.82 66.2833 528.026 66.17C528.24 66.05 528.403 65.8767 528.516 65.65C528.63 65.4233 528.686 65.14 528.686 64.8V60.5H530.086V64.79C530.086 65.43 529.956 65.96 529.696 66.38C529.443 66.7933 529.1 67.1033 528.666 67.31C528.233 67.5167 527.756 67.62 527.236 67.62ZM531.421 67.5V60.5H532.821L535.991 65.26V60.5H537.391V67.5H535.991L532.821 62.75V67.5H531.421ZM541.903 67.62C541.223 67.62 540.633 67.47 540.133 67.17C539.64 66.8633 539.26 66.44 538.993 65.9C538.727 65.3533 538.593 64.7233 538.593 64.01C538.593 63.2967 538.727 62.6667 538.993 62.12C539.26 61.5733 539.64 61.1467 540.133 60.84C540.633 60.5333 541.223 60.38 541.903 60.38C542.75 60.38 543.443 60.5933 543.983 61.02C544.523 61.4467 544.86 62.0467 544.993 62.82H543.473C543.387 62.4467 543.207 62.16 542.933 61.96C542.667 61.7533 542.32 61.65 541.893 61.65C541.5 61.65 541.163 61.7467 540.883 61.94C540.603 62.1267 540.387 62.3967 540.233 62.75C540.087 63.1033 540.013 63.5233 540.013 64.01C540.013 64.4967 540.087 64.9167 540.233 65.27C540.387 65.6167 540.603 65.8867 540.883 66.08C541.163 66.2667 541.5 66.36 541.893 66.36C542.32 66.36 542.667 66.2667 542.933 66.08C543.207 65.8867 543.387 65.62 543.473 65.28H544.993C544.86 66.0067 544.523 66.58 543.983 67C543.443 67.4133 542.75 67.62 541.903 67.62ZM550.597 67.5V60.5H551.997V67.5H550.597ZM546.197 67.5V60.5H547.597V67.5H546.197ZM547.407 64.49V63.36H550.827V64.49H547.407Z" fill="#4B5563"/>
<path d="M534 5.75C534.414 5.75 534.75 5.41421 534.75 5C534.75 4.58579 534.414 4.25 534 4.25V5.75ZM525 5L532.5 9.33013V0.669873L525 5ZM534 4.25H531.75V5.75H534V4.25Z" fill="#17879E"/>
<path d="M530 122.25C529.586 122.25 529.25 122.586 529.25 123C529.25 123.414 529.586 123.75 530 123.75V122.25ZM534 123L526.5 118.67V127.33L534 123Z" fill="#17879E"/>
<path d="M473.75 61C473.75 60.5858 473.414 60.25 473 60.25C472.586 60.25 472.25 60.5858 472.25 61H473.75ZM473 65L477.33 57.5H468.67L473 65Z" fill="#17879E"/>
<path d="M590.25 61C590.25 61.4142 590.586 61.75 591 61.75C591.414 61.75 591.75 61.4142 591.75 61H590.25ZM591 56L586.67 63.5H595.33L591 56Z" fill="#17879E"/>
<path d="M96 122.25C95.5858 122.25 95.25 122.586 95.25 123C95.25 123.414 95.5858 123.75 96 123.75L96 122.25ZM173 123L165.5 118.67L165.5 127.33L173 123ZM96 123.75L166.25 123.75L166.25 122.25L96 122.25L96 123.75Z" fill="#0090DA"/>
<path d="M173 122.25C172.586 122.25 172.25 122.586 172.25 123C172.25 123.414 172.586 123.75 173 123.75V122.25ZM324 123L316.5 118.67V127.33L324 123ZM173 123.75H317.25V122.25H173V123.75Z" fill="#EAB308"/>
<path d="M324 122.25C323.586 122.25 323.25 122.586 323.25 123C323.25 123.414 323.586 123.75 324 123.75V122.25ZM475 123L467.5 118.67V127.33L475 123ZM324 123.75H468.25V122.25H324V123.75Z" fill="#22C55E"/>
<path d="M475 122.25C474.586 122.25 474.25 122.586 474.25 123C474.25 123.414 474.586 123.75 475 123.75V122.25ZM626 123L618.5 118.67V127.33L626 123ZM475 123.75H619.25V122.25H475V123.75Z" fill="#17879E"/>
<path d="M96 5L173 5.00001" stroke="#0090DA" stroke-width="1.5" stroke-linecap="round"/>
<path d="M173 5L180.5 9.33013L180.5 0.669874L173 5ZM239 5.75001C239.414 5.75001 239.75 5.41422 239.75 5.00001C239.75 4.58579 239.414 4.25001 239 4.25001L239 5.75001ZM179.75 5.75L239 5.75001L239 4.25001L179.75 4.25L179.75 5.75Z" fill="#EAB308"/>
<path d="M246 5.75C246.414 5.75 246.75 5.41421 246.75 5C246.75 4.58579 246.414 4.25 246 4.25V5.75ZM237 5L244.5 9.33013V0.669873L237 5ZM246 4.25H243.75V5.75H246V4.25Z" fill="#EAB308"/>
<path d="M242 122.25C241.586 122.25 241.25 122.586 241.25 123C241.25 123.414 241.586 123.75 242 123.75V122.25ZM246 123L238.5 118.67V127.33L246 123Z" fill="#EAB308"/>
<path d="M185.75 61C185.75 60.5858 185.414 60.25 185 60.25C184.586 60.25 184.25 60.5858 184.25 61H185.75ZM185 65L189.33 57.5H180.67L185 65Z" fill="#EAB308"/>
<path d="M302.25 61C302.25 61.4142 302.586 61.75 303 61.75C303.414 61.75 303.75 61.4142 303.75 61H302.25ZM303 56L298.67 63.5H307.33L303 56Z" fill="#EAB308"/>
<path d="M1.06479 17.0009C0.652138 16.9649 0.28845 17.2703 0.252467 17.6829C0.216483 18.0956 0.52183 18.4593 0.934477 18.4953L1.06479 17.0009ZM41.5829 64.4518L44.9929 56.4911L36.3938 57.5183L41.5829 64.4518ZM40.5839 56.0891L39.8392 56.1781L40.5839 56.0891ZM39.8392 56.1781L40.0376 57.8384L41.527 57.6605L41.3286 56.0002L39.8392 56.1781ZM0.934477 18.4953C21.1886 20.2615 37.4278 35.9906 39.8392 56.1781L41.3286 56.0002C38.833 35.1074 22.0265 18.8288 1.06479 17.0009L0.934477 18.4953Z" fill="#0090DA"/>
</svg>
