<svg width="1180" height="200" viewBox="0 0 1180 200" fill="none" xmlns="http://www.w3.org/2000/svg">
<path d="M10 105H1068" stroke="#E0F2FE" stroke-width="10"/>
<rect x="1" y="51" width="118" height="118" rx="59" fill="#BBF7D0"/>
<rect x="1" y="51" width="118" height="118" rx="59" stroke="#15803D" stroke-width="2"/>
<path d="M35.6372 107V100H38.5472C39.0272 100 39.4339 100.077 39.7672 100.23C40.1072 100.383 40.3639 100.597 40.5372 100.87C40.7106 101.137 40.7972 101.45 40.7972 101.81C40.7972 102.157 40.7206 102.45 40.5672 102.69C40.4139 102.93 40.2106 103.117 39.9572 103.25C39.7039 103.377 39.4306 103.45 39.1372 103.47L39.2972 103.36C39.6172 103.373 39.9006 103.46 40.1472 103.62C40.3939 103.78 40.5906 103.99 40.7372 104.25C40.8839 104.503 40.9572 104.783 40.9572 105.09C40.9572 105.463 40.8672 105.797 40.6872 106.09C40.5072 106.377 40.2439 106.6 39.8972 106.76C39.5572 106.92 39.1406 107 38.6472 107H35.6372ZM37.0372 105.86H38.4172C38.7706 105.86 39.0439 105.78 39.2372 105.62C39.4372 105.453 39.5372 105.22 39.5372 104.92C39.5372 104.62 39.4339 104.383 39.2272 104.21C39.0272 104.037 38.7506 103.95 38.3972 103.95H37.0372V105.86ZM37.0372 102.91H38.3072C38.6539 102.91 38.9172 102.833 39.0972 102.68C39.2772 102.52 39.3672 102.297 39.3672 102.01C39.3672 101.73 39.2772 101.513 39.0972 101.36C38.9172 101.2 38.6506 101.12 38.2972 101.12H37.0372V102.91ZM41.5825 107L44.1425 100H45.7325L48.2825 107H46.8025L44.9325 101.59L43.0525 107H41.5825ZM42.7125 105.43L43.0825 104.34H46.6825L47.0425 105.43H42.7125ZM51.9004 107.12C51.2204 107.12 50.6304 106.97 50.1304 106.67C49.637 106.363 49.257 105.94 48.9904 105.4C48.7237 104.853 48.5904 104.223 48.5904 103.51C48.5904 102.797 48.7237 102.167 48.9904 101.62C49.257 101.073 49.637 100.647 50.1304 100.34C50.6304 100.033 51.2204 99.88 51.9004 99.88C52.747 99.88 53.4404 100.093 53.9804 100.52C54.5204 100.947 54.857 101.547 54.9904 102.32H53.4704C53.3837 101.947 53.2037 101.66 52.9304 101.46C52.6637 101.253 52.317 101.15 51.8904 101.15C51.497 101.15 51.1604 101.247 50.8804 101.44C50.6004 101.627 50.3837 101.897 50.2304 102.25C50.0837 102.603 50.0104 103.023 50.0104 103.51C50.0104 103.997 50.0837 104.417 50.2304 104.77C50.3837 105.117 50.6004 105.387 50.8804 105.58C51.1604 105.767 51.497 105.86 51.8904 105.86C52.317 105.86 52.6637 105.767 52.9304 105.58C53.2037 105.387 53.3837 105.12 53.4704 104.78H54.9904C54.857 105.507 54.5204 106.08 53.9804 106.5C53.4404 106.913 52.747 107.12 51.9004 107.12ZM56.1939 107V100H57.5939V102.73L60.0839 100H61.8039L59.2339 102.77L61.8839 107H60.1739L58.2339 103.85L57.5939 104.55V107H56.1939ZM62.8833 107V100H64.2833V105.91H67.3333V107H62.8833ZM71.0517 107.12C70.3917 107.12 69.8083 106.967 69.3017 106.66C68.8017 106.353 68.4083 105.93 68.1217 105.39C67.8417 104.843 67.7017 104.213 67.7017 103.5C67.7017 102.787 67.8417 102.16 68.1217 101.62C68.4083 101.073 68.8017 100.647 69.3017 100.34C69.8083 100.033 70.3917 99.88 71.0517 99.88C71.7117 99.88 72.2917 100.033 72.7917 100.34C73.2983 100.647 73.6917 101.073 73.9717 101.62C74.2517 102.16 74.3917 102.787 74.3917 103.5C74.3917 104.213 74.2517 104.843 73.9717 105.39C73.6917 105.93 73.2983 106.353 72.7917 106.66C72.2917 106.967 71.7117 107.12 71.0517 107.12ZM71.0517 105.86C71.4383 105.86 71.775 105.763 72.0617 105.57C72.3483 105.377 72.5683 105.107 72.7217 104.76C72.8817 104.407 72.9617 103.987 72.9617 103.5C72.9617 103.013 72.8817 102.597 72.7217 102.25C72.5683 101.897 72.3483 101.623 72.0617 101.43C71.775 101.237 71.4383 101.14 71.0517 101.14C70.6583 101.14 70.3183 101.237 70.0317 101.43C69.745 101.623 69.5217 101.897 69.3617 102.25C69.2017 102.597 69.1217 103.013 69.1217 103.5C69.1217 103.987 69.2017 104.407 69.3617 104.76C69.5217 105.107 69.745 105.377 70.0317 105.57C70.3183 105.763 70.6583 105.86 71.0517 105.86ZM78.6482 107.12C77.9882 107.12 77.4082 106.973 76.9082 106.68C76.4148 106.38 76.0315 105.963 75.7582 105.43C75.4848 104.89 75.3482 104.263 75.3482 103.55C75.3482 102.83 75.4882 102.197 75.7682 101.65C76.0548 101.097 76.4615 100.663 76.9882 100.35C77.5148 100.037 78.1448 99.88 78.8782 99.88C79.7115 99.88 80.3982 100.08 80.9382 100.48C81.4848 100.873 81.8382 101.42 81.9982 102.12H80.4382C80.3382 101.82 80.1548 101.587 79.8882 101.42C79.6282 101.253 79.2915 101.17 78.8782 101.17C78.4248 101.17 78.0415 101.267 77.7282 101.46C77.4148 101.653 77.1748 101.93 77.0082 102.29C76.8482 102.643 76.7682 103.067 76.7682 103.56C76.7682 104.053 76.8482 104.473 77.0082 104.82C77.1748 105.167 77.4082 105.43 77.7082 105.61C78.0148 105.79 78.3782 105.88 78.7982 105.88C79.3982 105.88 79.8515 105.72 80.1582 105.4C80.4715 105.073 80.6582 104.66 80.7182 104.16H79.0282V103.12H82.1282V107H80.8382L80.7282 106.14C80.5815 106.347 80.4115 106.523 80.2182 106.67C80.0248 106.817 79.7982 106.927 79.5382 107C79.2848 107.08 78.9882 107.12 78.6482 107.12ZM29.5288 120V113H32.1788C32.7388 113 33.2055 113.097 33.5788 113.29C33.9522 113.483 34.2288 113.743 34.4088 114.07C34.5888 114.39 34.6788 114.75 34.6788 115.15C34.6788 115.523 34.5888 115.873 34.4088 116.2C34.2355 116.527 33.9622 116.79 33.5888 116.99C33.2222 117.183 32.7455 117.28 32.1588 117.28H30.9288V120H29.5288ZM33.1488 120L31.7188 116.93H33.2288L34.7388 120H33.1488ZM30.9288 116.26H32.0888C32.4888 116.26 32.7822 116.163 32.9688 115.97C33.1555 115.777 33.2488 115.52 33.2488 115.2C33.2488 114.887 33.1555 114.637 32.9688 114.45C32.7822 114.263 32.4888 114.17 32.0888 114.17H30.9288V116.26ZM35.9448 120V113H40.5748V114.13H37.3448V115.9H40.2748V116.99H37.3448V118.87H40.5748V120H35.9448ZM41.8628 120V113H46.4428V114.13H43.2628V115.94H45.8028V117.04H43.2628V120H41.8628ZM47.5269 120V113H48.9269V120H47.5269ZM50.3784 120V113H51.7784L54.9484 117.76V113H56.3484V120H54.9484L51.7784 115.25V120H50.3784ZM57.8003 120V113H62.4303V114.13H59.2003V115.9H62.1303V116.99H59.2003V118.87H62.4303V120H57.8003ZM63.7183 120V113H65.3883L67.4183 117.33L69.4083 113H71.0883V120H69.6883V115.4L67.9583 119.07H66.8483L65.1183 115.41V120H63.7183ZM72.5366 120V113H77.1666V114.13H73.9366V115.9H76.8666V116.99H73.9366V118.87H77.1666V120H72.5366ZM78.4546 120V113H79.8546L83.0246 117.76V113H84.4246V120H83.0246L79.8546 115.25V120H78.4546ZM87.4765 120V114.13H85.4365V113H90.9065V114.13H88.8665V120H87.4765Z" fill="#15803D"/>
<rect x="201" y="51" width="118" height="118" rx="59" fill="#FEF08A"/>
<rect x="201" y="51" width="118" height="118" rx="59" stroke="#713F12" stroke-width="2"/>
<path d="M244.395 107.12C243.895 107.12 243.445 107.033 243.045 106.86C242.645 106.687 242.328 106.433 242.095 106.1C241.868 105.767 241.748 105.363 241.735 104.89H243.215C243.228 105.09 243.282 105.27 243.375 105.43C243.475 105.59 243.608 105.717 243.775 105.81C243.948 105.903 244.155 105.95 244.395 105.95C244.595 105.95 244.768 105.917 244.915 105.85C245.068 105.783 245.185 105.69 245.265 105.57C245.352 105.45 245.395 105.303 245.395 105.13C245.395 104.963 245.352 104.817 245.265 104.69C245.178 104.557 245.055 104.443 244.895 104.35C244.735 104.25 244.548 104.16 244.335 104.08C244.128 104 243.902 103.92 243.655 103.84C243.068 103.66 242.625 103.417 242.325 103.11C242.032 102.803 241.885 102.4 241.885 101.9C241.885 101.473 241.985 101.11 242.185 100.81C242.392 100.51 242.675 100.28 243.035 100.12C243.402 99.96 243.815 99.88 244.275 99.88C244.755 99.88 245.175 99.9633 245.535 100.13C245.895 100.29 246.178 100.523 246.385 100.83C246.598 101.137 246.712 101.5 246.725 101.92H245.215C245.215 101.767 245.172 101.627 245.085 101.5C245.005 101.367 244.895 101.26 244.755 101.18C244.615 101.1 244.448 101.06 244.255 101.06C244.088 101.053 243.935 101.08 243.795 101.14C243.662 101.193 243.555 101.277 243.475 101.39C243.395 101.497 243.355 101.633 243.355 101.8C243.355 101.967 243.395 102.107 243.475 102.22C243.555 102.327 243.668 102.42 243.815 102.5C243.962 102.58 244.132 102.657 244.325 102.73C244.518 102.797 244.728 102.867 244.955 102.94C245.308 103.06 245.632 103.203 245.925 103.37C246.218 103.53 246.452 103.74 246.625 104C246.798 104.26 246.885 104.603 246.885 105.03C246.885 105.403 246.788 105.75 246.595 106.07C246.408 106.383 246.128 106.637 245.755 106.83C245.388 107.023 244.935 107.12 244.395 107.12ZM248.127 107V100H250.747C251.321 100 251.797 100.1 252.177 100.3C252.557 100.493 252.841 100.76 253.027 101.1C253.214 101.433 253.307 101.813 253.307 102.24C253.307 102.633 253.217 103 253.037 103.34C252.857 103.68 252.577 103.953 252.197 104.16C251.824 104.367 251.341 104.47 250.747 104.47H249.527V107H248.127ZM249.527 103.34H250.657C251.097 103.34 251.411 103.24 251.597 103.04C251.784 102.84 251.877 102.573 251.877 102.24C251.877 101.9 251.784 101.633 251.597 101.44C251.411 101.24 251.097 101.14 250.657 101.14H249.527V103.34ZM254.377 107V100H257.027C257.587 100 258.054 100.097 258.427 100.29C258.801 100.483 259.077 100.743 259.257 101.07C259.437 101.39 259.527 101.75 259.527 102.15C259.527 102.523 259.437 102.873 259.257 103.2C259.084 103.527 258.811 103.79 258.437 103.99C258.071 104.183 257.594 104.28 257.007 104.28H255.777V107H254.377ZM257.997 107L256.567 103.93H258.077L259.587 107H257.997ZM255.777 103.26H256.937C257.337 103.26 257.631 103.163 257.817 102.97C258.004 102.777 258.097 102.52 258.097 102.2C258.097 101.887 258.004 101.637 257.817 101.45C257.631 101.263 257.337 101.17 256.937 101.17H255.777V103.26ZM260.793 107V100H262.193V107H260.793ZM263.645 107V100H265.045L268.215 104.76V100H269.615V107H268.215L265.045 102.25V107H263.645ZM272.667 107V101.13H270.627V100H276.097V101.13H274.057V107H272.667ZM234.69 120V113H237.31C237.883 113 238.36 113.1 238.74 113.3C239.12 113.493 239.403 113.76 239.59 114.1C239.777 114.433 239.87 114.813 239.87 115.24C239.87 115.633 239.78 116 239.6 116.34C239.42 116.68 239.14 116.953 238.76 117.16C238.387 117.367 237.903 117.47 237.31 117.47H236.09V120H234.69ZM236.09 116.34H237.22C237.66 116.34 237.973 116.24 238.16 116.04C238.347 115.84 238.44 115.573 238.44 115.24C238.44 114.9 238.347 114.633 238.16 114.44C237.973 114.24 237.66 114.14 237.22 114.14H236.09V116.34ZM240.94 120V113H242.34V118.91H245.39V120H240.94ZM246.133 120L248.693 113H250.283L252.833 120H251.353L249.483 114.59L247.603 120H246.133ZM247.263 118.43L247.633 117.34H251.233L251.593 118.43H247.263ZM253.792 120V113H255.192L258.362 117.76V113H259.762V120H258.362L255.192 115.25V120H253.792ZM261.213 120V113H262.613L265.783 117.76V113H267.183V120H265.783L262.613 115.25V120H261.213ZM268.635 120V113H270.035V120H268.635ZM271.487 120V113H272.887L276.057 117.76V113H277.457V120H276.057L272.887 115.25V120H271.487ZM281.959 120.12C281.299 120.12 280.719 119.973 280.219 119.68C279.725 119.38 279.342 118.963 279.069 118.43C278.795 117.89 278.659 117.263 278.659 116.55C278.659 115.83 278.799 115.197 279.079 114.65C279.365 114.097 279.772 113.663 280.299 113.35C280.825 113.037 281.455 112.88 282.189 112.88C283.022 112.88 283.709 113.08 284.249 113.48C284.795 113.873 285.149 114.42 285.309 115.12H283.749C283.649 114.82 283.465 114.587 283.199 114.42C282.939 114.253 282.602 114.17 282.189 114.17C281.735 114.17 281.352 114.267 281.039 114.46C280.725 114.653 280.485 114.93 280.319 115.29C280.159 115.643 280.079 116.067 280.079 116.56C280.079 117.053 280.159 117.473 280.319 117.82C280.485 118.167 280.719 118.43 281.019 118.61C281.325 118.79 281.689 118.88 282.109 118.88C282.709 118.88 283.162 118.72 283.469 118.4C283.782 118.073 283.969 117.66 284.029 117.16H282.339V116.12H285.439V120H284.149L284.039 119.14C283.892 119.347 283.722 119.523 283.529 119.67C283.335 119.817 283.109 119.927 282.849 120C282.595 120.08 282.299 120.12 281.959 120.12Z" fill="#713F12"/>
<rect x="401" y="51" width="118" height="118" rx="59" fill="#16A34A"/>
<rect x="401" y="51" width="118" height="118" rx="59" stroke="#166534" stroke-width="2"/>
<path d="M444.395 107.12C443.895 107.12 443.445 107.033 443.045 106.86C442.645 106.687 442.328 106.433 442.095 106.1C441.868 105.767 441.748 105.363 441.735 104.89H443.215C443.228 105.09 443.282 105.27 443.375 105.43C443.475 105.59 443.608 105.717 443.775 105.81C443.948 105.903 444.155 105.95 444.395 105.95C444.595 105.95 444.768 105.917 444.915 105.85C445.068 105.783 445.185 105.69 445.265 105.57C445.352 105.45 445.395 105.303 445.395 105.13C445.395 104.963 445.352 104.817 445.265 104.69C445.178 104.557 445.055 104.443 444.895 104.35C444.735 104.25 444.548 104.16 444.335 104.08C444.128 104 443.902 103.92 443.655 103.84C443.068 103.66 442.625 103.417 442.325 103.11C442.032 102.803 441.885 102.4 441.885 101.9C441.885 101.473 441.985 101.11 442.185 100.81C442.392 100.51 442.675 100.28 443.035 100.12C443.402 99.96 443.815 99.88 444.275 99.88C444.755 99.88 445.175 99.9633 445.535 100.13C445.895 100.29 446.178 100.523 446.385 100.83C446.598 101.137 446.712 101.5 446.725 101.92H445.215C445.215 101.767 445.172 101.627 445.085 101.5C445.005 101.367 444.895 101.26 444.755 101.18C444.615 101.1 444.448 101.06 444.255 101.06C444.088 101.053 443.935 101.08 443.795 101.14C443.662 101.193 443.555 101.277 443.475 101.39C443.395 101.497 443.355 101.633 443.355 101.8C443.355 101.967 443.395 102.107 443.475 102.22C443.555 102.327 443.668 102.42 443.815 102.5C443.962 102.58 444.132 102.657 444.325 102.73C444.518 102.797 444.728 102.867 444.955 102.94C445.308 103.06 445.632 103.203 445.925 103.37C446.218 103.53 446.452 103.74 446.625 104C446.798 104.26 446.885 104.603 446.885 105.03C446.885 105.403 446.788 105.75 446.595 106.07C446.408 106.383 446.128 106.637 445.755 106.83C445.388 107.023 444.935 107.12 444.395 107.12ZM448.127 107V100H450.747C451.321 100 451.797 100.1 452.177 100.3C452.557 100.493 452.841 100.76 453.027 101.1C453.214 101.433 453.307 101.813 453.307 102.24C453.307 102.633 453.217 103 453.037 103.34C452.857 103.68 452.577 103.953 452.197 104.16C451.824 104.367 451.341 104.47 450.747 104.47H449.527V107H448.127ZM449.527 103.34H450.657C451.097 103.34 451.411 103.24 451.597 103.04C451.784 102.84 451.877 102.573 451.877 102.24C451.877 101.9 451.784 101.633 451.597 101.44C451.411 101.24 451.097 101.14 450.657 101.14H449.527V103.34ZM454.377 107V100H457.027C457.587 100 458.054 100.097 458.427 100.29C458.801 100.483 459.077 100.743 459.257 101.07C459.437 101.39 459.527 101.75 459.527 102.15C459.527 102.523 459.437 102.873 459.257 103.2C459.084 103.527 458.811 103.79 458.437 103.99C458.071 104.183 457.594 104.28 457.007 104.28H455.777V107H454.377ZM457.997 107L456.567 103.93H458.077L459.587 107H457.997ZM455.777 103.26H456.937C457.337 103.26 457.631 103.163 457.817 102.97C458.004 102.777 458.097 102.52 458.097 102.2C458.097 101.887 458.004 101.637 457.817 101.45C457.631 101.263 457.337 101.17 456.937 101.17H455.777V103.26ZM460.793 107V100H462.193V107H460.793ZM463.645 107V100H465.045L468.215 104.76V100H469.615V107H468.215L465.045 102.25V107H463.645ZM472.667 107V101.13H470.627V100H476.097V101.13H474.057V107H472.667ZM436.819 120V113H439.729C440.209 113 440.616 113.077 440.949 113.23C441.289 113.383 441.546 113.597 441.719 113.87C441.892 114.137 441.979 114.45 441.979 114.81C441.979 115.157 441.902 115.45 441.749 115.69C441.596 115.93 441.392 116.117 441.139 116.25C440.886 116.377 440.612 116.45 440.319 116.47L440.479 116.36C440.799 116.373 441.082 116.46 441.329 116.62C441.576 116.78 441.772 116.99 441.919 117.25C442.066 117.503 442.139 117.783 442.139 118.09C442.139 118.463 442.049 118.797 441.869 119.09C441.689 119.377 441.426 119.6 441.079 119.76C440.739 119.92 440.322 120 439.829 120H436.819ZM438.219 118.86H439.599C439.952 118.86 440.226 118.78 440.419 118.62C440.619 118.453 440.719 118.22 440.719 117.92C440.719 117.62 440.616 117.383 440.409 117.21C440.209 117.037 439.932 116.95 439.579 116.95H438.219V118.86ZM438.219 115.91H439.489C439.836 115.91 440.099 115.833 440.279 115.68C440.459 115.52 440.549 115.297 440.549 115.01C440.549 114.73 440.459 114.513 440.279 114.36C440.099 114.2 439.832 114.12 439.479 114.12H438.219V115.91ZM442.764 120L445.324 113H446.914L449.464 120H447.984L446.114 114.59L444.234 120H442.764ZM443.894 118.43L444.264 117.34H447.864L448.224 118.43H443.894ZM453.082 120.12C452.402 120.12 451.812 119.97 451.312 119.67C450.819 119.363 450.439 118.94 450.172 118.4C449.905 117.853 449.772 117.223 449.772 116.51C449.772 115.797 449.905 115.167 450.172 114.62C450.439 114.073 450.819 113.647 451.312 113.34C451.812 113.033 452.402 112.88 453.082 112.88C453.929 112.88 454.622 113.093 455.162 113.52C455.702 113.947 456.039 114.547 456.172 115.32H454.652C454.565 114.947 454.385 114.66 454.112 114.46C453.845 114.253 453.499 114.15 453.072 114.15C452.679 114.15 452.342 114.247 452.062 114.44C451.782 114.627 451.565 114.897 451.412 115.25C451.265 115.603 451.192 116.023 451.192 116.51C451.192 116.997 451.265 117.417 451.412 117.77C451.565 118.117 451.782 118.387 452.062 118.58C452.342 118.767 452.679 118.86 453.072 118.86C453.499 118.86 453.845 118.767 454.112 118.58C454.385 118.387 454.565 118.12 454.652 117.78H456.172C456.039 118.507 455.702 119.08 455.162 119.5C454.622 119.913 453.929 120.12 453.082 120.12ZM457.376 120V113H458.776V115.73L461.266 113H462.986L460.416 115.77L463.066 120H461.356L459.416 116.85L458.776 117.55V120H457.376ZM464.065 120V113H465.465V118.91H468.515V120H464.065ZM472.233 120.12C471.573 120.12 470.99 119.967 470.483 119.66C469.983 119.353 469.59 118.93 469.303 118.39C469.023 117.843 468.883 117.213 468.883 116.5C468.883 115.787 469.023 115.16 469.303 114.62C469.59 114.073 469.983 113.647 470.483 113.34C470.99 113.033 471.573 112.88 472.233 112.88C472.893 112.88 473.473 113.033 473.973 113.34C474.48 113.647 474.873 114.073 475.153 114.62C475.433 115.16 475.573 115.787 475.573 116.5C475.573 117.213 475.433 117.843 475.153 118.39C474.873 118.93 474.48 119.353 473.973 119.66C473.473 119.967 472.893 120.12 472.233 120.12ZM472.233 118.86C472.62 118.86 472.957 118.763 473.243 118.57C473.53 118.377 473.75 118.107 473.903 117.76C474.063 117.407 474.143 116.987 474.143 116.5C474.143 116.013 474.063 115.597 473.903 115.25C473.75 114.897 473.53 114.623 473.243 114.43C472.957 114.237 472.62 114.14 472.233 114.14C471.84 114.14 471.5 114.237 471.213 114.43C470.927 114.623 470.703 114.897 470.543 115.25C470.383 115.597 470.303 116.013 470.303 116.5C470.303 116.987 470.383 117.407 470.543 117.76C470.703 118.107 470.927 118.377 471.213 118.57C471.5 118.763 471.84 118.86 472.233 118.86ZM479.83 120.12C479.17 120.12 478.59 119.973 478.09 119.68C477.596 119.38 477.213 118.963 476.94 118.43C476.666 117.89 476.53 117.263 476.53 116.55C476.53 115.83 476.67 115.197 476.95 114.65C477.236 114.097 477.643 113.663 478.17 113.35C478.696 113.037 479.326 112.88 480.06 112.88C480.893 112.88 481.58 113.08 482.12 113.48C482.666 113.873 483.02 114.42 483.18 115.12H481.62C481.52 114.82 481.336 114.587 481.07 114.42C480.81 114.253 480.473 114.17 480.06 114.17C479.606 114.17 479.223 114.267 478.91 114.46C478.596 114.653 478.356 114.93 478.19 115.29C478.03 115.643 477.95 116.067 477.95 116.56C477.95 117.053 478.03 117.473 478.19 117.82C478.356 118.167 478.59 118.43 478.89 118.61C479.196 118.79 479.56 118.88 479.98 118.88C480.58 118.88 481.033 118.72 481.34 118.4C481.653 118.073 481.84 117.66 481.9 117.16H480.21V116.12H483.31V120H482.02L481.91 119.14C481.763 119.347 481.593 119.523 481.4 119.67C481.206 119.817 480.98 119.927 480.72 120C480.466 120.08 480.17 120.12 479.83 120.12Z" fill="#F0F9FF"/>
<path d="M690 195C643.056 195 605 156.944 605 110C605 63.0558 643.056 25 690 25C736.944 25 775 63.0558 775 110C775 156.944 736.944 195 690 195Z" fill="#0EA5E9"/>
<path d="M690 195C643.056 195 605 156.944 605 110C605 63.0558 643.056 25 690 25C736.944 25 775 63.0558 775 110C775 156.944 736.944 195 690 195Z" stroke="#01679C" stroke-width="10"/>
<path d="M667.242 115.692C666.431 115.692 665.706 115.553 665.066 115.276C664.426 114.999 663.919 114.593 663.546 114.06C663.183 113.527 662.991 112.881 662.97 112.124H665.354C665.364 112.444 665.444 112.732 665.594 112.988C665.754 113.244 665.972 113.447 666.25 113.596C666.527 113.745 666.852 113.82 667.226 113.82C667.546 113.82 667.823 113.767 668.058 113.66C668.303 113.553 668.495 113.404 668.634 113.212C668.772 113.02 668.842 112.785 668.842 112.508C668.842 112.199 668.762 111.943 668.602 111.74C668.452 111.527 668.239 111.345 667.962 111.196C667.695 111.047 667.386 110.913 667.034 110.796C666.692 110.668 666.324 110.54 665.93 110.412C665.055 110.124 664.383 109.74 663.914 109.26C663.444 108.78 663.21 108.14 663.21 107.34C663.21 106.657 663.375 106.076 663.706 105.596C664.036 105.116 664.49 104.748 665.066 104.492C665.642 104.236 666.298 104.108 667.034 104.108C667.802 104.108 668.474 104.241 669.05 104.508C669.626 104.764 670.079 105.137 670.41 105.628C670.751 106.119 670.932 106.7 670.954 107.372H668.554C668.543 107.127 668.474 106.903 668.346 106.7C668.218 106.487 668.036 106.316 667.802 106.188C667.578 106.06 667.316 105.996 667.018 105.996C666.751 105.985 666.506 106.028 666.282 106.124C666.068 106.209 665.898 106.343 665.77 106.524C665.642 106.695 665.578 106.913 665.578 107.18C665.578 107.447 665.642 107.671 665.77 107.852C665.898 108.023 666.074 108.172 666.298 108.3C666.532 108.428 666.804 108.551 667.114 108.668C667.423 108.775 667.759 108.887 668.122 109.004C668.687 109.196 669.204 109.425 669.674 109.692C670.143 109.948 670.516 110.284 670.794 110.7C671.082 111.116 671.226 111.665 671.226 112.348C671.226 112.945 671.071 113.5 670.762 114.012C670.452 114.513 670.004 114.919 669.418 115.228C668.831 115.537 668.106 115.692 667.242 115.692ZM673.041 115.5V104.3H677.281C678.198 104.3 678.956 104.455 679.553 104.764C680.15 105.073 680.593 105.495 680.881 106.028C681.18 106.551 681.329 107.148 681.329 107.82C681.329 108.439 681.185 109.015 680.897 109.548C680.62 110.071 680.182 110.497 679.585 110.828C678.988 111.148 678.22 111.308 677.281 111.308H675.281V115.5H673.041ZM675.281 109.5H677.137C677.82 109.5 678.305 109.351 678.593 109.052C678.892 108.743 679.041 108.332 679.041 107.82C679.041 107.287 678.892 106.871 678.593 106.572C678.305 106.273 677.82 106.124 677.137 106.124H675.281V109.5ZM682.916 115.5V104.3H687.156C688.063 104.3 688.809 104.455 689.396 104.764C689.993 105.073 690.436 105.489 690.724 106.012C691.012 106.524 691.156 107.1 691.156 107.74C691.156 108.337 691.012 108.897 690.724 109.42C690.447 109.943 690.009 110.364 689.412 110.684C688.825 110.993 688.068 111.148 687.14 111.148H685.156V115.5H682.916ZM688.708 115.5L686.42 110.588H688.836L691.268 115.5H688.708ZM685.156 109.516H687.012C687.652 109.516 688.121 109.361 688.42 109.052C688.719 108.743 688.868 108.332 688.868 107.82C688.868 107.319 688.719 106.919 688.42 106.62C688.132 106.321 687.663 106.172 687.012 106.172H685.156V109.516ZM693.057 115.5V104.3H695.297V115.5H693.057ZM697.479 115.5V104.3H699.719L704.791 111.9V104.3H707.031V115.5H704.791L699.719 107.916V115.5H697.479ZM711.821 115.5V106.108H708.557V104.3H717.309V106.108H714.045V115.5H711.821Z" fill="#F0F9FF"/>
<rect x="861" y="51" width="118" height="118" rx="59" fill="#FFB800"/>
<rect x="861" y="51" width="118" height="118" rx="59" stroke="#654900" stroke-width="2"/>
<path d="M904.395 107.12C903.895 107.12 903.445 107.033 903.045 106.86C902.645 106.687 902.328 106.433 902.095 106.1C901.868 105.767 901.748 105.363 901.735 104.89H903.215C903.228 105.09 903.282 105.27 903.375 105.43C903.475 105.59 903.608 105.717 903.775 105.81C903.948 105.903 904.155 105.95 904.395 105.95C904.595 105.95 904.768 105.917 904.915 105.85C905.068 105.783 905.185 105.69 905.265 105.57C905.352 105.45 905.395 105.303 905.395 105.13C905.395 104.963 905.352 104.817 905.265 104.69C905.178 104.557 905.055 104.443 904.895 104.35C904.735 104.25 904.548 104.16 904.335 104.08C904.128 104 903.902 103.92 903.655 103.84C903.068 103.66 902.625 103.417 902.325 103.11C902.032 102.803 901.885 102.4 901.885 101.9C901.885 101.473 901.985 101.11 902.185 100.81C902.392 100.51 902.675 100.28 903.035 100.12C903.402 99.96 903.815 99.88 904.275 99.88C904.755 99.88 905.175 99.9633 905.535 100.13C905.895 100.29 906.178 100.523 906.385 100.83C906.598 101.137 906.712 101.5 906.725 101.92H905.215C905.215 101.767 905.172 101.627 905.085 101.5C905.005 101.367 904.895 101.26 904.755 101.18C904.615 101.1 904.448 101.06 904.255 101.06C904.088 101.053 903.935 101.08 903.795 101.14C903.662 101.193 903.555 101.277 903.475 101.39C903.395 101.497 903.355 101.633 903.355 101.8C903.355 101.967 903.395 102.107 903.475 102.22C903.555 102.327 903.668 102.42 903.815 102.5C903.962 102.58 904.132 102.657 904.325 102.73C904.518 102.797 904.728 102.867 904.955 102.94C905.308 103.06 905.632 103.203 905.925 103.37C906.218 103.53 906.452 103.74 906.625 104C906.798 104.26 906.885 104.603 906.885 105.03C906.885 105.403 906.788 105.75 906.595 106.07C906.408 106.383 906.128 106.637 905.755 106.83C905.388 107.023 904.935 107.12 904.395 107.12ZM908.127 107V100H910.747C911.321 100 911.797 100.1 912.177 100.3C912.557 100.493 912.841 100.76 913.027 101.1C913.214 101.433 913.307 101.813 913.307 102.24C913.307 102.633 913.217 103 913.037 103.34C912.857 103.68 912.577 103.953 912.197 104.16C911.824 104.367 911.341 104.47 910.747 104.47H909.527V107H908.127ZM909.527 103.34H910.657C911.097 103.34 911.411 103.24 911.597 103.04C911.784 102.84 911.877 102.573 911.877 102.24C911.877 101.9 911.784 101.633 911.597 101.44C911.411 101.24 911.097 101.14 910.657 101.14H909.527V103.34ZM914.377 107V100H917.027C917.587 100 918.054 100.097 918.427 100.29C918.801 100.483 919.077 100.743 919.257 101.07C919.437 101.39 919.527 101.75 919.527 102.15C919.527 102.523 919.437 102.873 919.257 103.2C919.084 103.527 918.811 103.79 918.437 103.99C918.071 104.183 917.594 104.28 917.007 104.28H915.777V107H914.377ZM917.997 107L916.567 103.93H918.077L919.587 107H917.997ZM915.777 103.26H916.937C917.337 103.26 917.631 103.163 917.817 102.97C918.004 102.777 918.097 102.52 918.097 102.2C918.097 101.887 918.004 101.637 917.817 101.45C917.631 101.263 917.337 101.17 916.937 101.17H915.777V103.26ZM920.793 107V100H922.193V107H920.793ZM923.645 107V100H925.045L928.215 104.76V100H929.615V107H928.215L925.045 102.25V107H923.645ZM932.667 107V101.13H930.627V100H936.097V101.13H934.057V107H932.667ZM901.477 120V113H904.127C904.687 113 905.154 113.097 905.527 113.29C905.9 113.483 906.177 113.743 906.357 114.07C906.537 114.39 906.627 114.75 906.627 115.15C906.627 115.523 906.537 115.873 906.357 116.2C906.184 116.527 905.91 116.79 905.537 116.99C905.17 117.183 904.694 117.28 904.107 117.28H902.877V120H901.477ZM905.097 120L903.667 116.93H905.177L906.687 120H905.097ZM902.877 116.26H904.037C904.437 116.26 904.73 116.163 904.917 115.97C905.104 115.777 905.197 115.52 905.197 115.2C905.197 114.887 905.104 114.637 904.917 114.45C904.73 114.263 904.437 114.17 904.037 114.17H902.877V116.26ZM907.893 120V113H912.523V114.13H909.293V115.9H912.223V116.99H909.293V118.87H912.523V120H907.893ZM915.781 120L913.241 113H914.741L916.641 118.58L918.571 113H920.051L917.511 120H915.781ZM920.94 120V113H922.34V120H920.94ZM923.792 120V113H928.422V114.13H925.192V115.9H928.122V116.99H925.192V118.87H928.422V120H923.792ZM931.089 120L929.259 113H930.759L931.949 118.42L933.359 113H934.909L936.269 118.42L937.479 113H938.979L937.099 120H935.429L934.109 114.97L932.759 120H931.089Z" fill="white"/>
<rect x="1061" y="51" width="118" height="118" rx="59" fill="#A9B451"/>
<rect x="1061" y="51" width="118" height="118" rx="59" stroke="#738200" stroke-width="2"/>
<path d="M1104.4 107.12C1103.9 107.12 1103.45 107.033 1103.05 106.86C1102.65 106.687 1102.33 106.433 1102.1 106.1C1101.87 105.767 1101.75 105.363 1101.74 104.89H1103.22C1103.23 105.09 1103.28 105.27 1103.38 105.43C1103.48 105.59 1103.61 105.717 1103.78 105.81C1103.95 105.903 1104.16 105.95 1104.4 105.95C1104.6 105.95 1104.77 105.917 1104.92 105.85C1105.07 105.783 1105.19 105.69 1105.27 105.57C1105.35 105.45 1105.4 105.303 1105.4 105.13C1105.4 104.963 1105.35 104.817 1105.27 104.69C1105.18 104.557 1105.06 104.443 1104.9 104.35C1104.74 104.25 1104.55 104.16 1104.34 104.08C1104.13 104 1103.9 103.92 1103.66 103.84C1103.07 103.66 1102.63 103.417 1102.33 103.11C1102.03 102.803 1101.89 102.4 1101.89 101.9C1101.89 101.473 1101.99 101.11 1102.19 100.81C1102.39 100.51 1102.68 100.28 1103.04 100.12C1103.4 99.96 1103.82 99.88 1104.28 99.88C1104.76 99.88 1105.18 99.9633 1105.54 100.13C1105.9 100.29 1106.18 100.523 1106.39 100.83C1106.6 101.137 1106.71 101.5 1106.73 101.92H1105.22C1105.22 101.767 1105.17 101.627 1105.09 101.5C1105.01 101.367 1104.9 101.26 1104.76 101.18C1104.62 101.1 1104.45 101.06 1104.26 101.06C1104.09 101.053 1103.94 101.08 1103.8 101.14C1103.66 101.193 1103.56 101.277 1103.48 101.39C1103.4 101.497 1103.36 101.633 1103.36 101.8C1103.36 101.967 1103.4 102.107 1103.48 102.22C1103.56 102.327 1103.67 102.42 1103.82 102.5C1103.96 102.58 1104.13 102.657 1104.33 102.73C1104.52 102.797 1104.73 102.867 1104.96 102.94C1105.31 103.06 1105.63 103.203 1105.93 103.37C1106.22 103.53 1106.45 103.74 1106.63 104C1106.8 104.26 1106.89 104.603 1106.89 105.03C1106.89 105.403 1106.79 105.75 1106.6 106.07C1106.41 106.383 1106.13 106.637 1105.76 106.83C1105.39 107.023 1104.94 107.12 1104.4 107.12ZM1108.13 107V100H1110.75C1111.32 100 1111.8 100.1 1112.18 100.3C1112.56 100.493 1112.84 100.76 1113.03 101.1C1113.21 101.433 1113.31 101.813 1113.31 102.24C1113.31 102.633 1113.22 103 1113.04 103.34C1112.86 103.68 1112.58 103.953 1112.2 104.16C1111.82 104.367 1111.34 104.47 1110.75 104.47H1109.53V107H1108.13ZM1109.53 103.34H1110.66C1111.1 103.34 1111.41 103.24 1111.6 103.04C1111.78 102.84 1111.88 102.573 1111.88 102.24C1111.88 101.9 1111.78 101.633 1111.6 101.44C1111.41 101.24 1111.1 101.14 1110.66 101.14H1109.53V103.34ZM1114.38 107V100H1117.03C1117.59 100 1118.05 100.097 1118.43 100.29C1118.8 100.483 1119.08 100.743 1119.26 101.07C1119.44 101.39 1119.53 101.75 1119.53 102.15C1119.53 102.523 1119.44 102.873 1119.26 103.2C1119.08 103.527 1118.81 103.79 1118.44 103.99C1118.07 104.183 1117.59 104.28 1117.01 104.28H1115.78V107H1114.38ZM1118 107L1116.57 103.93H1118.08L1119.59 107H1118ZM1115.78 103.26H1116.94C1117.34 103.26 1117.63 103.163 1117.82 102.97C1118 102.777 1118.1 102.52 1118.1 102.2C1118.1 101.887 1118 101.637 1117.82 101.45C1117.63 101.263 1117.34 101.17 1116.94 101.17H1115.78V103.26ZM1120.79 107V100H1122.19V107H1120.79ZM1123.65 107V100H1125.05L1128.22 104.76V100H1129.62V107H1128.22L1125.05 102.25V107H1123.65ZM1132.67 107V101.13H1130.63V100H1136.1V101.13H1134.06V107H1132.67ZM1080.72 120V113H1083.37C1083.93 113 1084.4 113.097 1084.77 113.29C1085.14 113.483 1085.42 113.743 1085.6 114.07C1085.78 114.39 1085.87 114.75 1085.87 115.15C1085.87 115.523 1085.78 115.873 1085.6 116.2C1085.43 116.527 1085.15 116.79 1084.78 116.99C1084.41 117.183 1083.94 117.28 1083.35 117.28H1082.12V120H1080.72ZM1084.34 120L1082.91 116.93H1084.42L1085.93 120H1084.34ZM1082.12 116.26H1083.28C1083.68 116.26 1083.97 116.163 1084.16 115.97C1084.35 115.777 1084.44 115.52 1084.44 115.2C1084.44 114.887 1084.35 114.637 1084.16 114.45C1083.97 114.263 1083.68 114.17 1083.28 114.17H1082.12V116.26ZM1087.14 120V113H1091.77V114.13H1088.54V115.9H1091.47V116.99H1088.54V118.87H1091.77V120H1087.14ZM1094.65 120V114.13H1092.61V113H1098.08V114.13H1096.04V120H1094.65ZM1099.11 120V113H1101.76C1102.32 113 1102.79 113.097 1103.16 113.29C1103.53 113.483 1103.81 113.743 1103.99 114.07C1104.17 114.39 1104.26 114.75 1104.26 115.15C1104.26 115.523 1104.17 115.873 1103.99 116.2C1103.82 116.527 1103.54 116.79 1103.17 116.99C1102.8 117.183 1102.33 117.28 1101.74 117.28H1100.51V120H1099.11ZM1102.73 120L1101.3 116.93H1102.81L1104.32 120H1102.73ZM1100.51 116.26H1101.67C1102.07 116.26 1102.36 116.163 1102.55 115.97C1102.74 115.777 1102.83 115.52 1102.83 115.2C1102.83 114.887 1102.74 114.637 1102.55 114.45C1102.36 114.263 1102.07 114.17 1101.67 114.17H1100.51V116.26ZM1108.62 120.12C1107.96 120.12 1107.38 119.967 1106.87 119.66C1106.37 119.353 1105.98 118.93 1105.69 118.39C1105.41 117.843 1105.27 117.213 1105.27 116.5C1105.27 115.787 1105.41 115.16 1105.69 114.62C1105.98 114.073 1106.37 113.647 1106.87 113.34C1107.38 113.033 1107.96 112.88 1108.62 112.88C1109.28 112.88 1109.86 113.033 1110.36 113.34C1110.87 113.647 1111.26 114.073 1111.54 114.62C1111.82 115.16 1111.96 115.787 1111.96 116.5C1111.96 117.213 1111.82 117.843 1111.54 118.39C1111.26 118.93 1110.87 119.353 1110.36 119.66C1109.86 119.967 1109.28 120.12 1108.62 120.12ZM1108.62 118.86C1109.01 118.86 1109.35 118.763 1109.63 118.57C1109.92 118.377 1110.14 118.107 1110.29 117.76C1110.45 117.407 1110.53 116.987 1110.53 116.5C1110.53 116.013 1110.45 115.597 1110.29 115.25C1110.14 114.897 1109.92 114.623 1109.63 114.43C1109.35 114.237 1109.01 114.14 1108.62 114.14C1108.23 114.14 1107.89 114.237 1107.6 114.43C1107.32 114.623 1107.09 114.897 1106.93 115.25C1106.77 115.597 1106.69 116.013 1106.69 116.5C1106.69 116.987 1106.77 117.407 1106.93 117.76C1107.09 118.107 1107.32 118.377 1107.6 118.57C1107.89 118.763 1108.23 118.86 1108.62 118.86ZM1115.59 120.12C1115.09 120.12 1114.64 120.033 1114.24 119.86C1113.84 119.687 1113.52 119.433 1113.29 119.1C1113.06 118.767 1112.94 118.363 1112.93 117.89H1114.41C1114.42 118.09 1114.48 118.27 1114.57 118.43C1114.67 118.59 1114.8 118.717 1114.97 118.81C1115.14 118.903 1115.35 118.95 1115.59 118.95C1115.79 118.95 1115.96 118.917 1116.11 118.85C1116.26 118.783 1116.38 118.69 1116.46 118.57C1116.55 118.45 1116.59 118.303 1116.59 118.13C1116.59 117.963 1116.55 117.817 1116.46 117.69C1116.37 117.557 1116.25 117.443 1116.09 117.35C1115.93 117.25 1115.74 117.16 1115.53 117.08C1115.32 117 1115.1 116.92 1114.85 116.84C1114.26 116.66 1113.82 116.417 1113.52 116.11C1113.23 115.803 1113.08 115.4 1113.08 114.9C1113.08 114.473 1113.18 114.11 1113.38 113.81C1113.59 113.51 1113.87 113.28 1114.23 113.12C1114.6 112.96 1115.01 112.88 1115.47 112.88C1115.95 112.88 1116.37 112.963 1116.73 113.13C1117.09 113.29 1117.37 113.523 1117.58 113.83C1117.79 114.137 1117.91 114.5 1117.92 114.92H1116.41C1116.41 114.767 1116.37 114.627 1116.28 114.5C1116.2 114.367 1116.09 114.26 1115.95 114.18C1115.81 114.1 1115.64 114.06 1115.45 114.06C1115.28 114.053 1115.13 114.08 1114.99 114.14C1114.86 114.193 1114.75 114.277 1114.67 114.39C1114.59 114.497 1114.55 114.633 1114.55 114.8C1114.55 114.967 1114.59 115.107 1114.67 115.22C1114.75 115.327 1114.86 115.42 1115.01 115.5C1115.16 115.58 1115.33 115.657 1115.52 115.73C1115.71 115.797 1115.92 115.867 1116.15 115.94C1116.5 116.06 1116.83 116.203 1117.12 116.37C1117.41 116.53 1117.65 116.74 1117.82 117C1117.99 117.26 1118.08 117.603 1118.08 118.03C1118.08 118.403 1117.98 118.75 1117.79 119.07C1117.6 119.383 1117.32 119.637 1116.95 119.83C1116.58 120.023 1116.13 120.12 1115.59 120.12ZM1119.32 120V113H1121.94C1122.52 113 1122.99 113.1 1123.37 113.3C1123.75 113.493 1124.04 113.76 1124.22 114.1C1124.41 114.433 1124.5 114.813 1124.5 115.24C1124.5 115.633 1124.41 116 1124.23 116.34C1124.05 116.68 1123.77 116.953 1123.39 117.16C1123.02 117.367 1122.54 117.47 1121.94 117.47H1120.72V120H1119.32ZM1120.72 116.34H1121.85C1122.29 116.34 1122.61 116.24 1122.79 116.04C1122.98 115.84 1123.07 115.573 1123.07 115.24C1123.07 114.9 1122.98 114.633 1122.79 114.44C1122.61 114.24 1122.29 114.14 1121.85 114.14H1120.72V116.34ZM1125.57 120V113H1130.2V114.13H1126.97V115.9H1129.9V116.99H1126.97V118.87H1130.2V120H1125.57ZM1134.55 120.12C1133.87 120.12 1133.28 119.97 1132.78 119.67C1132.29 119.363 1131.91 118.94 1131.64 118.4C1131.38 117.853 1131.24 117.223 1131.24 116.51C1131.24 115.797 1131.38 115.167 1131.64 114.62C1131.91 114.073 1132.29 113.647 1132.78 113.34C1133.28 113.033 1133.87 112.88 1134.55 112.88C1135.4 112.88 1136.09 113.093 1136.63 113.52C1137.17 113.947 1137.51 114.547 1137.64 115.32H1136.12C1136.04 114.947 1135.86 114.66 1135.58 114.46C1135.32 114.253 1134.97 114.15 1134.54 114.15C1134.15 114.15 1133.81 114.247 1133.53 114.44C1133.25 114.627 1133.04 114.897 1132.88 115.25C1132.74 115.603 1132.66 116.023 1132.66 116.51C1132.66 116.997 1132.74 117.417 1132.88 117.77C1133.04 118.117 1133.25 118.387 1133.53 118.58C1133.81 118.767 1134.15 118.86 1134.54 118.86C1134.97 118.86 1135.32 118.767 1135.58 118.58C1135.86 118.387 1136.04 118.12 1136.12 117.78H1137.64C1137.51 118.507 1137.17 119.08 1136.63 119.5C1136.09 119.913 1135.4 120.12 1134.55 120.12ZM1140.39 120V114.13H1138.35V113H1143.82V114.13H1141.78V120H1140.39ZM1144.84 120V113H1146.24V120H1144.84ZM1149.66 120L1147.12 113H1148.62L1150.52 118.58L1152.45 113H1153.93L1151.39 120H1149.66ZM1154.82 120V113H1159.45V114.13H1156.22V115.9H1159.15V116.99H1156.22V118.87H1159.45V120H1154.82Z" fill="#FAFFD5"/>
<path d="M188.97 14V4.2H193.044C193.725 4.2 194.299 4.30733 194.766 4.522C195.232 4.73667 195.587 5.03533 195.83 5.418C196.072 5.79133 196.194 6.23 196.194 6.734C196.194 7.21933 196.086 7.63 195.872 7.966C195.657 8.302 195.372 8.56333 195.018 8.75C194.672 8.92733 194.29 9.03 193.87 9.058L194.094 8.904C194.542 8.92267 194.938 9.044 195.284 9.268C195.638 9.492 195.914 9.786 196.11 10.15C196.315 10.5047 196.418 10.8967 196.418 11.326C196.418 11.8487 196.292 12.3153 196.04 12.726C195.788 13.1273 195.419 13.44 194.934 13.664C194.458 13.888 193.874 14 193.184 14H188.97ZM190.93 12.404H192.876C193.37 12.404 193.753 12.292 194.024 12.068C194.294 11.8347 194.43 11.508 194.43 11.088C194.43 10.668 194.29 10.3367 194.01 10.094C193.73 9.85133 193.342 9.73 192.848 9.73H190.93V12.404ZM190.93 8.274H192.722C193.198 8.274 193.562 8.16667 193.814 7.952C194.066 7.728 194.192 7.41533 194.192 7.014C194.192 6.622 194.066 6.31867 193.814 6.104C193.562 5.88 193.193 5.768 192.708 5.768H190.93V8.274ZM200.542 14.168C199.973 14.168 199.483 14.0513 199.072 13.818C198.671 13.5753 198.363 13.2207 198.148 12.754C197.934 12.2873 197.826 11.7133 197.826 11.032V6.944H199.786V10.836C199.786 11.3867 199.898 11.8067 200.122 12.096C200.356 12.376 200.715 12.516 201.2 12.516C201.508 12.516 201.784 12.446 202.026 12.306C202.269 12.166 202.456 11.9653 202.586 11.704C202.726 11.4333 202.796 11.102 202.796 10.71V6.944H204.756V14H203.034L202.88 12.866C202.675 13.258 202.372 13.5753 201.97 13.818C201.578 14.0513 201.102 14.168 200.542 14.168ZM206.648 14V6.944H208.608V14H206.648ZM207.628 6.034C207.273 6.034 206.984 5.93133 206.76 5.726C206.536 5.51133 206.424 5.25 206.424 4.942C206.424 4.62467 206.536 4.36333 206.76 4.158C206.984 3.95267 207.273 3.85 207.628 3.85C207.982 3.85 208.272 3.95267 208.496 4.158C208.72 4.36333 208.832 4.62467 208.832 4.942C208.832 5.25 208.72 5.51133 208.496 5.726C208.272 5.93133 207.982 6.034 207.628 6.034ZM210.488 14V3.92H212.448V14H210.488ZM217.425 14.168C216.781 14.168 216.207 14.0093 215.703 13.692C215.199 13.3747 214.798 12.936 214.499 12.376C214.21 11.816 214.065 11.186 214.065 10.486C214.065 9.76733 214.21 9.13267 214.499 8.582C214.798 8.022 215.204 7.58333 215.717 7.266C216.24 6.93933 216.823 6.776 217.467 6.776C217.971 6.776 218.41 6.86933 218.783 7.056C219.157 7.23333 219.46 7.49 219.693 7.826V3.92H221.653V14H219.903L219.693 13.048C219.553 13.244 219.381 13.4307 219.175 13.608C218.97 13.776 218.723 13.9113 218.433 14.014C218.144 14.1167 217.808 14.168 217.425 14.168ZM217.901 12.46C218.265 12.46 218.587 12.376 218.867 12.208C219.147 12.04 219.362 11.8067 219.511 11.508C219.67 11.2093 219.749 10.864 219.749 10.472C219.749 10.08 219.67 9.73467 219.511 9.436C219.362 9.13733 219.147 8.904 218.867 8.736C218.587 8.568 218.265 8.484 217.901 8.484C217.547 8.484 217.229 8.568 216.949 8.736C216.669 8.904 216.45 9.13733 216.291 9.436C216.142 9.73467 216.067 10.0753 216.067 10.458C216.067 10.85 216.142 11.2 216.291 11.508C216.45 11.8067 216.669 12.04 216.949 12.208C217.229 12.376 217.547 12.46 217.901 12.46ZM229.054 14V5.782H226.198V4.2H233.856V5.782H231V14H229.054ZM235.153 14V3.92H237.113V7.98C237.337 7.616 237.64 7.32667 238.023 7.112C238.415 6.888 238.867 6.776 239.381 6.776C239.969 6.776 240.463 6.902 240.865 7.154C241.266 7.39667 241.569 7.756 241.775 8.232C241.989 8.69867 242.097 9.27733 242.097 9.968V14H240.151V10.15C240.151 9.59933 240.034 9.17467 239.801 8.876C239.567 8.57733 239.208 8.428 238.723 8.428C238.415 8.428 238.135 8.50267 237.883 8.652C237.64 8.80133 237.449 9.01133 237.309 9.282C237.178 9.55267 237.113 9.87933 237.113 10.262V14H235.153ZM247.264 14.168C246.554 14.168 245.924 14.0187 245.374 13.72C244.832 13.412 244.408 12.9873 244.1 12.446C243.792 11.8953 243.638 11.2607 243.638 10.542C243.638 9.814 243.787 9.17 244.086 8.61C244.394 8.04067 244.818 7.59267 245.36 7.266C245.91 6.93933 246.55 6.776 247.278 6.776C247.978 6.776 248.589 6.93 249.112 7.238C249.644 7.546 250.054 7.96133 250.344 8.484C250.642 9.00667 250.792 9.60867 250.792 10.29C250.792 10.3833 250.787 10.486 250.778 10.598C250.778 10.71 250.768 10.8313 250.75 10.962H245.038V9.772H248.804C248.776 9.34267 248.617 9.002 248.328 8.75C248.048 8.48867 247.698 8.358 247.278 8.358C246.96 8.358 246.671 8.43267 246.41 8.582C246.148 8.73133 245.943 8.95067 245.794 9.24C245.644 9.52933 245.57 9.898 245.57 10.346V10.752C245.57 11.116 245.64 11.438 245.78 11.718C245.92 11.9887 246.116 12.1987 246.368 12.348C246.62 12.4973 246.914 12.572 247.25 12.572C247.586 12.572 247.861 12.502 248.076 12.362C248.3 12.222 248.468 12.04 248.58 11.816H250.582C250.451 12.2547 250.227 12.6513 249.91 13.006C249.602 13.3607 249.224 13.6453 248.776 13.86C248.328 14.0653 247.824 14.168 247.264 14.168ZM255.62 14V4.2H259.33C260.123 4.2 260.777 4.33533 261.29 4.606C261.813 4.87667 262.2 5.24067 262.452 5.698C262.713 6.146 262.844 6.65 262.844 7.21C262.844 7.73267 262.718 8.22267 262.466 8.68C262.223 9.13733 261.841 9.506 261.318 9.786C260.795 10.0567 260.128 10.192 259.316 10.192H257.58V14H255.62ZM260.688 14L258.686 9.702H260.814L262.928 14H260.688ZM257.58 8.764H259.218C259.769 8.764 260.175 8.62867 260.436 8.358C260.707 8.08733 260.842 7.728 260.842 7.28C260.842 6.84133 260.711 6.49133 260.45 6.23C260.189 5.96867 259.773 5.838 259.204 5.838H257.58V8.764ZM264.507 14V6.944H266.467V14H264.507ZM265.487 6.034C265.132 6.034 264.843 5.93133 264.619 5.726C264.395 5.51133 264.283 5.25 264.283 4.942C264.283 4.62467 264.395 4.36333 264.619 4.158C264.843 3.95267 265.132 3.85 265.487 3.85C265.842 3.85 266.131 3.95267 266.355 4.158C266.579 4.36333 266.691 4.62467 266.691 4.942C266.691 5.25 266.579 5.51133 266.355 5.726C266.131 5.93133 265.842 6.034 265.487 6.034ZM271.4 17.248C270.728 17.248 270.14 17.164 269.636 16.996C269.132 16.8373 268.74 16.59 268.46 16.254C268.189 15.9273 268.054 15.5213 268.054 15.036C268.054 14.7 268.138 14.3827 268.306 14.084C268.483 13.7853 268.74 13.5193 269.076 13.286C269.412 13.0527 269.822 12.852 270.308 12.684L271.022 13.664C270.592 13.7947 270.28 13.9627 270.084 14.168C269.897 14.3733 269.804 14.5973 269.804 14.84C269.804 15.0453 269.874 15.218 270.014 15.358C270.154 15.498 270.34 15.6007 270.574 15.666C270.816 15.7407 271.087 15.778 271.386 15.778C271.675 15.778 271.927 15.7407 272.142 15.666C272.356 15.6007 272.524 15.498 272.646 15.358C272.767 15.218 272.828 15.0547 272.828 14.868C272.828 14.616 272.744 14.4153 272.576 14.266C272.408 14.1167 272.062 14.0233 271.54 13.986C271.073 13.9487 270.653 13.8973 270.28 13.832C269.916 13.7573 269.594 13.6733 269.314 13.58C269.034 13.4773 268.791 13.3653 268.586 13.244C268.39 13.1227 268.236 13.0013 268.124 12.88V12.558L269.636 10.92L271.022 11.354L269.216 13.146L269.79 12.166C269.892 12.222 269.99 12.278 270.084 12.334C270.186 12.3807 270.312 12.4273 270.462 12.474C270.611 12.5113 270.802 12.5487 271.036 12.586C271.278 12.614 271.582 12.6467 271.946 12.684C272.562 12.74 273.066 12.8567 273.458 13.034C273.85 13.202 274.139 13.4353 274.326 13.734C274.522 14.0327 274.62 14.3967 274.62 14.826C274.62 15.246 274.503 15.638 274.27 16.002C274.046 16.3753 273.696 16.674 273.22 16.898C272.744 17.1313 272.137 17.248 271.4 17.248ZM271.414 11.928C270.826 11.928 270.317 11.816 269.888 11.592C269.458 11.3587 269.127 11.0507 268.894 10.668C268.67 10.276 268.558 9.83733 268.558 9.352C268.558 8.876 268.67 8.44667 268.894 8.064C269.127 7.672 269.458 7.35933 269.888 7.126C270.317 6.89267 270.826 6.776 271.414 6.776C272.011 6.776 272.52 6.89267 272.94 7.126C273.369 7.35933 273.696 7.672 273.92 8.064C274.144 8.44667 274.256 8.876 274.256 9.352C274.256 9.83733 274.144 10.276 273.92 10.668C273.696 11.0507 273.369 11.3587 272.94 11.592C272.52 11.816 272.011 11.928 271.414 11.928ZM271.414 10.444C271.759 10.444 272.039 10.3553 272.254 10.178C272.478 9.99133 272.59 9.72067 272.59 9.366C272.59 9.01133 272.478 8.74533 272.254 8.568C272.039 8.38133 271.759 8.288 271.414 8.288C271.068 8.288 270.784 8.38133 270.56 8.568C270.336 8.74533 270.224 9.01133 270.224 9.366C270.224 9.72067 270.336 9.99133 270.56 10.178C270.784 10.3553 271.068 10.444 271.414 10.444ZM272.576 8.316L272.268 6.944H275.18V8.092L272.576 8.316ZM276.742 14V3.92H278.702V7.98C278.926 7.616 279.23 7.32667 279.612 7.112C280.004 6.888 280.457 6.776 280.97 6.776C281.558 6.776 282.053 6.902 282.454 7.154C282.856 7.39667 283.159 7.756 283.364 8.232C283.579 8.69867 283.686 9.27733 283.686 9.968V14H281.74V10.15C281.74 9.59933 281.624 9.17467 281.39 8.876C281.157 8.57733 280.798 8.428 280.312 8.428C280.004 8.428 279.724 8.50267 279.472 8.652C279.23 8.80133 279.038 9.01133 278.898 9.282C278.768 9.55267 278.702 9.87933 278.702 10.262V14H276.742ZM288.671 14C288.167 14 287.724 13.9207 287.341 13.762C286.968 13.6033 286.679 13.342 286.473 12.978C286.268 12.614 286.165 12.1193 286.165 11.494V8.582H284.947V6.944H286.165L286.375 4.998H288.125V6.944H289.959V8.582H288.125V11.508C288.125 11.816 288.191 12.0307 288.321 12.152C288.461 12.2733 288.695 12.334 289.021 12.334H289.945V14H288.671ZM297.127 14V5.782H294.271V4.2H301.929V5.782H299.073V14H297.127ZM303.225 14V3.92H305.185V7.98C305.409 7.616 305.712 7.32667 306.095 7.112C306.487 6.888 306.939 6.776 307.453 6.776C308.041 6.776 308.535 6.902 308.937 7.154C309.338 7.39667 309.641 7.756 309.847 8.232C310.061 8.69867 310.169 9.27733 310.169 9.968V14H308.223V10.15C308.223 9.59933 308.106 9.17467 307.873 8.876C307.639 8.57733 307.28 8.428 306.795 8.428C306.487 8.428 306.207 8.50267 305.955 8.652C305.712 8.80133 305.521 9.01133 305.381 9.282C305.25 9.55267 305.185 9.87933 305.185 10.262V14H303.225ZM311.976 14V6.944H313.936V14H311.976ZM312.956 6.034C312.601 6.034 312.312 5.93133 312.088 5.726C311.864 5.51133 311.752 5.25 311.752 4.942C311.752 4.62467 311.864 4.36333 312.088 4.158C312.312 3.95267 312.601 3.85 312.956 3.85C313.31 3.85 313.6 3.95267 313.824 4.158C314.048 4.36333 314.16 4.62467 314.16 4.942C314.16 5.25 314.048 5.51133 313.824 5.726C313.6 5.93133 313.31 6.034 312.956 6.034ZM315.817 14V6.944H317.539L317.679 8.092C317.893 7.7 318.197 7.38267 318.589 7.14C318.99 6.89733 319.471 6.776 320.031 6.776C320.609 6.776 321.099 6.902 321.501 7.154C321.902 7.39667 322.205 7.75133 322.411 8.218C322.625 8.68467 322.733 9.25867 322.733 9.94V14H320.787V10.122C320.787 9.58067 320.67 9.16533 320.437 8.876C320.213 8.57733 319.853 8.428 319.359 8.428C319.06 8.428 318.789 8.50267 318.547 8.652C318.304 8.792 318.113 8.99733 317.973 9.268C317.842 9.52933 317.777 9.85133 317.777 10.234V14H315.817ZM327.564 17.248C326.892 17.248 326.304 17.164 325.8 16.996C325.296 16.8373 324.904 16.59 324.624 16.254C324.353 15.9273 324.218 15.5213 324.218 15.036C324.218 14.7 324.302 14.3827 324.47 14.084C324.647 13.7853 324.904 13.5193 325.24 13.286C325.576 13.0527 325.987 12.852 326.472 12.684L327.186 13.664C326.757 13.7947 326.444 13.9627 326.248 14.168C326.061 14.3733 325.968 14.5973 325.968 14.84C325.968 15.0453 326.038 15.218 326.178 15.358C326.318 15.498 326.505 15.6007 326.738 15.666C326.981 15.7407 327.251 15.778 327.55 15.778C327.839 15.778 328.091 15.7407 328.306 15.666C328.521 15.6007 328.689 15.498 328.81 15.358C328.931 15.218 328.992 15.0547 328.992 14.868C328.992 14.616 328.908 14.4153 328.74 14.266C328.572 14.1167 328.227 14.0233 327.704 13.986C327.237 13.9487 326.817 13.8973 326.444 13.832C326.08 13.7573 325.758 13.6733 325.478 13.58C325.198 13.4773 324.955 13.3653 324.75 13.244C324.554 13.1227 324.4 13.0013 324.288 12.88V12.558L325.8 10.92L327.186 11.354L325.38 13.146L325.954 12.166C326.057 12.222 326.155 12.278 326.248 12.334C326.351 12.3807 326.477 12.4273 326.626 12.474C326.775 12.5113 326.967 12.5487 327.2 12.586C327.443 12.614 327.746 12.6467 328.11 12.684C328.726 12.74 329.23 12.8567 329.622 13.034C330.014 13.202 330.303 13.4353 330.49 13.734C330.686 14.0327 330.784 14.3967 330.784 14.826C330.784 15.246 330.667 15.638 330.434 16.002C330.21 16.3753 329.86 16.674 329.384 16.898C328.908 17.1313 328.301 17.248 327.564 17.248ZM327.578 11.928C326.99 11.928 326.481 11.816 326.052 11.592C325.623 11.3587 325.291 11.0507 325.058 10.668C324.834 10.276 324.722 9.83733 324.722 9.352C324.722 8.876 324.834 8.44667 325.058 8.064C325.291 7.672 325.623 7.35933 326.052 7.126C326.481 6.89267 326.99 6.776 327.578 6.776C328.175 6.776 328.684 6.89267 329.104 7.126C329.533 7.35933 329.86 7.672 330.084 8.064C330.308 8.44667 330.42 8.876 330.42 9.352C330.42 9.83733 330.308 10.276 330.084 10.668C329.86 11.0507 329.533 11.3587 329.104 11.592C328.684 11.816 328.175 11.928 327.578 11.928ZM327.578 10.444C327.923 10.444 328.203 10.3553 328.418 10.178C328.642 9.99133 328.754 9.72067 328.754 9.366C328.754 9.01133 328.642 8.74533 328.418 8.568C328.203 8.38133 327.923 8.288 327.578 8.288C327.233 8.288 326.948 8.38133 326.724 8.568C326.5 8.74533 326.388 9.01133 326.388 9.366C326.388 9.72067 326.5 9.99133 326.724 10.178C326.948 10.3553 327.233 10.444 327.578 10.444ZM328.74 8.316L328.432 6.944H331.344V8.092L328.74 8.316Z" fill="#4B5563"/>
<path d="M839.97 14V4.2H844.044C844.725 4.2 845.299 4.30733 845.766 4.522C846.232 4.73667 846.587 5.03533 846.83 5.418C847.072 5.79133 847.194 6.23 847.194 6.734C847.194 7.21933 847.086 7.63 846.872 7.966C846.657 8.302 846.372 8.56333 846.018 8.75C845.672 8.92733 845.29 9.03 844.87 9.058L845.094 8.904C845.542 8.92267 845.938 9.044 846.284 9.268C846.638 9.492 846.914 9.786 847.11 10.15C847.315 10.5047 847.418 10.8967 847.418 11.326C847.418 11.8487 847.292 12.3153 847.04 12.726C846.788 13.1273 846.419 13.44 845.934 13.664C845.458 13.888 844.874 14 844.184 14H839.97ZM841.93 12.404H843.876C844.37 12.404 844.753 12.292 845.024 12.068C845.294 11.8347 845.43 11.508 845.43 11.088C845.43 10.668 845.29 10.3367 845.01 10.094C844.73 9.85133 844.342 9.73 843.848 9.73H841.93V12.404ZM841.93 8.274H843.722C844.198 8.274 844.562 8.16667 844.814 7.952C845.066 7.728 845.192 7.41533 845.192 7.014C845.192 6.622 845.066 6.31867 844.814 6.104C844.562 5.88 844.193 5.768 843.708 5.768H841.93V8.274ZM851.542 14.168C850.973 14.168 850.483 14.0513 850.072 13.818C849.671 13.5753 849.363 13.2207 849.148 12.754C848.934 12.2873 848.826 11.7133 848.826 11.032V6.944H850.786V10.836C850.786 11.3867 850.898 11.8067 851.122 12.096C851.356 12.376 851.715 12.516 852.2 12.516C852.508 12.516 852.784 12.446 853.026 12.306C853.269 12.166 853.456 11.9653 853.586 11.704C853.726 11.4333 853.796 11.102 853.796 10.71V6.944H855.756V14H854.034L853.88 12.866C853.675 13.258 853.372 13.5753 852.97 13.818C852.578 14.0513 852.102 14.168 851.542 14.168ZM857.648 14V6.944H859.608V14H857.648ZM858.628 6.034C858.273 6.034 857.984 5.93133 857.76 5.726C857.536 5.51133 857.424 5.25 857.424 4.942C857.424 4.62467 857.536 4.36333 857.76 4.158C857.984 3.95267 858.273 3.85 858.628 3.85C858.982 3.85 859.272 3.95267 859.496 4.158C859.72 4.36333 859.832 4.62467 859.832 4.942C859.832 5.25 859.72 5.51133 859.496 5.726C859.272 5.93133 858.982 6.034 858.628 6.034ZM861.488 14V3.92H863.448V14H861.488ZM868.425 14.168C867.781 14.168 867.207 14.0093 866.703 13.692C866.199 13.3747 865.798 12.936 865.499 12.376C865.21 11.816 865.065 11.186 865.065 10.486C865.065 9.76733 865.21 9.13267 865.499 8.582C865.798 8.022 866.204 7.58333 866.717 7.266C867.24 6.93933 867.823 6.776 868.467 6.776C868.971 6.776 869.41 6.86933 869.783 7.056C870.157 7.23333 870.46 7.49 870.693 7.826V3.92H872.653V14H870.903L870.693 13.048C870.553 13.244 870.381 13.4307 870.175 13.608C869.97 13.776 869.723 13.9113 869.433 14.014C869.144 14.1167 868.808 14.168 868.425 14.168ZM868.901 12.46C869.265 12.46 869.587 12.376 869.867 12.208C870.147 12.04 870.362 11.8067 870.511 11.508C870.67 11.2093 870.749 10.864 870.749 10.472C870.749 10.08 870.67 9.73467 870.511 9.436C870.362 9.13733 870.147 8.904 869.867 8.736C869.587 8.568 869.265 8.484 868.901 8.484C868.547 8.484 868.229 8.568 867.949 8.736C867.669 8.904 867.45 9.13733 867.291 9.436C867.142 9.73467 867.067 10.0753 867.067 10.458C867.067 10.85 867.142 11.2 867.291 11.508C867.45 11.8067 867.669 12.04 867.949 12.208C868.229 12.376 868.547 12.46 868.901 12.46ZM880.054 14V5.782H877.198V4.2H884.856V5.782H882V14H880.054ZM886.153 14V3.92H888.113V7.98C888.337 7.616 888.64 7.32667 889.023 7.112C889.415 6.888 889.867 6.776 890.381 6.776C890.969 6.776 891.463 6.902 891.865 7.154C892.266 7.39667 892.569 7.756 892.775 8.232C892.989 8.69867 893.097 9.27733 893.097 9.968V14H891.151V10.15C891.151 9.59933 891.034 9.17467 890.801 8.876C890.567 8.57733 890.208 8.428 889.723 8.428C889.415 8.428 889.135 8.50267 888.883 8.652C888.64 8.80133 888.449 9.01133 888.309 9.282C888.178 9.55267 888.113 9.87933 888.113 10.262V14H886.153ZM898.264 14.168C897.554 14.168 896.924 14.0187 896.374 13.72C895.832 13.412 895.408 12.9873 895.1 12.446C894.792 11.8953 894.638 11.2607 894.638 10.542C894.638 9.814 894.787 9.17 895.086 8.61C895.394 8.04067 895.818 7.59267 896.36 7.266C896.91 6.93933 897.55 6.776 898.278 6.776C898.978 6.776 899.589 6.93 900.112 7.238C900.644 7.546 901.054 7.96133 901.344 8.484C901.642 9.00667 901.792 9.60867 901.792 10.29C901.792 10.3833 901.787 10.486 901.778 10.598C901.778 10.71 901.768 10.8313 901.75 10.962H896.038V9.772H899.804C899.776 9.34267 899.617 9.002 899.328 8.75C899.048 8.48867 898.698 8.358 898.278 8.358C897.96 8.358 897.671 8.43267 897.41 8.582C897.148 8.73133 896.943 8.95067 896.794 9.24C896.644 9.52933 896.57 9.898 896.57 10.346V10.752C896.57 11.116 896.64 11.438 896.78 11.718C896.92 11.9887 897.116 12.1987 897.368 12.348C897.62 12.4973 897.914 12.572 898.25 12.572C898.586 12.572 898.861 12.502 899.076 12.362C899.3 12.222 899.468 12.04 899.58 11.816H901.582C901.451 12.2547 901.227 12.6513 900.91 13.006C900.602 13.3607 900.224 13.6453 899.776 13.86C899.328 14.0653 898.824 14.168 898.264 14.168ZM908.902 14V5.782H906.046V4.2H913.704V5.782H910.848V14H908.902ZM915 14V3.92H916.96V7.98C917.184 7.616 917.488 7.32667 917.87 7.112C918.262 6.888 918.715 6.776 919.228 6.776C919.816 6.776 920.311 6.902 920.712 7.154C921.114 7.39667 921.417 7.756 921.622 8.232C921.837 8.69867 921.944 9.27733 921.944 9.968V14H919.998V10.15C919.998 9.59933 919.882 9.17467 919.648 8.876C919.415 8.57733 919.056 8.428 918.57 8.428C918.262 8.428 917.982 8.50267 917.73 8.652C917.488 8.80133 917.296 9.01133 917.156 9.282C917.026 9.55267 916.96 9.87933 916.96 10.262V14H915ZM923.751 14V6.944H925.711V14H923.751ZM924.731 6.034C924.376 6.034 924.087 5.93133 923.863 5.726C923.639 5.51133 923.527 5.25 923.527 4.942C923.527 4.62467 923.639 4.36333 923.863 4.158C924.087 3.95267 924.376 3.85 924.731 3.85C925.086 3.85 925.375 3.95267 925.599 4.158C925.823 4.36333 925.935 4.62467 925.935 4.942C925.935 5.25 925.823 5.51133 925.599 5.726C925.375 5.93133 925.086 6.034 924.731 6.034ZM927.592 14V6.944H929.314L929.454 8.092C929.669 7.7 929.972 7.38267 930.364 7.14C930.765 6.89733 931.246 6.776 931.806 6.776C932.385 6.776 932.875 6.902 933.276 7.154C933.677 7.39667 933.981 7.75133 934.186 8.218C934.401 8.68467 934.508 9.25867 934.508 9.94V14H932.562V10.122C932.562 9.58067 932.445 9.16533 932.212 8.876C931.988 8.57733 931.629 8.428 931.134 8.428C930.835 8.428 930.565 8.50267 930.322 8.652C930.079 8.792 929.888 8.99733 929.748 9.268C929.617 9.52933 929.552 9.85133 929.552 10.234V14H927.592ZM939.339 17.248C938.667 17.248 938.079 17.164 937.575 16.996C937.071 16.8373 936.679 16.59 936.399 16.254C936.129 15.9273 935.993 15.5213 935.993 15.036C935.993 14.7 936.077 14.3827 936.245 14.084C936.423 13.7853 936.679 13.5193 937.015 13.286C937.351 13.0527 937.762 12.852 938.247 12.684L938.961 13.664C938.532 13.7947 938.219 13.9627 938.023 14.168C937.837 14.3733 937.743 14.5973 937.743 14.84C937.743 15.0453 937.813 15.218 937.953 15.358C938.093 15.498 938.28 15.6007 938.513 15.666C938.756 15.7407 939.027 15.778 939.325 15.778C939.615 15.778 939.867 15.7407 940.081 15.666C940.296 15.6007 940.464 15.498 940.585 15.358C940.707 15.218 940.767 15.0547 940.767 14.868C940.767 14.616 940.683 14.4153 940.515 14.266C940.347 14.1167 940.002 14.0233 939.479 13.986C939.013 13.9487 938.593 13.8973 938.219 13.832C937.855 13.7573 937.533 13.6733 937.253 13.58C936.973 13.4773 936.731 13.3653 936.525 13.244C936.329 13.1227 936.175 13.0013 936.063 12.88V12.558L937.575 10.92L938.961 11.354L937.155 13.146L937.729 12.166C937.832 12.222 937.93 12.278 938.023 12.334C938.126 12.3807 938.252 12.4273 938.401 12.474C938.551 12.5113 938.742 12.5487 938.975 12.586C939.218 12.614 939.521 12.6467 939.885 12.684C940.501 12.74 941.005 12.8567 941.397 13.034C941.789 13.202 942.079 13.4353 942.265 13.734C942.461 14.0327 942.559 14.3967 942.559 14.826C942.559 15.246 942.443 15.638 942.209 16.002C941.985 16.3753 941.635 16.674 941.159 16.898C940.683 17.1313 940.077 17.248 939.339 17.248ZM939.353 11.928C938.765 11.928 938.257 11.816 937.827 11.592C937.398 11.3587 937.067 11.0507 936.833 10.668C936.609 10.276 936.497 9.83733 936.497 9.352C936.497 8.876 936.609 8.44667 936.833 8.064C937.067 7.672 937.398 7.35933 937.827 7.126C938.257 6.89267 938.765 6.776 939.353 6.776C939.951 6.776 940.459 6.89267 940.879 7.126C941.309 7.35933 941.635 7.672 941.859 8.064C942.083 8.44667 942.195 8.876 942.195 9.352C942.195 9.83733 942.083 10.276 941.859 10.668C941.635 11.0507 941.309 11.3587 940.879 11.592C940.459 11.816 939.951 11.928 939.353 11.928ZM939.353 10.444C939.699 10.444 939.979 10.3553 940.193 10.178C940.417 9.99133 940.529 9.72067 940.529 9.366C940.529 9.01133 940.417 8.74533 940.193 8.568C939.979 8.38133 939.699 8.288 939.353 8.288C939.008 8.288 938.723 8.38133 938.499 8.568C938.275 8.74533 938.163 9.01133 938.163 9.366C938.163 9.72067 938.275 9.99133 938.499 10.178C938.723 10.3553 939.008 10.444 939.353 10.444ZM940.515 8.316L940.207 6.944H943.119V8.092L940.515 8.316ZM947.964 14V4.2H951.674C952.467 4.2 953.12 4.33533 953.634 4.606C954.156 4.87667 954.544 5.24067 954.796 5.698C955.057 6.146 955.188 6.65 955.188 7.21C955.188 7.73267 955.062 8.22267 954.81 8.68C954.567 9.13733 954.184 9.506 953.662 9.786C953.139 10.0567 952.472 10.192 951.66 10.192H949.924V14H947.964ZM953.032 14L951.03 9.702H953.158L955.272 14H953.032ZM949.924 8.764H951.562C952.112 8.764 952.518 8.62867 952.78 8.358C953.05 8.08733 953.186 7.728 953.186 7.28C953.186 6.84133 953.055 6.49133 952.794 6.23C952.532 5.96867 952.117 5.838 951.548 5.838H949.924V8.764ZM956.851 14V6.944H958.811V14H956.851ZM957.831 6.034C957.476 6.034 957.187 5.93133 956.963 5.726C956.739 5.51133 956.627 5.25 956.627 4.942C956.627 4.62467 956.739 4.36333 956.963 4.158C957.187 3.95267 957.476 3.85 957.831 3.85C958.185 3.85 958.475 3.95267 958.699 4.158C958.923 4.36333 959.035 4.62467 959.035 4.942C959.035 5.25 958.923 5.51133 958.699 5.726C958.475 5.93133 958.185 6.034 957.831 6.034ZM963.744 17.248C963.072 17.248 962.484 17.164 961.98 16.996C961.476 16.8373 961.084 16.59 960.804 16.254C960.533 15.9273 960.398 15.5213 960.398 15.036C960.398 14.7 960.482 14.3827 960.65 14.084C960.827 13.7853 961.084 13.5193 961.42 13.286C961.756 13.0527 962.166 12.852 962.652 12.684L963.366 13.664C962.936 13.7947 962.624 13.9627 962.428 14.168C962.241 14.3733 962.148 14.5973 962.148 14.84C962.148 15.0453 962.218 15.218 962.358 15.358C962.498 15.498 962.684 15.6007 962.918 15.666C963.16 15.7407 963.431 15.778 963.73 15.778C964.019 15.778 964.271 15.7407 964.486 15.666C964.7 15.6007 964.868 15.498 964.99 15.358C965.111 15.218 965.172 15.0547 965.172 14.868C965.172 14.616 965.088 14.4153 964.92 14.266C964.752 14.1167 964.406 14.0233 963.884 13.986C963.417 13.9487 962.997 13.8973 962.624 13.832C962.26 13.7573 961.938 13.6733 961.658 13.58C961.378 13.4773 961.135 13.3653 960.93 13.244C960.734 13.1227 960.58 13.0013 960.468 12.88V12.558L961.98 10.92L963.366 11.354L961.56 13.146L962.134 12.166C962.236 12.222 962.334 12.278 962.428 12.334C962.53 12.3807 962.656 12.4273 962.806 12.474C962.955 12.5113 963.146 12.5487 963.38 12.586C963.622 12.614 963.926 12.6467 964.29 12.684C964.906 12.74 965.41 12.8567 965.802 13.034C966.194 13.202 966.483 13.4353 966.67 13.734C966.866 14.0327 966.964 14.3967 966.964 14.826C966.964 15.246 966.847 15.638 966.614 16.002C966.39 16.3753 966.04 16.674 965.564 16.898C965.088 17.1313 964.481 17.248 963.744 17.248ZM963.758 11.928C963.17 11.928 962.661 11.816 962.232 11.592C961.802 11.3587 961.471 11.0507 961.238 10.668C961.014 10.276 960.902 9.83733 960.902 9.352C960.902 8.876 961.014 8.44667 961.238 8.064C961.471 7.672 961.802 7.35933 962.232 7.126C962.661 6.89267 963.17 6.776 963.758 6.776C964.355 6.776 964.864 6.89267 965.284 7.126C965.713 7.35933 966.04 7.672 966.264 8.064C966.488 8.44667 966.6 8.876 966.6 9.352C966.6 9.83733 966.488 10.276 966.264 10.668C966.04 11.0507 965.713 11.3587 965.284 11.592C964.864 11.816 964.355 11.928 963.758 11.928ZM963.758 10.444C964.103 10.444 964.383 10.3553 964.598 10.178C964.822 9.99133 964.934 9.72067 964.934 9.366C964.934 9.01133 964.822 8.74533 964.598 8.568C964.383 8.38133 964.103 8.288 963.758 8.288C963.412 8.288 963.128 8.38133 962.904 8.568C962.68 8.74533 962.568 9.01133 962.568 9.366C962.568 9.72067 962.68 9.99133 962.904 10.178C963.128 10.3553 963.412 10.444 963.758 10.444ZM964.92 8.316L964.612 6.944H967.524V8.092L964.92 8.316ZM969.086 14V3.92H971.046V7.98C971.27 7.616 971.573 7.32667 971.956 7.112C972.348 6.888 972.801 6.776 973.314 6.776C973.902 6.776 974.397 6.902 974.798 7.154C975.199 7.39667 975.503 7.756 975.708 8.232C975.923 8.69867 976.03 9.27733 976.03 9.968V14H974.084V10.15C974.084 9.59933 973.967 9.17467 973.734 8.876C973.501 8.57733 973.141 8.428 972.656 8.428C972.348 8.428 972.068 8.50267 971.816 8.652C971.573 8.80133 971.382 9.01133 971.242 9.282C971.111 9.55267 971.046 9.87933 971.046 10.262V14H969.086ZM981.015 14C980.511 14 980.068 13.9207 979.685 13.762C979.312 13.6033 979.022 13.342 978.817 12.978C978.612 12.614 978.509 12.1193 978.509 11.494V8.582H977.291V6.944H978.509L978.719 4.998H980.469V6.944H982.303V8.582H980.469V11.508C980.469 11.816 980.534 12.0307 980.665 12.152C980.805 12.2733 981.038 12.334 981.365 12.334H982.289V14H981.015Z" fill="#4B5563"/>
</svg>
