<svg width="1050" height="198" viewBox="0 0 1050 198" fill="none" xmlns="http://www.w3.org/2000/svg">
<path d="M789 48V22C789 19.7909 790.791 18 793 18H986C988.209 18 990 19.7909 990 22V48" stroke="#E5E7EB"/>
<path d="M58 48V22C58 19.7909 59.7909 18 62 18H239C241.209 18 243 19.7909 243 22V48" stroke="#E5E7EB"/>
<rect x="71.5" y="0.5" width="159" height="35" rx="7.5" fill="white"/>
<rect x="71.5" y="0.5" width="159" height="35" rx="7.5" stroke="#E5E7EB"/>
<path d="M82.2661 22V13.6H85.7101C86.2941 13.6 86.7861 13.692 87.1861 13.876C87.5861 14.06 87.8861 14.316 88.0861 14.644C88.2941 14.964 88.3981 15.336 88.3981 15.76C88.3981 16.184 88.3061 16.54 88.1221 16.828C87.9381 17.116 87.6941 17.34 87.3901 17.5C87.0941 17.652 86.7661 17.74 86.4061 17.764L86.5981 17.632C86.9821 17.648 87.3221 17.752 87.6181 17.944C87.9221 18.128 88.1581 18.376 88.3261 18.688C88.5021 19 88.5901 19.34 88.5901 19.708C88.5901 20.156 88.4821 20.552 88.2661 20.896C88.0501 21.24 87.7381 21.512 87.3301 21.712C86.9221 21.904 86.4221 22 85.8301 22H82.2661ZM83.8861 20.68H85.5661C86.0061 20.68 86.3461 20.58 86.5861 20.38C86.8261 20.18 86.9461 19.892 86.9461 19.516C86.9461 19.14 86.8221 18.848 86.5741 18.64C86.3261 18.424 85.9821 18.316 85.5421 18.316H83.8861V20.68ZM83.8861 17.104H85.4461C85.8701 17.104 86.1941 17.008 86.4181 16.816C86.6421 16.624 86.7541 16.352 86.7541 16C86.7541 15.656 86.6421 15.388 86.4181 15.196C86.1941 14.996 85.8661 14.896 85.4341 14.896H83.8861V17.104ZM93.1816 22.144C92.5576 22.144 91.9936 22.02 91.4896 21.772C90.9936 21.524 90.5936 21.152 90.2896 20.656C89.9936 20.16 89.8456 19.528 89.8456 18.76V13.6H91.4656V18.772C91.4656 19.188 91.5336 19.54 91.6696 19.828C91.8136 20.108 92.0136 20.316 92.2696 20.452C92.5336 20.588 92.8456 20.656 93.2056 20.656C93.5736 20.656 93.8856 20.588 94.1416 20.452C94.4056 20.316 94.6056 20.108 94.7416 19.828C94.8776 19.54 94.9456 19.188 94.9456 18.772V13.6H96.5656V18.76C96.5656 19.528 96.4136 20.16 96.1096 20.656C95.8056 21.152 95.3936 21.524 94.8736 21.772C94.3616 22.02 93.7976 22.144 93.1816 22.144ZM98.1567 22V13.6H99.7767V22H98.1567ZM101.485 22V13.6H103.105V20.74H106.789V22H101.485ZM108.223 22V13.6H110.911C111.887 13.6 112.691 13.776 113.323 14.128C113.955 14.472 114.423 14.96 114.727 15.592C115.039 16.216 115.195 16.952 115.195 17.8C115.195 18.648 115.039 19.388 114.727 20.02C114.423 20.644 113.955 21.132 113.323 21.484C112.691 21.828 111.887 22 110.911 22H108.223ZM109.843 20.608H110.827C111.515 20.608 112.055 20.496 112.447 20.272C112.839 20.048 113.119 19.728 113.287 19.312C113.455 18.888 113.539 18.384 113.539 17.8C113.539 17.208 113.455 16.704 113.287 16.288C113.119 15.864 112.839 15.54 112.447 15.316C112.055 15.092 111.515 14.98 110.827 14.98H109.843V20.608ZM121.405 22V14.908H118.945V13.6H125.461V14.908H123.013V22H121.405ZM131.949 22V13.6H133.569V22H131.949ZM126.657 22V13.6H128.277V22H126.657ZM128.061 18.364V17.056H132.225V18.364H128.061ZM135.27 22V13.6H140.79V14.908H136.89V17.104H140.43V18.364H136.89V20.692H140.79V22H135.27ZM145.149 22V13.6H148.293C148.965 13.6 149.521 13.716 149.961 13.948C150.401 14.18 150.729 14.492 150.945 14.884C151.169 15.268 151.281 15.696 151.281 16.168C151.281 16.616 151.173 17.036 150.957 17.428C150.749 17.812 150.421 18.124 149.973 18.364C149.533 18.596 148.965 18.712 148.269 18.712H146.769V22H145.149ZM149.505 22L147.777 18.304H149.529L151.353 22H149.505ZM146.769 17.536H148.185C148.681 17.536 149.045 17.416 149.277 17.176C149.509 16.936 149.625 16.62 149.625 16.228C149.625 15.836 149.509 15.528 149.277 15.304C149.045 15.072 148.681 14.956 148.185 14.956H146.769V17.536ZM152.754 22V13.6H154.374V22H152.754ZM159.754 22.144C158.962 22.144 158.266 21.968 157.666 21.616C157.074 21.256 156.614 20.756 156.286 20.116C155.958 19.468 155.794 18.716 155.794 17.86C155.794 16.996 155.962 16.236 156.298 15.58C156.634 14.916 157.118 14.396 157.75 14.02C158.39 13.644 159.146 13.456 160.018 13.456C161.01 13.456 161.83 13.692 162.478 14.164C163.134 14.636 163.554 15.292 163.738 16.132H161.938C161.818 15.764 161.594 15.476 161.266 15.268C160.938 15.052 160.518 14.944 160.006 14.944C159.462 14.944 158.998 15.064 158.614 15.304C158.23 15.544 157.938 15.88 157.738 16.312C157.538 16.744 157.438 17.26 157.438 17.86C157.438 18.468 157.538 18.984 157.738 19.408C157.938 19.832 158.222 20.156 158.59 20.38C158.966 20.596 159.406 20.704 159.91 20.704C160.646 20.704 161.202 20.508 161.578 20.116C161.962 19.716 162.19 19.2 162.262 18.568H160.198V17.356H163.894V22H162.406L162.274 20.932C162.098 21.196 161.89 21.42 161.65 21.604C161.418 21.78 161.146 21.912 160.834 22C160.522 22.096 160.162 22.144 159.754 22.144ZM170.749 22V13.6H172.369V22H170.749ZM165.457 22V13.6H167.077V22H165.457ZM166.861 18.364V17.056H171.025V18.364H166.861ZM176.015 22V14.908H173.555V13.6H180.071V14.908H177.623V22H176.015ZM186.058 22V14.908H183.598V13.6H190.114V14.908H187.666V22H186.058ZM196.601 22V13.6H198.221V22H196.601ZM191.309 22V13.6H192.929V22H191.309ZM192.713 18.364V17.056H196.877V18.364H192.713ZM199.922 22V13.6H201.542V22H199.922ZM203.25 22V13.6H204.87L208.734 19.396V13.6H210.354V22H208.734L204.87 16.216V22H203.25ZM215.735 22.144C214.943 22.144 214.247 21.968 213.647 21.616C213.055 21.256 212.595 20.756 212.267 20.116C211.939 19.468 211.775 18.716 211.775 17.86C211.775 16.996 211.943 16.236 212.279 15.58C212.615 14.916 213.099 14.396 213.731 14.02C214.371 13.644 215.127 13.456 215.999 13.456C216.991 13.456 217.811 13.692 218.459 14.164C219.115 14.636 219.535 15.292 219.719 16.132H217.919C217.799 15.764 217.575 15.476 217.247 15.268C216.919 15.052 216.499 14.944 215.987 14.944C215.443 14.944 214.979 15.064 214.595 15.304C214.211 15.544 213.919 15.88 213.719 16.312C213.519 16.744 213.419 17.26 213.419 17.86C213.419 18.468 213.519 18.984 213.719 19.408C213.919 19.832 214.203 20.156 214.571 20.38C214.947 20.596 215.387 20.704 215.891 20.704C216.627 20.704 217.183 20.508 217.559 20.116C217.943 19.716 218.171 19.2 218.243 18.568H216.179V17.356H219.875V22H218.387L218.255 20.932C218.079 21.196 217.871 21.42 217.631 21.604C217.399 21.78 217.127 21.912 216.815 22C216.503 22.096 216.143 22.144 215.735 22.144Z" fill="#4B5563"/>
<path d="M10 103H999" stroke="#E0F2FE" stroke-width="10"/>
<rect x="1" y="49" width="118" height="118" rx="59" fill="#FEF08A"/>
<rect x="1" y="49" width="118" height="118" rx="59" stroke="#713F12" stroke-width="2"/>
<path d="M44.3951 105.12C43.8951 105.12 43.4451 105.033 43.0451 104.86C42.6451 104.687 42.3285 104.433 42.0951 104.1C41.8685 103.767 41.7485 103.363 41.7351 102.89H43.2151C43.2285 103.09 43.2818 103.27 43.3751 103.43C43.4751 103.59 43.6085 103.717 43.7751 103.81C43.9485 103.903 44.1551 103.95 44.3951 103.95C44.5951 103.95 44.7685 103.917 44.9151 103.85C45.0685 103.783 45.1851 103.69 45.2651 103.57C45.3518 103.45 45.3951 103.303 45.3951 103.13C45.3951 102.963 45.3518 102.817 45.2651 102.69C45.1785 102.557 45.0551 102.443 44.8951 102.35C44.7351 102.25 44.5485 102.16 44.3351 102.08C44.1285 102 43.9018 101.92 43.6551 101.84C43.0685 101.66 42.6251 101.417 42.3251 101.11C42.0318 100.803 41.8851 100.4 41.8851 99.9C41.8851 99.4733 41.9851 99.11 42.1851 98.81C42.3918 98.51 42.6751 98.28 43.0351 98.12C43.4018 97.96 43.8151 97.88 44.2751 97.88C44.7551 97.88 45.1751 97.9633 45.5351 98.13C45.8951 98.29 46.1785 98.5233 46.3851 98.83C46.5985 99.1367 46.7118 99.5 46.7251 99.92H45.2151C45.2151 99.7667 45.1718 99.6267 45.0851 99.5C45.0051 99.3667 44.8951 99.26 44.7551 99.18C44.6151 99.1 44.4485 99.06 44.2551 99.06C44.0885 99.0533 43.9351 99.08 43.7951 99.14C43.6618 99.1933 43.5551 99.2767 43.4751 99.39C43.3951 99.4967 43.3551 99.6333 43.3551 99.8C43.3551 99.9667 43.3951 100.107 43.4751 100.22C43.5551 100.327 43.6685 100.42 43.8151 100.5C43.9618 100.58 44.1318 100.657 44.3251 100.73C44.5185 100.797 44.7285 100.867 44.9551 100.94C45.3085 101.06 45.6318 101.203 45.9251 101.37C46.2185 101.53 46.4518 101.74 46.6251 102C46.7985 102.26 46.8851 102.603 46.8851 103.03C46.8851 103.403 46.7885 103.75 46.5951 104.07C46.4085 104.383 46.1285 104.637 45.7551 104.83C45.3885 105.023 44.9351 105.12 44.3951 105.12ZM48.1275 105V98H50.7475C51.3208 98 51.7975 98.1 52.1775 98.3C52.5575 98.4933 52.8408 98.76 53.0275 99.1C53.2141 99.4333 53.3075 99.8133 53.3075 100.24C53.3075 100.633 53.2175 101 53.0375 101.34C52.8575 101.68 52.5775 101.953 52.1975 102.16C51.8241 102.367 51.3408 102.47 50.7475 102.47H49.5275V105H48.1275ZM49.5275 101.34H50.6575C51.0975 101.34 51.4108 101.24 51.5975 101.04C51.7841 100.84 51.8775 100.573 51.8775 100.24C51.8775 99.9 51.7841 99.6333 51.5975 99.44C51.4108 99.24 51.0975 99.14 50.6575 99.14H49.5275V101.34ZM54.3775 105V98H57.0275C57.5875 98 58.0541 98.0967 58.4275 98.29C58.8008 98.4833 59.0775 98.7433 59.2575 99.07C59.4375 99.39 59.5275 99.75 59.5275 100.15C59.5275 100.523 59.4375 100.873 59.2575 101.2C59.0841 101.527 58.8108 101.79 58.4375 101.99C58.0708 102.183 57.5941 102.28 57.0075 102.28H55.7775V105H54.3775ZM57.9975 105L56.5675 101.93H58.0775L59.5875 105H57.9975ZM55.7775 101.26H56.9375C57.3375 101.26 57.6308 101.163 57.8175 100.97C58.0041 100.777 58.0975 100.52 58.0975 100.2C58.0975 99.8867 58.0041 99.6367 57.8175 99.45C57.6308 99.2633 57.3375 99.17 56.9375 99.17H55.7775V101.26ZM60.7935 105V98H62.1935V105H60.7935ZM63.645 105V98H65.045L68.215 102.76V98H69.615V105H68.215L65.045 100.25V105H63.645ZM72.6669 105V99.13H70.6269V98H76.0969V99.13H74.0569V105H72.6669ZM34.69 118V111H37.31C37.8833 111 38.36 111.1 38.74 111.3C39.12 111.493 39.4033 111.76 39.59 112.1C39.7766 112.433 39.87 112.813 39.87 113.24C39.87 113.633 39.78 114 39.6 114.34C39.42 114.68 39.14 114.953 38.76 115.16C38.3866 115.367 37.9033 115.47 37.31 115.47H36.09V118H34.69ZM36.09 114.34H37.22C37.66 114.34 37.9733 114.24 38.16 114.04C38.3466 113.84 38.44 113.573 38.44 113.24C38.44 112.9 38.3466 112.633 38.16 112.44C37.9733 112.24 37.66 112.14 37.22 112.14H36.09V114.34ZM40.94 118V111H42.34V116.91H45.39V118H40.94ZM46.1333 118L48.6933 111H50.2833L52.8333 118H51.3533L49.4833 112.59L47.6033 118H46.1333ZM47.2633 116.43L47.6333 115.34H51.2333L51.5933 116.43H47.2633ZM53.7915 118V111H55.1915L58.3615 115.76V111H59.7615V118H58.3615L55.1915 113.25V118H53.7915ZM61.2134 118V111H62.6134L65.7834 115.76V111H67.1834V118H65.7834L62.6134 113.25V118H61.2134ZM68.6353 118V111H70.0353V118H68.6353ZM71.4868 118V111H72.8868L76.0568 115.76V111H77.4568V118H76.0568L72.8868 113.25V118H71.4868ZM81.9587 118.12C81.2987 118.12 80.7187 117.973 80.2187 117.68C79.7254 117.38 79.342 116.963 79.0687 116.43C78.7954 115.89 78.6587 115.263 78.6587 114.55C78.6587 113.83 78.7987 113.197 79.0787 112.65C79.3654 112.097 79.772 111.663 80.2987 111.35C80.8254 111.037 81.4554 110.88 82.1887 110.88C83.022 110.88 83.7087 111.08 84.2487 111.48C84.7954 111.873 85.1487 112.42 85.3087 113.12H83.7487C83.6487 112.82 83.4654 112.587 83.1987 112.42C82.9387 112.253 82.602 112.17 82.1887 112.17C81.7354 112.17 81.352 112.267 81.0387 112.46C80.7254 112.653 80.4854 112.93 80.3187 113.29C80.1587 113.643 80.0787 114.067 80.0787 114.56C80.0787 115.053 80.1587 115.473 80.3187 115.82C80.4854 116.167 80.7187 116.43 81.0187 116.61C81.3254 116.79 81.6887 116.88 82.1087 116.88C82.7087 116.88 83.162 116.72 83.4687 116.4C83.782 116.073 83.9687 115.66 84.0287 115.16H82.3387V114.12H85.4387V118H84.1487L84.0387 117.14C83.892 117.347 83.722 117.523 83.5287 117.67C83.3354 117.817 83.1087 117.927 82.8487 118C82.5954 118.08 82.2987 118.12 81.9587 118.12Z" fill="#713F12"/>
<rect x="181" y="49" width="118" height="118" rx="59" fill="#16A34A"/>
<rect x="181" y="49" width="118" height="118" rx="59" stroke="#166534" stroke-width="2"/>
<path d="M224.395 105.12C223.895 105.12 223.445 105.033 223.045 104.86C222.645 104.687 222.328 104.433 222.095 104.1C221.868 103.767 221.748 103.363 221.735 102.89H223.215C223.228 103.09 223.282 103.27 223.375 103.43C223.475 103.59 223.608 103.717 223.775 103.81C223.948 103.903 224.155 103.95 224.395 103.95C224.595 103.95 224.768 103.917 224.915 103.85C225.068 103.783 225.185 103.69 225.265 103.57C225.352 103.45 225.395 103.303 225.395 103.13C225.395 102.963 225.352 102.817 225.265 102.69C225.178 102.557 225.055 102.443 224.895 102.35C224.735 102.25 224.548 102.16 224.335 102.08C224.128 102 223.902 101.92 223.655 101.84C223.068 101.66 222.625 101.417 222.325 101.11C222.032 100.803 221.885 100.4 221.885 99.9C221.885 99.4733 221.985 99.11 222.185 98.81C222.392 98.51 222.675 98.28 223.035 98.12C223.402 97.96 223.815 97.88 224.275 97.88C224.755 97.88 225.175 97.9633 225.535 98.13C225.895 98.29 226.178 98.5233 226.385 98.83C226.598 99.1367 226.712 99.5 226.725 99.92H225.215C225.215 99.7667 225.172 99.6267 225.085 99.5C225.005 99.3667 224.895 99.26 224.755 99.18C224.615 99.1 224.448 99.06 224.255 99.06C224.088 99.0533 223.935 99.08 223.795 99.14C223.662 99.1933 223.555 99.2767 223.475 99.39C223.395 99.4967 223.355 99.6333 223.355 99.8C223.355 99.9667 223.395 100.107 223.475 100.22C223.555 100.327 223.668 100.42 223.815 100.5C223.962 100.58 224.132 100.657 224.325 100.73C224.518 100.797 224.728 100.867 224.955 100.94C225.308 101.06 225.632 101.203 225.925 101.37C226.218 101.53 226.452 101.74 226.625 102C226.798 102.26 226.885 102.603 226.885 103.03C226.885 103.403 226.788 103.75 226.595 104.07C226.408 104.383 226.128 104.637 225.755 104.83C225.388 105.023 224.935 105.12 224.395 105.12ZM228.127 105V98H230.747C231.321 98 231.797 98.1 232.177 98.3C232.557 98.4933 232.841 98.76 233.027 99.1C233.214 99.4333 233.307 99.8133 233.307 100.24C233.307 100.633 233.217 101 233.037 101.34C232.857 101.68 232.577 101.953 232.197 102.16C231.824 102.367 231.341 102.47 230.747 102.47H229.527V105H228.127ZM229.527 101.34H230.657C231.097 101.34 231.411 101.24 231.597 101.04C231.784 100.84 231.877 100.573 231.877 100.24C231.877 99.9 231.784 99.6333 231.597 99.44C231.411 99.24 231.097 99.14 230.657 99.14H229.527V101.34ZM234.377 105V98H237.027C237.587 98 238.054 98.0967 238.427 98.29C238.801 98.4833 239.077 98.7433 239.257 99.07C239.437 99.39 239.527 99.75 239.527 100.15C239.527 100.523 239.437 100.873 239.257 101.2C239.084 101.527 238.811 101.79 238.437 101.99C238.071 102.183 237.594 102.28 237.007 102.28H235.777V105H234.377ZM237.997 105L236.567 101.93H238.077L239.587 105H237.997ZM235.777 101.26H236.937C237.337 101.26 237.631 101.163 237.817 100.97C238.004 100.777 238.097 100.52 238.097 100.2C238.097 99.8867 238.004 99.6367 237.817 99.45C237.631 99.2633 237.337 99.17 236.937 99.17H235.777V101.26ZM240.793 105V98H242.193V105H240.793ZM243.645 105V98H245.045L248.215 102.76V98H249.615V105H248.215L245.045 100.25V105H243.645ZM252.667 105V99.13H250.627V98H256.097V99.13H254.057V105H252.667ZM216.819 118V111H219.729C220.209 111 220.616 111.077 220.949 111.23C221.289 111.383 221.546 111.597 221.719 111.87C221.892 112.137 221.979 112.45 221.979 112.81C221.979 113.157 221.902 113.45 221.749 113.69C221.596 113.93 221.392 114.117 221.139 114.25C220.886 114.377 220.612 114.45 220.319 114.47L220.479 114.36C220.799 114.373 221.082 114.46 221.329 114.62C221.576 114.78 221.772 114.99 221.919 115.25C222.066 115.503 222.139 115.783 222.139 116.09C222.139 116.463 222.049 116.797 221.869 117.09C221.689 117.377 221.426 117.6 221.079 117.76C220.739 117.92 220.322 118 219.829 118H216.819ZM218.219 116.86H219.599C219.952 116.86 220.226 116.78 220.419 116.62C220.619 116.453 220.719 116.22 220.719 115.92C220.719 115.62 220.616 115.383 220.409 115.21C220.209 115.037 219.932 114.95 219.579 114.95H218.219V116.86ZM218.219 113.91H219.489C219.836 113.91 220.099 113.833 220.279 113.68C220.459 113.52 220.549 113.297 220.549 113.01C220.549 112.73 220.459 112.513 220.279 112.36C220.099 112.2 219.832 112.12 219.479 112.12H218.219V113.91ZM222.764 118L225.324 111H226.914L229.464 118H227.984L226.114 112.59L224.234 118H222.764ZM223.894 116.43L224.264 115.34H227.864L228.224 116.43H223.894ZM233.082 118.12C232.402 118.12 231.812 117.97 231.312 117.67C230.819 117.363 230.439 116.94 230.172 116.4C229.905 115.853 229.772 115.223 229.772 114.51C229.772 113.797 229.905 113.167 230.172 112.62C230.439 112.073 230.819 111.647 231.312 111.34C231.812 111.033 232.402 110.88 233.082 110.88C233.929 110.88 234.622 111.093 235.162 111.52C235.702 111.947 236.039 112.547 236.172 113.32H234.652C234.565 112.947 234.385 112.66 234.112 112.46C233.845 112.253 233.499 112.15 233.072 112.15C232.679 112.15 232.342 112.247 232.062 112.44C231.782 112.627 231.565 112.897 231.412 113.25C231.265 113.603 231.192 114.023 231.192 114.51C231.192 114.997 231.265 115.417 231.412 115.77C231.565 116.117 231.782 116.387 232.062 116.58C232.342 116.767 232.679 116.86 233.072 116.86C233.499 116.86 233.845 116.767 234.112 116.58C234.385 116.387 234.565 116.12 234.652 115.78H236.172C236.039 116.507 235.702 117.08 235.162 117.5C234.622 117.913 233.929 118.12 233.082 118.12ZM237.376 118V111H238.776V113.73L241.266 111H242.986L240.416 113.77L243.066 118H241.356L239.416 114.85L238.776 115.55V118H237.376ZM244.065 118V111H245.465V116.91H248.515V118H244.065ZM252.233 118.12C251.573 118.12 250.99 117.967 250.483 117.66C249.983 117.353 249.59 116.93 249.303 116.39C249.023 115.843 248.883 115.213 248.883 114.5C248.883 113.787 249.023 113.16 249.303 112.62C249.59 112.073 249.983 111.647 250.483 111.34C250.99 111.033 251.573 110.88 252.233 110.88C252.893 110.88 253.473 111.033 253.973 111.34C254.48 111.647 254.873 112.073 255.153 112.62C255.433 113.16 255.573 113.787 255.573 114.5C255.573 115.213 255.433 115.843 255.153 116.39C254.873 116.93 254.48 117.353 253.973 117.66C253.473 117.967 252.893 118.12 252.233 118.12ZM252.233 116.86C252.62 116.86 252.957 116.763 253.243 116.57C253.53 116.377 253.75 116.107 253.903 115.76C254.063 115.407 254.143 114.987 254.143 114.5C254.143 114.013 254.063 113.597 253.903 113.25C253.75 112.897 253.53 112.623 253.243 112.43C252.957 112.237 252.62 112.14 252.233 112.14C251.84 112.14 251.5 112.237 251.213 112.43C250.927 112.623 250.703 112.897 250.543 113.25C250.383 113.597 250.303 114.013 250.303 114.5C250.303 114.987 250.383 115.407 250.543 115.76C250.703 116.107 250.927 116.377 251.213 116.57C251.5 116.763 251.84 116.86 252.233 116.86ZM259.83 118.12C259.17 118.12 258.59 117.973 258.09 117.68C257.596 117.38 257.213 116.963 256.94 116.43C256.666 115.89 256.53 115.263 256.53 114.55C256.53 113.83 256.67 113.197 256.95 112.65C257.236 112.097 257.643 111.663 258.17 111.35C258.696 111.037 259.326 110.88 260.06 110.88C260.893 110.88 261.58 111.08 262.12 111.48C262.666 111.873 263.02 112.42 263.18 113.12H261.62C261.52 112.82 261.336 112.587 261.07 112.42C260.81 112.253 260.473 112.17 260.06 112.17C259.606 112.17 259.223 112.267 258.91 112.46C258.596 112.653 258.356 112.93 258.19 113.29C258.03 113.643 257.95 114.067 257.95 114.56C257.95 115.053 258.03 115.473 258.19 115.82C258.356 116.167 258.59 116.43 258.89 116.61C259.196 116.79 259.56 116.88 259.98 116.88C260.58 116.88 261.033 116.72 261.34 116.4C261.653 116.073 261.84 115.66 261.9 115.16H260.21V114.12H263.31V118H262.02L261.91 117.14C261.763 117.347 261.593 117.523 261.4 117.67C261.206 117.817 260.98 117.927 260.72 118C260.466 118.08 260.17 118.12 259.83 118.12Z" fill="#F0F9FF"/>
<path d="M515 193C468.056 193 430 154.944 430 108C430 61.0558 468.056 23 515 23C561.944 23 600 61.0558 600 108C600 154.944 561.944 193 515 193Z" fill="#0EA5E9"/>
<path d="M515 193C468.056 193 430 154.944 430 108C430 61.0558 468.056 23 515 23C561.944 23 600 61.0558 600 108C600 154.944 561.944 193 515 193Z" stroke="#01679C" stroke-width="10"/>
<path d="M492.242 113.692C491.431 113.692 490.706 113.553 490.066 113.276C489.426 112.999 488.919 112.593 488.546 112.06C488.183 111.527 487.991 110.881 487.97 110.124H490.354C490.364 110.444 490.444 110.732 490.594 110.988C490.754 111.244 490.972 111.447 491.25 111.596C491.527 111.745 491.852 111.82 492.226 111.82C492.546 111.82 492.823 111.767 493.058 111.66C493.303 111.553 493.495 111.404 493.634 111.212C493.772 111.02 493.842 110.785 493.842 110.508C493.842 110.199 493.762 109.943 493.602 109.74C493.452 109.527 493.239 109.345 492.962 109.196C492.695 109.047 492.386 108.913 492.034 108.796C491.692 108.668 491.324 108.54 490.93 108.412C490.055 108.124 489.383 107.74 488.914 107.26C488.444 106.78 488.21 106.14 488.21 105.34C488.21 104.657 488.375 104.076 488.706 103.596C489.036 103.116 489.49 102.748 490.066 102.492C490.642 102.236 491.298 102.108 492.034 102.108C492.802 102.108 493.474 102.241 494.05 102.508C494.626 102.764 495.079 103.137 495.41 103.628C495.751 104.119 495.932 104.7 495.954 105.372H493.554C493.543 105.127 493.474 104.903 493.346 104.7C493.218 104.487 493.036 104.316 492.802 104.188C492.578 104.06 492.316 103.996 492.018 103.996C491.751 103.985 491.506 104.028 491.282 104.124C491.068 104.209 490.898 104.343 490.77 104.524C490.642 104.695 490.578 104.913 490.578 105.18C490.578 105.447 490.642 105.671 490.77 105.852C490.898 106.023 491.074 106.172 491.298 106.3C491.532 106.428 491.804 106.551 492.114 106.668C492.423 106.775 492.759 106.887 493.122 107.004C493.687 107.196 494.204 107.425 494.674 107.692C495.143 107.948 495.516 108.284 495.794 108.7C496.082 109.116 496.226 109.665 496.226 110.348C496.226 110.945 496.071 111.5 495.762 112.012C495.452 112.513 495.004 112.919 494.418 113.228C493.831 113.537 493.106 113.692 492.242 113.692ZM498.041 113.5V102.3H502.281C503.198 102.3 503.956 102.455 504.553 102.764C505.15 103.073 505.593 103.495 505.881 104.028C506.18 104.551 506.329 105.148 506.329 105.82C506.329 106.439 506.185 107.015 505.897 107.548C505.62 108.071 505.182 108.497 504.585 108.828C503.988 109.148 503.22 109.308 502.281 109.308H500.281V113.5H498.041ZM500.281 107.5H502.137C502.82 107.5 503.305 107.351 503.593 107.052C503.892 106.743 504.041 106.332 504.041 105.82C504.041 105.287 503.892 104.871 503.593 104.572C503.305 104.273 502.82 104.124 502.137 104.124H500.281V107.5ZM507.916 113.5V102.3H512.156C513.063 102.3 513.809 102.455 514.396 102.764C514.993 103.073 515.436 103.489 515.724 104.012C516.012 104.524 516.156 105.1 516.156 105.74C516.156 106.337 516.012 106.897 515.724 107.42C515.447 107.943 515.009 108.364 514.412 108.684C513.825 108.993 513.068 109.148 512.14 109.148H510.156V113.5H507.916ZM513.708 113.5L511.42 108.588H513.836L516.268 113.5H513.708ZM510.156 107.516H512.012C512.652 107.516 513.121 107.361 513.42 107.052C513.719 106.743 513.868 106.332 513.868 105.82C513.868 105.319 513.719 104.919 513.42 104.62C513.132 104.321 512.663 104.172 512.012 104.172H510.156V107.516ZM518.057 113.5V102.3H520.297V113.5H518.057ZM522.479 113.5V102.3H524.719L529.791 109.9V102.3H532.031V113.5H529.791L524.719 105.916V113.5H522.479ZM536.821 113.5V104.108H533.557V102.3H542.309V104.108H539.045V113.5H536.821Z" fill="#F0F9FF"/>
<rect x="731" y="49" width="118" height="118" rx="59" fill="#FFB800"/>
<rect x="731" y="49" width="118" height="118" rx="59" stroke="#654900" stroke-width="2"/>
<path d="M774.395 105.12C773.895 105.12 773.445 105.033 773.045 104.86C772.645 104.687 772.328 104.433 772.095 104.1C771.868 103.767 771.748 103.363 771.735 102.89H773.215C773.228 103.09 773.282 103.27 773.375 103.43C773.475 103.59 773.608 103.717 773.775 103.81C773.948 103.903 774.155 103.95 774.395 103.95C774.595 103.95 774.768 103.917 774.915 103.85C775.068 103.783 775.185 103.69 775.265 103.57C775.352 103.45 775.395 103.303 775.395 103.13C775.395 102.963 775.352 102.817 775.265 102.69C775.178 102.557 775.055 102.443 774.895 102.35C774.735 102.25 774.548 102.16 774.335 102.08C774.128 102 773.902 101.92 773.655 101.84C773.068 101.66 772.625 101.417 772.325 101.11C772.032 100.803 771.885 100.4 771.885 99.9C771.885 99.4733 771.985 99.11 772.185 98.81C772.392 98.51 772.675 98.28 773.035 98.12C773.402 97.96 773.815 97.88 774.275 97.88C774.755 97.88 775.175 97.9633 775.535 98.13C775.895 98.29 776.178 98.5233 776.385 98.83C776.598 99.1367 776.712 99.5 776.725 99.92H775.215C775.215 99.7667 775.172 99.6267 775.085 99.5C775.005 99.3667 774.895 99.26 774.755 99.18C774.615 99.1 774.448 99.06 774.255 99.06C774.088 99.0533 773.935 99.08 773.795 99.14C773.662 99.1933 773.555 99.2767 773.475 99.39C773.395 99.4967 773.355 99.6333 773.355 99.8C773.355 99.9667 773.395 100.107 773.475 100.22C773.555 100.327 773.668 100.42 773.815 100.5C773.962 100.58 774.132 100.657 774.325 100.73C774.518 100.797 774.728 100.867 774.955 100.94C775.308 101.06 775.632 101.203 775.925 101.37C776.218 101.53 776.452 101.74 776.625 102C776.798 102.26 776.885 102.603 776.885 103.03C776.885 103.403 776.788 103.75 776.595 104.07C776.408 104.383 776.128 104.637 775.755 104.83C775.388 105.023 774.935 105.12 774.395 105.12ZM778.127 105V98H780.747C781.321 98 781.797 98.1 782.177 98.3C782.557 98.4933 782.841 98.76 783.027 99.1C783.214 99.4333 783.307 99.8133 783.307 100.24C783.307 100.633 783.217 101 783.037 101.34C782.857 101.68 782.577 101.953 782.197 102.16C781.824 102.367 781.341 102.47 780.747 102.47H779.527V105H778.127ZM779.527 101.34H780.657C781.097 101.34 781.411 101.24 781.597 101.04C781.784 100.84 781.877 100.573 781.877 100.24C781.877 99.9 781.784 99.6333 781.597 99.44C781.411 99.24 781.097 99.14 780.657 99.14H779.527V101.34ZM784.377 105V98H787.027C787.587 98 788.054 98.0967 788.427 98.29C788.801 98.4833 789.077 98.7433 789.257 99.07C789.437 99.39 789.527 99.75 789.527 100.15C789.527 100.523 789.437 100.873 789.257 101.2C789.084 101.527 788.811 101.79 788.437 101.99C788.071 102.183 787.594 102.28 787.007 102.28H785.777V105H784.377ZM787.997 105L786.567 101.93H788.077L789.587 105H787.997ZM785.777 101.26H786.937C787.337 101.26 787.631 101.163 787.817 100.97C788.004 100.777 788.097 100.52 788.097 100.2C788.097 99.8867 788.004 99.6367 787.817 99.45C787.631 99.2633 787.337 99.17 786.937 99.17H785.777V101.26ZM790.793 105V98H792.193V105H790.793ZM793.645 105V98H795.045L798.215 102.76V98H799.615V105H798.215L795.045 100.25V105H793.645ZM802.667 105V99.13H800.627V98H806.097V99.13H804.057V105H802.667ZM771.477 118V111H774.127C774.687 111 775.154 111.097 775.527 111.29C775.9 111.483 776.177 111.743 776.357 112.07C776.537 112.39 776.627 112.75 776.627 113.15C776.627 113.523 776.537 113.873 776.357 114.2C776.184 114.527 775.91 114.79 775.537 114.99C775.17 115.183 774.694 115.28 774.107 115.28H772.877V118H771.477ZM775.097 118L773.667 114.93H775.177L776.687 118H775.097ZM772.877 114.26H774.037C774.437 114.26 774.73 114.163 774.917 113.97C775.104 113.777 775.197 113.52 775.197 113.2C775.197 112.887 775.104 112.637 774.917 112.45C774.73 112.263 774.437 112.17 774.037 112.17H772.877V114.26ZM777.893 118V111H782.523V112.13H779.293V113.9H782.223V114.99H779.293V116.87H782.523V118H777.893ZM785.781 118L783.241 111H784.741L786.641 116.58L788.571 111H790.051L787.511 118H785.781ZM790.94 118V111H792.34V118H790.94ZM793.792 118V111H798.422V112.13H795.192V113.9H798.122V114.99H795.192V116.87H798.422V118H793.792ZM801.089 118L799.259 111H800.759L801.949 116.42L803.359 111H804.909L806.269 116.42L807.479 111H808.979L807.099 118H805.429L804.109 112.97L802.759 118H801.089Z" fill="white"/>
<rect x="931" y="49" width="118" height="118" rx="59" fill="#A9B451"/>
<rect x="931" y="49" width="118" height="118" rx="59" stroke="#738200" stroke-width="2"/>
<path d="M974.395 105.12C973.895 105.12 973.445 105.033 973.045 104.86C972.645 104.687 972.328 104.433 972.095 104.1C971.868 103.767 971.748 103.363 971.735 102.89H973.215C973.228 103.09 973.282 103.27 973.375 103.43C973.475 103.59 973.608 103.717 973.775 103.81C973.948 103.903 974.155 103.95 974.395 103.95C974.595 103.95 974.768 103.917 974.915 103.85C975.068 103.783 975.185 103.69 975.265 103.57C975.352 103.45 975.395 103.303 975.395 103.13C975.395 102.963 975.352 102.817 975.265 102.69C975.178 102.557 975.055 102.443 974.895 102.35C974.735 102.25 974.548 102.16 974.335 102.08C974.128 102 973.902 101.92 973.655 101.84C973.068 101.66 972.625 101.417 972.325 101.11C972.032 100.803 971.885 100.4 971.885 99.9C971.885 99.4733 971.985 99.11 972.185 98.81C972.392 98.51 972.675 98.28 973.035 98.12C973.402 97.96 973.815 97.88 974.275 97.88C974.755 97.88 975.175 97.9633 975.535 98.13C975.895 98.29 976.178 98.5233 976.385 98.83C976.598 99.1367 976.712 99.5 976.725 99.92H975.215C975.215 99.7667 975.172 99.6267 975.085 99.5C975.005 99.3667 974.895 99.26 974.755 99.18C974.615 99.1 974.448 99.06 974.255 99.06C974.088 99.0533 973.935 99.08 973.795 99.14C973.662 99.1933 973.555 99.2767 973.475 99.39C973.395 99.4967 973.355 99.6333 973.355 99.8C973.355 99.9667 973.395 100.107 973.475 100.22C973.555 100.327 973.668 100.42 973.815 100.5C973.962 100.58 974.132 100.657 974.325 100.73C974.518 100.797 974.728 100.867 974.955 100.94C975.308 101.06 975.632 101.203 975.925 101.37C976.218 101.53 976.452 101.74 976.625 102C976.798 102.26 976.885 102.603 976.885 103.03C976.885 103.403 976.788 103.75 976.595 104.07C976.408 104.383 976.128 104.637 975.755 104.83C975.388 105.023 974.935 105.12 974.395 105.12ZM978.127 105V98H980.747C981.321 98 981.797 98.1 982.177 98.3C982.557 98.4933 982.841 98.76 983.027 99.1C983.214 99.4333 983.307 99.8133 983.307 100.24C983.307 100.633 983.217 101 983.037 101.34C982.857 101.68 982.577 101.953 982.197 102.16C981.824 102.367 981.341 102.47 980.747 102.47H979.527V105H978.127ZM979.527 101.34H980.657C981.097 101.34 981.411 101.24 981.597 101.04C981.784 100.84 981.877 100.573 981.877 100.24C981.877 99.9 981.784 99.6333 981.597 99.44C981.411 99.24 981.097 99.14 980.657 99.14H979.527V101.34ZM984.377 105V98H987.027C987.587 98 988.054 98.0967 988.427 98.29C988.801 98.4833 989.077 98.7433 989.257 99.07C989.437 99.39 989.527 99.75 989.527 100.15C989.527 100.523 989.437 100.873 989.257 101.2C989.084 101.527 988.811 101.79 988.437 101.99C988.071 102.183 987.594 102.28 987.007 102.28H985.777V105H984.377ZM987.997 105L986.567 101.93H988.077L989.587 105H987.997ZM985.777 101.26H986.937C987.337 101.26 987.631 101.163 987.817 100.97C988.004 100.777 988.097 100.52 988.097 100.2C988.097 99.8867 988.004 99.6367 987.817 99.45C987.631 99.2633 987.337 99.17 986.937 99.17H985.777V101.26ZM990.793 105V98H992.193V105H990.793ZM993.645 105V98H995.045L998.215 102.76V98H999.615V105H998.215L995.045 100.25V105H993.645ZM1002.67 105V99.13H1000.63V98H1006.1V99.13H1004.06V105H1002.67ZM950.72 118V111H953.37C953.93 111 954.397 111.097 954.77 111.29C955.144 111.483 955.42 111.743 955.6 112.07C955.78 112.39 955.87 112.75 955.87 113.15C955.87 113.523 955.78 113.873 955.6 114.2C955.427 114.527 955.154 114.79 954.78 114.99C954.414 115.183 953.937 115.28 953.35 115.28H952.12V118H950.72ZM954.34 118L952.91 114.93H954.42L955.93 118H954.34ZM952.12 114.26H953.28C953.68 114.26 953.974 114.163 954.16 113.97C954.347 113.777 954.44 113.52 954.44 113.2C954.44 112.887 954.347 112.637 954.16 112.45C953.974 112.263 953.68 112.17 953.28 112.17H952.12V114.26ZM957.136 118V111H961.766V112.13H958.536V113.9H961.466V114.99H958.536V116.87H961.766V118H957.136ZM964.654 118V112.13H962.614V111H968.084V112.13H966.044V118H964.654ZM969.109 118V111H971.759C972.319 111 972.786 111.097 973.159 111.29C973.532 111.483 973.809 111.743 973.989 112.07C974.169 112.39 974.259 112.75 974.259 113.15C974.259 113.523 974.169 113.873 973.989 114.2C973.816 114.527 973.542 114.79 973.169 114.99C972.802 115.183 972.326 115.28 971.739 115.28H970.509V118H969.109ZM972.729 118L971.299 114.93H972.809L974.319 118H972.729ZM970.509 114.26H971.669C972.069 114.26 972.362 114.163 972.549 113.97C972.736 113.777 972.829 113.52 972.829 113.2C972.829 112.887 972.736 112.637 972.549 112.45C972.362 112.263 972.069 112.17 971.669 112.17H970.509V114.26ZM978.625 118.12C977.965 118.12 977.382 117.967 976.875 117.66C976.375 117.353 975.982 116.93 975.695 116.39C975.415 115.843 975.275 115.213 975.275 114.5C975.275 113.787 975.415 113.16 975.695 112.62C975.982 112.073 976.375 111.647 976.875 111.34C977.382 111.033 977.965 110.88 978.625 110.88C979.285 110.88 979.865 111.033 980.365 111.34C980.872 111.647 981.265 112.073 981.545 112.62C981.825 113.16 981.965 113.787 981.965 114.5C981.965 115.213 981.825 115.843 981.545 116.39C981.265 116.93 980.872 117.353 980.365 117.66C979.865 117.967 979.285 118.12 978.625 118.12ZM978.625 116.86C979.012 116.86 979.348 116.763 979.635 116.57C979.922 116.377 980.142 116.107 980.295 115.76C980.455 115.407 980.535 114.987 980.535 114.5C980.535 114.013 980.455 113.597 980.295 113.25C980.142 112.897 979.922 112.623 979.635 112.43C979.348 112.237 979.012 112.14 978.625 112.14C978.232 112.14 977.892 112.237 977.605 112.43C977.318 112.623 977.095 112.897 976.935 113.25C976.775 113.597 976.695 114.013 976.695 114.5C976.695 114.987 976.775 115.407 976.935 115.76C977.095 116.107 977.318 116.377 977.605 116.57C977.892 116.763 978.232 116.86 978.625 116.86ZM985.591 118.12C985.091 118.12 984.641 118.033 984.241 117.86C983.841 117.687 983.525 117.433 983.291 117.1C983.065 116.767 982.945 116.363 982.931 115.89H984.411C984.425 116.09 984.478 116.27 984.571 116.43C984.671 116.59 984.805 116.717 984.971 116.81C985.145 116.903 985.351 116.95 985.591 116.95C985.791 116.95 985.965 116.917 986.111 116.85C986.265 116.783 986.381 116.69 986.461 116.57C986.548 116.45 986.591 116.303 986.591 116.13C986.591 115.963 986.548 115.817 986.461 115.69C986.375 115.557 986.251 115.443 986.091 115.35C985.931 115.25 985.745 115.16 985.531 115.08C985.325 115 985.098 114.92 984.851 114.84C984.265 114.66 983.821 114.417 983.521 114.11C983.228 113.803 983.081 113.4 983.081 112.9C983.081 112.473 983.181 112.11 983.381 111.81C983.588 111.51 983.871 111.28 984.231 111.12C984.598 110.96 985.011 110.88 985.471 110.88C985.951 110.88 986.371 110.963 986.731 111.13C987.091 111.29 987.375 111.523 987.581 111.83C987.795 112.137 987.908 112.5 987.921 112.92H986.411C986.411 112.767 986.368 112.627 986.281 112.5C986.201 112.367 986.091 112.26 985.951 112.18C985.811 112.1 985.645 112.06 985.451 112.06C985.285 112.053 985.131 112.08 984.991 112.14C984.858 112.193 984.751 112.277 984.671 112.39C984.591 112.497 984.551 112.633 984.551 112.8C984.551 112.967 984.591 113.107 984.671 113.22C984.751 113.327 984.865 113.42 985.011 113.5C985.158 113.58 985.328 113.657 985.521 113.73C985.715 113.797 985.925 113.867 986.151 113.94C986.505 114.06 986.828 114.203 987.121 114.37C987.415 114.53 987.648 114.74 987.821 115C987.995 115.26 988.081 115.603 988.081 116.03C988.081 116.403 987.985 116.75 987.791 117.07C987.605 117.383 987.325 117.637 986.951 117.83C986.585 118.023 986.131 118.12 985.591 118.12ZM989.324 118V111H991.944C992.517 111 992.994 111.1 993.374 111.3C993.754 111.493 994.037 111.76 994.224 112.1C994.41 112.433 994.504 112.813 994.504 113.24C994.504 113.633 994.414 114 994.234 114.34C994.054 114.68 993.774 114.953 993.394 115.16C993.02 115.367 992.537 115.47 991.944 115.47H990.724V118H989.324ZM990.724 114.34H991.854C992.294 114.34 992.607 114.24 992.794 114.04C992.98 113.84 993.074 113.573 993.074 113.24C993.074 112.9 992.98 112.633 992.794 112.44C992.607 112.24 992.294 112.14 991.854 112.14H990.724V114.34ZM995.574 118V111H1000.2V112.13H996.974V113.9H999.904V114.99H996.974V116.87H1000.2V118H995.574ZM1004.55 118.12C1003.87 118.12 1003.28 117.97 1002.78 117.67C1002.29 117.363 1001.91 116.94 1001.64 116.4C1001.38 115.853 1001.24 115.223 1001.24 114.51C1001.24 113.797 1001.38 113.167 1001.64 112.62C1001.91 112.073 1002.29 111.647 1002.78 111.34C1003.28 111.033 1003.87 110.88 1004.55 110.88C1005.4 110.88 1006.09 111.093 1006.63 111.52C1007.17 111.947 1007.51 112.547 1007.64 113.32H1006.12C1006.04 112.947 1005.86 112.66 1005.58 112.46C1005.32 112.253 1004.97 112.15 1004.54 112.15C1004.15 112.15 1003.81 112.247 1003.53 112.44C1003.25 112.627 1003.04 112.897 1002.88 113.25C1002.74 113.603 1002.66 114.023 1002.66 114.51C1002.66 114.997 1002.74 115.417 1002.88 115.77C1003.04 116.117 1003.25 116.387 1003.53 116.58C1003.81 116.767 1004.15 116.86 1004.54 116.86C1004.97 116.86 1005.32 116.767 1005.58 116.58C1005.86 116.387 1006.04 116.12 1006.12 115.78H1007.64C1007.51 116.507 1007.17 117.08 1006.63 117.5C1006.09 117.913 1005.4 118.12 1004.55 118.12ZM1010.39 118V112.13H1008.35V111H1013.82V112.13H1011.78V118H1010.39ZM1014.84 118V111H1016.24V118H1014.84ZM1019.66 118L1017.12 111H1018.62L1020.52 116.58L1022.45 111H1023.93L1021.39 118H1019.66ZM1024.82 118V111H1029.45V112.13H1026.22V113.9H1029.15V114.99H1026.22V116.87H1029.45V118H1024.82Z" fill="#FAFFD5"/>
<rect x="810.5" y="0.5" width="159" height="35" rx="7.5" fill="white"/>
<rect x="810.5" y="0.5" width="159" height="35" rx="7.5" stroke="#E5E7EB"/>
<path d="M821.266 22V13.6H824.71C825.294 13.6 825.786 13.692 826.186 13.876C826.586 14.06 826.886 14.316 827.086 14.644C827.294 14.964 827.398 15.336 827.398 15.76C827.398 16.184 827.306 16.54 827.122 16.828C826.938 17.116 826.694 17.34 826.39 17.5C826.094 17.652 825.766 17.74 825.406 17.764L825.598 17.632C825.982 17.648 826.322 17.752 826.618 17.944C826.922 18.128 827.158 18.376 827.326 18.688C827.502 19 827.59 19.34 827.59 19.708C827.59 20.156 827.482 20.552 827.266 20.896C827.05 21.24 826.738 21.512 826.33 21.712C825.922 21.904 825.422 22 824.83 22H821.266ZM822.886 20.68H824.566C825.006 20.68 825.346 20.58 825.586 20.38C825.826 20.18 825.946 19.892 825.946 19.516C825.946 19.14 825.822 18.848 825.574 18.64C825.326 18.424 824.982 18.316 824.542 18.316H822.886V20.68ZM822.886 17.104H824.446C824.87 17.104 825.194 17.008 825.418 16.816C825.642 16.624 825.754 16.352 825.754 16C825.754 15.656 825.642 15.388 825.418 15.196C825.194 14.996 824.866 14.896 824.434 14.896H822.886V17.104ZM832.182 22.144C831.558 22.144 830.994 22.02 830.49 21.772C829.994 21.524 829.594 21.152 829.29 20.656C828.994 20.16 828.846 19.528 828.846 18.76V13.6H830.466V18.772C830.466 19.188 830.534 19.54 830.67 19.828C830.814 20.108 831.014 20.316 831.27 20.452C831.534 20.588 831.846 20.656 832.206 20.656C832.574 20.656 832.886 20.588 833.142 20.452C833.406 20.316 833.606 20.108 833.742 19.828C833.878 19.54 833.946 19.188 833.946 18.772V13.6H835.566V18.76C835.566 19.528 835.414 20.16 835.11 20.656C834.806 21.152 834.394 21.524 833.874 21.772C833.362 22.02 832.798 22.144 832.182 22.144ZM837.157 22V13.6H838.777V22H837.157ZM840.485 22V13.6H842.105V20.74H845.789V22H840.485ZM847.223 22V13.6H849.911C850.887 13.6 851.691 13.776 852.323 14.128C852.955 14.472 853.423 14.96 853.727 15.592C854.039 16.216 854.195 16.952 854.195 17.8C854.195 18.648 854.039 19.388 853.727 20.02C853.423 20.644 852.955 21.132 852.323 21.484C851.691 21.828 850.887 22 849.911 22H847.223ZM848.843 20.608H849.827C850.515 20.608 851.055 20.496 851.447 20.272C851.839 20.048 852.119 19.728 852.287 19.312C852.455 18.888 852.539 18.384 852.539 17.8C852.539 17.208 852.455 16.704 852.287 16.288C852.119 15.864 851.839 15.54 851.447 15.316C851.055 15.092 850.515 14.98 849.827 14.98H848.843V20.608ZM860.405 22V14.908H857.945V13.6H864.461V14.908H862.013V22H860.405ZM870.949 22V13.6H872.569V22H870.949ZM865.657 22V13.6H867.277V22H865.657ZM867.061 18.364V17.056H871.225V18.364H867.061ZM874.27 22V13.6H879.79V14.908H875.89V17.104H879.43V18.364H875.89V20.692H879.79V22H874.27ZM886.093 22V14.908H883.633V13.6H890.149V14.908H887.701V22H886.093ZM896.636 22V13.6H898.256V22H896.636ZM891.344 22V13.6H892.964V22H891.344ZM892.748 18.364V17.056H896.912V18.364H892.748ZM899.957 22V13.6H901.577V22H899.957ZM903.286 22V13.6H904.906L908.77 19.396V13.6H910.39V22H908.77L904.906 16.216V22H903.286ZM915.77 22.144C914.978 22.144 914.282 21.968 913.682 21.616C913.09 21.256 912.63 20.756 912.302 20.116C911.974 19.468 911.81 18.716 911.81 17.86C911.81 16.996 911.978 16.236 912.314 15.58C912.65 14.916 913.134 14.396 913.766 14.02C914.406 13.644 915.162 13.456 916.034 13.456C917.026 13.456 917.846 13.692 918.494 14.164C919.15 14.636 919.57 15.292 919.754 16.132H917.954C917.834 15.764 917.61 15.476 917.282 15.268C916.954 15.052 916.534 14.944 916.022 14.944C915.478 14.944 915.014 15.064 914.63 15.304C914.246 15.544 913.954 15.88 913.754 16.312C913.554 16.744 913.454 17.26 913.454 17.86C913.454 18.468 913.554 18.984 913.754 19.408C913.954 19.832 914.238 20.156 914.606 20.38C914.982 20.596 915.422 20.704 915.926 20.704C916.662 20.704 917.218 20.508 917.594 20.116C917.978 19.716 918.206 19.2 918.278 18.568H916.214V17.356H919.91V22H918.422L918.29 20.932C918.114 21.196 917.906 21.42 917.666 21.604C917.434 21.78 917.162 21.912 916.85 22C916.538 22.096 916.178 22.144 915.77 22.144ZM924.321 22V13.6H927.465C928.137 13.6 928.693 13.716 929.133 13.948C929.573 14.18 929.901 14.492 930.117 14.884C930.341 15.268 930.453 15.696 930.453 16.168C930.453 16.616 930.345 17.036 930.129 17.428C929.921 17.812 929.593 18.124 929.145 18.364C928.705 18.596 928.137 18.712 927.441 18.712H925.941V22H924.321ZM928.677 22L926.949 18.304H928.701L930.525 22H928.677ZM925.941 17.536H927.357C927.853 17.536 928.217 17.416 928.449 17.176C928.681 16.936 928.797 16.62 928.797 16.228C928.797 15.836 928.681 15.528 928.449 15.304C928.217 15.072 927.853 14.956 927.357 14.956H925.941V17.536ZM931.926 22V13.6H933.546V22H931.926ZM938.926 22.144C938.134 22.144 937.438 21.968 936.838 21.616C936.246 21.256 935.786 20.756 935.458 20.116C935.13 19.468 934.966 18.716 934.966 17.86C934.966 16.996 935.134 16.236 935.47 15.58C935.806 14.916 936.29 14.396 936.922 14.02C937.562 13.644 938.318 13.456 939.19 13.456C940.182 13.456 941.002 13.692 941.65 14.164C942.306 14.636 942.726 15.292 942.91 16.132H941.11C940.99 15.764 940.766 15.476 940.438 15.268C940.11 15.052 939.69 14.944 939.178 14.944C938.634 14.944 938.17 15.064 937.786 15.304C937.402 15.544 937.11 15.88 936.91 16.312C936.71 16.744 936.61 17.26 936.61 17.86C936.61 18.468 936.71 18.984 936.91 19.408C937.11 19.832 937.394 20.156 937.762 20.38C938.138 20.596 938.578 20.704 939.082 20.704C939.818 20.704 940.374 20.508 940.75 20.116C941.134 19.716 941.362 19.2 941.434 18.568H939.37V17.356H943.066V22H941.578L941.446 20.932C941.27 21.196 941.062 21.42 940.822 21.604C940.59 21.78 940.318 21.912 940.006 22C939.694 22.096 939.334 22.144 938.926 22.144ZM949.921 22V13.6H951.541V22H949.921ZM944.629 22V13.6H946.249V22H944.629ZM946.033 18.364V17.056H950.197V18.364H946.033ZM955.187 22V14.908H952.727V13.6H959.243V14.908H956.795V22H955.187Z" fill="#4B5563"/>
</svg>
