<svg width="1195" height="198" viewBox="0 0 1195 198" fill="none" xmlns="http://www.w3.org/2000/svg">
<path d="M634 48V22C634 19.7909 635.791 18 638 18H1126C1128.21 18 1130 19.7909 1130 22V48" stroke="#E5E7EB"/>
<rect x="137.5" y="0.5" width="159" height="35" rx="7.5" fill="white"/>
<rect x="137.5" y="0.5" width="159" height="35" rx="7.5" stroke="#E5E7EB"/>
<path d="M148.266 22V13.6H151.71C152.294 13.6 152.786 13.692 153.186 13.876C153.586 14.06 153.886 14.316 154.086 14.644C154.294 14.964 154.398 15.336 154.398 15.76C154.398 16.184 154.306 16.54 154.122 16.828C153.938 17.116 153.694 17.34 153.39 17.5C153.094 17.652 152.766 17.74 152.406 17.764L152.598 17.632C152.982 17.648 153.322 17.752 153.618 17.944C153.922 18.128 154.158 18.376 154.326 18.688C154.502 19 154.59 19.34 154.59 19.708C154.59 20.156 154.482 20.552 154.266 20.896C154.05 21.24 153.738 21.512 153.33 21.712C152.922 21.904 152.422 22 151.83 22H148.266ZM149.886 20.68H151.566C152.006 20.68 152.346 20.58 152.586 20.38C152.826 20.18 152.946 19.892 152.946 19.516C152.946 19.14 152.822 18.848 152.574 18.64C152.326 18.424 151.982 18.316 151.542 18.316H149.886V20.68ZM149.886 17.104H151.446C151.87 17.104 152.194 17.008 152.418 16.816C152.642 16.624 152.754 16.352 152.754 16C152.754 15.656 152.642 15.388 152.418 15.196C152.194 14.996 151.866 14.896 151.434 14.896H149.886V17.104ZM159.182 22.144C158.558 22.144 157.994 22.02 157.49 21.772C156.994 21.524 156.594 21.152 156.29 20.656C155.994 20.16 155.846 19.528 155.846 18.76V13.6H157.466V18.772C157.466 19.188 157.534 19.54 157.67 19.828C157.814 20.108 158.014 20.316 158.27 20.452C158.534 20.588 158.846 20.656 159.206 20.656C159.574 20.656 159.886 20.588 160.142 20.452C160.406 20.316 160.606 20.108 160.742 19.828C160.878 19.54 160.946 19.188 160.946 18.772V13.6H162.566V18.76C162.566 19.528 162.414 20.16 162.11 20.656C161.806 21.152 161.394 21.524 160.874 21.772C160.362 22.02 159.798 22.144 159.182 22.144ZM164.157 22V13.6H165.777V22H164.157ZM167.485 22V13.6H169.105V20.74H172.789V22H167.485ZM174.223 22V13.6H176.911C177.887 13.6 178.691 13.776 179.323 14.128C179.955 14.472 180.423 14.96 180.727 15.592C181.039 16.216 181.195 16.952 181.195 17.8C181.195 18.648 181.039 19.388 180.727 20.02C180.423 20.644 179.955 21.132 179.323 21.484C178.691 21.828 177.887 22 176.911 22H174.223ZM175.843 20.608H176.827C177.515 20.608 178.055 20.496 178.447 20.272C178.839 20.048 179.119 19.728 179.287 19.312C179.455 18.888 179.539 18.384 179.539 17.8C179.539 17.208 179.455 16.704 179.287 16.288C179.119 15.864 178.839 15.54 178.447 15.316C178.055 15.092 177.515 14.98 176.827 14.98H175.843V20.608ZM187.405 22V14.908H184.945V13.6H191.461V14.908H189.013V22H187.405ZM197.949 22V13.6H199.569V22H197.949ZM192.657 22V13.6H194.277V22H192.657ZM194.061 18.364V17.056H198.225V18.364H194.061ZM201.27 22V13.6H206.79V14.908H202.89V17.104H206.43V18.364H202.89V20.692H206.79V22H201.27ZM211.149 22V13.6H214.293C214.965 13.6 215.521 13.716 215.961 13.948C216.401 14.18 216.729 14.492 216.945 14.884C217.169 15.268 217.281 15.696 217.281 16.168C217.281 16.616 217.173 17.036 216.957 17.428C216.749 17.812 216.421 18.124 215.973 18.364C215.533 18.596 214.965 18.712 214.269 18.712H212.769V22H211.149ZM215.505 22L213.777 18.304H215.529L217.353 22H215.505ZM212.769 17.536H214.185C214.681 17.536 215.045 17.416 215.277 17.176C215.509 16.936 215.625 16.62 215.625 16.228C215.625 15.836 215.509 15.528 215.277 15.304C215.045 15.072 214.681 14.956 214.185 14.956H212.769V17.536ZM218.754 22V13.6H220.374V22H218.754ZM225.754 22.144C224.962 22.144 224.266 21.968 223.666 21.616C223.074 21.256 222.614 20.756 222.286 20.116C221.958 19.468 221.794 18.716 221.794 17.86C221.794 16.996 221.962 16.236 222.298 15.58C222.634 14.916 223.118 14.396 223.75 14.02C224.39 13.644 225.146 13.456 226.018 13.456C227.01 13.456 227.83 13.692 228.478 14.164C229.134 14.636 229.554 15.292 229.738 16.132H227.938C227.818 15.764 227.594 15.476 227.266 15.268C226.938 15.052 226.518 14.944 226.006 14.944C225.462 14.944 224.998 15.064 224.614 15.304C224.23 15.544 223.938 15.88 223.738 16.312C223.538 16.744 223.438 17.26 223.438 17.86C223.438 18.468 223.538 18.984 223.738 19.408C223.938 19.832 224.222 20.156 224.59 20.38C224.966 20.596 225.406 20.704 225.91 20.704C226.646 20.704 227.202 20.508 227.578 20.116C227.962 19.716 228.19 19.2 228.262 18.568H226.198V17.356H229.894V22H228.406L228.274 20.932C228.098 21.196 227.89 21.42 227.65 21.604C227.418 21.78 227.146 21.912 226.834 22C226.522 22.096 226.162 22.144 225.754 22.144ZM236.749 22V13.6H238.369V22H236.749ZM231.457 22V13.6H233.077V22H231.457ZM232.861 18.364V17.056H237.025V18.364H232.861ZM242.015 22V14.908H239.555V13.6H246.071V14.908H243.623V22H242.015ZM252.058 22V14.908H249.598V13.6H256.114V14.908H253.666V22H252.058ZM262.601 22V13.6H264.221V22H262.601ZM257.309 22V13.6H258.929V22H257.309ZM258.713 18.364V17.056H262.877V18.364H258.713ZM265.922 22V13.6H267.542V22H265.922ZM269.25 22V13.6H270.87L274.734 19.396V13.6H276.354V22H274.734L270.87 16.216V22H269.25ZM281.735 22.144C280.943 22.144 280.247 21.968 279.647 21.616C279.055 21.256 278.595 20.756 278.267 20.116C277.939 19.468 277.775 18.716 277.775 17.86C277.775 16.996 277.943 16.236 278.279 15.58C278.615 14.916 279.099 14.396 279.731 14.02C280.371 13.644 281.127 13.456 281.999 13.456C282.991 13.456 283.811 13.692 284.459 14.164C285.115 14.636 285.535 15.292 285.719 16.132H283.919C283.799 15.764 283.575 15.476 283.247 15.268C282.919 15.052 282.499 14.944 281.987 14.944C281.443 14.944 280.979 15.064 280.595 15.304C280.211 15.544 279.919 15.88 279.719 16.312C279.519 16.744 279.419 17.26 279.419 17.86C279.419 18.468 279.519 18.984 279.719 19.408C279.919 19.832 280.203 20.156 280.571 20.38C280.947 20.596 281.387 20.704 281.891 20.704C282.627 20.704 283.183 20.508 283.559 20.116C283.943 19.716 284.171 19.2 284.243 18.568H282.179V17.356H285.875V22H284.387L284.255 20.932C284.079 21.196 283.871 21.42 283.631 21.604C283.399 21.78 283.127 21.912 282.815 22C282.503 22.096 282.143 22.144 281.735 22.144Z" fill="#4B5563"/>
<path d="M10 103H1124" stroke="#E0F2FE" stroke-width="10"/>
<rect x="1" y="49" width="118" height="118" rx="59" fill="#BBF7D0"/>
<rect x="1" y="49" width="118" height="118" rx="59" stroke="#15803D" stroke-width="2"/>
<path d="M35.6372 105V98H38.5472C39.0272 98 39.4339 98.0767 39.7672 98.23C40.1072 98.3833 40.3639 98.5967 40.5372 98.87C40.7106 99.1367 40.7972 99.45 40.7972 99.81C40.7972 100.157 40.7206 100.45 40.5672 100.69C40.4139 100.93 40.2106 101.117 39.9572 101.25C39.7039 101.377 39.4306 101.45 39.1372 101.47L39.2972 101.36C39.6172 101.373 39.9006 101.46 40.1472 101.62C40.3939 101.78 40.5906 101.99 40.7372 102.25C40.8839 102.503 40.9572 102.783 40.9572 103.09C40.9572 103.463 40.8672 103.797 40.6872 104.09C40.5072 104.377 40.2439 104.6 39.8972 104.76C39.5572 104.92 39.1406 105 38.6472 105H35.6372ZM37.0372 103.86H38.4172C38.7706 103.86 39.0439 103.78 39.2372 103.62C39.4372 103.453 39.5372 103.22 39.5372 102.92C39.5372 102.62 39.4339 102.383 39.2272 102.21C39.0272 102.037 38.7506 101.95 38.3972 101.95H37.0372V103.86ZM37.0372 100.91H38.3072C38.6539 100.91 38.9172 100.833 39.0972 100.68C39.2772 100.52 39.3672 100.297 39.3672 100.01C39.3672 99.73 39.2772 99.5133 39.0972 99.36C38.9172 99.2 38.6506 99.12 38.2972 99.12H37.0372V100.91ZM41.5825 105L44.1425 98H45.7325L48.2825 105H46.8025L44.9325 99.59L43.0525 105H41.5825ZM42.7125 103.43L43.0825 102.34H46.6825L47.0425 103.43H42.7125ZM51.9004 105.12C51.2204 105.12 50.6304 104.97 50.1304 104.67C49.637 104.363 49.257 103.94 48.9904 103.4C48.7237 102.853 48.5904 102.223 48.5904 101.51C48.5904 100.797 48.7237 100.167 48.9904 99.62C49.257 99.0733 49.637 98.6467 50.1304 98.34C50.6304 98.0333 51.2204 97.88 51.9004 97.88C52.747 97.88 53.4404 98.0933 53.9804 98.52C54.5204 98.9467 54.857 99.5467 54.9904 100.32H53.4704C53.3837 99.9467 53.2037 99.66 52.9304 99.46C52.6637 99.2533 52.317 99.15 51.8904 99.15C51.497 99.15 51.1604 99.2467 50.8804 99.44C50.6004 99.6267 50.3837 99.8967 50.2304 100.25C50.0837 100.603 50.0104 101.023 50.0104 101.51C50.0104 101.997 50.0837 102.417 50.2304 102.77C50.3837 103.117 50.6004 103.387 50.8804 103.58C51.1604 103.767 51.497 103.86 51.8904 103.86C52.317 103.86 52.6637 103.767 52.9304 103.58C53.2037 103.387 53.3837 103.12 53.4704 102.78H54.9904C54.857 103.507 54.5204 104.08 53.9804 104.5C53.4404 104.913 52.747 105.12 51.9004 105.12ZM56.1939 105V98H57.5939V100.73L60.0839 98H61.8039L59.2339 100.77L61.8839 105H60.1739L58.2339 101.85L57.5939 102.55V105H56.1939ZM62.8833 105V98H64.2833V103.91H67.3333V105H62.8833ZM71.0517 105.12C70.3917 105.12 69.8083 104.967 69.3017 104.66C68.8017 104.353 68.4083 103.93 68.1217 103.39C67.8417 102.843 67.7017 102.213 67.7017 101.5C67.7017 100.787 67.8417 100.16 68.1217 99.62C68.4083 99.0733 68.8017 98.6467 69.3017 98.34C69.8083 98.0333 70.3917 97.88 71.0517 97.88C71.7117 97.88 72.2917 98.0333 72.7917 98.34C73.2983 98.6467 73.6917 99.0733 73.9717 99.62C74.2517 100.16 74.3917 100.787 74.3917 101.5C74.3917 102.213 74.2517 102.843 73.9717 103.39C73.6917 103.93 73.2983 104.353 72.7917 104.66C72.2917 104.967 71.7117 105.12 71.0517 105.12ZM71.0517 103.86C71.4383 103.86 71.775 103.763 72.0617 103.57C72.3483 103.377 72.5683 103.107 72.7217 102.76C72.8817 102.407 72.9617 101.987 72.9617 101.5C72.9617 101.013 72.8817 100.597 72.7217 100.25C72.5683 99.8967 72.3483 99.6233 72.0617 99.43C71.775 99.2367 71.4383 99.14 71.0517 99.14C70.6583 99.14 70.3183 99.2367 70.0317 99.43C69.745 99.6233 69.5217 99.8967 69.3617 100.25C69.2017 100.597 69.1217 101.013 69.1217 101.5C69.1217 101.987 69.2017 102.407 69.3617 102.76C69.5217 103.107 69.745 103.377 70.0317 103.57C70.3183 103.763 70.6583 103.86 71.0517 103.86ZM78.6482 105.12C77.9882 105.12 77.4082 104.973 76.9082 104.68C76.4148 104.38 76.0315 103.963 75.7582 103.43C75.4848 102.89 75.3482 102.263 75.3482 101.55C75.3482 100.83 75.4882 100.197 75.7682 99.65C76.0548 99.0967 76.4615 98.6633 76.9882 98.35C77.5148 98.0367 78.1448 97.88 78.8782 97.88C79.7115 97.88 80.3982 98.08 80.9382 98.48C81.4848 98.8733 81.8382 99.42 81.9982 100.12H80.4382C80.3382 99.82 80.1548 99.5867 79.8882 99.42C79.6282 99.2533 79.2915 99.17 78.8782 99.17C78.4248 99.17 78.0415 99.2667 77.7282 99.46C77.4148 99.6533 77.1748 99.93 77.0082 100.29C76.8482 100.643 76.7682 101.067 76.7682 101.56C76.7682 102.053 76.8482 102.473 77.0082 102.82C77.1748 103.167 77.4082 103.43 77.7082 103.61C78.0148 103.79 78.3782 103.88 78.7982 103.88C79.3982 103.88 79.8515 103.72 80.1582 103.4C80.4715 103.073 80.6582 102.66 80.7182 102.16H79.0282V101.12H82.1282V105H80.8382L80.7282 104.14C80.5815 104.347 80.4115 104.523 80.2182 104.67C80.0248 104.817 79.7982 104.927 79.5382 105C79.2848 105.08 78.9882 105.12 78.6482 105.12ZM29.5288 118V111H32.1788C32.7388 111 33.2055 111.097 33.5788 111.29C33.9522 111.483 34.2288 111.743 34.4088 112.07C34.5888 112.39 34.6788 112.75 34.6788 113.15C34.6788 113.523 34.5888 113.873 34.4088 114.2C34.2355 114.527 33.9622 114.79 33.5888 114.99C33.2222 115.183 32.7455 115.28 32.1588 115.28H30.9288V118H29.5288ZM33.1488 118L31.7188 114.93H33.2288L34.7388 118H33.1488ZM30.9288 114.26H32.0888C32.4888 114.26 32.7822 114.163 32.9688 113.97C33.1555 113.777 33.2488 113.52 33.2488 113.2C33.2488 112.887 33.1555 112.637 32.9688 112.45C32.7822 112.263 32.4888 112.17 32.0888 112.17H30.9288V114.26ZM35.9448 118V111H40.5748V112.13H37.3448V113.9H40.2748V114.99H37.3448V116.87H40.5748V118H35.9448ZM41.8628 118V111H46.4428V112.13H43.2628V113.94H45.8028V115.04H43.2628V118H41.8628ZM47.5269 118V111H48.9269V118H47.5269ZM50.3784 118V111H51.7784L54.9484 115.76V111H56.3484V118H54.9484L51.7784 113.25V118H50.3784ZM57.8003 118V111H62.4303V112.13H59.2003V113.9H62.1303V114.99H59.2003V116.87H62.4303V118H57.8003ZM63.7183 118V111H65.3883L67.4183 115.33L69.4083 111H71.0883V118H69.6883V113.4L67.9583 117.07H66.8483L65.1183 113.41V118H63.7183ZM72.5366 118V111H77.1666V112.13H73.9366V113.9H76.8666V114.99H73.9366V116.87H77.1666V118H72.5366ZM78.4546 118V111H79.8546L83.0246 115.76V111H84.4246V118H83.0246L79.8546 113.25V118H78.4546ZM87.4765 118V112.13H85.4365V111H90.9065V112.13H88.8665V118H87.4765Z" fill="#15803D"/>
<rect x="171" y="49" width="118" height="118" rx="59" fill="#FEF08A"/>
<rect x="171" y="49" width="118" height="118" rx="59" stroke="#713F12" stroke-width="2"/>
<path d="M214.395 105.12C213.895 105.12 213.445 105.033 213.045 104.86C212.645 104.687 212.328 104.433 212.095 104.1C211.868 103.767 211.748 103.363 211.735 102.89H213.215C213.228 103.09 213.282 103.27 213.375 103.43C213.475 103.59 213.608 103.717 213.775 103.81C213.948 103.903 214.155 103.95 214.395 103.95C214.595 103.95 214.768 103.917 214.915 103.85C215.068 103.783 215.185 103.69 215.265 103.57C215.352 103.45 215.395 103.303 215.395 103.13C215.395 102.963 215.352 102.817 215.265 102.69C215.178 102.557 215.055 102.443 214.895 102.35C214.735 102.25 214.548 102.16 214.335 102.08C214.128 102 213.902 101.92 213.655 101.84C213.068 101.66 212.625 101.417 212.325 101.11C212.032 100.803 211.885 100.4 211.885 99.9C211.885 99.4733 211.985 99.11 212.185 98.81C212.392 98.51 212.675 98.28 213.035 98.12C213.402 97.96 213.815 97.88 214.275 97.88C214.755 97.88 215.175 97.9633 215.535 98.13C215.895 98.29 216.178 98.5233 216.385 98.83C216.598 99.1367 216.712 99.5 216.725 99.92H215.215C215.215 99.7667 215.172 99.6267 215.085 99.5C215.005 99.3667 214.895 99.26 214.755 99.18C214.615 99.1 214.448 99.06 214.255 99.06C214.088 99.0533 213.935 99.08 213.795 99.14C213.662 99.1933 213.555 99.2767 213.475 99.39C213.395 99.4967 213.355 99.6333 213.355 99.8C213.355 99.9667 213.395 100.107 213.475 100.22C213.555 100.327 213.668 100.42 213.815 100.5C213.962 100.58 214.132 100.657 214.325 100.73C214.518 100.797 214.728 100.867 214.955 100.94C215.308 101.06 215.632 101.203 215.925 101.37C216.218 101.53 216.452 101.74 216.625 102C216.798 102.26 216.885 102.603 216.885 103.03C216.885 103.403 216.788 103.75 216.595 104.07C216.408 104.383 216.128 104.637 215.755 104.83C215.388 105.023 214.935 105.12 214.395 105.12ZM218.127 105V98H220.747C221.321 98 221.797 98.1 222.177 98.3C222.557 98.4933 222.841 98.76 223.027 99.1C223.214 99.4333 223.307 99.8133 223.307 100.24C223.307 100.633 223.217 101 223.037 101.34C222.857 101.68 222.577 101.953 222.197 102.16C221.824 102.367 221.341 102.47 220.747 102.47H219.527V105H218.127ZM219.527 101.34H220.657C221.097 101.34 221.411 101.24 221.597 101.04C221.784 100.84 221.877 100.573 221.877 100.24C221.877 99.9 221.784 99.6333 221.597 99.44C221.411 99.24 221.097 99.14 220.657 99.14H219.527V101.34ZM224.377 105V98H227.027C227.587 98 228.054 98.0967 228.427 98.29C228.801 98.4833 229.077 98.7433 229.257 99.07C229.437 99.39 229.527 99.75 229.527 100.15C229.527 100.523 229.437 100.873 229.257 101.2C229.084 101.527 228.811 101.79 228.437 101.99C228.071 102.183 227.594 102.28 227.007 102.28H225.777V105H224.377ZM227.997 105L226.567 101.93H228.077L229.587 105H227.997ZM225.777 101.26H226.937C227.337 101.26 227.631 101.163 227.817 100.97C228.004 100.777 228.097 100.52 228.097 100.2C228.097 99.8867 228.004 99.6367 227.817 99.45C227.631 99.2633 227.337 99.17 226.937 99.17H225.777V101.26ZM230.793 105V98H232.193V105H230.793ZM233.645 105V98H235.045L238.215 102.76V98H239.615V105H238.215L235.045 100.25V105H233.645ZM242.667 105V99.13H240.627V98H246.097V99.13H244.057V105H242.667ZM204.69 118V111H207.31C207.883 111 208.36 111.1 208.74 111.3C209.12 111.493 209.403 111.76 209.59 112.1C209.777 112.433 209.87 112.813 209.87 113.24C209.87 113.633 209.78 114 209.6 114.34C209.42 114.68 209.14 114.953 208.76 115.16C208.387 115.367 207.903 115.47 207.31 115.47H206.09V118H204.69ZM206.09 114.34H207.22C207.66 114.34 207.973 114.24 208.16 114.04C208.347 113.84 208.44 113.573 208.44 113.24C208.44 112.9 208.347 112.633 208.16 112.44C207.973 112.24 207.66 112.14 207.22 112.14H206.09V114.34ZM210.94 118V111H212.34V116.91H215.39V118H210.94ZM216.133 118L218.693 111H220.283L222.833 118H221.353L219.483 112.59L217.603 118H216.133ZM217.263 116.43L217.633 115.34H221.233L221.593 116.43H217.263ZM223.792 118V111H225.192L228.362 115.76V111H229.762V118H228.362L225.192 113.25V118H223.792ZM231.213 118V111H232.613L235.783 115.76V111H237.183V118H235.783L232.613 113.25V118H231.213ZM238.635 118V111H240.035V118H238.635ZM241.487 118V111H242.887L246.057 115.76V111H247.457V118H246.057L242.887 113.25V118H241.487ZM251.959 118.12C251.299 118.12 250.719 117.973 250.219 117.68C249.725 117.38 249.342 116.963 249.069 116.43C248.795 115.89 248.659 115.263 248.659 114.55C248.659 113.83 248.799 113.197 249.079 112.65C249.365 112.097 249.772 111.663 250.299 111.35C250.825 111.037 251.455 110.88 252.189 110.88C253.022 110.88 253.709 111.08 254.249 111.48C254.795 111.873 255.149 112.42 255.309 113.12H253.749C253.649 112.82 253.465 112.587 253.199 112.42C252.939 112.253 252.602 112.17 252.189 112.17C251.735 112.17 251.352 112.267 251.039 112.46C250.725 112.653 250.485 112.93 250.319 113.29C250.159 113.643 250.079 114.067 250.079 114.56C250.079 115.053 250.159 115.473 250.319 115.82C250.485 116.167 250.719 116.43 251.019 116.61C251.325 116.79 251.689 116.88 252.109 116.88C252.709 116.88 253.162 116.72 253.469 116.4C253.782 116.073 253.969 115.66 254.029 115.16H252.339V114.12H255.439V118H254.149L254.039 117.14C253.892 117.347 253.722 117.523 253.529 117.67C253.335 117.817 253.109 117.927 252.849 118C252.595 118.08 252.299 118.12 251.959 118.12Z" fill="#713F12"/>
<rect x="311" y="49" width="118" height="118" rx="59" fill="#16A34A"/>
<rect x="311" y="49" width="118" height="118" rx="59" stroke="#166534" stroke-width="2"/>
<path d="M354.395 105.12C353.895 105.12 353.445 105.033 353.045 104.86C352.645 104.687 352.328 104.433 352.095 104.1C351.868 103.767 351.748 103.363 351.735 102.89H353.215C353.228 103.09 353.282 103.27 353.375 103.43C353.475 103.59 353.608 103.717 353.775 103.81C353.948 103.903 354.155 103.95 354.395 103.95C354.595 103.95 354.768 103.917 354.915 103.85C355.068 103.783 355.185 103.69 355.265 103.57C355.352 103.45 355.395 103.303 355.395 103.13C355.395 102.963 355.352 102.817 355.265 102.69C355.178 102.557 355.055 102.443 354.895 102.35C354.735 102.25 354.548 102.16 354.335 102.08C354.128 102 353.902 101.92 353.655 101.84C353.068 101.66 352.625 101.417 352.325 101.11C352.032 100.803 351.885 100.4 351.885 99.9C351.885 99.4733 351.985 99.11 352.185 98.81C352.392 98.51 352.675 98.28 353.035 98.12C353.402 97.96 353.815 97.88 354.275 97.88C354.755 97.88 355.175 97.9633 355.535 98.13C355.895 98.29 356.178 98.5233 356.385 98.83C356.598 99.1367 356.712 99.5 356.725 99.92H355.215C355.215 99.7667 355.172 99.6267 355.085 99.5C355.005 99.3667 354.895 99.26 354.755 99.18C354.615 99.1 354.448 99.06 354.255 99.06C354.088 99.0533 353.935 99.08 353.795 99.14C353.662 99.1933 353.555 99.2767 353.475 99.39C353.395 99.4967 353.355 99.6333 353.355 99.8C353.355 99.9667 353.395 100.107 353.475 100.22C353.555 100.327 353.668 100.42 353.815 100.5C353.962 100.58 354.132 100.657 354.325 100.73C354.518 100.797 354.728 100.867 354.955 100.94C355.308 101.06 355.632 101.203 355.925 101.37C356.218 101.53 356.452 101.74 356.625 102C356.798 102.26 356.885 102.603 356.885 103.03C356.885 103.403 356.788 103.75 356.595 104.07C356.408 104.383 356.128 104.637 355.755 104.83C355.388 105.023 354.935 105.12 354.395 105.12ZM358.127 105V98H360.747C361.321 98 361.797 98.1 362.177 98.3C362.557 98.4933 362.841 98.76 363.027 99.1C363.214 99.4333 363.307 99.8133 363.307 100.24C363.307 100.633 363.217 101 363.037 101.34C362.857 101.68 362.577 101.953 362.197 102.16C361.824 102.367 361.341 102.47 360.747 102.47H359.527V105H358.127ZM359.527 101.34H360.657C361.097 101.34 361.411 101.24 361.597 101.04C361.784 100.84 361.877 100.573 361.877 100.24C361.877 99.9 361.784 99.6333 361.597 99.44C361.411 99.24 361.097 99.14 360.657 99.14H359.527V101.34ZM364.377 105V98H367.027C367.587 98 368.054 98.0967 368.427 98.29C368.801 98.4833 369.077 98.7433 369.257 99.07C369.437 99.39 369.527 99.75 369.527 100.15C369.527 100.523 369.437 100.873 369.257 101.2C369.084 101.527 368.811 101.79 368.437 101.99C368.071 102.183 367.594 102.28 367.007 102.28H365.777V105H364.377ZM367.997 105L366.567 101.93H368.077L369.587 105H367.997ZM365.777 101.26H366.937C367.337 101.26 367.631 101.163 367.817 100.97C368.004 100.777 368.097 100.52 368.097 100.2C368.097 99.8867 368.004 99.6367 367.817 99.45C367.631 99.2633 367.337 99.17 366.937 99.17H365.777V101.26ZM370.793 105V98H372.193V105H370.793ZM373.645 105V98H375.045L378.215 102.76V98H379.615V105H378.215L375.045 100.25V105H373.645ZM382.667 105V99.13H380.627V98H386.097V99.13H384.057V105H382.667ZM346.819 118V111H349.729C350.209 111 350.616 111.077 350.949 111.23C351.289 111.383 351.546 111.597 351.719 111.87C351.892 112.137 351.979 112.45 351.979 112.81C351.979 113.157 351.902 113.45 351.749 113.69C351.596 113.93 351.392 114.117 351.139 114.25C350.886 114.377 350.612 114.45 350.319 114.47L350.479 114.36C350.799 114.373 351.082 114.46 351.329 114.62C351.576 114.78 351.772 114.99 351.919 115.25C352.066 115.503 352.139 115.783 352.139 116.09C352.139 116.463 352.049 116.797 351.869 117.09C351.689 117.377 351.426 117.6 351.079 117.76C350.739 117.92 350.322 118 349.829 118H346.819ZM348.219 116.86H349.599C349.952 116.86 350.226 116.78 350.419 116.62C350.619 116.453 350.719 116.22 350.719 115.92C350.719 115.62 350.616 115.383 350.409 115.21C350.209 115.037 349.932 114.95 349.579 114.95H348.219V116.86ZM348.219 113.91H349.489C349.836 113.91 350.099 113.833 350.279 113.68C350.459 113.52 350.549 113.297 350.549 113.01C350.549 112.73 350.459 112.513 350.279 112.36C350.099 112.2 349.832 112.12 349.479 112.12H348.219V113.91ZM352.764 118L355.324 111H356.914L359.464 118H357.984L356.114 112.59L354.234 118H352.764ZM353.894 116.43L354.264 115.34H357.864L358.224 116.43H353.894ZM363.082 118.12C362.402 118.12 361.812 117.97 361.312 117.67C360.819 117.363 360.439 116.94 360.172 116.4C359.905 115.853 359.772 115.223 359.772 114.51C359.772 113.797 359.905 113.167 360.172 112.62C360.439 112.073 360.819 111.647 361.312 111.34C361.812 111.033 362.402 110.88 363.082 110.88C363.929 110.88 364.622 111.093 365.162 111.52C365.702 111.947 366.039 112.547 366.172 113.32H364.652C364.565 112.947 364.385 112.66 364.112 112.46C363.845 112.253 363.499 112.15 363.072 112.15C362.679 112.15 362.342 112.247 362.062 112.44C361.782 112.627 361.565 112.897 361.412 113.25C361.265 113.603 361.192 114.023 361.192 114.51C361.192 114.997 361.265 115.417 361.412 115.77C361.565 116.117 361.782 116.387 362.062 116.58C362.342 116.767 362.679 116.86 363.072 116.86C363.499 116.86 363.845 116.767 364.112 116.58C364.385 116.387 364.565 116.12 364.652 115.78H366.172C366.039 116.507 365.702 117.08 365.162 117.5C364.622 117.913 363.929 118.12 363.082 118.12ZM367.376 118V111H368.776V113.73L371.266 111H372.986L370.416 113.77L373.066 118H371.356L369.416 114.85L368.776 115.55V118H367.376ZM374.065 118V111H375.465V116.91H378.515V118H374.065ZM382.233 118.12C381.573 118.12 380.99 117.967 380.483 117.66C379.983 117.353 379.59 116.93 379.303 116.39C379.023 115.843 378.883 115.213 378.883 114.5C378.883 113.787 379.023 113.16 379.303 112.62C379.59 112.073 379.983 111.647 380.483 111.34C380.99 111.033 381.573 110.88 382.233 110.88C382.893 110.88 383.473 111.033 383.973 111.34C384.48 111.647 384.873 112.073 385.153 112.62C385.433 113.16 385.573 113.787 385.573 114.5C385.573 115.213 385.433 115.843 385.153 116.39C384.873 116.93 384.48 117.353 383.973 117.66C383.473 117.967 382.893 118.12 382.233 118.12ZM382.233 116.86C382.62 116.86 382.957 116.763 383.243 116.57C383.53 116.377 383.75 116.107 383.903 115.76C384.063 115.407 384.143 114.987 384.143 114.5C384.143 114.013 384.063 113.597 383.903 113.25C383.75 112.897 383.53 112.623 383.243 112.43C382.957 112.237 382.62 112.14 382.233 112.14C381.84 112.14 381.5 112.237 381.213 112.43C380.927 112.623 380.703 112.897 380.543 113.25C380.383 113.597 380.303 114.013 380.303 114.5C380.303 114.987 380.383 115.407 380.543 115.76C380.703 116.107 380.927 116.377 381.213 116.57C381.5 116.763 381.84 116.86 382.233 116.86ZM389.83 118.12C389.17 118.12 388.59 117.973 388.09 117.68C387.596 117.38 387.213 116.963 386.94 116.43C386.666 115.89 386.53 115.263 386.53 114.55C386.53 113.83 386.67 113.197 386.95 112.65C387.236 112.097 387.643 111.663 388.17 111.35C388.696 111.037 389.326 110.88 390.06 110.88C390.893 110.88 391.58 111.08 392.12 111.48C392.666 111.873 393.02 112.42 393.18 113.12H391.62C391.52 112.82 391.336 112.587 391.07 112.42C390.81 112.253 390.473 112.17 390.06 112.17C389.606 112.17 389.223 112.267 388.91 112.46C388.596 112.653 388.356 112.93 388.19 113.29C388.03 113.643 387.95 114.067 387.95 114.56C387.95 115.053 388.03 115.473 388.19 115.82C388.356 116.167 388.59 116.43 388.89 116.61C389.196 116.79 389.56 116.88 389.98 116.88C390.58 116.88 391.033 116.72 391.34 116.4C391.653 116.073 391.84 115.66 391.9 115.16H390.21V114.12H393.31V118H392.02L391.91 117.14C391.763 117.347 391.593 117.523 391.4 117.67C391.206 117.817 390.98 117.927 390.72 118C390.466 118.08 390.17 118.12 389.83 118.12Z" fill="#F0F9FF"/>
<path d="M645 193C598.056 193 560 154.944 560 108C560 61.0558 598.056 23 645 23C691.944 23 730 61.0558 730 108C730 154.944 691.944 193 645 193Z" fill="#0EA5E9"/>
<path d="M645 193C598.056 193 560 154.944 560 108C560 61.0558 598.056 23 645 23C691.944 23 730 61.0558 730 108C730 154.944 691.944 193 645 193Z" stroke="#01679C" stroke-width="10"/>
<path d="M622.242 113.692C621.431 113.692 620.706 113.553 620.066 113.276C619.426 112.999 618.919 112.593 618.546 112.06C618.183 111.527 617.991 110.881 617.97 110.124H620.354C620.364 110.444 620.444 110.732 620.594 110.988C620.754 111.244 620.972 111.447 621.25 111.596C621.527 111.745 621.852 111.82 622.226 111.82C622.546 111.82 622.823 111.767 623.058 111.66C623.303 111.553 623.495 111.404 623.634 111.212C623.772 111.02 623.842 110.785 623.842 110.508C623.842 110.199 623.762 109.943 623.602 109.74C623.452 109.527 623.239 109.345 622.962 109.196C622.695 109.047 622.386 108.913 622.034 108.796C621.692 108.668 621.324 108.54 620.93 108.412C620.055 108.124 619.383 107.74 618.914 107.26C618.444 106.78 618.21 106.14 618.21 105.34C618.21 104.657 618.375 104.076 618.706 103.596C619.036 103.116 619.49 102.748 620.066 102.492C620.642 102.236 621.298 102.108 622.034 102.108C622.802 102.108 623.474 102.241 624.05 102.508C624.626 102.764 625.079 103.137 625.41 103.628C625.751 104.119 625.932 104.7 625.954 105.372H623.554C623.543 105.127 623.474 104.903 623.346 104.7C623.218 104.487 623.036 104.316 622.802 104.188C622.578 104.06 622.316 103.996 622.018 103.996C621.751 103.985 621.506 104.028 621.282 104.124C621.068 104.209 620.898 104.343 620.77 104.524C620.642 104.695 620.578 104.913 620.578 105.18C620.578 105.447 620.642 105.671 620.77 105.852C620.898 106.023 621.074 106.172 621.298 106.3C621.532 106.428 621.804 106.551 622.114 106.668C622.423 106.775 622.759 106.887 623.122 107.004C623.687 107.196 624.204 107.425 624.674 107.692C625.143 107.948 625.516 108.284 625.794 108.7C626.082 109.116 626.226 109.665 626.226 110.348C626.226 110.945 626.071 111.5 625.762 112.012C625.452 112.513 625.004 112.919 624.418 113.228C623.831 113.537 623.106 113.692 622.242 113.692ZM628.041 113.5V102.3H632.281C633.198 102.3 633.956 102.455 634.553 102.764C635.15 103.073 635.593 103.495 635.881 104.028C636.18 104.551 636.329 105.148 636.329 105.82C636.329 106.439 636.185 107.015 635.897 107.548C635.62 108.071 635.182 108.497 634.585 108.828C633.988 109.148 633.22 109.308 632.281 109.308H630.281V113.5H628.041ZM630.281 107.5H632.137C632.82 107.5 633.305 107.351 633.593 107.052C633.892 106.743 634.041 106.332 634.041 105.82C634.041 105.287 633.892 104.871 633.593 104.572C633.305 104.273 632.82 104.124 632.137 104.124H630.281V107.5ZM637.916 113.5V102.3H642.156C643.063 102.3 643.809 102.455 644.396 102.764C644.993 103.073 645.436 103.489 645.724 104.012C646.012 104.524 646.156 105.1 646.156 105.74C646.156 106.337 646.012 106.897 645.724 107.42C645.447 107.943 645.009 108.364 644.412 108.684C643.825 108.993 643.068 109.148 642.14 109.148H640.156V113.5H637.916ZM643.708 113.5L641.42 108.588H643.836L646.268 113.5H643.708ZM640.156 107.516H642.012C642.652 107.516 643.121 107.361 643.42 107.052C643.719 106.743 643.868 106.332 643.868 105.82C643.868 105.319 643.719 104.919 643.42 104.62C643.132 104.321 642.663 104.172 642.012 104.172H640.156V107.516ZM648.057 113.5V102.3H650.297V113.5H648.057ZM652.479 113.5V102.3H654.719L659.791 109.9V102.3H662.031V113.5H659.791L654.719 105.916V113.5H652.479ZM666.821 113.5V104.108H663.557V102.3H672.309V104.108H669.045V113.5H666.821Z" fill="#F0F9FF"/>
<rect x="861" y="49" width="118" height="118" rx="59" fill="#FFB800"/>
<rect x="861" y="49" width="118" height="118" rx="59" stroke="#654900" stroke-width="2"/>
<path d="M904.395 105.12C903.895 105.12 903.445 105.033 903.045 104.86C902.645 104.687 902.328 104.433 902.095 104.1C901.868 103.767 901.748 103.363 901.735 102.89H903.215C903.228 103.09 903.282 103.27 903.375 103.43C903.475 103.59 903.608 103.717 903.775 103.81C903.948 103.903 904.155 103.95 904.395 103.95C904.595 103.95 904.768 103.917 904.915 103.85C905.068 103.783 905.185 103.69 905.265 103.57C905.352 103.45 905.395 103.303 905.395 103.13C905.395 102.963 905.352 102.817 905.265 102.69C905.178 102.557 905.055 102.443 904.895 102.35C904.735 102.25 904.548 102.16 904.335 102.08C904.128 102 903.902 101.92 903.655 101.84C903.068 101.66 902.625 101.417 902.325 101.11C902.032 100.803 901.885 100.4 901.885 99.9C901.885 99.4733 901.985 99.11 902.185 98.81C902.392 98.51 902.675 98.28 903.035 98.12C903.402 97.96 903.815 97.88 904.275 97.88C904.755 97.88 905.175 97.9633 905.535 98.13C905.895 98.29 906.178 98.5233 906.385 98.83C906.598 99.1367 906.712 99.5 906.725 99.92H905.215C905.215 99.7667 905.172 99.6267 905.085 99.5C905.005 99.3667 904.895 99.26 904.755 99.18C904.615 99.1 904.448 99.06 904.255 99.06C904.088 99.0533 903.935 99.08 903.795 99.14C903.662 99.1933 903.555 99.2767 903.475 99.39C903.395 99.4967 903.355 99.6333 903.355 99.8C903.355 99.9667 903.395 100.107 903.475 100.22C903.555 100.327 903.668 100.42 903.815 100.5C903.962 100.58 904.132 100.657 904.325 100.73C904.518 100.797 904.728 100.867 904.955 100.94C905.308 101.06 905.632 101.203 905.925 101.37C906.218 101.53 906.452 101.74 906.625 102C906.798 102.26 906.885 102.603 906.885 103.03C906.885 103.403 906.788 103.75 906.595 104.07C906.408 104.383 906.128 104.637 905.755 104.83C905.388 105.023 904.935 105.12 904.395 105.12ZM908.127 105V98H910.747C911.321 98 911.797 98.1 912.177 98.3C912.557 98.4933 912.841 98.76 913.027 99.1C913.214 99.4333 913.307 99.8133 913.307 100.24C913.307 100.633 913.217 101 913.037 101.34C912.857 101.68 912.577 101.953 912.197 102.16C911.824 102.367 911.341 102.47 910.747 102.47H909.527V105H908.127ZM909.527 101.34H910.657C911.097 101.34 911.411 101.24 911.597 101.04C911.784 100.84 911.877 100.573 911.877 100.24C911.877 99.9 911.784 99.6333 911.597 99.44C911.411 99.24 911.097 99.14 910.657 99.14H909.527V101.34ZM914.377 105V98H917.027C917.587 98 918.054 98.0967 918.427 98.29C918.801 98.4833 919.077 98.7433 919.257 99.07C919.437 99.39 919.527 99.75 919.527 100.15C919.527 100.523 919.437 100.873 919.257 101.2C919.084 101.527 918.811 101.79 918.437 101.99C918.071 102.183 917.594 102.28 917.007 102.28H915.777V105H914.377ZM917.997 105L916.567 101.93H918.077L919.587 105H917.997ZM915.777 101.26H916.937C917.337 101.26 917.631 101.163 917.817 100.97C918.004 100.777 918.097 100.52 918.097 100.2C918.097 99.8867 918.004 99.6367 917.817 99.45C917.631 99.2633 917.337 99.17 916.937 99.17H915.777V101.26ZM920.793 105V98H922.193V105H920.793ZM923.645 105V98H925.045L928.215 102.76V98H929.615V105H928.215L925.045 100.25V105H923.645ZM932.667 105V99.13H930.627V98H936.097V99.13H934.057V105H932.667ZM901.477 118V111H904.127C904.687 111 905.154 111.097 905.527 111.29C905.9 111.483 906.177 111.743 906.357 112.07C906.537 112.39 906.627 112.75 906.627 113.15C906.627 113.523 906.537 113.873 906.357 114.2C906.184 114.527 905.91 114.79 905.537 114.99C905.17 115.183 904.694 115.28 904.107 115.28H902.877V118H901.477ZM905.097 118L903.667 114.93H905.177L906.687 118H905.097ZM902.877 114.26H904.037C904.437 114.26 904.73 114.163 904.917 113.97C905.104 113.777 905.197 113.52 905.197 113.2C905.197 112.887 905.104 112.637 904.917 112.45C904.73 112.263 904.437 112.17 904.037 112.17H902.877V114.26ZM907.893 118V111H912.523V112.13H909.293V113.9H912.223V114.99H909.293V116.87H912.523V118H907.893ZM915.781 118L913.241 111H914.741L916.641 116.58L918.571 111H920.051L917.511 118H915.781ZM920.94 118V111H922.34V118H920.94ZM923.792 118V111H928.422V112.13H925.192V113.9H928.122V114.99H925.192V116.87H928.422V118H923.792ZM931.089 118L929.259 111H930.759L931.949 116.42L933.359 111H934.909L936.269 116.42L937.479 111H938.979L937.099 118H935.429L934.109 112.97L932.759 118H931.089Z" fill="white"/>
<rect x="1071" y="49" width="118" height="118" rx="59" fill="#A9B451"/>
<rect x="1071" y="49" width="118" height="118" rx="59" stroke="#738200" stroke-width="2"/>
<path d="M1114.4 105.12C1113.9 105.12 1113.45 105.033 1113.05 104.86C1112.65 104.687 1112.33 104.433 1112.1 104.1C1111.87 103.767 1111.75 103.363 1111.74 102.89H1113.22C1113.23 103.09 1113.28 103.27 1113.38 103.43C1113.48 103.59 1113.61 103.717 1113.78 103.81C1113.95 103.903 1114.16 103.95 1114.4 103.95C1114.6 103.95 1114.77 103.917 1114.92 103.85C1115.07 103.783 1115.19 103.69 1115.27 103.57C1115.35 103.45 1115.4 103.303 1115.4 103.13C1115.4 102.963 1115.35 102.817 1115.27 102.69C1115.18 102.557 1115.06 102.443 1114.9 102.35C1114.74 102.25 1114.55 102.16 1114.34 102.08C1114.13 102 1113.9 101.92 1113.66 101.84C1113.07 101.66 1112.63 101.417 1112.33 101.11C1112.03 100.803 1111.89 100.4 1111.89 99.9C1111.89 99.4733 1111.99 99.11 1112.19 98.81C1112.39 98.51 1112.68 98.28 1113.04 98.12C1113.4 97.96 1113.82 97.88 1114.28 97.88C1114.76 97.88 1115.18 97.9633 1115.54 98.13C1115.9 98.29 1116.18 98.5233 1116.39 98.83C1116.6 99.1367 1116.71 99.5 1116.73 99.92H1115.22C1115.22 99.7667 1115.17 99.6267 1115.09 99.5C1115.01 99.3667 1114.9 99.26 1114.76 99.18C1114.62 99.1 1114.45 99.06 1114.26 99.06C1114.09 99.0533 1113.94 99.08 1113.8 99.14C1113.66 99.1933 1113.56 99.2767 1113.48 99.39C1113.4 99.4967 1113.36 99.6333 1113.36 99.8C1113.36 99.9667 1113.4 100.107 1113.48 100.22C1113.56 100.327 1113.67 100.42 1113.82 100.5C1113.96 100.58 1114.13 100.657 1114.33 100.73C1114.52 100.797 1114.73 100.867 1114.96 100.94C1115.31 101.06 1115.63 101.203 1115.93 101.37C1116.22 101.53 1116.45 101.74 1116.63 102C1116.8 102.26 1116.89 102.603 1116.89 103.03C1116.89 103.403 1116.79 103.75 1116.6 104.07C1116.41 104.383 1116.13 104.637 1115.76 104.83C1115.39 105.023 1114.94 105.12 1114.4 105.12ZM1118.13 105V98H1120.75C1121.32 98 1121.8 98.1 1122.18 98.3C1122.56 98.4933 1122.84 98.76 1123.03 99.1C1123.21 99.4333 1123.31 99.8133 1123.31 100.24C1123.31 100.633 1123.22 101 1123.04 101.34C1122.86 101.68 1122.58 101.953 1122.2 102.16C1121.82 102.367 1121.34 102.47 1120.75 102.47H1119.53V105H1118.13ZM1119.53 101.34H1120.66C1121.1 101.34 1121.41 101.24 1121.6 101.04C1121.78 100.84 1121.88 100.573 1121.88 100.24C1121.88 99.9 1121.78 99.6333 1121.6 99.44C1121.41 99.24 1121.1 99.14 1120.66 99.14H1119.53V101.34ZM1124.38 105V98H1127.03C1127.59 98 1128.05 98.0967 1128.43 98.29C1128.8 98.4833 1129.08 98.7433 1129.26 99.07C1129.44 99.39 1129.53 99.75 1129.53 100.15C1129.53 100.523 1129.44 100.873 1129.26 101.2C1129.08 101.527 1128.81 101.79 1128.44 101.99C1128.07 102.183 1127.59 102.28 1127.01 102.28H1125.78V105H1124.38ZM1128 105L1126.57 101.93H1128.08L1129.59 105H1128ZM1125.78 101.26H1126.94C1127.34 101.26 1127.63 101.163 1127.82 100.97C1128 100.777 1128.1 100.52 1128.1 100.2C1128.1 99.8867 1128 99.6367 1127.82 99.45C1127.63 99.2633 1127.34 99.17 1126.94 99.17H1125.78V101.26ZM1130.79 105V98H1132.19V105H1130.79ZM1133.65 105V98H1135.05L1138.22 102.76V98H1139.62V105H1138.22L1135.05 100.25V105H1133.65ZM1142.67 105V99.13H1140.63V98H1146.1V99.13H1144.06V105H1142.67ZM1090.72 118V111H1093.37C1093.93 111 1094.4 111.097 1094.77 111.29C1095.14 111.483 1095.42 111.743 1095.6 112.07C1095.78 112.39 1095.87 112.75 1095.87 113.15C1095.87 113.523 1095.78 113.873 1095.6 114.2C1095.43 114.527 1095.15 114.79 1094.78 114.99C1094.41 115.183 1093.94 115.28 1093.35 115.28H1092.12V118H1090.72ZM1094.34 118L1092.91 114.93H1094.42L1095.93 118H1094.34ZM1092.12 114.26H1093.28C1093.68 114.26 1093.97 114.163 1094.16 113.97C1094.35 113.777 1094.44 113.52 1094.44 113.2C1094.44 112.887 1094.35 112.637 1094.16 112.45C1093.97 112.263 1093.68 112.17 1093.28 112.17H1092.12V114.26ZM1097.14 118V111H1101.77V112.13H1098.54V113.9H1101.47V114.99H1098.54V116.87H1101.77V118H1097.14ZM1104.65 118V112.13H1102.61V111H1108.08V112.13H1106.04V118H1104.65ZM1109.11 118V111H1111.76C1112.32 111 1112.79 111.097 1113.16 111.29C1113.53 111.483 1113.81 111.743 1113.99 112.07C1114.17 112.39 1114.26 112.75 1114.26 113.15C1114.26 113.523 1114.17 113.873 1113.99 114.2C1113.82 114.527 1113.54 114.79 1113.17 114.99C1112.8 115.183 1112.33 115.28 1111.74 115.28H1110.51V118H1109.11ZM1112.73 118L1111.3 114.93H1112.81L1114.32 118H1112.73ZM1110.51 114.26H1111.67C1112.07 114.26 1112.36 114.163 1112.55 113.97C1112.74 113.777 1112.83 113.52 1112.83 113.2C1112.83 112.887 1112.74 112.637 1112.55 112.45C1112.36 112.263 1112.07 112.17 1111.67 112.17H1110.51V114.26ZM1118.62 118.12C1117.96 118.12 1117.38 117.967 1116.87 117.66C1116.37 117.353 1115.98 116.93 1115.69 116.39C1115.41 115.843 1115.27 115.213 1115.27 114.5C1115.27 113.787 1115.41 113.16 1115.69 112.62C1115.98 112.073 1116.37 111.647 1116.87 111.34C1117.38 111.033 1117.96 110.88 1118.62 110.88C1119.28 110.88 1119.86 111.033 1120.36 111.34C1120.87 111.647 1121.26 112.073 1121.54 112.62C1121.82 113.16 1121.96 113.787 1121.96 114.5C1121.96 115.213 1121.82 115.843 1121.54 116.39C1121.26 116.93 1120.87 117.353 1120.36 117.66C1119.86 117.967 1119.28 118.12 1118.62 118.12ZM1118.62 116.86C1119.01 116.86 1119.35 116.763 1119.63 116.57C1119.92 116.377 1120.14 116.107 1120.29 115.76C1120.45 115.407 1120.53 114.987 1120.53 114.5C1120.53 114.013 1120.45 113.597 1120.29 113.25C1120.14 112.897 1119.92 112.623 1119.63 112.43C1119.35 112.237 1119.01 112.14 1118.62 112.14C1118.23 112.14 1117.89 112.237 1117.6 112.43C1117.32 112.623 1117.09 112.897 1116.93 113.25C1116.77 113.597 1116.69 114.013 1116.69 114.5C1116.69 114.987 1116.77 115.407 1116.93 115.76C1117.09 116.107 1117.32 116.377 1117.6 116.57C1117.89 116.763 1118.23 116.86 1118.62 116.86ZM1125.59 118.12C1125.09 118.12 1124.64 118.033 1124.24 117.86C1123.84 117.687 1123.52 117.433 1123.29 117.1C1123.06 116.767 1122.94 116.363 1122.93 115.89H1124.41C1124.42 116.09 1124.48 116.27 1124.57 116.43C1124.67 116.59 1124.8 116.717 1124.97 116.81C1125.14 116.903 1125.35 116.95 1125.59 116.95C1125.79 116.95 1125.96 116.917 1126.11 116.85C1126.26 116.783 1126.38 116.69 1126.46 116.57C1126.55 116.45 1126.59 116.303 1126.59 116.13C1126.59 115.963 1126.55 115.817 1126.46 115.69C1126.37 115.557 1126.25 115.443 1126.09 115.35C1125.93 115.25 1125.74 115.16 1125.53 115.08C1125.32 115 1125.1 114.92 1124.85 114.84C1124.26 114.66 1123.82 114.417 1123.52 114.11C1123.23 113.803 1123.08 113.4 1123.08 112.9C1123.08 112.473 1123.18 112.11 1123.38 111.81C1123.59 111.51 1123.87 111.28 1124.23 111.12C1124.6 110.96 1125.01 110.88 1125.47 110.88C1125.95 110.88 1126.37 110.963 1126.73 111.13C1127.09 111.29 1127.37 111.523 1127.58 111.83C1127.79 112.137 1127.91 112.5 1127.92 112.92H1126.41C1126.41 112.767 1126.37 112.627 1126.28 112.5C1126.2 112.367 1126.09 112.26 1125.95 112.18C1125.81 112.1 1125.64 112.06 1125.45 112.06C1125.28 112.053 1125.13 112.08 1124.99 112.14C1124.86 112.193 1124.75 112.277 1124.67 112.39C1124.59 112.497 1124.55 112.633 1124.55 112.8C1124.55 112.967 1124.59 113.107 1124.67 113.22C1124.75 113.327 1124.86 113.42 1125.01 113.5C1125.16 113.58 1125.33 113.657 1125.52 113.73C1125.71 113.797 1125.92 113.867 1126.15 113.94C1126.5 114.06 1126.83 114.203 1127.12 114.37C1127.41 114.53 1127.65 114.74 1127.82 115C1127.99 115.26 1128.08 115.603 1128.08 116.03C1128.08 116.403 1127.98 116.75 1127.79 117.07C1127.6 117.383 1127.32 117.637 1126.95 117.83C1126.58 118.023 1126.13 118.12 1125.59 118.12ZM1129.32 118V111H1131.94C1132.52 111 1132.99 111.1 1133.37 111.3C1133.75 111.493 1134.04 111.76 1134.22 112.1C1134.41 112.433 1134.5 112.813 1134.5 113.24C1134.5 113.633 1134.41 114 1134.23 114.34C1134.05 114.68 1133.77 114.953 1133.39 115.16C1133.02 115.367 1132.54 115.47 1131.94 115.47H1130.72V118H1129.32ZM1130.72 114.34H1131.85C1132.29 114.34 1132.61 114.24 1132.79 114.04C1132.98 113.84 1133.07 113.573 1133.07 113.24C1133.07 112.9 1132.98 112.633 1132.79 112.44C1132.61 112.24 1132.29 112.14 1131.85 112.14H1130.72V114.34ZM1135.57 118V111H1140.2V112.13H1136.97V113.9H1139.9V114.99H1136.97V116.87H1140.2V118H1135.57ZM1144.55 118.12C1143.87 118.12 1143.28 117.97 1142.78 117.67C1142.29 117.363 1141.91 116.94 1141.64 116.4C1141.38 115.853 1141.24 115.223 1141.24 114.51C1141.24 113.797 1141.38 113.167 1141.64 112.62C1141.91 112.073 1142.29 111.647 1142.78 111.34C1143.28 111.033 1143.87 110.88 1144.55 110.88C1145.4 110.88 1146.09 111.093 1146.63 111.52C1147.17 111.947 1147.51 112.547 1147.64 113.32H1146.12C1146.04 112.947 1145.86 112.66 1145.58 112.46C1145.32 112.253 1144.97 112.15 1144.54 112.15C1144.15 112.15 1143.81 112.247 1143.53 112.44C1143.25 112.627 1143.04 112.897 1142.88 113.25C1142.74 113.603 1142.66 114.023 1142.66 114.51C1142.66 114.997 1142.74 115.417 1142.88 115.77C1143.04 116.117 1143.25 116.387 1143.53 116.58C1143.81 116.767 1144.15 116.86 1144.54 116.86C1144.97 116.86 1145.32 116.767 1145.58 116.58C1145.86 116.387 1146.04 116.12 1146.12 115.78H1147.64C1147.51 116.507 1147.17 117.08 1146.63 117.5C1146.09 117.913 1145.4 118.12 1144.55 118.12ZM1150.39 118V112.13H1148.35V111H1153.82V112.13H1151.78V118H1150.39ZM1154.84 118V111H1156.24V118H1154.84ZM1159.66 118L1157.12 111H1158.62L1160.52 116.58L1162.45 111H1163.93L1161.39 118H1159.66ZM1164.82 118V111H1169.45V112.13H1166.22V113.9H1169.15V114.99H1166.22V116.87H1169.45V118H1164.82Z" fill="#FAFFD5"/>
<path d="M58 48V22C58 19.7909 59.7909 18 62 18H371C373.209 18 375 19.7909 375 22V48" stroke="#E5E7EB"/>
<rect x="840.5" y="0.5" width="159" height="35" rx="7.5" fill="white"/>
<rect x="840.5" y="0.5" width="159" height="35" rx="7.5" stroke="#E5E7EB"/>
<path d="M851.266 22V13.6H854.71C855.294 13.6 855.786 13.692 856.186 13.876C856.586 14.06 856.886 14.316 857.086 14.644C857.294 14.964 857.398 15.336 857.398 15.76C857.398 16.184 857.306 16.54 857.122 16.828C856.938 17.116 856.694 17.34 856.39 17.5C856.094 17.652 855.766 17.74 855.406 17.764L855.598 17.632C855.982 17.648 856.322 17.752 856.618 17.944C856.922 18.128 857.158 18.376 857.326 18.688C857.502 19 857.59 19.34 857.59 19.708C857.59 20.156 857.482 20.552 857.266 20.896C857.05 21.24 856.738 21.512 856.33 21.712C855.922 21.904 855.422 22 854.83 22H851.266ZM852.886 20.68H854.566C855.006 20.68 855.346 20.58 855.586 20.38C855.826 20.18 855.946 19.892 855.946 19.516C855.946 19.14 855.822 18.848 855.574 18.64C855.326 18.424 854.982 18.316 854.542 18.316H852.886V20.68ZM852.886 17.104H854.446C854.87 17.104 855.194 17.008 855.418 16.816C855.642 16.624 855.754 16.352 855.754 16C855.754 15.656 855.642 15.388 855.418 15.196C855.194 14.996 854.866 14.896 854.434 14.896H852.886V17.104ZM862.182 22.144C861.558 22.144 860.994 22.02 860.49 21.772C859.994 21.524 859.594 21.152 859.29 20.656C858.994 20.16 858.846 19.528 858.846 18.76V13.6H860.466V18.772C860.466 19.188 860.534 19.54 860.67 19.828C860.814 20.108 861.014 20.316 861.27 20.452C861.534 20.588 861.846 20.656 862.206 20.656C862.574 20.656 862.886 20.588 863.142 20.452C863.406 20.316 863.606 20.108 863.742 19.828C863.878 19.54 863.946 19.188 863.946 18.772V13.6H865.566V18.76C865.566 19.528 865.414 20.16 865.11 20.656C864.806 21.152 864.394 21.524 863.874 21.772C863.362 22.02 862.798 22.144 862.182 22.144ZM867.157 22V13.6H868.777V22H867.157ZM870.485 22V13.6H872.105V20.74H875.789V22H870.485ZM877.223 22V13.6H879.911C880.887 13.6 881.691 13.776 882.323 14.128C882.955 14.472 883.423 14.96 883.727 15.592C884.039 16.216 884.195 16.952 884.195 17.8C884.195 18.648 884.039 19.388 883.727 20.02C883.423 20.644 882.955 21.132 882.323 21.484C881.691 21.828 880.887 22 879.911 22H877.223ZM878.843 20.608H879.827C880.515 20.608 881.055 20.496 881.447 20.272C881.839 20.048 882.119 19.728 882.287 19.312C882.455 18.888 882.539 18.384 882.539 17.8C882.539 17.208 882.455 16.704 882.287 16.288C882.119 15.864 881.839 15.54 881.447 15.316C881.055 15.092 880.515 14.98 879.827 14.98H878.843V20.608ZM890.405 22V14.908H887.945V13.6H894.461V14.908H892.013V22H890.405ZM900.949 22V13.6H902.569V22H900.949ZM895.657 22V13.6H897.277V22H895.657ZM897.061 18.364V17.056H901.225V18.364H897.061ZM904.27 22V13.6H909.79V14.908H905.89V17.104H909.43V18.364H905.89V20.692H909.79V22H904.27ZM916.093 22V14.908H913.633V13.6H920.149V14.908H917.701V22H916.093ZM926.636 22V13.6H928.256V22H926.636ZM921.344 22V13.6H922.964V22H921.344ZM922.748 18.364V17.056H926.912V18.364H922.748ZM929.957 22V13.6H931.577V22H929.957ZM933.286 22V13.6H934.906L938.77 19.396V13.6H940.39V22H938.77L934.906 16.216V22H933.286ZM945.77 22.144C944.978 22.144 944.282 21.968 943.682 21.616C943.09 21.256 942.63 20.756 942.302 20.116C941.974 19.468 941.81 18.716 941.81 17.86C941.81 16.996 941.978 16.236 942.314 15.58C942.65 14.916 943.134 14.396 943.766 14.02C944.406 13.644 945.162 13.456 946.034 13.456C947.026 13.456 947.846 13.692 948.494 14.164C949.15 14.636 949.57 15.292 949.754 16.132H947.954C947.834 15.764 947.61 15.476 947.282 15.268C946.954 15.052 946.534 14.944 946.022 14.944C945.478 14.944 945.014 15.064 944.63 15.304C944.246 15.544 943.954 15.88 943.754 16.312C943.554 16.744 943.454 17.26 943.454 17.86C943.454 18.468 943.554 18.984 943.754 19.408C943.954 19.832 944.238 20.156 944.606 20.38C944.982 20.596 945.422 20.704 945.926 20.704C946.662 20.704 947.218 20.508 947.594 20.116C947.978 19.716 948.206 19.2 948.278 18.568H946.214V17.356H949.91V22H948.422L948.29 20.932C948.114 21.196 947.906 21.42 947.666 21.604C947.434 21.78 947.162 21.912 946.85 22C946.538 22.096 946.178 22.144 945.77 22.144ZM954.321 22V13.6H957.465C958.137 13.6 958.693 13.716 959.133 13.948C959.573 14.18 959.901 14.492 960.117 14.884C960.341 15.268 960.453 15.696 960.453 16.168C960.453 16.616 960.345 17.036 960.129 17.428C959.921 17.812 959.593 18.124 959.145 18.364C958.705 18.596 958.137 18.712 957.441 18.712H955.941V22H954.321ZM958.677 22L956.949 18.304H958.701L960.525 22H958.677ZM955.941 17.536H957.357C957.853 17.536 958.217 17.416 958.449 17.176C958.681 16.936 958.797 16.62 958.797 16.228C958.797 15.836 958.681 15.528 958.449 15.304C958.217 15.072 957.853 14.956 957.357 14.956H955.941V17.536ZM961.926 22V13.6H963.546V22H961.926ZM968.926 22.144C968.134 22.144 967.438 21.968 966.838 21.616C966.246 21.256 965.786 20.756 965.458 20.116C965.13 19.468 964.966 18.716 964.966 17.86C964.966 16.996 965.134 16.236 965.47 15.58C965.806 14.916 966.29 14.396 966.922 14.02C967.562 13.644 968.318 13.456 969.19 13.456C970.182 13.456 971.002 13.692 971.65 14.164C972.306 14.636 972.726 15.292 972.91 16.132H971.11C970.99 15.764 970.766 15.476 970.438 15.268C970.11 15.052 969.69 14.944 969.178 14.944C968.634 14.944 968.17 15.064 967.786 15.304C967.402 15.544 967.11 15.88 966.91 16.312C966.71 16.744 966.61 17.26 966.61 17.86C966.61 18.468 966.71 18.984 966.91 19.408C967.11 19.832 967.394 20.156 967.762 20.38C968.138 20.596 968.578 20.704 969.082 20.704C969.818 20.704 970.374 20.508 970.75 20.116C971.134 19.716 971.362 19.2 971.434 18.568H969.37V17.356H973.066V22H971.578L971.446 20.932C971.27 21.196 971.062 21.42 970.822 21.604C970.59 21.78 970.318 21.912 970.006 22C969.694 22.096 969.334 22.144 968.926 22.144ZM979.921 22V13.6H981.541V22H979.921ZM974.629 22V13.6H976.249V22H974.629ZM976.033 18.364V17.056H980.197V18.364H976.033ZM985.187 22V14.908H982.727V13.6H989.243V14.908H986.795V22H985.187Z" fill="#4B5563"/>
</svg>
