<?xml version="1.0" encoding="UTF-8"?>
<svg width="62px" height="62px" viewBox="0 0 62 62" version="1.1" xmlns="http://www.w3.org/2000/svg" xmlns:xlink="http://www.w3.org/1999/xlink">
    <title>ic_cash</title>
    <g id="Case-Form" stroke="none" stroke-width="1" fill="none" fill-rule="evenodd">
        <g id="HD-SÁISON" transform="translate(-736.000000, -8545.000000)">
            <g id="Group" transform="translate(737.000000, 8546.000000)">
                <circle id="Oval" stroke="#E8E8E8" stroke-width="0.5" fill="#F9F9F9" fill-rule="nonzero" cx="30" cy="30" r="30"></circle>
                <g id="Uu-dai" transform="translate(12.000000, 12.000000)">
                    <rect id="Bounding-box" fill-rule="nonzero" x="0" y="0" width="36" height="36"></rect>
                    <g id="dollar-bills" transform="translate(1.500000, 9.000000)">
                        <path d="M8.10344828,17.0132148 L4.5,17.0132148 L4.5,17.6979817 C4.5,18.6926958 5.31532567,19.5 6.31992337,19.5 L8.10344828,19.5 L31.1800766,19.5 C32.1846743,19.5 33,18.6926958 33,17.6979817 L33,8.06799616 L33,6.30201826 C33,5.30730418 32.1846743,4.5 31.1800766,4.5 L30.4885057,4.5 L30.4885057,8.06799616 L30.4885057,14.1263815 C30.4885057,15.7157977 29.1818008,17.0096108 27.5766284,17.0096108 L8.10344828,17.0096108 L8.10344828,17.0132148 Z" id="Path" fill="#0E72E1"></path>
                        <path d="M1.81992337,15 L2.51149425,15 L3.05747126,15 L3.60344828,15 L7.20689655,15 L26.6800766,15 C27.6846743,15 28.5,14.1926958 28.5,13.1979817 L28.5,7.13599231 L28.5,3.56799616 L28.5,3.02739068 L28.5,2.4867852 L28.5,1.80201826 C28.5,0.807304181 27.6846743,0 26.6800766,0 L1.81992337,0 C0.81532567,0 0,0.807304181 0,1.80201826 L0,13.1943777 C0,14.1926958 0.81532567,15 1.81992337,15 Z" id="Shape" fill="#0E72E1" fill-rule="nonzero"></path>
                        <path d="M15.078,12 C15.734,12 16.304,11.89 16.788,11.67 C17.272,11.45 17.676,11.148 18,10.764 C18.324,10.38 18.566,9.924 18.726,9.396 C18.886,8.868 18.966,8.292 18.966,7.668 C18.966,6.964 18.868,6.346 18.672,5.814 C18.476,5.282 18.204,4.84 17.856,4.488 C17.508,4.136 17.096,3.872 16.62,3.696 C16.144,3.52 15.63,3.432 15.078,3.432 L15.078,3.432 L11.382,3.432 L11.382,6.984 L10.506,6.984 L10.506,8.16 L11.382,8.16 L11.382,12 L15.078,12 Z M14.946,10.416 L13.266,10.416 L13.266,8.172 L15.186,8.172 L15.186,6.984 L13.266,6.984 L13.266,5.016 L14.61,5.016 C15.074,5.016 15.464,5.082 15.78,5.214 C16.096,5.346 16.35,5.536 16.542,5.784 C16.734,6.032 16.872,6.33 16.956,6.678 C17.04,7.026 17.082,7.416 17.082,7.848 C17.082,8.32 17.022,8.72 16.902,9.048 C16.782,9.376 16.622,9.642 16.422,9.846 C16.222,10.05 15.994,10.196 15.738,10.284 C15.482,10.372 15.218,10.416 14.946,10.416 L14.946,10.416 Z" id="Đ" fill="#F7A600" fill-rule="nonzero"></path>
                    </g>
                </g>
            </g>
        </g>
    </g>
</svg>