<?xml version="1.0" encoding="UTF-8"?>
<svg width="62px" height="62px" viewBox="0 0 62 62" version="1.1" xmlns="http://www.w3.org/2000/svg" xmlns:xlink="http://www.w3.org/1999/xlink">
    <title>ic_ed</title>
    <g id="Case-Form" stroke="none" stroke-width="1" fill="none" fill-rule="evenodd">
        <g id="HD-SÃISON" transform="translate(-1070.000000, -8545.000000)">
            <g id="Group" transform="translate(1071.000000, 8546.000000)">
                <circle id="Oval" stroke="#D7D7D7" stroke-width="0.5" fill="#F9F9F9" fill-rule="nonzero" cx="30" cy="30" r="30"></circle>
                <g id="Uu-dai" transform="translate(12.000000, 12.000000)">
                    <rect id="Bounding-box" fill-rule="nonzero" x="0" y="0" width="36" height="36"></rect>
                    <g id="air-conditioner" transform="translate(3.000000, 9.000000)">
                        <path d="M28.5000179,0 L1.49998213,0 C0.673026136,0 0,0.698850749 0,1.55767565 L0,11.9423243 C0,12.8011493 0.673026136,13.5 1.49998213,13.5 L28.5000179,13.5 C29.3270334,13.5 30,12.8010874 30,11.9423243 L30,1.55767565 C30,0.698850749 29.3270334,0 28.5000179,0 Z M13.0000437,3.63461776 L17.0000695,3.63461776 C17.2766012,3.63461776 17.5000496,3.86672257 17.5000496,4.15382236 C17.5000496,4.44092215 17.2765416,4.67302696 17.0000695,4.67302696 L13.0000437,4.67302696 C12.723518,4.67302696 12.5000695,4.44092215 12.5000695,4.15382236 C12.5000695,3.86672257 12.723518,3.63461776 13.0000437,3.63461776 Z M27.5000159,11.4230579 L2.49999007,11.4230579 C2.22346437,11.4230579 2.00001589,11.1909531 2.00001589,10.9038533 C2.00001589,10.6166916 2.22352395,10.3846487 2.49999007,10.3846487 L27.5000159,10.3846487 C27.7765356,10.3846487 27.9999841,10.6167535 27.9999841,10.9038533 C27.9999841,11.1910149 27.7765356,11.4230579 27.5000159,11.4230579 Z M27.5000159,9.34617764 L2.49999007,9.34617764 C2.22346437,9.34617764 2.00001589,9.11407283 2.00001589,8.82697304 C2.00001589,8.53981139 2.22352395,8.30776845 2.49999007,8.30776845 L27.5000159,8.30776845 C27.7765356,8.30776845 27.9999841,8.53987325 27.9999841,8.82697304 C27.9999841,9.11407283 27.7765356,9.34617764 27.5000159,9.34617764 Z" id="Shape" fill="#0E72E1" fill-rule="nonzero"></path>
                        <path d="M15.2299696,16.056185 C14.7729493,15.8192269 14.5,15.5182342 14.5,15.2502416 C14.5,14.982249 14.7730089,14.6807797 15.2299696,14.443762 C15.4749806,14.3167648 15.5709478,14.0152955 15.4439447,13.7702958 C15.3169417,13.5252962 15.0149223,13.4287974 14.7699708,13.5563307 C13.9510038,13.9808061 13.5,14.5822556 13.5,15.2502416 C13.5,15.9182275 13.9510038,16.519677 14.7699708,16.943676 C15.2269911,17.1806936 15.4999404,17.4821629 15.4999404,17.7501555 C15.4999404,18.0181481 15.2269316,18.3191409 14.7699708,18.556099 C14.5249598,18.6830962 14.4289927,18.9845655 14.5559957,19.2300417 C14.6449931,19.4015355 14.8194734,19.5 15.0005063,19.5 C15.0775302,19.5 15.1569965,19.4820107 15.2300292,19.4435303 C16.0489962,19.0195314 16.5,18.4180819 16.5,17.750096 C16.5,17.08211 16.0489962,16.4806605 15.2299696,16.056185 Z" id="Path" fill="#AEB7C3"></path>
                        <path d="M9.22996962,17.5563057 C8.77294931,17.3192963 8.5,17.0183736 8.5,16.7503904 C8.5,16.4824072 8.77300888,16.1809484 9.22996962,15.9439391 C9.47498064,15.8169464 9.57094776,15.5154876 9.44394472,15.2704965 C9.31694168,15.0255054 9.0144457,14.9285335 8.76997081,15.0565388 C7.95100375,15.4809994 7.5,16.0824278 7.5,16.7503904 C7.5,17.418353 7.95100375,18.0197814 8.76997081,18.4437655 C9.22699112,18.6807748 9.49994043,18.9822336 9.49994043,19.2502168 C9.49994043,19.5182 9.22693155,19.8191823 8.76997081,20.0561321 C8.52495979,20.1831248 8.42899267,20.4845835 8.55599571,20.7300512 C8.64499315,20.901539 8.8194734,21 9.00050634,21 C9.07753023,21 9.15699649,20.9820114 9.23002919,20.9435323 C10.0489962,20.5195482 10.5,19.9181198 10.5,19.2501573 C10.5,18.5821947 10.0489367,17.9807663 9.22996962,17.5563057 Z" id="Path" fill="#AEB7C3"></path>
                        <path d="M21.2299696,17.5563057 C20.7729493,17.3192963 20.5,17.0183736 20.5,16.7503904 C20.5,16.4824072 20.7730089,16.1809484 21.2299696,15.9439391 C21.4749806,15.8169464 21.5709478,15.5154876 21.4439447,15.2704965 C21.3169417,15.0255054 21.0144457,14.9285335 20.7699708,15.0565388 C19.9510038,15.4809994 19.5,16.0824278 19.5,16.7503904 C19.5,17.418353 19.9510038,18.0197814 20.7699708,18.4437655 C21.2269911,18.6807748 21.4999404,18.9822336 21.4999404,19.2502168 C21.4999404,19.5182 21.2269316,19.8191823 20.7699708,20.0561321 C20.5249598,20.1831248 20.4289927,20.4845835 20.5559957,20.7300512 C20.6449931,20.901539 20.8194734,21 21.0005063,21 C21.0775302,21 21.1569965,20.9820114 21.2300292,20.9435323 C22.0489962,20.5195482 22.5,19.9181198 22.5,19.2501573 C22.5,18.5821947 22.0489962,17.9807663 21.2299696,17.5563057 Z" id="Path" fill="#AEB7C3"></path>
                    </g>
                </g>
            </g>
        </g>
    </g>
</svg>