<?xml version="1.0" encoding="UTF-8"?>
<svg width="62px" height="62px" viewBox="0 0 62 62" version="1.1" xmlns="http://www.w3.org/2000/svg" xmlns:xlink="http://www.w3.org/1999/xlink">
    <title>ic_mc</title>
    <g id="Case-Form" stroke="none" stroke-width="1" fill="none" fill-rule="evenodd">
        <g id="HD-SÃISON" transform="translate(-898.000000, -8545.000000)">
            <g id="Group" transform="translate(899.000000, 8546.000000)">
                <circle id="Oval" stroke="#D7D7D7" stroke-width="0.5" fill="#F9F9F9" fill-rule="nonzero" cx="30" cy="30" r="30"></circle>
                <g id="Icons/Comon/navigations/offer/active" transform="translate(12.000000, 12.000000)">
                    <g id="Uu-dai" transform="translate(-0.000000, 0.000000)">
                        <rect id="Bounding-box" fill-rule="nonzero" x="0" y="0" width="36" height="36"></rect>
                        <g id="vespa" transform="translate(18.000000, 18.750000) scale(-1, 1) translate(-18.000000, -18.750000) translate(-0.000000, 7.500000)">
                            <path d="M18.4232533,7.5 L32.0711647,7.5 C32.228847,7.5 32.3747871,7.41861899 32.4427247,7.29136868 C32.8562215,6.52046856 33.2277815,5.72367448 32.8302207,5.20579531 C32.4494346,4.70493218 31.5201151,4.5 29.6187008,4.5 C28.4092435,4.5 26.8802279,4.58508015 25.2648224,4.67533909 C23.2568886,4.78705302 20.9830754,4.91430333 18.7461667,4.91430333 C18.5977104,4.91430333 18.4609964,4.9838471 18.3880264,5.09704069 C18.3527995,5.15178792 18.039951,5.66818742 18.0013691,6.89926017 C17.9971755,7.00505549 18.0030466,7.09531443 18.0131114,7.17669544 C18.036596,7.36017263 18.2127306,7.5 18.4232533,7.5 Z" id="Path" fill="#F7A600"></path>
                            <path d="M34.7572429,13.4747957 L34.9924385,13.3939517 C35.1228361,13.347189 35.2196343,13.2386043 35.2476338,13.1030717 L35.4948292,11.9126039 C35.5236287,11.7770713 35.4764295,11.6359906 35.3716315,11.5432577 L34.0652558,10.3884564 C33.9948571,10.3266345 33.9044587,10.290968 33.8116605,10.2893828 L32.22289,10.2576793 C31.9060959,9.98899183 30.9781131,9.19957376 30.5597209,8.85321263 C30.4893222,8.79456108 30.3997238,8.76285755 30.3077255,8.76285755 L18.2815489,8.76285755 C18.1535513,8.76285755 18.0343535,8.82388685 17.9607549,8.92771594 C17.8871562,9.03075243 17.8687566,9.1631147 17.9111558,9.28279555 C18.0111539,9.56178667 18.2151501,9.7995632 18.4967449,10.1300726 C18.7975393,10.4819818 19.2103317,10.9638756 19.6911227,11.7255531 C20.0343164,12.2708539 20.0983152,12.8288361 19.8815192,13.387611 C19.5399255,14.2626286 18.5959431,14.9442546 18.0431533,15.0996019 C17.6023615,15.2248309 16.8487755,15.2985416 16.0271908,15.2985416 C14.7264149,15.2985416 13.3736401,15.1170389 12.2192615,14.7865295 C10.0769013,14.1722735 9.66890888,9.4024764 9.89690464,8.57739186 C10.0233023,8.11689799 10.5864918,6.58878752 11.1312817,5.11140271 C11.2848789,4.69370861 11.4176764,4.33466606 11.5344742,4.01604551 C11.6304724,4.08262294 11.7000712,4.12780048 11.7048711,4.13097083 C11.7704698,4.17218543 11.8424685,4.19200014 11.9152672,4.19200014 C12.0456647,4.19200014 12.1728624,4.12780048 12.247261,4.01128998 C12.3640588,3.82899465 12.3096598,3.58884036 12.1264632,3.47312245 C12.1248633,3.47232986 11.9832659,3.38197478 11.8128691,3.25199028 C11.8952675,3.02293222 11.9648662,2.82874806 12.0224652,2.66547485 C12.029665,2.66626744 12.0368649,2.66785261 12.0432648,2.66943779 C12.084064,2.79308158 12.1800622,2.89611808 12.3168597,2.92940679 C12.8864491,3.06731718 13.4184392,3.25674581 13.4240391,3.25912357 C13.4680383,3.27497534 13.5128375,3.28290123 13.5576367,3.28290123 C13.7192336,3.28290123 13.8696309,3.18382767 13.9280298,3.02530999 C14.0016284,2.82319994 13.8960304,2.59889742 13.6920342,2.52677188 C13.6688346,2.51884599 13.1168448,2.32149148 12.5040562,2.17327744 C12.3776586,2.1415739 12.2544609,2.18120333 12.1616626,2.25887699 C12.2616607,1.95769339 12.2904602,1.82929407 12.2904602,1.75637593 C12.2904602,1.02957235 9.55211105,0.0293257715 8.69932689,0 C8.44813155,0 8.22813564,0.103829083 8.06253871,0.299598422 C7.44895011,1.02481682 7.77694402,3.06731718 7.84894268,3.46995209 C7.87854213,3.63877343 8.01613958,3.76717275 8.18813638,3.78857264 L9.21931723,3.91459419 C8.87292366,5.00598845 7.33535222,8.39271875 7.0081583,8.89759758 C6.93055974,9.00855995 6.41296935,9.09970762 6.16417397,9.14329999 C5.63218385,9.23682542 5.1289932,9.32480273 4.93779675,9.70366 C4.74260038,10.0912357 4.75780009,10.7506693 4.7841996,11.1128822 C4.7250007,11.111297 4.66740177,11.1009934 4.60820287,11.1009934 C2.7866367,11.1009934 1.08986822,12.0734994 0.180285113,13.6325208 C-0.0197111724,13.9757116 -0.0533105483,14.3062209 0.0794869852,14.6169156 C0.2186844,14.9394991 0.553878174,15.2161124 1.00266984,15.4641926 C0.405080938,16.206848 0.0450876241,17.1428949 0.0450876241,18.1637488 C0.0450876241,20.5541954 2.00745118,22.5 4.42020636,22.5 C6.83296155,22.5 8.7953251,20.5541954 8.7953251,18.1637488 C8.7953251,18.0480309 8.78652527,17.9323129 8.77772543,17.816595 C9.16971815,17.959261 9.68010867,18.1962449 9.82330601,18.2707482 C9.96650335,18.3460441 10.0849012,18.2628223 10.1097007,18.1463118 C10.1353002,18.0290087 10.1840993,17.7135585 10.1960991,17.4884634 C11.3584775,18.4245104 12.6056543,18.4910878 14.4416202,18.4910878 L24.5862318,18.4910878 C24.9502251,20.7578907 26.9309883,22.4984148 29.3197439,22.4984148 C31.9660947,22.4984148 34.1196547,20.366352 34.1196547,17.7428843 C34.1196547,17.6025962 34.1100549,17.4646858 34.0988551,17.3291532 C35.4924292,17.1341764 35.719625,16.9051184 35.828423,16.7933634 C35.9780202,16.6427716 36.0036198,16.480291 35.9996198,16.3740841 C35.9684204,15.5117479 35.1932348,14.1667254 34.7572429,13.4747957 Z" id="Path" fill="#0E72E1" fill-rule="nonzero"></path>
                            <path d="M6.82816164,18.1629562 C6.82816164,19.4778604 5.7481817,20.5486473 4.42020636,20.5486473 C3.09223103,20.5486473 2.01225109,19.4778604 2.01225109,18.1629562 C2.01225109,17.3703678 2.40824373,16.67289 3.00983256,16.2377589 C3.73301913,16.4509652 4.52660439,16.6491123 5.34178925,16.8488446 C5.76178145,16.9518811 6.18577357,17.0580879 6.60096586,17.1635022 C6.74336321,17.4710265 6.82816164,17.8054988 6.82816164,18.1629562 Z" id="Path" fill="#F7A600" fill-rule="nonzero"></path>
                            <path d="M32.1508913,17.7412991 C32.1508913,19.2892243 30.8797149,20.5478547 29.3181439,20.5478547 C27.7565729,20.5478547 26.4861965,19.2892243 26.4861965,17.7412991 C28.558958,17.72624 30.8013164,17.5994258 32.1276917,17.5146189 C32.1340916,17.5907073 32.1508913,17.6652107 32.1508913,17.7412991 Z" id="Path" fill="#F7A600" fill-rule="nonzero"></path>
                        </g>
                    </g>
                </g>
            </g>
        </g>
    </g>
</svg>