<?xml version="1.0" encoding="UTF-8"?>
<svg width="62px" height="62px" viewBox="0 0 62 62" version="1.1" xmlns="http://www.w3.org/2000/svg" xmlns:xlink="http://www.w3.org/1999/xlink">
    <title>ic_tickets</title>
    <g id="Case-Form" stroke="none" stroke-width="1" fill="none" fill-rule="evenodd">
        <g id="HD-SÃISON" transform="translate(-1237.000000, -8545.000000)" fill-rule="nonzero">
            <g id="Group" transform="translate(1238.000000, 8546.000000)">
                <circle id="Oval" stroke="#D7D7D7" stroke-width="0.5" fill="#F9F9F9" cx="30" cy="30" r="30"></circle>
                <g id="Uu-dai" transform="translate(12.000000, 12.000000)">
                    <rect id="Bounding-box" x="0" y="0" width="36" height="36"></rect>
                    <g id="ic_flight_takeoff_48px" transform="translate(3.000000, 6.000000)" fill="#0E72E1">
                        <polygon id="Path" points="0.9375 22.6666667 29.0625 22.6666667 29.0625 24 0.9375 24"></polygon>
                        <path d="M29.9234818,8.81965812 C29.6053829,7.65726496 28.3921688,6.96709402 27.2085453,7.27948718 L19.3448467,9.35 L9.13609394,0 L6.28060223,0.755555556 L12.4058539,11.1807692 L5.05259284,13.1132479 L2.1453176,10.8683761 L0,11.4350427 L2.69274348,16.0192308 L3.82458345,17.9444444 L6.19922811,17.3196581 L14.0629268,15.2491453 L20.4914819,13.5564103 L28.3551806,11.4858974 C29.5388041,11.1735043 30.2415806,9.98205128 29.9234818,8.81965812 Z" id="Path"></path>
                    </g>
                </g>
            </g>
        </g>
    </g>
</svg>