<svg width="24" height="24" viewBox="0 0 24 24" fill="none" xmlns="http://www.w3.org/2000/svg">
<g id="Frame" clip-path="url(#clip0_1287_3725)">
<g id="Group">
<path id="Vector" d="M11.9996 10.8008C10.6762 10.8008 9.59961 11.8773 9.59961 13.2008C9.59961 14.5242 10.6762 15.6008 11.9996 15.6008C13.3231 15.6008 14.3996 14.5242 14.3996 13.2008C14.3996 11.8773 13.3231 10.8008 11.9996 10.8008ZM11.9996 14.8008C11.1174 14.8008 10.3996 14.0832 10.3996 13.2008C10.3996 12.3184 11.1174 11.6008 11.9996 11.6008C12.8819 11.6008 13.5996 12.3184 13.5996 13.2008C13.5996 14.0832 12.8819 14.8008 11.9996 14.8008Z" fill="#0090DA"/>
<path id="Vector_2" d="M12 0C5.3832 0 0 5.3832 0 12C0 18.6168 5.3832 24 12 24C18.6168 24 24 18.6168 24 12C24 5.3832 18.6168 0 12 0ZM12 23.2C5.8242 23.2 0.8 18.1758 0.8 12C0.8 5.8242 5.8242 0.8 12 0.8C18.1758 0.8 23.2 5.8242 23.2 12C23.2 18.1758 18.1758 23.2 12 23.2Z" fill="#0090DA"/>
<path id="Vector_3" d="M12.0004 2.40039C6.70704 2.40039 2.40039 6.70704 2.40039 12.0004C2.40039 17.2937 6.70704 21.6004 12.0004 21.6004C17.2937 21.6004 21.6004 17.2937 21.6004 12.0004C21.6004 6.70704 17.2937 2.40039 12.0004 2.40039ZM12.0004 3.20039C15.7396 3.20039 18.9394 5.54564 20.2118 8.84164L17.2149 9.84059C16.1869 10.1832 15.0756 10.1296 14.0848 9.68904C12.7602 9.09999 11.2404 9.09999 9.91624 9.68904L9.76469 9.75624C8.86389 10.157 7.84264 10.2379 6.88909 9.98359L3.68399 9.12889C4.87739 5.68269 8.15344 3.20039 12.0004 3.20039ZM3.20039 12.0004C3.20039 11.9189 3.20434 11.8383 3.20659 11.7574L3.48439 11.85C7.42819 13.1645 10.2172 16.6101 10.7133 20.7053C6.46904 20.0805 3.20039 16.4155 3.20039 12.0004ZM12.0004 20.8004C11.8415 20.8004 11.6838 20.7956 11.527 20.7873C11.0543 16.3072 8.03329 12.5231 3.73749 11.0914L3.26719 10.9346C3.30936 10.5849 3.3726 10.238 3.45659 9.89594L6.68279 10.7563C7.11338 10.871 7.55709 10.929 8.00269 10.9289C8.71754 10.9289 9.43064 10.7805 10.0894 10.4875L10.2409 10.4203C11.3589 9.92269 12.6413 9.92309 13.7608 10.4207C14.9337 10.9414 16.2501 11.0055 17.4679 10.5992L20.4648 9.60024C20.589 10.0374 20.6788 10.4835 20.7335 10.9346L20.2632 11.0914C15.9673 12.5231 12.9464 16.3072 12.4737 20.7873C12.317 20.7956 12.1592 20.8004 12.0004 20.8004ZM13.2875 20.7053C13.7836 16.6101 16.5726 13.1645 20.5164 11.85L20.7942 11.7574C20.7964 11.8383 20.8004 11.9189 20.8004 12.0004C20.8004 16.4155 17.5317 20.0805 13.2875 20.7053Z" fill="#0090DA"/>
</g>
</g>
<defs>
<clipPath id="clip0_1287_3725">
<rect width="24" height="24" fill="white"/>
</clipPath>
</defs>
</svg>
