<svg width="41" height="40" viewBox="0 0 41 40" fill="none" xmlns="http://www.w3.org/2000/svg">
<rect x="0.666016" width="40" height="40" rx="20" fill="#FEF2F2"/>
<g clip-path="url(#clip0_1287_3630)">
<path d="M20.6653 11.2715C19.4615 11.2715 18.4824 12.2505 18.4824 13.4544C18.4824 14.6582 19.4615 15.6373 20.6653 15.6373C21.8692 15.6373 22.8482 14.6582 22.8482 13.4544C22.8482 12.2506 21.8691 11.2715 20.6653 11.2715ZM20.6653 14.5464C20.0634 14.5464 19.5734 14.0563 19.5734 13.4544C19.5734 12.8525 20.0634 12.3624 20.6653 12.3624C21.2673 12.3624 21.7573 12.8525 21.7573 13.4544C21.7573 14.0563 21.2673 14.5464 20.6653 14.5464Z" fill="#7F1D1D"/>
<path d="M32.1206 17.8182C32.4221 17.8182 32.6661 17.5757 32.6661 17.2742V15.0927C32.6661 14.9004 32.5649 14.722 32.3992 14.6239L21.7292 8.28743C21.7244 8.2842 21.7196 8.28155 21.7148 8.27889C21.0517 7.91137 20.3038 7.90022 19.6023 8.28635L8.9329 14.6239C8.85153 14.6722 8.78413 14.7407 8.73733 14.8229C8.69054 14.9051 8.66596 14.9981 8.66602 15.0927V17.2742C8.66602 17.5757 8.90999 17.8182 9.21149 17.8182H10.8479V27.6368C9.64451 27.6368 8.66602 28.6152 8.66602 29.8184V31.4546C8.66598 31.5263 8.68006 31.5972 8.70746 31.6634C8.73486 31.7296 8.77503 31.7897 8.82569 31.8404C8.87635 31.8911 8.9365 31.9312 9.0027 31.9586C9.0689 31.986 9.13985 32.0001 9.21149 32H32.1206C32.1922 32.0001 32.2632 31.986 32.3294 31.9586C32.3956 31.9312 32.4557 31.8911 32.5064 31.8404C32.557 31.7897 32.5972 31.7296 32.6246 31.6634C32.652 31.5972 32.6661 31.5263 32.6661 31.4546V29.8184C32.6661 28.6152 31.6876 27.6368 30.4842 27.6368V17.8182H32.1206ZM31.5751 29.8182V30.9091H9.75691V29.8182C9.75691 29.2168 10.2464 28.7273 10.8478 28.7273H30.4842C31.0856 28.7273 31.5751 29.2168 31.5751 29.8182ZM11.9387 27.6364V17.8182H14.1206V27.6364H11.9387ZM15.2115 27.6364V17.8182H18.4842V27.6364H15.2115ZM19.5751 27.6364V17.8182H21.7569V27.6364H19.5751ZM22.8478 27.6364V17.8182H26.1206V27.6364H22.8478ZM27.2115 27.6364V17.8182H29.3933V27.6364H27.2115ZM9.75691 16.7273V15.4015L20.1435 9.231C20.4833 9.04404 20.8445 9.04455 21.1801 9.22726L31.5751 15.4015V16.7273H9.75691Z" fill="#7F1D1D"/>
</g>
<defs>
<clipPath id="clip0_1287_3630">
<rect width="24" height="24" fill="white" transform="translate(8.66602 8)"/>
</clipPath>
</defs>
</svg>
