<svg width="41" height="40" viewBox="0 0 41 40" fill="none" xmlns="http://www.w3.org/2000/svg">
<rect x="0.333984" width="40" height="40" rx="20" fill="#E7E3F2"/>
<path d="M27.4813 20.3271L20.5025 23.9534C20.4491 23.9811 20.3898 23.9956 20.3296 23.9956C20.2695 23.9956 20.2102 23.9811 20.1568 23.9534L13.178 20.3271C12.7415 20.0913 13.0873 19.4414 13.5238 19.6619L20.3296 23.1981L27.1355 19.6619C27.1793 19.6376 27.2276 19.6224 27.2774 19.617C27.3272 19.6117 27.3775 19.6164 27.4255 19.6309C27.4734 19.6453 27.518 19.6692 27.5566 19.7012C27.5951 19.7332 27.6269 19.7725 27.65 19.817C27.6731 19.8614 27.6871 19.91 27.6911 19.96C27.6951 20.0099 27.689 20.0601 27.6733 20.1077C27.6576 20.1552 27.6325 20.1991 27.5995 20.2368C27.5665 20.2745 27.5263 20.3052 27.4813 20.3271ZM14.0521 18.2163L14.0476 18.2133L20.0139 8.91702C20.1523 8.70214 20.5066 8.70214 20.6454 8.91702L26.6116 18.2133L26.6071 18.2163C26.7384 18.3903 26.6596 18.6528 26.468 18.7491L20.5018 21.8279C20.4485 21.8552 20.3895 21.8695 20.3296 21.8695C20.2698 21.8695 20.2108 21.8552 20.1575 21.8279L14.1913 18.7491C14.0004 18.6528 13.9205 18.3903 14.0521 18.2163ZM14.9015 18.2714L20.3296 21.0723L23.0437 19.6718L25.7578 18.2714L20.3296 9.81402L14.9015 18.2714ZM25.6591 23.2608L20.6454 31.072C20.5089 31.3 20.1504 31.2981 20.0139 31.072L15.0001 23.2608C14.9691 23.204 14.9514 23.1409 14.9482 23.0763C14.945 23.0117 14.9565 22.9472 14.9818 22.8876C15.0302 22.8022 15.1089 22.738 15.2023 22.7077C15.2958 22.6775 15.3972 22.6833 15.4865 22.7241L20.3296 25.1984L25.1728 22.7241C25.3993 22.621 25.6771 22.753 25.7105 23.0054C25.724 23.095 25.6966 23.1816 25.6591 23.2608ZM24.2784 24.0235L20.5006 25.9533C20.4478 25.9803 20.3893 25.9943 20.33 25.9943C20.2707 25.9943 20.2122 25.9803 20.1594 25.9533L16.3816 24.0235L20.33 30.1754L24.2784 24.0235Z" fill="#15034B"/>
</svg>
